<?xml version="1.0" standalone="no"?>
<!DOCTYPE svg PUBLIC "-//W3C//DTD SVG 1.1//EN" "http://www.w3.org/Graphics/SVG/1.1/DTD/svg11.dtd" >
<svg xmlns="http://www.w3.org/2000/svg" xmlns:xlink="http://www.w3.org/1999/xlink" version="1.1">
<metadata>
Created by FontForge 20201107 at Mon Aug  9 07:51:00 2004
 By 
Copyright (c) 2004, SUDTIPOS. Expanded and digitized from the Bluemlein Script collection by Alejandro Paul. All rights reserved.
</metadata>
<defs>
<font id="MrLeopolde" horiz-adv-x="459" >
  <font-face 
    font-family="Mr Leopolde"
    font-weight="400"
    font-stretch="normal"
    units-per-em="1000"
    panose-1="2 0 5 3 6 0 0 2 0 4"
    ascent="800"
    descent="-200"
    x-height="234"
    cap-height="734"
    bbox="-281 -570 1172 885"
    underline-thickness="50"
    underline-position="-100"
    unicode-range="U+0020-FB02"
  />
<missing-glyph horiz-adv-x="347" 
 />
    <glyph glyph-name=".notdef" horiz-adv-x="347" 
 />
    <glyph glyph-name=".null" horiz-adv-x="0" 
 />
    <glyph glyph-name="nonmarkingreturn" horiz-adv-x="347" 
 />
    <glyph glyph-name="space" unicode=" " horiz-adv-x="347" 
 />
    <glyph glyph-name="space" unicode="&#xa0;" horiz-adv-x="347" 
 />
    <glyph glyph-name="exclam" unicode="!" horiz-adv-x="583" 
d="M697 709q0 -2 -2 -4t-5 -6q-124 -138 -203 -241t-125 -172.5t-65 -105.5t-23 -41q-1 0 -2 1q-2 2 -2 6q0 6 4 15q30 52 53.5 91.5t46.5 75t47.5 71t56.5 80t75 102.5t101 138l4 2t5 1q6 0 20 -3.5t14 -9.5zM232 34q0 -8 -2 -13q-6 -13 -17 -22t-22 -9q-15 0 -15 17
q0 7 3 14q5 14 16 22.5t22 8.5q15 0 15 -18z" />
    <glyph glyph-name="quotedbl" unicode="&#x22;" horiz-adv-x="244" 
d="M324 615q0 -23 -19 -54t-50 -66q-7 -8 -12 -8q-3 0 -3 4t4 9q21 28 33.5 54t14.5 49q0 5 3.5 9t8 6.5t8.5 4t5 1.5q7 0 7 -9zM253 615q0 -23 -19 -54t-50 -66q-7 -8 -12 -8q-3 0 -3 4t4 9q21 28 33.5 54t14.5 49q0 5 3.5 9t8 6.5t8.5 4t5 1.5q7 0 7 -9z" />
    <glyph glyph-name="numbersign" unicode="#" horiz-adv-x="515" 
d="M550 416q0 -2 -2.5 -9.5t-16.5 -7.5h-112l-20 -79h119q5 0 5 -4q0 -2 -2.5 -9.5t-16.5 -7.5h-111l-31 -123q-2 -8 -4 -9t-3 -1q-7 0 -10 7t-3 13l29 113h-91l-31 -123q-2 -8 -4 -9t-3 -1q-7 0 -10 7t-3 13l29 113h-125q-4 0 -6 1l-4 2t-2 2q0 8 6 12t11 4h125l20 79h-123
q-4 0 -6 1l-4 2t-2 2q0 8 6 12t11 4h124l34 134q0 3 3 3t9 -3t6 -14v-5l-30 -115h91l34 134q0 3 3 3t9 -3t6 -14v-5l-30 -115h121q5 0 5 -4zM306 399l-20 -79h90l20 79h-90z" />
    <glyph glyph-name="dollar" unicode="$" horiz-adv-x="589" 
d="M700 570q0 -17 -6.5 -26.5t-13.5 -9.5q-13 0 -14 25q-4 25 -14 42.5t-22.5 28.5t-28 17.5t-31.5 9.5l-139 -272l48 -36t42.5 -38t30 -42.5t11.5 -48.5q0 -49 -22 -99t-63 -90.5t-99 -65.5t-130 -25q-23 0 -43 3l-46 -90q-2 -5 -4 -7l-4 -4t-3 -1q-7 0 -7 7q0 5 1.5 9.5
t3.5 7.5l41 81q-50 10 -77 34.5t-39.5 50t-14.5 46t-2 22.5q0 17 7 26t14 9q10 0 10 -17q0 -11 4.5 -30.5t17.5 -40.5t36.5 -39.5t60.5 -28.5l194 380q-24 14 -46 29t-39 32.5t-27 38.5t-10 48q0 29 20.5 61t55 59.5t81 45.5t97.5 18q17 0 36 -3l44 86q2 4 6 4l4 -2t2 -9
q0 -7 -4 -14l-35 -68q22 -5 42.5 -14t37 -23.5t26.5 -33.5t10 -43zM553 660q-8 1 -16.5 1h-16.5q-54 0 -93.5 -13.5t-65 -33t-37.5 -42.5t-12 -41q0 -21 8.5 -39t23.5 -34.5t34 -32t40 -30.5l135 265v0zM542 209q0 25 -11 44.5t-29 36t-41.5 31t-47.5 28.5l-191 -375
q11 -2 22.5 -3t25.5 -1q63 0 113 21t85.5 55t54.5 77t19 86z" />
    <glyph glyph-name="percent" unicode="%" horiz-adv-x="839" 
d="M849 283q0 -36 -19 -86.5t-51 -97t-74.5 -79.5t-89.5 -33q-4 0 -16 1.5t-25 11t-23 29t-10 55.5q0 66 31 126q-10 9 -12.5 21t-2.5 20q0 11 2.5 19.5t5.5 15.5q4 8 7 15q6 7 10 7q3 0 3 -4q0 -2 -2 -6q-6 -8 -10 -20.5t-4 -24.5q0 -20 10 -30q20 37 46.5 68t54.5 53.5
t55.5 35.5t48.5 13q3 0 7.5 -2t5.5 -8q0 -2 -1 -4t-5 -2q-2 0 -4 1q-1 1 -3 1h-8q-18 0 -42 -13t-49 -35t-48.5 -52t-41.5 -64h9q28 0 51.5 20t47 43.5t49 43.5t57.5 20q5 0 12 -2t13 -8t10.5 -17.5t4.5 -31.5zM730 798q0 -7 -4 -14l-459 -899q-2 -5 -4 -7l-4 -4t-3 -1
q-7 0 -7 7q0 5 1.5 9.5t3.5 7.5l464 908q2 4 6 4l4 -2t2 -9zM486 591q0 -36 -19 -86.5t-51 -97t-74.5 -79.5t-89.5 -33q-4 0 -16 1.5t-25 11t-23 29t-10 55.5q0 66 31 126q-10 9 -12.5 21t-2.5 20q0 11 2.5 19.5t5.5 15.5q4 8 7 15q6 7 10 7q3 0 3 -4q0 -2 -2 -6
q-6 -8 -10 -20.5t-4 -24.5q0 -20 10 -30q20 37 46.5 68t54.5 53.5t55.5 35.5t48.5 13q3 0 7.5 -2t5.5 -8q0 -2 -1 -4t-5 -2q-2 0 -4 1q-1 1 -3 1h-8q-18 0 -42 -13t-49 -35t-48.5 -52t-41.5 -64h9q28 0 51.5 20t47 43.5t49 43.5t57.5 20q5 0 12 -2t13 -8t10.5 -17.5
t4.5 -31.5zM825 282q0 19 -6.5 30t-21.5 11q-25 0 -47 -19t-44 -42t-47.5 -42t-58.5 -19q-8 0 -11 1q-25 -53 -25 -104q0 -17 2.5 -33t9.5 -29t20 -20.5t34 -7.5q36 0 70.5 31t62.5 74.5t45 90t17 78.5zM462 590q0 19 -6.5 30t-21.5 11q-25 0 -47 -19t-44 -42t-47.5 -42
t-58.5 -19q-8 0 -11 1q-25 -53 -25 -104q0 -17 2.5 -33t9.5 -29t20 -20.5t34 -7.5q36 0 70.5 31t62.5 74.5t45 90t17 78.5z" />
    <glyph glyph-name="ampersand" unicode="&#x26;" horiz-adv-x="546" 
d="M734 285q0 -2 -2.5 -10.5t-19.5 -8.5h-88q-24 -36 -58 -75t-76 -76q-1 -7 -1.5 -13.5t-0.5 -13.5q0 -23 6.5 -41t23.5 -29q1 0 2 -1t1 -3t-2 -5.5t-11 -3.5q-3 0 -9.5 1.5t-13.5 7.5t-12.5 19t-6.5 35v7q0 4 0.5 9t1.5 12q-34 -28 -72.5 -52.5t-79.5 -42.5t-84 -28.5
t-87 -10.5q-59 0 -93 15.5t-51.5 37.5t-22 45.5t-4.5 39.5q0 28 8 51t19 40q12 20 27 36q19 22 44 41.5t52.5 36t56 30.5t55.5 25q63 26 131 45q35 8 49 14.5t14 11.5q0 7 -18 10.5t-45 6.5t-58 7t-58 11t-45 19t-18 31q0 29 20.5 57t53.5 54t75.5 48.5t86.5 38.5t86 25.5
t74 9.5q12 0 25.5 -1.5t24.5 -4.5t18.5 -7t7.5 -10v-2q0 -1 -1 -1q-2 -5 -6 -9q-7 -9 -16 -9q-2 1 -22 4t-52 3q-60 0 -122.5 -16t-113.5 -42t-83.5 -59t-32.5 -67q0 -16 19.5 -24.5t49 -12.5t64 -6t64 -6t49 -11.5t19.5 -23.5q0 -13 -20.5 -26t-79.5 -27q-51 -13 -101 -31
q-43 -16 -90.5 -38.5t-85.5 -51.5q-27 -20 -48 -45q-18 -21 -33 -49.5t-15 -60.5q0 -24 6.5 -46.5t24.5 -39.5t50 -27.5t82 -10.5q40 0 80 10.5t79 29t76.5 42.5t70.5 51q5 28 16.5 65t33.5 77h-69q-5 0 -7.5 1t-4.5 2t-2 2q0 10 7 14t12 4h78q15 23 34.5 46t44.5 44
q6 6 14 10q7 4 15.5 7t16.5 3q16 0 16 -19q0 -15 -10 -38.5t-28 -52.5h89q2 0 4 -1t2 -3zM650 346q0 14 -14 14q-10 -2 -23 -10q-11 -7 -26 -21t-32 -40h70q25 38 25 57zM540 266q-4 -5 -6 -10.5t-5 -10.5q-7 -14 -13 -31q-5 -14 -10.5 -32.5t-10.5 -38.5q35 32 64.5 63
t49.5 60h-69z" />
    <glyph glyph-name="quotesingle" unicode="'" horiz-adv-x="173" 
d="M253 615q0 -23 -19 -54t-50 -66q-7 -8 -12 -8q-3 0 -3 4t4 9q21 28 33.5 54t14.5 49q0 5 3.5 9t8 6.5t8.5 4t5 1.5q7 0 7 -9z" />
    <glyph glyph-name="parenleft" unicode="(" horiz-adv-x="426" 
d="M640 766q0 -3 -3 -6l-3 -3q-94 -55 -176 -127.5t-143 -158.5t-95.5 -184.5t-34.5 -205.5q0 -57 11 -116.5t34 -120.5q0 -2 -0.5 -5t-2.5 -3l-1 1q-1 1 -1.5 1t-1.5 2q-36 64 -52 127t-16 124q0 84 26 162t68 148t95 130.5t107 107.5t103 80t84 49h1q1 0 1 -2z" />
    <glyph glyph-name="parenright" unicode=")" horiz-adv-x="426" 
d="M465 513q0 -84 -26 -162t-68 -148t-95 -130.5t-107 -107.5t-103 -80t-84 -49h-1q-1 0 -1 2q0 3 3 6l3 3q95 55 176.5 127.5t142.5 159t95.5 184.5t34.5 205q0 57 -11 116.5t-34 120.5q0 2 0.5 5t2.5 3l1 -1q1 -1 1.5 -1t1.5 -2q36 -64 52 -127t16 -124z" />
    <glyph glyph-name="asterisk" unicode="*" horiz-adv-x="347" 
d="M319 470q0 -5 -14 -9l-53 -11l31 -26q6 -4 8.5 -10t2.5 -11q0 -3 -2 -6.5t-5 -3.5q-5 0 -13.5 9.5t-33.5 39.5l-15 -41q-2 -9 -8.5 -13.5t-11.5 -4.5q-8 0 -8 6q0 2 1 5t2 5q1 3 2 5l22 38q-23 -8 -36.5 -11t-15.5 -3q-15 0 -15 9q0 3 3 6t11 4l52 11q-29 24 -35 33.5
t-6 13.5q0 3 2 6.5t7 3.5t8 -5q2 -3 4 -5l33 -39q7 20 12.5 31.5t10 17.5t7.5 8t5 2q8 0 8 -6q0 -4 -2 -10q-1 -3 -3 -5l-23 -39q30 11 39.5 14t11.5 3q12 0 16 -8q1 -2 1 -4z" />
    <glyph glyph-name="plus" unicode="+" horiz-adv-x="419" 
d="M422 306q0 -2 -2.5 -9.5t-16.5 -7.5h-105l-20 -113q-2 -8 -4 -9t-3 -1q-7 0 -10 7t-3 13l18 103h-107q-4 0 -6 1l-4 2t-2 2q0 8 6 12t11 4h106l21 116q0 3 3 3t9 -3t6 -14v-5l-18 -97h116q5 0 5 -4z" />
    <glyph glyph-name="comma" unicode="," horiz-adv-x="323" 
d="M236 28q0 -20 -11 -37.5t-27 -30.5t-34.5 -20t-33.5 -7q-4 0 -4 2q0 4 5 4q10 1 23 6t25 12.5t20 17.5t8 22q-12 2 -17 8.5t-5 13.5q0 11 9 21.5t20 10.5q12 0 17 -7.5t5 -15.5z" />
    <glyph glyph-name="hyphen" unicode="-" horiz-adv-x="481" 
d="M456 133q0 -2 -2.5 -9.5t-16.5 -7.5h-234q-4 0 -6 1l-4 2t-2 2q0 8 6 12t11 4h243q5 0 5 -4z" />
    <glyph glyph-name="period" unicode="." horiz-adv-x="347" 
d="M232 34q0 -8 -2 -13q-6 -13 -17 -22t-22 -9q-15 0 -15 17q0 7 3 14q5 14 16 22.5t22 8.5q15 0 15 -18z" />
    <glyph glyph-name="slash" unicode="/" horiz-adv-x="454" 
d="M619 798q0 -7 -4 -14l-459 -899q-2 -5 -4 -7l-4 -4t-3 -1q-7 0 -7 7q0 5 1.5 9.5t3.5 7.5l464 908q2 4 6 4l4 -2t2 -9z" />
    <glyph glyph-name="zero" unicode="0" horiz-adv-x="598" 
d="M706 545q0 -47 -17 -109t-48.5 -127.5t-74.5 -129.5t-95 -114t-110.5 -80.5t-121.5 -30.5q-8 0 -32.5 3.5t-50.5 22t-46 57.5t-20 111q0 66 16.5 129t45.5 123q-20 17 -25 40.5t-5 40.5q0 21 5 39t11 32q7 16 15 30l5 5q5 5 10 5t5 -4q0 -2 -5 -10q-1 -1 -5.5 -8.5
t-9.5 -20.5t-9 -29t-4 -33q0 -18 6 -34t20 -27q39 73 92.5 135t109.5 107.5t110.5 71t96.5 25.5q6 0 15.5 -3.5t10.5 -16.5q0 -2 -2 -6.5t-10 -4.5q-4 0 -7 1q-2 0 -6 1t-17 1q-41 0 -92 -25t-103 -68.5t-100 -102t-84 -125.5q14 -7 37 -7q38 0 72 19t67 47t65 61t65 61
t67.5 47t72.5 19q9 0 23 -3.5t26.5 -15.5t21.5 -35.5t9 -63.5zM683 517q0 38 -10 59.5t-23.5 32.5t-27 13.5t-20.5 2.5q-34 0 -66 -18t-63 -45t-62 -58.5t-63.5 -58.5t-67 -45t-72.5 -18q-23 0 -41 8q-25 -51 -39 -105t-14 -108q0 -34 7.5 -67.5t25 -60.5t46.5 -43.5
t72 -16.5q56 0 108.5 28t99 73.5t85.5 103t66.5 116t43 113t15.5 94.5z" />
    <glyph glyph-name="one" unicode="1" horiz-adv-x="414" 
d="M586 689q0 -6 -6 -18q-9 -12 -18 -23q-8 -10 -15 -19.5t-12 -15.5q-35 -37 -70 -78q-30 -35 -64.5 -79.5t-63.5 -89.5q-55 -72 -100 -136q-19 -27 -38 -55.5t-34.5 -54t-26 -47t-13.5 -35.5q-1 -5 -3 -10q-3 -9 -3 -18q0 -10 6 -10q3 0 8 4q5 3 12.5 11t19.5 23
q5 6 10 10q11 9 18 9q5 0 5 -5q0 -2 -1.5 -5t-6.5 -7q-8 -6 -20.5 -21.5t-26.5 -32t-27.5 -29.5t-24.5 -13q-13 0 -13 19q0 18 7 37q4 10 7 20q6 15 19 38.5t30.5 51t38.5 58.5t42 61q49 70 108 149q5 7 14.5 20t21.5 29t26 34l28 36q33 42 72 92q18 23 23 36t5 20
q0 8 -3.5 9.5t-5.5 1.5q-9 0 -24.5 -7.5t-31.5 -17.5q-18 -11 -39 -26q-38 -20 -65.5 -35t-46.5 -25l-38 -19q-21 -11 -37 -13.5t-26 -2.5q-14 0 -24.5 5t-10.5 16q0 8 3 13.5t15 4.5q9 0 13 -2.5t17 -2.5q11 0 29.5 3t46.5 13t65.5 29t86.5 50q2 2 17.5 11.5t35.5 20.5
t41 20t34 9q5 0 9.5 -2t4.5 -9z" />
    <glyph glyph-name="two" unicode="2" horiz-adv-x="542" 
d="M628 554q0 -6 -3.5 -33t-24 -68t-66 -92t-129.5 -105q-27 -20 -65 -46q-32 -22 -79.5 -52t-110.5 -65q-39 -22 -70 -42q-13 -9 -25.5 -17.5t-22.5 -16.5t-16 -15t-6 -12q0 -7 19 -11t45.5 -6t54.5 -2.5t46 -0.5q45 0 101 6.5t105.5 20.5t83.5 36t34 52q0 22 -33 22
q-23 0 -40.5 -10t-29.5 -22q-14 -14 -25 -33q-2 -7 -10 -7q-7 0 -7 11q0 5 3 15q11 19 27 34q14 13 34.5 23t49.5 10q7 0 15 -1t15 -5t12 -10.5t5 -18.5q0 -29 -20 -51.5t-53 -39.5t-75 -28.5t-86 -19t-87 -10.5t-77 -3q-36 0 -63.5 2t-46.5 5q-22 4 -37 8q-9 3 -12.5 7.5
t-3.5 9.5t4 11q2 3 4 5q14 17 42 36t57 36q33 19 72 38q46 29 91 58t82 52q43 27 83 52q62 39 99 75t57 65q24 33 34 63q11 23 15.5 42.5t4.5 36.5q0 35 -11 57t-28.5 35t-38 18.5t-39.5 6.5q5 -23 5 -44q0 -46 -18 -96t-51 -91.5t-79 -68t-103 -26.5q-42 0 -60.5 20
t-18.5 52q0 37 22.5 83t62.5 87t93.5 71.5t116.5 35.5q-14 23 -37 37t-58 14q-10 0 -16.5 -1t-10.5 -1.5t-6.5 -1.5t-6.5 -1q-13 0 -13 9q0 11 13.5 17.5t30.5 6.5q51 0 82 -21.5t45 -56.5q17 0 42.5 -4t50.5 -17.5t42.5 -39t17.5 -69.5zM471 605q0 31 -9 56h-11
q-55 0 -103.5 -24.5t-84.5 -61t-56.5 -77.5t-20.5 -74q0 -29 16.5 -46.5t53.5 -17.5q50 0 90 23t67.5 59t42.5 79.5t15 83.5z" />
    <glyph glyph-name="three" unicode="3" horiz-adv-x="500" 
d="M576 586q0 -36 -24.5 -64t-60 -49t-74 -35.5t-65.5 -23.5q-12 -4 -22 -8q-8 -4 -14.5 -7.5t-6.5 -8.5q0 -2 3 -4.5t15 -5.5q39 -11 69 -32q26 -18 47 -49t21 -80t-24.5 -95t-66.5 -83q38 5 81.5 19t77.5 42l2 2q1 1 4 1q1 0 3 -2q1 0 1 -1v-4q0 -3 -2 -7t-10 -9
q-43 -26 -91 -40t-91 -21q-42 -30 -92.5 -47.5t-104.5 -17.5q-18 0 -48 5.5t-58.5 20.5t-49.5 42.5t-21 72.5v9.5t1 9.5l2 6q2 6 8 6q4 0 11 -4q35 -24 81 -43q39 -17 96 -30.5t129 -14.5q4 0 17 0.5t33 2.5q46 38 71 84.5t25 86.5q0 44 -25 71t-56 44q-36 19 -81 29
q-19 4 -25 9.5t-6 10.5q0 3 2 5q1 1 1 2q4 8 20 16.5t35 16.5q22 9 49 17q33 11 65 23.5t57 29.5t40.5 38.5t15.5 49.5q0 24 -12 40t-29 25.5t-36.5 13.5t-33.5 4q-32 0 -63 -10t-55 -23q-28 -15 -52 -33q-6 -5 -11 -5q-3 0 -5 2q-1 1 -2 1q-1 1 -1 4q0 5 5 10l5 5
q8 6 13.5 19t9.5 27q4 16 7 34q2 12 5 15t7 3q9 0 10 -13q0 -8 -2.5 -25.5t-15.5 -37.5q0 -1 -1 -2q-2 -2 -2 -5q0 -2 2 -2t6 3q22 15 48 26q22 10 50.5 17.5t60.5 7.5q9 0 30 -2.5t43 -11t38.5 -26t16.5 -47.5zM322 17q-30 -4 -53 -4.5t-36 -0.5q-57 0 -99.5 10t-71.5 22
q-33 14 -58 31q-4 4 -7 4q-2 0 -3 -2t-1 -4q4 -28 22 -48t41.5 -32t50.5 -17.5t49 -5.5q49 0 90.5 13t75.5 34z" />
    <glyph glyph-name="four" unicode="4" horiz-adv-x="580" 
d="M693 759q0 -6 -11.5 -21t-38.5 -40.5t-70 -63t-106 -88.5q-59 -43 -116 -87q-24 -19 -50 -39.5t-51.5 -42t-49.5 -42.5t-44 -40q-11 -12 -21 -23q-8 -10 -15 -20.5t-7 -18.5q0 -3 3 -7.5t12 -8.5t26.5 -6.5t45.5 -2.5q54 0 104.5 9.5t100.5 20.5q36 49 71 92.5t63 77.5
q33 40 62 73q1 1 3 2q4 2 6 2q6 0 6 -9q-1 -6 -5 -13q-7 -14 -22 -29q-51 -49 -92 -98.5t-74 -94.5q36 8 71 13t70 5q24 0 44 -4t32 -13l3 -3q3 -3 3 -7q0 -2 -2 -4q-1 -1 -2 -1q-5 0 -8 3q-2 2 -4 3q-8 7 -22.5 10t-32.5 3q-46 0 -87.5 -9t-81.5 -20q-26 -36 -44.5 -66.5
t-31.5 -53.5q-15 -26 -26 -48q-15 -24 -17.5 -37.5t-2.5 -18.5q0 -6 3 -6t11.5 8.5l18.5 18.5t20.5 18.5t18.5 8.5t8 -5q0 -3 -4 -5l-4 -2q-10 -5 -24 -17.5t-26 -25.5q-14 -15 -29 -33q-12 -12 -21 -12q-5 0 -6.5 4.5t-1.5 9.5q0 2 0.5 3t0.5 3v3q14 51 52 116t85 131
q-51 -16 -101 -29t-107 -13q-46 0 -77 9t-31 26q0 6 3 12.5t6 11.5l8 12q14 18 36.5 41t50 47.5t57.5 50t60 49.5q70 56 149 115q66 57 108.5 98t68.5 69q30 33 47 55q3 5 7 6.5t6 1.5q1 0 8.5 -2.5t7.5 -11.5z" />
    <glyph glyph-name="five" unicode="5" horiz-adv-x="527" 
d="M707 668q0 -3 -1 -5q-12 -17 -33 -30q-18 -11 -48.5 -21.5t-77.5 -12.5q-12 -1 -27 -2q-13 -1 -30 -1.5t-37 -0.5q-22 0 -45 1t-46 4q-3 0 -7 -1t-13 -8q-27 -30 -53 -66q-23 -31 -49 -72.5t-48 -90.5q0 -2 -1 -4t-1 -8q0 -8 7 -9q3 0 9.5 1.5t14.5 6.5q27 17 53 30
q22 11 46 21.5t41 12.5q6 2 13 3q6 1 14 1.5t17 0.5q23 0 44 -6t37 -20t25.5 -38.5t9.5 -60.5t-13 -75.5t-36 -77.5t-55.5 -72t-71.5 -60h2q37 0 74 6.5t72 21.5q5 2 8 2.5t5 0.5q4 0 4 -3q0 -6 -12 -11q-51 -20 -98 -28.5t-91 -9.5q-33 -17 -69 -27t-74 -10q-33 0 -62 8.5
t-50.5 25.5t-34 42t-12.5 59q0 12 3 21q0 2 2 5q3 5 8 5q4 0 9 -4q12 -10 30 -21q15 -9 36.5 -20.5t49.5 -22.5q38 -15 84 -26.5t96 -13.5q40 25 71 58.5t52.5 70t32.5 72.5t11 65q0 44 -16.5 68.5t-37 36t-39 13.5t-22.5 2q-24 0 -50.5 -9.5t-49.5 -20.5q-26 -13 -52 -31
q-24 -17 -37 -22t-18 -5q-6 0 -8.5 4.5t-2.5 9.5t1 10t3 10t4 11q26 53 59 103.5t63 91.5q35 48 70 89q1 1 4 3q5 3 10 3q1 0 13 -1.5t31.5 -3t44.5 -3t53 -1.5q25 0 50.5 1.5t49.5 5.5t44 11t35 18q5 4 9 4t4 -4zM284 -12q-57 2 -102.5 13.5t-78.5 25.5q-39 16 -69 36
q-4 2 -5 2q-3 0 -3.5 -2t-0.5 -4q3 -22 16.5 -39.5t33.5 -30t45 -19t51 -6.5q31 0 59 6.5t54 17.5z" />
    <glyph glyph-name="six" unicode="6" horiz-adv-x="527" 
d="M620 657q0 -2 -3.5 -8t-14.5 -6q-4 0 -7.5 1t-9 2t-14 2t-22.5 1q-40 0 -90 -20.5t-101.5 -56t-100.5 -84t-87.5 -104.5t-62 -117t-23.5 -123q0 -29 8.5 -58.5t26 -53t45.5 -38t67 -14.5t85.5 22t88.5 62q-7 13 -15 23t-15 18q-8 9 -15 16q-43 45 -62.5 80.5t-19.5 73.5
q0 39 16 70t40 52t51 32t49 11q33 0 53.5 -13t31.5 -32.5t15 -41.5t4 -40q0 -68 -32.5 -133t-82.5 -117q14 -24 18.5 -44.5t4.5 -34.5q0 -27 -12.5 -49.5t-27.5 -22.5q-7 0 -8.5 3t-1.5 6q0 6 4.5 12t10 14t10 19.5t4.5 29.5q0 29 -14 55q-48 -45 -102 -72.5t-104 -27.5
q-41 0 -68 14.5t-43.5 38.5t-23.5 55t-7 64q0 70 25.5 138t68 129.5t97 114t112 91t113.5 60t101 21.5h11q3 0 7.5 -0.5t9.5 -2.5t8.5 -6t3.5 -11zM513 302q0 39 -12.5 60.5t-29 32t-32 12.5t-21.5 2q-45 -1 -70 -19.5t-37 -41.5t-15 -45t-3 -30q0 -21 8 -42t20 -40
t25.5 -35t25.5 -27q14 -14 25 -27.5t19 -26.5q42 43 69.5 100.5t27.5 126.5z" />
    <glyph glyph-name="seven" unicode="7" horiz-adv-x="500" 
d="M632 636q0 -8 -5 -21t-22 -34q-19 -25 -57.5 -62t-101.5 -91q-11 -10 -25 -21q-12 -10 -28 -24t-36 -31q32 0 58 0.5t37 2.5q5 0 11.5 -1t6.5 -5q0 -5 -11.5 -11t-25.5 -6h-98q-40 -37 -85 -82.5t-85 -93.5t-70.5 -96t-40.5 -90q-2 -6 -5.5 -9.5t-8.5 -5.5q-5 -3 -11 -3
q-8 -2 -9 -2q-6 0 -7.5 3.5t-1.5 8.5q0 31 26.5 73.5t69.5 91t97.5 101.5t111.5 104h-122q-5 0 -5 6q0 2 4 6t17 9h39q17 0 39.5 -0.5t45.5 -0.5h4q42 37 81 72t74 66q32 28 50.5 49.5t28 37t12.5 26t3 16.5q0 16 -14 20t-33 4q-25 0 -49.5 -4.5t-51 -9.5t-56 -9.5
t-65.5 -4.5q-59 0 -84.5 9.5t-25.5 35.5q0 25 15 25q4 0 7 -4q6 -12 22 -22q14 -8 38.5 -15t66.5 -7q32 0 59 3.5t52.5 8t52 8t57.5 3.5q21 0 37.5 -5t16.5 -19z" />
    <glyph glyph-name="eight" unicode="8" horiz-adv-x="580" 
d="M686 581q0 -28 -10 -54.5t-34 -52t-64.5 -49.5t-102.5 -47l-27 -10q51 -32 74.5 -78.5t23.5 -97.5q0 -49 -21 -98t-60 -88.5t-96 -63.5t-129 -24q-48 0 -81.5 11.5t-55 28.5t-33 37t-17 37.5t-6.5 30t-1 14.5q0 45 24.5 82t54.5 63q35 31 79 55q40 23 92 43.5t101 40.5
q1 0 1.5 0.5t2.5 0.5q-29 12 -65.5 19t-81.5 8q-27 0 -62 -9q-15 -4 -21.5 -9t-15.5 -5q-7 0 -7 11q0 12 12 19t29.5 11.5t37 6t34.5 1.5q55 0 98 -10.5t76 -28.5q13 5 24 9.5t19 8.5q10 4 17 7q50 21 81 46t48 49t22.5 44t5.5 30q0 36 -18 56t-42 30.5t-48.5 13t-37.5 2.5
q-61 0 -101 -16t-64 -38.5t-33.5 -45.5t-9.5 -38q0 -23 12 -35.5t27 -18.5t29 -7t17 -1q32 0 55 10t38 23q18 15 29 33l3 3q3 3 5 3q4 0 7 -7q0 -14 -12.5 -28t-32.5 -25t-44.5 -18t-48.5 -7q-15 0 -32.5 3.5t-32 12t-24 23t-9.5 35.5q0 29 17 58.5t48 54t74 40t94 15.5
q26 0 56 -6.5t55 -21t41.5 -37.5t16.5 -55zM528 187q0 50 -27 95t-86 73q-37 -14 -82.5 -33t-80.5 -36q-48 -22 -87 -51q-16 -12 -32 -27.5t-28.5 -33t-20 -37.5t-7.5 -42q0 -13 6 -37.5t25 -49t54.5 -42.5t93.5 -18q63 0 113 21t85.5 55t54.5 77t19 86z" />
    <glyph glyph-name="nine" unicode="9" horiz-adv-x="557" 
d="M650 550q0 -55 -20.5 -122.5t-57.5 -136.5t-87.5 -134.5t-111.5 -116t-129 -81.5t-139 -31q-37 0 -62 13.5t-25 35.5q0 5 1.5 8.5t3.5 6.5q2 4 4 6q4 2 6 2q3 0 9 -7t18 -16t30.5 -16t45.5 -7q59 0 118.5 28.5t114 75.5t101.5 107.5t82 125.5t55 129.5t20 118.5
q0 50 -14 80t-35 46t-45.5 21.5t-44.5 5.5q-41 0 -79.5 -13t-73.5 -36q12 -21 27.5 -41t29 -43t22.5 -50.5t9 -63.5q0 -26 -10 -61t-31.5 -66.5t-56 -53.5t-83.5 -22q-5 0 -21 2t-33 13.5t-30.5 36t-13.5 69.5q0 37 13.5 75.5t36.5 75t54.5 70t68.5 60.5q-11 18 -17.5 37.5
t-6.5 42.5q0 20 5.5 31t13.5 16q9 6 19 8q1 0 3 -1q3 -1 3 -4q0 -2 -2 -6q-6 -6 -10 -15q-4 -8 -7 -17.5t-3 -23.5q0 -17 4 -31t11 -28q44 30 91 48t93 18q65 0 100.5 -43t35.5 -126zM409 441q0 35 -8.5 62t-21.5 50t-28 42.5t-28 39.5q-35 -25 -64 -56.5t-50 -66t-33 -69
t-12 -65.5q0 -38 11.5 -60t27 -33t32.5 -14t28 -3q36 0 63.5 19t46 46t27.5 56.5t9 51.5z" />
    <glyph glyph-name="colon" unicode=":" horiz-adv-x="347" 
d="M335 222q0 -8 -2 -13q-6 -13 -17 -22t-22 -9q-15 0 -15 17q0 7 3 14q5 14 16 22.5t22 8.5q15 0 15 -18zM232 34q0 -8 -2 -13q-6 -13 -17 -22t-22 -9q-15 0 -15 17q0 7 3 14q5 14 16 22.5t22 8.5q15 0 15 -18z" />
    <glyph glyph-name="semicolon" unicode=";" horiz-adv-x="347" 
d="M335 222q0 -8 -2 -13q-6 -13 -17 -22t-22 -9q-15 0 -15 17q0 7 3 14q5 14 16 22.5t22 8.5q15 0 15 -18zM236 28q0 -20 -11 -37.5t-27 -30.5t-34.5 -20t-33.5 -7q-4 0 -4 2q0 4 5 4q10 1 23 6t25 12.5t20 17.5t8 22q-12 2 -17 8.5t-5 13.5q0 11 9 21.5t20 10.5
q12 0 17 -7.5t5 -15.5z" />
    <glyph glyph-name="less" unicode="&#x3c;" horiz-adv-x="391" 
d="M396 439q0 -6 -2.5 -9t-7.5 -5l-224 -110l218 -99q5 -2 6.5 -5.5t1.5 -5.5q0 -8 -7 -8q-4 0 -6 1t-3 1l-237 104q0 1 -1 2q-2 2 -2 5q0 6 7 10l248 126q4 2 5 2q3 0 3.5 -3.5t0.5 -5.5z" />
    <glyph glyph-name="equal" unicode="=" horiz-adv-x="447" 
d="M458 338q0 -2 -2.5 -9.5t-16.5 -7.5h-234q-4 0 -6 1l-4 2t-2 2q0 8 6 12t11 4h243q5 0 5 -4zM404 275q0 -2 -2.5 -9.5t-16.5 -7.5h-234q-4 0 -6 1l-4 2t-2 2q0 8 6 12t11 4h243q5 0 5 -4z" />
    <glyph glyph-name="greater" unicode="&#x3e;" horiz-adv-x="373" 
d="M396 336q0 -6 -7 -10l-264 -131q-4 -2 -5 -2q-3 0 -3.5 3.5t-0.5 5.5q0 6 2.5 9t7.5 5l240 115l-194 88q-5 2 -6.5 5.5t-1.5 5.5q0 8 7 8q4 0 6 -1t3 -1l213 -93l2 -2q1 -1 1 -5z" />
    <glyph glyph-name="question" unicode="?" horiz-adv-x="583" 
d="M756 617q0 -4 -6 -26.5t-28 -57t-66 -77.5t-122 -87q-59 -35 -107 -71q-21 -15 -41.5 -32t-38 -34t-30.5 -33.5t-18 -31.5q0 -2 -1 -4q-2 -5 -10 -5q-13 0 -16.5 4t-3.5 9q0 2 0.5 3t0.5 2v1q6 15 20 32t33 34t41.5 33.5t44.5 31.5q53 35 115 70q56 32 93.5 63.5t60.5 60
t33 53t10 40.5q0 36 -30 54t-78 18q-74 0 -133.5 -22t-101.5 -53.5t-64.5 -66t-22.5 -60.5q0 -18 11.5 -29.5t37.5 -11.5q42 0 74.5 15t55.5 33q26 21 46 48q1 2 3 3q4 2 6 2q4 0 4 -8q0 -2 -12.5 -19t-36.5 -37t-59 -36.5t-80 -16.5q-36 0 -52 13.5t-16 36.5q0 31 28 72.5
t76 78.5t112.5 62.5t137.5 25.5q56 0 93 -19t37 -61zM232 34q0 -8 -2 -13q-6 -13 -17 -22t-22 -9q-15 0 -15 17q0 7 3 14q5 14 16 22.5t22 8.5q15 0 15 -18z" />
    <glyph glyph-name="at" unicode="@" horiz-adv-x="559" 
d="M622 179q0 -50 -25.5 -94t-60.5 -76.5t-73 -51t-62 -18.5q-26 0 -38 13t-12 36q0 14 3.5 27.5t8.5 24.5q5 13 11 25l2 4q0 1 -2 -1q-1 -1 -2 -1q-32 -29 -54.5 -44t-37.5 -22q-18 -8 -30 -9q-20 0 -24.5 16.5t-4.5 34.5q0 24 17.5 53.5t47 56t69 44t84.5 17.5
q13 0 26.5 -2.5t24.5 -9.5q1 0 2 -1q2 -2 2 -4q0 -4 -2 -6q-24 -31 -44 -59q-17 -24 -33.5 -47.5t-22.5 -37.5q-4 -9 -8 -19q-3 -8 -6 -18.5t-3 -20.5q0 -35 40 -35q18 0 50.5 16.5t64 45.5t54.5 68t23 84q0 26 -12 49t-34.5 40t-54.5 26.5t-72 9.5q-53 0 -112.5 -24
t-110 -64t-83.5 -93t-33 -111q0 -38 22 -65.5t71 -27.5q16 0 34 5.5t38 21.5l1 1q1 1 3 1q4 0 4 -4q0 -3 -6 -8q-26 -19 -49 -26t-41 -7q-35 0 -54 14.5t-28 32.5q-11 21 -12 47q0 43 16 83.5t43.5 76t64 65.5t77 51t82.5 33t80 12q85 0 133 -34t48 -94zM462 194q0 4 -5 5.5
t-12 2.5q-8 1 -18 1q-39 -2 -68.5 -19t-49.5 -37q-24 -23 -41 -52q-10 -18 -13.5 -31t-3.5 -22q0 -18 6 -22t13 -4q9 0 28.5 8.5t51.5 38.5q14 11 32 29q15 15 35.5 39.5t43.5 59.5q1 1 1 3z" />
    <glyph glyph-name="A" unicode="A" horiz-adv-x="771" 
d="M853 71q0 -3 -2 -5q-20 -22 -45.5 -43t-54 -37t-59 -26t-61.5 -10q-61 0 -86.5 34t-25.5 87q0 31 7 66.5t20 73.5q-45 -47 -95.5 -91t-103.5 -77.5t-106 -54t-104 -20.5q-75 0 -108 35.5t-33 92.5q0 54 27 122.5t74.5 139t112.5 137.5t141 119.5t160 84.5t170 32
q35 0 60.5 -6t42 -14t24.5 -15t8 -10q0 -6 -5 -14q-8 -11 -18 -11q-5 0 -16 5.5t-28.5 11.5t-40 11.5t-51.5 5.5q-80 0 -157.5 -28.5t-147 -76t-129 -108t-102.5 -124.5t-67.5 -126t-24.5 -112q0 -55 32.5 -88.5t104.5 -33.5q49 0 101.5 22t103.5 57t99 79t88 88
q20 50 45.5 98t51.5 85t50 59.5t40 22.5q6 0 6 -8q0 -12 -13.5 -38.5t-38 -62.5t-58 -79t-74.5 -87q-11 -35 -18.5 -69t-7.5 -65q0 -51 25.5 -85.5t87.5 -34.5q36 0 66 12t53 28.5t38 32.5t21 24q4 6 10 6q5 0 8 -4t3 -8zM691 427q0 3 -3 3q-8 0 -21 -13t-28 -35
t-30.5 -51.5t-28.5 -62.5q25 29 45.5 55.5t35 47.5t22.5 35.5t8 20.5z" />
    <glyph glyph-name="B" unicode="B" horiz-adv-x="834" 
d="M1029 614q0 -29 -12.5 -61t-35.5 -63.5t-56 -60.5t-75 -52q16 -25 16 -61q0 -53 -33 -115t-90 -114q60 20 98 43t50 32q5 3 6 3q4 0 4 -5q0 -3 -2 -5q-40 -28 -86 -50.5t-94 -37.5q-47 -37 -103.5 -59.5t-119.5 -22.5q-17 0 -40.5 3t-48.5 11.5t-49 23t-43.5 37.5
t-31.5 55.5t-12 75.5q0 9 3.5 16t6.5 7q4 0 8 -5t6 -9q19 -30 47 -55t64 -43.5t81 -29t97 -10.5q34 0 64.5 4t58.5 11q30 24 54.5 52t42 57.5t27.5 59t10 55.5q0 37 -20 61q-48 -23 -102.5 -36t-117.5 -13q-32 0 -46 8t-14 20t14.5 27t40 28t61 21.5t78.5 8.5q35 0 60.5 -9
t41.5 -25q34 21 62.5 47t48.5 54t31.5 56t11.5 54q0 46 -40.5 77t-133.5 31q-81 0 -157 -31t-146 -83t-134 -120.5t-121.5 -144t-108.5 -152.5t-95 -146q-19 -29 -29.5 -49.5t-15.5 -27.5q-2 -2 -3 -2q-6 0 -6 7q0 3 2 5q8 11 13 26t8.5 29.5t5 27.5t1.5 21q0 4 3 4
q4 0 9 -3t6 -3q1 -1 4 -1t4 1t2 1q37 58 85.5 130.5t107 147t126 145t142 126t155.5 89t166 33.5q50 0 85.5 -10t58 -27t33.5 -40t11 -50zM808 376q-17 14 -43.5 22t-64.5 8q-58 0 -88 -16.5t-30 -32.5q0 -11 13 -18t40 -7q46 0 90 12t83 32zM677 55q-68 -17 -124 -17
q-67 0 -114 16.5t-77.5 36.5t-46 36.5t-20.5 16.5q-3 0 -3 -2q0 -14 11 -38t36 -47.5t66.5 -40.5t103.5 -17q45 0 87.5 15t80.5 41z" />
    <glyph glyph-name="C" unicode="C" horiz-adv-x="633" 
d="M997 657q0 -5 -10 -8q-33 -8 -66.5 -21t-67.5 -29q-5 -44 -29 -90t-59 -88.5t-76 -80t-81 -65.5t-74 -44t-54 -16q-23 0 -23 21q0 35 29 82t78.5 96.5t116 98t141.5 86.5v1q0 24 -8 44.5t-26 35.5t-46.5 23.5t-69.5 8.5q-68 0 -142 -27.5t-145 -73t-134.5 -104.5
t-112 -122t-76.5 -126t-28 -116q0 -33 12.5 -61t40 -48.5t70.5 -31.5t104 -11q73 0 139.5 18.5t119.5 41.5t88.5 44.5t44.5 28.5q5 3 6 3q4 0 4 -5q0 -3 -2 -5q-38 -26 -91 -54t-112 -51t-121 -37.5t-118 -14.5q-59 0 -100.5 11.5t-68 32t-39 49t-12.5 62.5q0 57 30.5 125.5
t82.5 138t121.5 134.5t147 115.5t159.5 81t159 30.5q84 0 120 -33.5t36 -85.5v-6q62 29 122 47q4 1 7 2.5t5 1.5t5 -3t3 -6zM820 582q-66 -35 -127 -78.5t-107.5 -87t-74 -83.5t-27.5 -69q0 -23 22 -23q18 0 47 15.5t62 41t67.5 60t63.5 72t49.5 77t24.5 75.5z" />
    <glyph glyph-name="D" unicode="D" horiz-adv-x="861" 
d="M954 119q0 -5 -8 -10q-5 -4 -19 -11t-34.5 -14.5t-45.5 -13t-52 -5.5t-47 4q-39 -38 -86.5 -60.5t-104.5 -22.5q-56 0 -88 25.5t-49 63.5t-23.5 82t-12.5 82t-15 63.5t-31 25.5q-17 0 -46 -18q-40 -54 -77.5 -106t-71.5 -98t-63.5 -85t-52.5 -67q-7 -8 -12 -9.5t-9 -1.5
q-6 0 -6 11q0 22 12.5 53t34 65.5t50 70.5t60 69t64 61t61.5 46q37 50 75.5 101.5t77.5 101t77.5 96t75.5 86.5l10 10q9 9 13 9q5 0 5 -3q0 -4 -9 -15q-33 -36 -69.5 -79.5t-74.5 -91t-76.5 -98.5t-76.5 -102q24 11 42 11q33 0 45.5 -25t17.5 -62.5t8 -81.5t16.5 -81.5
t43.5 -62.5t89 -25q47 0 87 17.5t73 48.5q-42 12 -71 39t-48 64t-27.5 82t-8.5 93q0 68 15.5 137t42.5 124t63 89.5t76 34.5q35 0 60.5 -18.5t42.5 -50t25 -74t8 -91.5q0 -52 -9 -107.5t-27 -109.5t-44 -103.5t-61 -89.5q26 -6 54 -6q48 0 77 12.5t40 19.5q5 4 10 4
q4 0 4 -3zM885 477q0 48 -8 90.5t-25 74t-42.5 49.5t-60.5 18q-28 0 -54 -29.5t-46.5 -77.5t-32.5 -108t-12 -121q0 -46 8 -90.5t26 -81.5t46.5 -64.5t69.5 -40.5q32 36 56.5 81.5t41 96t25 102.5t8.5 101zM259 287q-36 -27 -75.5 -66.5t-73 -79.5t-55 -75t-21.5 -53
q0 -2 1 -5t5 -3q5 0 9 4.5t9 8.5q38 48 90 118t111 151z" />
    <glyph glyph-name="E" unicode="E" horiz-adv-x="510" 
d="M709 702q0 -6 -8 -6q-4 0 -6 1q-27 9 -80 9q-90 0 -161.5 -20.5t-122 -51t-77 -66.5t-26.5 -67q0 -30 25.5 -51t80.5 -25q62 32 125.5 51t124.5 19q23 0 23 -8q0 -9 -26.5 -23.5t-68 -29t-91 -25t-94.5 -10.5h-18q-54 -32 -103 -72t-86 -82.5t-58.5 -83.5t-21.5 -75
q0 -40 35 -65t116 -25q53 0 114 15t119.5 41.5t108.5 64t80 82.5q5 3 6 3q4 0 4 -5q0 -3 -2 -5q-21 -31 -53.5 -60t-72.5 -54t-85 -45.5t-91 -35.5t-90.5 -23t-83.5 -8q-80 0 -115 25.5t-35 67.5q0 36 23 80.5t63 90.5t94 90.5t115 80.5q-52 5 -76 26t-24 50q0 38 36.5 83
t101.5 85t154.5 66.5t194.5 26.5q11 -2 18 -11.5t12 -18.5l1.5 -3t0.5 -3zM561 473q0 4 -12 4q-46 0 -95.5 -14.5t-98.5 -38.5h4q39 0 75 6t64.5 14t45.5 16.5t17 12.5z" />
    <glyph glyph-name="F" unicode="F" horiz-adv-x="776" 
d="M1021 364q0 -3 -2 -5q-5 -7 -8 -15.5t-18 -8.5h-263q-51 -85 -125.5 -161.5t-162.5 -128.5q51 6 102 19.5t92 28t68.5 25.5t31.5 12l3 1q3 0 4.5 -2t1.5 -4q0 -4 -5 -6q-33 -15 -74 -30t-85.5 -28.5t-90 -23t-88.5 -14.5q-50 -24 -100.5 -38t-101.5 -14q-37 0 -73 12.5
t-64 34.5t-45 51t-17 61q0 4 0.5 10t2 12t4 10t6.5 4t9 -3.5t10 -8.5q22 -21 56.5 -41.5t80 -36t101 -25t118.5 -9.5h25q44 25 85 58t78 71t69.5 79.5t57.5 84.5q-61 1 -101.5 1.5t-66 1t-39.5 1t-23 1t-16 0.5h-19q-20 0 -20 6q0 3 3 7q6 8 8.5 12.5t11.5 4.5
q31 -3 68 -5.5t74.5 -3.5t72.5 -1.5t60 -0.5q29 53 45 104t16 96q0 35 -11 64.5t-34 50.5t-60 33t-89 12q-60 0 -114 -23.5t-97.5 -56t-73.5 -67t-42 -55.5q-1 -1 -2 -3q-2 -4 -4 -4q-5 0 -5 9q0 8 18 39t43.5 70t52 77t43.5 60q3 3 5 3t4 -2t2 -4t-2 -4q-3 -5 -11.5 -17
t-19.5 -27.5t-23 -32.5t-22 -32.5t-17 -27t-8 -15.5q44 39 93 71q42 27 97.5 49t115.5 22q52 0 89 -12.5t61 -35t35 -53t11 -67.5q0 -50 -18.5 -106t-51.5 -115h23h64.5t73 1t62.5 2t33 2q12 3 17 3t5 -3zM371 21q-6 -1 -12.5 -1h-12.5q-27 0 -65.5 4t-83.5 15t-93 31
t-93 51q0 -13 13 -36.5t38.5 -46.5t62.5 -39.5t85 -16.5q40 0 80.5 10.5t80.5 28.5z" />
    <glyph glyph-name="G" unicode="G" horiz-adv-x="565" 
d="M713 444q0 -11 -13.5 -23.5t-21.5 -21.5q-3 -3 -14 -15.5t-25.5 -29t-31 -35t-31 -35t-25 -28.5t-13.5 -16q-5 -6 -27 -32.5t-53 -65.5t-67 -84.5t-71 -88.5q37 9 74 23.5t70 31t60 35.5t43 37l8 10t8 5q3 0 4 -1q3 -3 3 -6t-3.5 -6.5t-11.5 -13.5q-17 -19 -46 -39
t-65.5 -38.5t-78 -34t-82.5 -25.5q-22 -28 -40.5 -51.5t-32.5 -41.5q-17 -21 -30 -38q-3 0 -3 3q0 7 8.5 22t13.5 25q7 14 13.5 32t10.5 39q-19 -3 -38 -3q-33 0 -56.5 9t-38.5 24t-22 33.5t-7 37.5q0 51 25 77.5t57 26.5q18 0 35 -8.5t30.5 -25.5t22 -43.5t8.5 -61.5
q0 -22 -3 -46q10 1 20 3t21 4l252 322q3 5 3 6t-1 1l-6 -4q-33 -24 -72 -42q-33 -16 -75.5 -29t-89.5 -13q-57 0 -86.5 19t-38.5 51q-45 -18 -88 -30t-83 -17q-11 0 -11 9q0 5 3 10.5t8 6.5q39 3 81 13.5t86 27.5v12q0 40 20 88.5t53.5 98t78 96.5t93.5 83.5t99.5 58.5
t96.5 22q20 0 36.5 -13t16.5 -44q0 -41 -39.5 -96t-104.5 -112t-147 -110t-168 -91q8 -31 35 -49t78 -18q40 0 88 19t94 47.5t86.5 61t65.5 59.5q2 2 7.5 9.5t12 15t13.5 13.5t11 6q8 0 8 -8zM630 678q0 15 -4.5 24t-11 14.5t-14.5 7t-15 1.5q-39 0 -81.5 -20t-84 -53
t-79.5 -76t-66.5 -88.5t-45.5 -89.5t-17 -81v-10q78 33 153.5 79.5t134.5 97.5t95 101.5t36 92.5zM250 -2q0 32 -8.5 56t-22 40.5t-30 24.5t-32.5 8q-23 0 -40.5 -17.5t-17.5 -54.5q0 -17 7 -35t22 -32.5t38 -23.5t56 -9h12t13 1q3 21 3 42zM280 -58q-7 -2 -13.5 -2.5
t-13.5 -1.5l-4 -20t-4 -21l35 45v0z" />
    <glyph glyph-name="H" unicode="H" horiz-adv-x="643" 
d="M899 746q0 -4 -7 -10q-75 -49 -141 -121.5t-126 -159.5t-114.5 -184t-105.5 -194q26 -5 55 -7.5t58 -2.5q65 0 124 10t93 24q10 4 14 4t5 -3q1 -2 1 -7q0 -3 -1 -6.5t-5 -5.5q-18 -7 -45 -14t-60 -12.5t-70 -8.5t-75 -3q-28 0 -54.5 1.5t-52.5 6.5q-5 -14 -16 -32.5
t-14 -26.5q-8 -16 -15 -16q-2 0 -3 1q-2 2 -2 6q0 10 7 21l26 50q-60 12 -99.5 40.5t-39.5 79.5q0 8 1 16.5t4 16.5q-15 -29 -40.5 -71.5t-54.5 -81.5t-58 -67t-52 -28q-21 0 -30 16.5t-9 42.5q0 39 10 74.5t25 62.5t31 42.5t28 15.5q18 0 18 -34q0 -12 -1.5 -23.5
t-4.5 -21.5t-7 -16t-9 -6q-7 0 -7 7q0 3 1 6t2 7q2 9 5 19t3 19q0 22 -11 22q-8 0 -19.5 -12.5t-22 -32.5t-18 -45.5t-7.5 -51.5q0 -22 9 -36.5t31 -14.5q21 0 48 26t56.5 69t61 97.5t63 111.5t62 111.5t57.5 96.5q5 7 5 13q0 3 -2 3q-11 -4 -26.5 -11.5t-23.5 -7.5t-11 6
t-3 14q0 5 3 9t11 8q5 2 17 7.5t25.5 12t26.5 13.5t19 13q5 3 11 3q4 0 4 -3t-1 -5q-1 -3 -19.5 -35t-45 -78t-57.5 -99.5t-58 -101.5q14 16 31 26t36 10q21 0 35 -9.5t22.5 -25t11.5 -36t3 -42.5q0 -25 -3 -49t-7 -43q52 88 99.5 176.5t100 173t113.5 162.5t139 145l4 2
t5 1q6 0 19.5 -6.5t13.5 -12.5zM402 187q0 59 -21.5 83t-47.5 24q-15 0 -28 -7.5t-22 -20t-14 -28.5t-5 -33q0 -51 34 -80t87 -43q4 12 7 20t5.5 18t3.5 25t1 39v3z" />
    <glyph glyph-name="I" unicode="I" horiz-adv-x="690" 
d="M767 704q0 -25 -10 -67t-28.5 -94.5t-45.5 -111.5t-61 -119q8 -42 17.5 -71.5t14.5 -41.5q1 -5 1 -11q0 -11 -16 -11q-8 0 -16 3t-10 11q-2 10 -6 22q-7 23 -11 55q-40 -65 -87 -123t-101 -101q72 8 146 32.5t153 58.5q5 2 11 2q7 0 7 -4q0 -6 -17 -12q-46 -16 -89 -32.5
t-84.5 -31t-82 -25.5t-81.5 -16q-41 -26 -83.5 -41.5t-87.5 -15.5q-37 0 -73 13t-64 35t-45 51.5t-17 61.5q0 4 0.5 10t2 12t4 10t6.5 4t8.5 -4t10.5 -8q79 -57 154.5 -80.5t152.5 -23.5h23t24 2q60 46 111.5 112t94.5 139q-1 10 -1 19v20q0 86 17.5 159.5t43 127.5t53 84.5
t47.5 30.5q14 0 14 -30zM733 656q0 29 -14 29q-13 0 -31 -26t-34.5 -66.5t-28 -90t-11.5 -96.5q0 -18 1 -35t3 -34q27 50 48 98t36 90t23 76t8 55zM346 14q-8 -1 -17 -1h-17q-69 0 -141 23.5t-156 80.5q0 -20 12.5 -45.5t37 -47.5t61 -37t84.5 -15q35 0 69 11t67 31z" />
    <glyph glyph-name="J" unicode="J" horiz-adv-x="585" 
d="M713 191q0 -4 -3.5 -5.5t-8.5 -3.5t-13 -2q-55 -2 -106 -11.5t-99 -24.5q-19 -31 -38 -61.5t-39 -60.5q28 -7 68 -7h15t13 1q6 0 11 -1.5t5 -5.5q0 -7 -21.5 -9t-44.5 -2q-16 0 -30.5 1.5t-28.5 3.5q-49 -72 -98.5 -134.5t-95 -109.5t-83.5 -74t-64 -27q-33 0 -48.5 14.5
t-15.5 40.5q0 31 21 73.5t59 90t92.5 96t121.5 90.5q-35 36 -51 87.5t-16 110.5q0 52 12 106t34.5 105.5t55.5 97t74 79.5t89.5 54t103.5 20q47 0 67.5 -27t20.5 -74q0 -40 -14 -93t-38 -113t-57 -125t-71 -130q48 15 98.5 24.5t104.5 11.5q17 0 18 -6zM635 605
q0 44 -18.5 68.5t-60.5 24.5q-46 0 -87 -18t-76 -49t-63 -73t-47.5 -89t-30 -97.5t-10.5 -98.5q0 -58 15.5 -108.5t50.5 -86.5q70 42 152 72q37 65 69 129t55.5 123.5t37 111.5t13.5 91zM450 133q-36 -14 -69.5 -29t-64.5 -33q30 -29 70 -43q17 26 33 52t31 53zM373 8
q-49 15 -83 47q-63 -39 -112 -83.5t-83.5 -88t-52.5 -82.5t-18 -67q0 -23 12.5 -35.5t38.5 -12.5q21 0 54 25.5t72.5 69t83.5 102t88 125.5z" />
    <glyph glyph-name="K" unicode="K" horiz-adv-x="693" 
d="M1069 548q-13 -39 -40 -84.5t-65.5 -84.5t-86.5 -65t-103 -26q-26 0 -46.5 10t-38.5 24.5t-34 32t-32 32t-33 24.5t-37 10q-33 0 -64.5 -30t-56 -76.5t-39 -101t-14.5 -104.5q0 -28 5.5 -53t17.5 -43.5t31.5 -29t46.5 -10.5t51.5 7t43.5 16q22 11 42 23q5 2 10.5 7l11 10
t10.5 9t8 4t3 -4q0 -6 -9.5 -15t-23.5 -20q-11 -8 -30 -18.5t-42.5 -20t-49.5 -16t-51 -6.5q-29 0 -49.5 10t-33 27.5t-18.5 41.5t-6 52q0 55 20 119t51.5 119t70 91.5t76.5 36.5q32 0 57 -20t51 -44t57.5 -44t76.5 -20q42 0 82 22t73.5 55.5t58.5 74.5t38 80q0 1 1 2t3 1
q3 0 5 -2q1 -1 1 -3zM567 702q0 -2 -1 -8t-6 -16q-13 -24 -38.5 -68t-58.5 -99.5t-72 -118.5t-80 -125t-82.5 -119t-78.5 -100.5t-68.5 -69.5t-52.5 -26q-17 0 -24.5 17.5t-7.5 43.5q0 28 7 61.5t18 63t25 49t27 19.5q7 0 12 -6t8 -15t4.5 -19t1.5 -18q0 -6 -1 -16.5t-3 -21
t-6.5 -18t-10.5 -7.5q-2 0 -4.5 1.5t-2.5 5.5q0 2 1 4q5 8 8 22t3 27q0 14 -4 23.5t-15 9.5q-8 0 -17 -12.5t-16.5 -31.5t-12 -42t-4.5 -44q0 -26 9 -44.5t31 -18.5q16 0 44 26.5t62.5 70t73 99t76.5 113.5t72.5 113.5t61 99t42 70l15.5 26.5q0 4 -3 4t-8 -4
q-7 -5 -15.5 -12.5t-17.5 -14.5t-17.5 -12t-15.5 -5t-10 8q-1 4 -1.5 6.5t-0.5 4.5q0 9 8 13q7 5 20 14.5t27.5 20t28.5 21t22 18.5q16 17 29.5 29.5t16.5 11.5q2 0 2 -4z" />
    <glyph glyph-name="L" unicode="L" horiz-adv-x="828" 
d="M917 647q0 -35 -15.5 -76t-41 -82.5t-58 -80.5t-65.5 -69t-64.5 -48t-54.5 -18q-25 0 -37.5 14.5t-12.5 40.5q0 44 25.5 83t56.5 68q36 34 81 64q2 2 4 3q4 2 7 2q2 0 3 -4q0 -6 -10 -12q-19 -11 -43 -31t-44.5 -44t-34.5 -51t-14 -51q0 -18 9.5 -32.5t30.5 -14.5
q35 0 76.5 32.5t77 80.5t59.5 103t24 101q0 42 -24.5 69.5t-84.5 27.5q-74 0 -142.5 -29.5t-132.5 -80t-123 -116.5t-113 -140t-103.5 -151t-94.5 -148q-2 -2 -4 -6.5t-2 -6.5q0 -1 1 -1h1q21 18 50.5 40t63.5 40.5t71 31.5t73 13q39 0 73 -14t65 -35t61.5 -45t63 -45
t68.5 -35t79 -14q35 0 67.5 15t58.5 33q30 21 56 47q2 2 3 2q3 0 3 -6q0 -3 -2 -5q-29 -30 -66 -55q-32 -21 -74.5 -38.5t-95.5 -17.5q-36 0 -70.5 14t-68.5 34.5t-66.5 45t-64.5 45t-63.5 34.5t-63.5 14q-37 0 -76 -18.5t-74.5 -44t-65 -53t-48.5 -45.5q-5 -5 -8 -5t-3 4
t3 9q56 97 114.5 191.5t120 178.5t126 155t133 123t140 81t146.5 29q73 0 103.5 -27.5t30.5 -72.5z" />
    <glyph glyph-name="M" unicode="M" horiz-adv-x="885" 
d="M949 42q0 -3 -5 -9t-11.5 -13t-14.5 -13t-14 -10q-15 -10 -42 -19.5t-55 -9.5q-22 0 -38 8t-26 22t-14.5 32.5t-4.5 39.5q0 26 8 63.5t18 76t18 73t8 53.5q0 9 -3 16q-2 6 -6.5 10.5t-12.5 4.5q-13 0 -33 -13t-44 -34t-51 -49t-54 -58q-24 -49 -50.5 -93.5t-50.5 -79
t-43 -55t-28 -20.5q-3 0 -5 2q-4 4 -4 8q0 11 14 35.5t37 56.5t53.5 70t63.5 75q31 62 53 123t22 102q0 25 -6.5 41t-17 25t-24 12.5t-27.5 3.5q-20 0 -42 -6.5t-46 -17.5q-30 -57 -71.5 -124t-86.5 -134t-90.5 -129.5t-85.5 -110t-70.5 -76.5t-45.5 -29q-12 0 -16.5 13
t-4.5 25q0 41 20 91t53.5 103.5t78.5 108.5t95.5 104.5t103.5 91t103 69.5q19 40 30 72t11 53q0 22 -18 30.5t-49 8.5q-29 0 -66.5 -5.5t-78 -12t-80.5 -12t-75 -5.5q-23 0 -43 3.5t-34.5 11.5t-22.5 21.5t-8 33.5q0 21 10.5 29.5t15.5 8.5q6 -1 6 -8q0 -25 8 -41t22.5 -26
t34.5 -14t44 -4q36 0 78.5 7.5t85 16t81 16t67.5 7.5q27 0 43 -8.5t16 -31.5q0 -20 -14 -55.5t-38 -82.5q30 15 57.5 23.5t51.5 8.5q36 0 52.5 -21.5t16.5 -46.5q0 -45 -20.5 -107t-51.5 -126q29 31 57.5 59t54 49t45.5 33.5t33 12.5q9 0 13.5 -6.5t6.5 -14.5q3 -10 3 -22
q0 -15 -8 -44t-18 -65t-18 -74.5t-8 -72.5q0 -48 23.5 -76.5t70.5 -28.5q22 0 38.5 8t29.5 17.5t22 17.5t16 8q2 0 2 -1zM542 178q-24 -28 -44.5 -54.5t-36 -47.5t-24.5 -35.5t-9 -18.5q0 -5 3 -5q6 0 17.5 12.5t26.5 34.5t32 51.5t35 62.5zM446 481q-46 -26 -95.5 -66.5
t-96.5 -88t-89 -99t-73.5 -100t-50 -90.5t-18.5 -70q0 -14 3.5 -24t14.5 -10q13 0 40.5 25.5t64 69t78 99.5t82 117t77.5 122.5t63 114.5z" />
    <glyph glyph-name="N" unicode="N" horiz-adv-x="557" 
d="M594 17q0 -4 -4 -7q-29 -26 -61.5 -41.5t-67.5 -15.5q-45 0 -71.5 23.5t-26.5 60.5q0 32 11 70t27.5 76.5t36 76.5t36 70.5t27.5 58.5t11 41q0 13 -6 19q-7 7 -19 7q-25 0 -69.5 -33t-94.5 -83q-31 -68 -71.5 -132.5t-79 -115t-70 -81.5t-44.5 -31q-8 0 -8 12
q0 22 23.5 62.5t61 89t85 101.5t95.5 99q21 47 34 91t13 82q0 42 -13.5 67t-35.5 38.5t-51 18t-60 4.5q-32 0 -56.5 -1.5t-49.5 -1.5q-41 0 -68 10.5t-27 46.5q0 32 22 34q8 0 8 -10q0 -20 7 -33t19 -20t28.5 -9.5t35.5 -2.5q30 0 64.5 3.5t67.5 3.5q26 0 49 -4.5
t40.5 -16.5t28 -33.5t10.5 -56.5q0 -44 -13 -93t-35 -100q29 28 57 51.5t52 41t44 27t33 9.5q12 0 18 -8t6 -19q0 -16 -11 -42.5t-28 -60t-36 -72t-36 -76.5t-28 -74t-11 -66q0 -44 27.5 -69t71.5 -25q20 0 35.5 5.5t26.5 13t18.5 14t10.5 9.5q2 2 6 2q5 0 5 -5zM303 320
q-40 -40 -78.5 -84.5t-69 -83.5t-49 -69.5t-18.5 -43.5q0 -5 2 -6q4 -2 5 -2q8 0 31 24.5t53.5 65t63.5 92.5t60 107z" />
    <glyph glyph-name="O" unicode="O" horiz-adv-x="580" 
d="M685 529q0 -42 -20.5 -95.5t-56 -110.5t-83.5 -112.5t-103 -102.5q36 -21 81 -21q38 0 76.5 17.5t71.5 55.5q2 2 4.5 2.5t4.5 0.5q5 0 5 -4q0 -5 -8 -13q-35 -40 -79 -59t-89 -19q-49 0 -90 21q-65 -51 -133 -83t-133 -32q-74 0 -107.5 40t-33.5 104q0 53 21 117
t59 130.5t91.5 130t118.5 115.5t139.5 87.5t155.5 45.5q8 0 10 -3t2 -7v-3q-2 -18 -5.5 -22.5t-11.5 -4.5q-76 0 -146 -28t-130 -73.5t-109 -105t-83.5 -122t-53.5 -124.5t-19 -113q0 -60 28 -98t91 -38q57 0 117 26t117 69q-32 21 -52 56t-20 83q0 41 15.5 86.5t41 88.5
t58.5 82t67.5 68.5t68 47t59.5 17.5q29 0 46 -22.5t17 -74.5zM653 500q0 50 -16 71.5t-42 21.5q-34 0 -77.5 -31t-82.5 -80t-65.5 -109.5t-26.5 -118.5q0 -46 18 -80.5t48 -56.5q51 42 95.5 93t77.5 102.5t52 100.5t19 87z" />
    <glyph glyph-name="P" unicode="P" horiz-adv-x="396" 
d="M851 492q0 -32 -10.5 -60.5t-32 -50t-54 -34t-76.5 -12.5q-23 0 -50 14.5t-53.5 32.5t-50 34t-39.5 19q-4 1 -7.5 4.5t-3.5 7.5q0 8 15 8q27 0 52.5 -16t50.5 -35.5t50.5 -36t51.5 -16.5q64 0 96 36t32 87q0 42 -21 87t-63.5 82.5t-105.5 62t-147 24.5q-87 0 -156 -24
t-121.5 -64t-90 -93t-61 -111t-34.5 -117.5t-11 -113.5q0 -42 6.5 -78.5t18.5 -63.5t29 -42.5t38 -15.5q19 0 41.5 22t46.5 59t50 85t52.5 99.5t53.5 103t53.5 96t51.5 77.5t49 48q5 4 10 4q7 0 7 -8q0 -5 -2 -5q-22 -8 -47 -39t-52 -76.5t-56 -100.5t-58.5 -111.5t-59 -110
t-58.5 -95t-56 -66.5t-51 -25q-19 0 -34.5 16.5t-26.5 45.5t-17.5 68.5t-6.5 85.5q0 59 11.5 125.5t36.5 131.5t65.5 124t99 104t135.5 72t176 27q81 0 143.5 -25t105 -64.5t64 -88t21.5 -94.5z" />
    <glyph glyph-name="Q" unicode="Q" horiz-adv-x="570" 
d="M913 -50q0 -4 -2 -6q-45 -43 -98 -68.5t-113 -25.5q-36 0 -67 15t-59 39t-53 54l-50 60t-51.5 57t-55.5 44q-39 -37 -80 -68.5t-80 -54t-76 -35t-69 -12.5q-26 0 -26 21t24.5 54.5t65.5 65.5t93.5 55t108.5 23q28 0 54 -14q44 44 83 94t68.5 101.5t47 101.5t17.5 93
q0 41 -10.5 70t-28.5 47t-43.5 26t-55.5 8q-48 0 -105 -18.5t-111.5 -48t-103 -66t-80.5 -73.5q-8 -9 -18.5 -25.5t-20.5 -33t-17 -29t-8 -14.5q-2 -4 -7 -10.5t-12 -6.5q-4 0 -4 7t2 11q1 2 9.5 16.5t19 33t21 36t14.5 24.5q5 8 22 35.5t38 57.5t40.5 55t24.5 31q3 3 8 3
q7 0 7 -6q0 -5 -4 -9q-7 -7 -21 -25t-29 -39t-27.5 -41.5t-16.5 -31.5q31 33 80 68t105.5 63t115 46t109.5 18q31 0 57.5 -8t46 -26t30.5 -46.5t11 -69.5q0 -46 -19 -99.5t-52 -110t-76.5 -112t-93.5 -105.5q27 -17 53.5 -44t52 -58t52 -62t54.5 -56t58 -41t64 -16
q33 0 61.5 10t51.5 23.5t39.5 28t25.5 23.5q1 1 3 1q6 0 6 -5zM351 127q-16 8 -33 12.5t-36 4.5q-33 0 -68.5 -15.5t-65 -36.5t-48.5 -43.5t-19 -37.5q0 -17 26 -17q51 0 115.5 37t128.5 96z" />
    <glyph glyph-name="R" unicode="R" horiz-adv-x="624" 
d="M862 454q0 -35 -9.5 -66.5t-28 -55t-45.5 -37.5t-62 -14q-23 0 -40 7.5t-30.5 18t-24.5 23.5t-23.5 23.5t-28 18t-36.5 7.5q-31 0 -59.5 -24.5t-50 -62.5t-34 -84.5t-12.5 -91.5q0 -31 7 -59t22 -49t39.5 -33.5t58.5 -12.5q15 0 33 4.5t36 12t35 18t29 22.5q4 4 9 4
q6 0 6 -5q0 -3 -4 -7q-6 -6 -20 -18t-34 -23t-45.5 -19.5t-56.5 -8.5q-40 0 -68 12.5t-46 34t-26 50t-8 60.5q0 50 17.5 103t46.5 96.5t67.5 72t81.5 28.5q22 0 45 -14t46 -30.5t45.5 -30.5t43.5 -14q24 0 42.5 10.5t32 28.5t20.5 42t7 52q0 44 -19 91t-60.5 86t-107 64.5
t-158.5 25.5q-88 0 -158 -23.5t-123.5 -63.5t-91.5 -92.5t-62 -109.5t-35.5 -115.5t-11.5 -110.5q0 -40 6 -74.5t18 -59.5t28.5 -39.5t37.5 -14.5q19 0 41.5 22t46.5 59t50 85t52.5 99.5t53.5 103t53.5 96t51.5 77.5t49 48q5 4 10 4q7 0 7 -8q0 -5 -2 -5q-22 -8 -47 -39
t-52 -76.5t-56 -100.5t-58.5 -111.5t-59 -110t-58.5 -95t-56 -66.5t-51 -25q-18 0 -33.5 15.5t-26 42.5t-16.5 64.5t-6 80.5q0 58 11.5 123t37 129t67 123t100.5 104t137 71.5t178 26.5q87 0 150 -26.5t104.5 -68.5t61 -93.5t19.5 -101.5z" />
    <glyph glyph-name="S" unicode="S" horiz-adv-x="850" 
d="M969 576q0 -61 -30 -136t-81 -149.5t-119.5 -142t-146.5 -113.5q30 4 60 10.5t58 16.5q37 14 73.5 31.5t74.5 39.5q5 3 8 3q5 0 5 -5q0 -4 -5 -8q-1 0 -3 -2q-7 -5 -30 -18.5t-61 -29.5t-91 -31t-119 -24q-50 -26 -100 -40.5t-101 -14.5q-44 0 -78.5 13.5t-58 36.5
t-36 54t-12.5 66q0 19 3 31q3 13 7 13l1 -1q1 -4 7.5 -16t21 -28.5t38 -34.5t59.5 -32.5t85.5 -24.5t116.5 -10h23t25 2q74 42 140.5 106.5t116.5 137.5t79 147t29 134q0 62 -36 101t-116 39q-74 0 -147.5 -34.5t-143 -91.5t-134.5 -130t-123.5 -150.5t-108.5 -152.5
t-90 -136q-10 -16 -15 -24.5t-9 -8.5t-4 7q0 10 3.5 28.5t8 37t8 34t4.5 18.5q3 9 9 9q5 0 5 -6q0 -18 0.5 -25t2.5 -7t3 2q36 54 85 123.5t107.5 143t125 143.5t138.5 125.5t147.5 89t152.5 33.5q89 0 128.5 -41.5t39.5 -107.5zM528 13q-40 -3 -85 -3q-66 0 -113 15t-78 34
q-36 22 -60 49q-3 0 -3 -6q0 -8 10 -29t32 -42.5t57 -38t85 -16.5q38 0 77.5 10t77.5 27z" />
    <glyph glyph-name="T" unicode="T" horiz-adv-x="573" 
d="M923 530q0 -14 -18.5 -24t-42.5 -16.5t-47.5 -9.5t-34.5 -3q-51 0 -89.5 10t-70 26t-57.5 36.5t-51 41.5q-68 -35 -141.5 -83t-133.5 -109q24 3 53.5 5.5t66.5 2.5q32 0 58 -4.5t37 -15.5q3 -5 7 -9q7 -9 7 -15q0 -2 -2 -4q-1 -1 -2 -1q-6 0 -14 5q-4 3 -8 5
q-11 8 -27.5 12.5t-35.5 6.5t-37 2.5t-32 0.5q-16 0 -39.5 -2t-46.5 -5q-48 -52 -78 -112t-30 -127q0 -26 5 -53t19 -50h14q107 0 189 16.5t139 36.5q66 23 115 52q6 3 10 3q5 0 6 -3t1 -6q0 -17 -24 -49.5t-68 -64.5t-107 -56t-141 -24q-37 0 -65.5 6.5t-49.5 18t-36 26
t-24 30.5q-57 5 -97 14.5t-66.5 21.5t-40.5 24t-18 21q-1 2 -1 5q0 8 8 8q3 0 7 -4q2 -2 3 -4q14 -16 40 -30q23 -12 60.5 -23.5t97.5 -16.5q-9 21 -12 42.5t-3 39.5q0 72 31.5 135t85.5 120q-14 -2 -23 -3t-8 -1q-99 0 -149.5 31.5t-50.5 100.5q0 27 17.5 63.5t53 69
t89.5 55.5t128 23q48 0 87.5 -9t73.5 -23.5t63.5 -33.5t56.5 -39q31 15 60 28.5t56 25.5q12 3 23 7q10 3 21 5t21 2q11 0 17.5 -4t6.5 -16q0 -7 -11 -7q-1 0 -5 1t-17 1q-16 0 -42.5 -5.5t-66.5 -22.5q-12 -5 -24.5 -10.5t-26.5 -12.5q28 -22 55.5 -42t57 -36t62.5 -25.5
t72 -9.5q29 0 58.5 7.5t60.5 26.5q2 2 5 3q6 2 7 2q3 0 3 -2zM502 599q-24 20 -50 39t-57.5 34t-69.5 24t-88 9q-63 0 -111.5 -20t-81 -49.5t-49.5 -63.5t-17 -63q0 -50 43.5 -85t130.5 -35q10 0 23.5 2t31.5 4q61 62 138.5 112.5t156.5 91.5zM554 82q0 3 -3 3q-1 0 -7 -2
q-76 -22 -130 -33.5t-96 -17t-76.5 -6.5t-69.5 -1h-23q20 -26 56.5 -43t95.5 -17q64 0 111 18.5t79 40.5q37 26 63 58z" />
    <glyph glyph-name="U" unicode="U" horiz-adv-x="670" 
d="M833 595q0 -16 -25.5 -60t-69.5 -102.5t-103 -125.5t-126 -129q-16 -35 -24.5 -66t-8.5 -57q0 -35 20 -56.5t68 -21.5q34 0 81.5 22.5t110.5 88.5q5 3 8 3q5 0 5 -4q0 -1 -2 -5q-5 -9 -31.5 -30t-62.5 -42.5t-74.5 -38t-68.5 -16.5q-44 0 -62.5 19.5t-18.5 54.5
q0 26 9 57.5t25 66.5q-44 -39 -90.5 -73t-92.5 -58.5t-90.5 -39t-86.5 -14.5q-64 0 -93.5 29.5t-29.5 82.5q0 57 18.5 112.5t49.5 110t71.5 107.5t84 103.5t88 98t82.5 91.5l2 2q2 2 4 2q5 0 5 -5q0 -2 -0.5 -3t-3.5 -4q-57 -66 -121.5 -137.5t-119 -145.5t-90 -149
t-35.5 -148q0 -24 8.5 -46t25 -39t39.5 -27t52 -10q38 0 79 14.5t84 40t86.5 59.5t85.5 72q23 47 53.5 96.5t64 96.5t67.5 89t63 73.5t51.5 50t32.5 18.5q6 0 6 -8zM801 550q0 2 -2 2q-13 0 -47 -31.5t-74.5 -81.5t-82.5 -112t-72 -122q57 56 108 113.5t88.5 106t59.5 82.5
t22 43z" />
    <glyph glyph-name="V" unicode="V" horiz-adv-x="374" 
d="M631 700q0 -28 -16.5 -75t-45.5 -105t-67.5 -123t-82.5 -128.5t-91.5 -121.5t-94 -102.5t-89 -70.5t-77.5 -26q-14 0 -22.5 7.5t-13.5 18.5t-7 23t-2 22q0 44 23.5 98t59 110t76.5 112t76.5 106t59 90t23.5 64q0 23 -17.5 30t-46.5 7q-31 0 -69 -4.5t-76 -4.5
q-24 0 -46 3t-39.5 12t-30 24t-16.5 39l-1 6q0 11 7 19.5t14 8.5q2 0 4.5 -1.5t4.5 -8.5q13 -53 46.5 -71t76.5 -18q22 0 44.5 3t44 6t41.5 6t36 3q23 0 36.5 -8t13.5 -31q0 -28 -22.5 -68t-57 -88t-74 -102t-74 -109.5t-57 -111t-22.5 -107.5q0 -20 10.5 -35t31.5 -15
q26 0 59.5 21.5t71 58t77 84.5t77 101.5t71.5 109t60.5 106.5t43 94.5t20.5 73.5q3 27 4 43.5t2.5 26t5 15t11.5 11.5q5 3 9 3q9 0 13 -10.5t4 -20.5z" />
    <glyph glyph-name="W" unicode="W" horiz-adv-x="633" 
d="M858 596q0 -5 -2 -9.5t-4 -9.5q-22 -36 -29 -73.5t-7 -66.5q0 -22 3 -36t6 -23q4 -11 8 -16q3 -5 6 -9t3 -10q0 -8 -10 -8q-12 0 -19 13t-12 29t-9.5 29t-10.5 13q-5 0 -9.5 -5.5t-7.5 -10.5q-67 -120 -132 -215q-28 -40 -58 -79t-60 -69t-58 -48.5t-52 -18.5
q-17 0 -25 15.5t-8 37.5q0 18 4.5 38.5t12 42.5t17 44t19.5 42q24 48 53 97q2 6 4 10.5t2 7.5t-2 3t-7 -6q-77 -95 -153 -170q-32 -32 -67 -62.5t-70 -54.5t-68 -38.5t-61 -14.5q-54 0 -54 74q0 40 18 95.5t46.5 118.5t64.5 128t72 123t68.5 105t54.5 73q2 3 5 6q6 6 8 6
q5 -3 5 -6q0 -2 -2 -4t-4 -6q-55 -76 -108 -159.5t-95 -164t-67.5 -153.5t-25.5 -129q0 -12 2 -24.5t8 -23t16 -17.5t26 -7q28 0 62.5 18t71 47t74.5 66.5t73 76.5q83 92 170 208q5 6 14.5 21t20.5 31.5t21 29t16 12.5q6 -1 6 -5q0 -6 -13.5 -25.5t-46.5 -70.5
q-37 -57 -67 -113.5t-52 -104.5t-34 -85t-12 -56q0 -17 8 -30.5t26 -13.5q24 0 57 29t68 72.5t69 94.5t60.5 94t43 71.5t15.5 27.5q13 22 20.5 39t12.5 30.5t8 23.5t6 19q6 16 12.5 33t14 31.5t16 23.5t17.5 9q7 -1 7 -8z" />
    <glyph glyph-name="X" unicode="X" horiz-adv-x="663" 
d="M962 737q0 -18 -39.5 -55.5t-104 -87t-147 -108.5t-168.5 -119q-54 -77 -89 -150t-35 -127q0 -42 26 -67.5t86 -25.5q33 0 64.5 13.5t58.5 32t47 38t29 30.5l14.5 14.5t14.5 9.5q2 0 2 -1q2 -4 2 -6q0 -8 -10 -19q-16 -18 -41 -42.5t-57.5 -47t-71 -38t-83.5 -15.5
q-56 0 -80 25.5t-24 68.5q0 55 34 131.5t89 158.5q-22 -15 -43.5 -30.5t-42.5 -30.5q-51 -71 -107.5 -137.5t-108 -117.5t-93 -82t-63.5 -31q-11 0 -15.5 7.5t-4.5 16.5q0 24 33.5 64t89 89.5t128 106t150.5 113.5q27 39 50 78t40 75t26.5 68.5t9.5 59.5q0 39 -23 62t-77 23
q-37 0 -69.5 -12.5t-59.5 -30.5t-48.5 -40t-37 -40t-25 -30.5t-12.5 -12.5q-7 0 -7 7t3 11q24 36 57 77q29 35 71 80t99 95q1 1 3 2t6 1q3 0 5 -2t2 -4q0 -4 -8 -12q-45 -39 -72.5 -65t-42.5 -42.5t-20 -23.5t-5 -8q34 24 69 42q30 16 65.5 29t67.5 13q49 0 70.5 -21.5
t21.5 -59.5q0 -27 -10.5 -61.5t-28.5 -73.5t-43 -81.5t-54 -85.5q22 16 43.5 31.5t43.5 30.5q50 69 109 134t117.5 115.5t112.5 80.5t95 30q7 0 11.5 -6.5t4.5 -13.5zM905 707q0 4 -3.5 5.5t-6.5 1.5q-29 0 -71.5 -24.5t-90.5 -65t-98 -94t-95 -112.5q72 51 138.5 98.5
t116.5 86.5t80 66t30 38zM370 273q-66 -48 -125.5 -93t-103.5 -83t-70 -67.5t-26 -47.5q0 -13 14 -13q18 0 52 25t77 67t90.5 97t91.5 115z" />
    <glyph glyph-name="Y" unicode="Y" horiz-adv-x="643" 
d="M830 667q0 -4 -3 -7q-130 -161 -228.5 -312.5t-176.5 -286.5q66 40 143 77.5t168 72.5q2 1 4.5 2t4.5 1q11 0 11 -9q0 -7 -7 -11q-100 -33 -183.5 -72t-152.5 -82q-68 -120 -121 -220.5t-95 -173t-76 -113t-66 -40.5q-23 0 -35 17.5t-12 49.5q0 39 21 94t67.5 119.5
t121.5 135t184 138.5q52 93 111 189.5t125 190.5q0 3 -1 3q-2 0 -5 -3q-29 -27 -69 -69.5t-87 -89.5t-99 -94.5t-104 -85t-102.5 -61.5t-94.5 -24q-31 0 -51.5 18.5t-20.5 50.5q0 30 17 68.5t45 81t64 87.5t73 89t73 84.5t64 74t45 58.5t17 38q0 14 -6.5 19.5t-20.5 5.5
q-20 0 -56 -6.5t-89 -6.5q-18 0 -42.5 2t-46 7.5t-36.5 16t-15 28.5q0 9 3.5 17t8 14.5t9 10.5t5.5 5t3 1q7 0 11 -12q5 -14 10.5 -27t18 -23t34 -16t57.5 -6q29 0 54 4t46.5 8.5t38 8t28.5 3.5q23 0 23 -23q0 -19 -29.5 -58.5t-73.5 -90.5t-95.5 -110.5t-95.5 -119.5
t-73.5 -116t-29.5 -101q0 -26 19.5 -37.5t48.5 -11.5q43 0 104.5 36.5t131 94t141.5 129t136 142t114 132t75 99.5q4 7 12 7q2 0 4 -2q4 -6 4 -10zM387 25q-91 -59 -156.5 -121.5t-107.5 -120t-61.5 -106.5t-19.5 -82q0 -25 10.5 -39t30.5 -14t49 38.5t67.5 104t85.5 153.5
t102 187z" />
    <glyph glyph-name="Z" unicode="Z" horiz-adv-x="647" 
d="M760 691q0 -14 -17.5 -32.5t-45.5 -38t-63 -39.5t-70 -39t-67 -35.5t-53 -28.5q-4 -2 -8 -5.5t-4 -8.5q0 -3 1 -4q48 -66 69.5 -139.5t21.5 -151.5v-10.5t-1 -10.5q85 36 176 60q3 1 7 1q7 0 9.5 -3.5t2.5 -5.5v-1q-1 -4 -5.5 -6t-9.5 -3q-45 -9 -90 -23.5t-90 -33.5
q-4 -78 -27 -156t-58 -148.5t-80 -131t-94.5 -105t-100 -69.5t-97.5 -25q-29 0 -46.5 19.5t-17.5 55.5q0 85 39.5 167t108 155.5t160 136t195.5 108.5v7q0 77 -23.5 151.5t-79.5 140.5q-5 2 -9.5 7.5t-4.5 10.5q0 4 9 10q28 16 62.5 34.5t70 38t68.5 38t59 34.5t41.5 29
t15.5 21t-7 12t-25 4q-12 0 -37 -3.5t-58.5 -7t-73 -7t-80.5 -3.5q-34 0 -72.5 1.5t-71 8t-54 20.5t-21.5 39q0 8 5.5 22t16.5 14q9 0 14.5 -6t13.5 -15t20 -20t34 -20t56.5 -15t85.5 -6q57 0 96 6.5t69.5 14t56 14t54.5 6.5q9 0 16.5 -9t7.5 -21zM504 125
q-93 -42 -177 -101.5t-147.5 -128t-100.5 -142t-37 -143.5q0 -29 13 -51t45 -22q36 0 79.5 23t87 64t85 97t74.5 121t54 137.5t24 145.5z" />
    <glyph glyph-name="bracketleft" unicode="[" horiz-adv-x="385" 
d="M670 805q0 -3 -5.5 -7t-20.5 -12h-224l-338 -875h233q3 0 6 -1q5 -2 5 -3q0 -3 -5.5 -7t-20.5 -12h-242q-2 0 -4 1q-5 2 -5 5l356 906q2 3 5 6t5 3h244q3 1 6 0q5 -2 5 -4z" />
    <glyph glyph-name="backslash" unicode="\" horiz-adv-x="392" 
d="M275 -160q0 -5 -2 -11.5t-8 -6.5q-1 0 -3 2t-4 12l-123 1002v3q0 8 2.5 14t6.5 6q5 -1 5 -6l126 -1012v-3v0z" />
    <glyph glyph-name="bracketright" unicode="]" horiz-adv-x="275" 
d="M226 -102q-2 -3 -5 -6t-5 -3h-244q-3 -1 -6 0q-5 2 -5 4q0 3 5.5 7t20.5 12h224l338 875h-233q-2 0 -5 1q-6 2 -6 3q0 3 5.5 7t20.5 12h242q3 0 5 -1q4 -2 4 -5z" />
    <glyph glyph-name="underscore" unicode="_" horiz-adv-x="419" 
d="M422 -19q0 -2 -2.5 -9.5t-16.5 -7.5h-284q-6 0 -10 2q-2 1 -2 3q0 8 6 12t11 4h293q5 0 5 -4z" />
    <glyph glyph-name="grave" unicode="`" 
d="M305 298q0 -1 -3 -3q-2 -1 -3 -1q-16 1 -31 3t-27 6.5t-19 11.5t-7 17q0 5 3 8.5t8 3.5q4 0 7 -4t10.5 -10.5t21.5 -14.5t39 -16l1 -1v0z" />
    <glyph glyph-name="a" unicode="a" 
d="M590 116q0 -3 -4 -6q-2 -2 -6 -5q-3 -2 -8 -5.5t-11 -8.5q-10 -7 -38.5 -24.5t-65.5 -36.5t-78 -33.5t-75 -14.5q-26 0 -41.5 10t-15.5 36q0 28 20 72v1q0 1 -2 1t-5 -3q-11 -11 -31 -30.5t-43.5 -38t-46.5 -32.5t-40 -14q-14 0 -23 7.5t-9 22.5q0 27 21.5 61t58 64
t84.5 50.5t100 20.5q4 0 8 -1q8 -2 8 -5t-1 -5t-2 -3q-6 -9 -17.5 -24.5t-23.5 -35t-20.5 -40t-8.5 -39.5q0 -28 17 -39.5t45 -11.5q27 0 56 9t57 22.5t54.5 29.5t48.5 30q17 11 31 22q1 1 3 1q4 0 4 -4zM320 188q0 7 -10 7q-32 0 -68.5 -14.5t-68 -37t-52.5 -50.5t-21 -55
q0 -4 3 -13.5t16 -9.5q15 1 42.5 16.5t50.5 36.5q13 12 31.5 30t35.5 36t29 33t12 21z" />
    <glyph glyph-name="b" unicode="b" horiz-adv-x="314" 
d="M574 693q0 -17 -21 -58t-56 -94.5t-80.5 -115t-95 -120.5t-99.5 -110.5t-93 -84.5q-15 -39 -15 -65q0 -7 4 -12.5t12 -5.5q10 0 18 11.5t16 29.5q8 17 19 37.5t23.5 38t25.5 29.5t25 12q5 0 5 -7q0 -49 22.5 -70t55.5 -21q36 0 76.5 20t72.5 52q2 2 6 2t4 -3t-7 -9
q-42 -38 -85 -61t-81 -23q-33 0 -58 20t-38 65q-8 0 -18 -14.5t-19 -31.5q-11 -20 -22 -47q-4 -10 -9.5 -22t-12.5 -22.5t-15.5 -17t-18.5 -6.5q-16 2 -20.5 11.5t-4.5 20.5q0 38 28.5 103t73 141t99 154t107.5 141.5t97.5 103.5t69.5 40q9 0 9 -11zM536 648q0 7 -6 7
q-17 0 -47.5 -26t-67.5 -69t-78.5 -98.5t-79.5 -114t-70 -115.5t-51 -103q42 37 87.5 86.5t90 102.5t85 106.5t71 98.5t48.5 78.5t18 46.5z" />
    <glyph glyph-name="c" unicode="c" horiz-adv-x="332" 
d="M463 116q0 -3 -4 -6q-2 -2 -6 -5q-3 -2 -8 -5.5t-11 -8.5q-10 -7 -42 -25.5t-73 -38t-85.5 -34.5t-78.5 -15q-27 0 -44 12.5t-17 44.5q0 36 18.5 69.5t47 58.5t62 40t62.5 15q31 0 31 -31q0 -10 -7 -21t-16.5 -20.5t-20.5 -17.5t-20 -12q-4 -2 -6 -2q-4 0 -4 5q0 6 5 8
q4 2 11 8.5t14.5 15t13 17.5t5.5 16q0 8 -5 13t-19 5q-19 0 -43 -11.5t-45.5 -31t-36.5 -46t-15 -56.5q0 -31 16 -43t42 -12q30 0 68 12.5t73 29t63 32t37 21.5q17 11 31 22q1 1 3 1q4 0 4 -4z" />
    <glyph glyph-name="d" unicode="d" horiz-adv-x="530" 
d="M752 725q0 -11 -16 -39.5t-44.5 -69t-66.5 -89.5t-81.5 -101.5t-90.5 -105.5t-93 -102q-14 -32 -21.5 -60t-7.5 -49q0 -56 22.5 -78t56.5 -22q26 0 56.5 10t60 23.5t55 29t41.5 25.5q17 11 31 22q1 1 3 1q4 0 4 -4q0 -3 -4 -6q-2 -2 -6 -5q-3 -2 -8 -5.5t-11 -8.5
q-9 -6 -35.5 -23t-61.5 -35.5t-73.5 -32.5t-71.5 -14q-35 0 -57 21t-22 75q0 23 6.5 51t18.5 60q-39 -40 -75.5 -74.5t-68 -59.5t-56 -39t-40.5 -14q-8 0 -14 7.5t-6 18.5q0 33 25 63.5t61.5 56.5t78.5 46t75 31q2 1 6 1q5 0 5 -2q0 -3 -7 -6q-22 -7 -57.5 -23.5
t-69.5 -39.5t-59 -50t-25 -55q0 -17 13 -17t36 14t52.5 39t64.5 58t72 72q23 54 57 114t72.5 118t79.5 110.5t77 92t64.5 63t43.5 23.5q5 0 8 -5.5t3 -10.5zM712 682q0 6 -5 8q-11 0 -34 -19.5t-52.5 -53t-63 -77.5t-67 -93t-63.5 -99.5t-53 -97.5q40 43 81 89.5t78.5 91.5
t70 86t56.5 75t38 57.5t14 32.5z" />
    <glyph glyph-name="e" unicode="e" horiz-adv-x="370" 
d="M501 116q0 -3 -4 -6q-2 -2 -6 -5q-3 -2 -8 -5.5t-11 -8.5q-5 -3 -35 -22t-71.5 -40.5t-88.5 -38.5t-86 -17q-54 0 -76.5 22t-22.5 55q0 32 17 68t43.5 67.5t58 52t60.5 20.5q19 0 19 -19q0 -21 -22.5 -44t-51.5 -43.5t-56 -36t-37 -20.5q-4 -15 -4 -31q0 -28 19.5 -47
t68.5 -19q29 0 64.5 10t70.5 25t67 32.5t54 31.5q17 11 31 22q1 1 3 1q4 0 4 -4zM260 225q0 12 -11 12q-14 0 -31.5 -11.5t-34.5 -29.5t-32 -41t-24 -47q12 6 34.5 19.5t44 30t38 34t16.5 33.5z" />
    <glyph glyph-name="f" unicode="f" horiz-adv-x="365" 
d="M624 702q0 -24 -28 -71t-73 -105.5t-100.5 -122.5t-111.5 -122.5t-105.5 -105t-81.5 -69.5q-4 -5 -7.5 -10.5t-6.5 -10.5q2 -4 9.5 -16.5t23 -26t40 -23.5t58.5 -10q26 0 58.5 11t64 26t57 29.5t36.5 21.5q17 11 31 22q1 1 3 1q4 0 4 -4q0 -3 -4 -6q-2 -2 -6 -5
q-3 -2 -8 -5.5t-11 -8.5q-6 -4 -33 -20.5t-64 -34.5t-77 -32.5t-72 -14.5q-24 0 -42.5 5.5t-31.5 11.5q-15 7 -27 16q-4 0 -4 -5q0 -40 -15 -93.5t-40.5 -110.5t-59 -111.5t-69.5 -97.5t-73 -69.5t-70 -26.5q-8 0 -13.5 3.5t-5.5 11.5q0 20 31 82t83 150t119 193.5t140 213
t146.5 208t136.5 178.5t111.5 125t71.5 47q16 0 16 -18zM583 667q0 12 -12 12q-11 0 -34.5 -21.5t-56 -60t-73 -91t-85 -114t-92 -129.5t-94.5 -138q31 26 76 71t94.5 99t99 112t89 109.5t64 92t24.5 58.5zM106 22q0 5 -5 15.5t-13 10.5h-3q-57 -87 -108 -168.5t-90 -148
t-61.5 -112.5t-22.5 -61q0 -16 16 -16q22 0 52 24.5t61.5 64t63 90.5t56 104.5t39.5 104.5t15 92z" />
    <glyph glyph-name="g" unicode="g" horiz-adv-x="318" 
d="M374 227q0 -4 -1 -4q-2 -2 -7.5 -9t-7.5 -10q-1 -1 -7 -9t-12.5 -17.5t-13 -18.5t-9.5 -12q-16 -20 -45 -62.5t-65 -97.5q39 11 71 11q12 0 12 -7q0 -3 -1.5 -6.5t-2.5 -5.5q-1 -3 -6.5 -3.5t-12.5 -0.5q-37 0 -76 -12q-33 -49 -69 -103.5t-71.5 -107t-69 -100t-61 -83.5
t-47.5 -57.5t-29 -21.5q-14 0 -21.5 9.5t-11.5 22t-5 25t-1 18.5q0 41 17 84t45 84t65.5 79.5t79.5 71t86.5 57t86.5 39.5q26 39 49.5 73.5t43.5 60.5l1 2q0 1 -2 1q-1 0 -21 -16t-48 -34.5t-58 -34.5t-51 -16q-26 0 -26 20t24.5 52t64.5 62.5t90 53t102 22.5h8q2 1 4.5 4
t5.5 3h1q2 -1 2 -6zM349 209q0 7 -10 7q-37 0 -78 -19.5t-75.5 -46t-56.5 -54t-22 -43.5q0 -15 20 -15q12 0 31 9.5t42 25t47 34.5t44.5 38t36 36t21.5 28zM167 -44q-58 -21 -118 -61.5t-108 -91t-78.5 -107.5t-30.5 -112q0 -29 5.5 -42t24.5 -13q7 0 24 18.5t40.5 50.5
t52.5 74.5t60.5 90t64 97t63.5 96.5z" />
    <glyph glyph-name="h" unicode="h" horiz-adv-x="474" 
d="M698 724q0 -26 -31 -74t-80.5 -107t-112 -123t-125.5 -123.5t-120 -109t-96 -77.5q-17 -29 -27 -49.5t-10 -29.5l1 -1q2 -2 3 -2q3 0 7 3l239 169q7 0 8 -3q1 -2 1 -3q0 -5 -4 -10q-3 -3 -14.5 -15.5t-22.5 -30.5q-20 -30 -28 -51.5t-8 -36.5q0 -20 14 -29t37 -9
q26 0 58.5 8.5t65.5 21.5t63.5 27.5t50.5 27.5q17 11 31 22q1 1 3 1q4 0 4 -4q0 -3 -4 -6q-3 -2 -7 -6q-4 -3 -8.5 -6t-9.5 -7q-26 -17 -61 -35t-71.5 -33t-72 -24.5t-62.5 -9.5q-25 0 -40.5 10t-15.5 33q0 18 10.5 45t34.5 65q2 4 2 5t-2 1q-1 0 -5 -2q-1 -1 -16 -11
t-36.5 -25t-47 -32t-48 -32.5t-38.5 -26t-19 -12.5q-6 -2 -7 -2q-7 0 -7 7q0 15 20.5 54.5t55 94t80 119t96 129t102 125.5t98.5 108t86 75t64 28q7 0 14.5 -5.5t7.5 -15.5zM660 692q0 9 -6 14t-14 5q-16 0 -50.5 -29.5t-79.5 -78t-96.5 -110.5t-101 -126.5t-93.5 -126.5
t-74 -110q37 29 89.5 75t109.5 100.5t113.5 112.5t101.5 111t73 96t28 67z" />
    <glyph glyph-name="i" unicode="i" horiz-adv-x="346" 
d="M367 386q0 -4 -4.5 -11.5t-10.5 -14.5t-13 -12t-12 -5q-4 0 -9 3t-5 11q0 4 3 12.5t8 16.5t11.5 14.5t14.5 6.5q17 0 17 -21zM478 116q0 -3 -4 -6q-2 -2 -6 -5q-3 -2 -8 -5.5t-11 -8.5q-6 -4 -33 -20.5t-64 -34.5t-77 -32.5t-72 -14.5q-26 0 -41.5 12.5t-16.5 43.5
q0 15 4.5 30.5t10.5 28.5t11 21.5t6 9.5l2 4t1 4t-2 2q-4 0 -17 -10l-18 -14t-19 -14q-7 1 -7 5q0 1 2 3l1 1q32 23 59 46.5t49 45.5l2 2q1 1 5 1q3 0 3 -4t-2.5 -8.5t-4.5 -6.5q-1 -1 -7 -9.5t-14 -20.5t-16 -26.5t-13 -28.5q-9 -25 -9 -46q0 -29 14.5 -40.5t37.5 -11.5
q26 0 58.5 11t64 26t57 29.5t36.5 21.5q17 11 31 22q1 1 3 1q4 0 4 -4z" />
    <glyph glyph-name="j" unicode="j" horiz-adv-x="249" 
d="M331 366q0 -4 -4.5 -11.5t-10.5 -14.5t-13 -12t-12 -5q-4 0 -9 3t-5 11q0 4 3 12.5t8 16.5t11.5 14.5t14.5 6.5q17 0 17 -21zM253 219q0 -4 -2.5 -8.5t-4.5 -6.5q-29 -40 -65.5 -104.5t-77.5 -140.5q45 26 75 39t35 13q19 0 19 -11q0 -8 -10 -11q-30 -7 -63 -20t-67 -31
q-31 -58 -62.5 -118t-63 -116.5t-61.5 -106.5t-57 -87t-50 -58.5t-40 -21.5q-14 0 -21.5 9.5t-11.5 22t-5 25t-1 18.5q0 48 17 92.5t44.5 86t64 79t76 70.5t80 60.5t76.5 49.5q32 59 61 110.5t52 88.5q1 2 3.5 6t2.5 7q0 2 -3 2q-4 0 -17 -10q-9 -7 -25.5 -20t-26.5 -20
q-7 1 -7 5q0 1 2 3l1 1q16 12 33 25.5t33.5 27.5t31 27t25.5 24l2 2q1 1 5 1q3 0 3 -4zM66 -77q-60 -36 -117 -84t-102 -101t-72.5 -108.5t-27.5 -105.5q0 -29 4.5 -44t23.5 -15q10 0 27 19.5t40 52.5t50 78t56 96t59 105t59 107z" />
    <glyph glyph-name="k" unicode="k" horiz-adv-x="373" 
d="M586 707q0 -37 -22.5 -86.5t-60 -103.5t-85.5 -111t-98 -109.5t-98.5 -98.5t-87.5 -79q-11 -19 -17.5 -30.5t-7.5 -13.5q2 0 4 2q19 19 51 49t67.5 58.5t69.5 49t58 20.5q27 0 27 -22q0 -24 -22.5 -47t-53.5 -41.5t-63.5 -31t-52.5 -17.5q-3 0 -6 -4q-2 -3 -4.5 -8.5
t-2.5 -16.5q0 -32 17 -45t43 -13t57.5 9.5t62.5 23.5t59 29t46 27q17 11 31 22q1 1 3 1q4 0 4 -4q0 -3 -4 -6q-2 -2 -6 -5q-3 -2 -8 -5.5t-11 -8.5q-7 -5 -36.5 -22t-68.5 -35.5t-81.5 -33t-74.5 -14.5q-25 0 -40 11.5t-15 39.5q0 20 6 33t13 21q8 9 18 14q16 3 42 14.5
t51 27t43.5 33.5t18.5 34q0 10 -14 10q-19 0 -47 -15.5t-57.5 -38t-57 -47.5t-45.5 -44q-4 -4 -13.5 -14.5t-20 -22t-19 -21t-10.5 -12.5q-6 -6 -9 -6t-3 2q-2 2 -2 5q0 6 5 12q18 24 45.5 67t60.5 97.5t70 116.5t75.5 123t76 117t71.5 99t62 68.5t48 25.5q19 0 19 -29z
M551 681q0 7 -3.5 13t-11.5 6q-11 0 -37 -30t-61 -78.5t-75.5 -109.5t-80 -122.5t-74.5 -118.5t-59 -98q38 33 82 76t88.5 90.5t85.5 98t73.5 99t52 93.5t20.5 81z" />
    <glyph glyph-name="l" unicode="l" horiz-adv-x="346" 
d="M623 745q0 -29 -23.5 -79.5t-62.5 -111t-89 -125.5t-102.5 -125t-104.5 -109.5t-94 -77.5v-8q0 -56 22.5 -78t56.5 -22q26 0 56.5 10t60 23.5t55 29t41.5 25.5q17 11 31 22q1 1 3 1q4 0 4 -4q0 -3 -4 -6q-2 -2 -6 -5q-3 -2 -8 -5.5t-11 -8.5q-8 -6 -34 -22.5t-60.5 -34
t-73 -31t-71.5 -13.5q-38 0 -62.5 23t-24.5 84q0 31 15.5 76t41.5 97.5t61 109.5t74.5 111.5t81 104t80.5 86.5t73.5 59t59.5 22q7 0 10 -3q4 -3 4 -15zM581 714q0 6 -4 9q-2 2 -5 2q-23 0 -61 -32t-83 -84t-91.5 -117t-86 -131t-67 -126.5t-34.5 -103.5q51 40 102.5 91
t99.5 107t90 113.5t73 109t49 94t18 68.5z" />
    <glyph glyph-name="m" unicode="m" horiz-adv-x="655" 
d="M784 116q0 -3 -4 -6q-2 -2 -6 -5q-3 -2 -8 -5.5t-11 -8.5q2 1 -7.5 -5t-26 -16t-38.5 -22t-46 -22t-47 -17t-42 -7q-22 0 -35.5 11t-13.5 39q0 15 3.5 31.5t9 32.5t11.5 29t10 21q0 3 -2 3h-3q-24 -16 -53.5 -43t-59 -52.5t-54.5 -44.5t-40 -19q-6 0 -10 5.5t-4 10.5
t9 21.5t19.5 37.5t19 42t8.5 35q0 16 -15 16q-23 0 -50 -15t-55 -37t-54.5 -45t-48.5 -40t-27 -21t-7 -4q-3 0 -4 2q-1 1 -1 4q0 5 3 9q1 2 12.5 18.5t25 37t25 37.5t12.5 19q0 2 -2 2q-4 0 -17 -10l-18 -14t-19 -14q-7 1 -7 5q0 1 2 3l1 1q16 12 28.5 21.5t23 19t20.5 19
t21 20.5l2 2q1 1 5 1q8 0 8 -6q0 -7 -10 -22t-25 -34t-32 -41.5t-30 -44.5q0 -2 1 -2h1q2 0 15 11t33 28t44.5 37t50 37t50 28.5t43.5 11.5q20 0 20 -22q0 -15 -7.5 -36t-17 -41t-17 -35.5t-7.5 -20.5q0 -4 4 -4q8 0 23.5 10t35 25t40.5 33.5t40.5 36.5t35 33t24.5 22
q2 2 6 4t8 2q5 0 7 -4.5t2 -8.5q0 -6 -6.5 -20.5t-14 -33t-14 -38.5t-6.5 -36q0 -23 12 -33t32 -10q22 0 50 9.5t54 21.5t46.5 24t27.5 17q17 11 31 22q1 1 3 1q4 0 4 -4z" />
    <glyph glyph-name="n" unicode="n" horiz-adv-x="569" 
d="M701 116q0 -3 -4 -6q-2 -2 -6 -5q-3 -2 -8 -5.5t-11 -8.5l-2 -1q-8 -6 -37 -24.5t-67.5 -38.5t-80.5 -36t-76 -16q-31 0 -42.5 14t-11.5 36q0 19 6.5 41.5t15 44t15.5 38.5t8 26q0 2 -2 4q-1 1 -3 0q-24 -16 -58.5 -50.5t-69 -70t-64.5 -62t-45 -26.5q-6 0 -10 5.5
t-4 10.5q0 12 12 32t26.5 41.5t26.5 41.5t12 33q0 14 -4.5 19t-11.5 5q-11 0 -24 -8t-21 -15l-18 -14t-19 -14q-7 1 -7 5q0 1 2 3l1 1q8 6 16.5 12.5t16.5 12.5q15 12 36 26.5t37 14.5q9 0 15 -7.5t6 -24.5q0 -13 -11 -34.5t-24 -43.5t-24 -40t-11 -25q0 -4 4 -4
q5 0 22 13.5t39.5 34.5t48 46t49.5 48.5t42.5 42t27.5 25.5q2 2 6 4t8 2q5 0 7 -4.5t2 -8.5q0 -6 -7.5 -22.5t-17 -37.5t-17 -44t-7.5 -43q0 -23 13.5 -38t50.5 -15q27 0 56 9t57 22.5t54.5 29.5t48.5 30q17 11 31 22q1 1 3 1q4 0 4 -4z" />
    <glyph glyph-name="o" unicode="o" horiz-adv-x="306" 
d="M492 158q0 -3 -7 -9q-38 -35 -77.5 -56t-74.5 -21q-27 0 -46 8.5t-32 23.5q-17 -28 -37.5 -51t-41 -39.5t-40 -25.5t-33.5 -9q-13 0 -21 8t-8 25q0 24 17 58.5t40.5 66.5t49 55t43.5 23h1q3 32 15 54.5t28 22.5q15 0 22 -12t7 -32q0 -32 -8 -62.5t-22 -58.5
q13 -16 32.5 -25.5t46.5 -9.5q32 0 67 17.5t69 49.5q2 2 6 2t4 -3zM283 240q0 28 -18 28q-12 0 -19 -15.5t-7 -38.5q0 -18 4.5 -37.5t15.5 -36.5q11 23 17.5 48.5t6.5 51.5zM246 115q-12 17 -17 39t-5 44v1l-5 -1q-11 -2 -30 -20.5t-37 -43t-31.5 -50.5t-13.5 -44
q0 -34 23 -34q11 0 25.5 8t30.5 22.5t31.5 34.5t28.5 44z" />
    <glyph glyph-name="p" unicode="p" horiz-adv-x="568" 
d="M700 116q0 -3 -4 -6q-2 -2 -6 -5q-3 -2 -8 -5.5t-11 -8.5q-22 -15 -51 -33t-62 -33.5t-70.5 -26t-77.5 -10.5q-21 0 -42.5 2.5t-40 9.5t-31.5 19.5t-17 31.5q0 2 -0.5 6t-0.5 8q0 10 3 10q2 0 3 -1q27 -32 64 -45.5t79 -15.5q33 34 33 72q0 40 -32.5 74.5t-79.5 53.5
q-15 -21 -28 -43.5t-30 -48.5q-15 -23 -37.5 -68.5t-49.5 -100.5t-55.5 -112t-55.5 -104t-50.5 -77t-40.5 -30q-11 0 -17 30.5t-6 79.5q0 45 6 101t19.5 113.5t35 112.5t52.5 97.5t73 68.5t95 26q26 0 50.5 -4.5t45.5 -12.5q21 29 44 56t47 50q3 3 6 3q8 0 8 -7q0 -2 -2 -4
q-33 -32 -55 -56t-39 -46q51 -22 80 -60t29 -81q0 -45 -32 -83q36 0 67.5 7.5t58.5 19.5t50.5 27t44.5 30q17 11 31 22q1 1 3 1q4 0 4 -4zM338 217q-43 17 -88 17t-81.5 -24.5t-65 -64.5t-49 -91.5t-34 -105t-20 -104.5t-6.5 -91t6.5 -64.5t17.5 -24.5q10 0 28.5 23.5t40 60
t44 80.5t42 84t33.5 70.5t19 40.5q15 31 44 84t69 110z" />
    <glyph glyph-name="q" unicode="q" horiz-adv-x="359" 
d="M491 116q0 -3 -4 -6q-3 -2 -7 -5q-3 -2 -7.5 -5.5t-10.5 -8.5q-11 -8 -32.5 -22t-49 -29.5t-58.5 -32.5t-63 -31q14 -20 14 -41q0 -32 -15.5 -70.5t-41.5 -78t-60 -76t-70.5 -65t-73.5 -46t-68 -17.5q-11 0 -22.5 4.5t-11.5 18.5q0 21 18.5 59t47 83.5t63 95t67.5 93.5
q-22 3 -22 16q0 7 6 15.5t16.5 16t24 14t28.5 9.5q13 17 23 31t17 24q0 3 -3 3q-22 -18 -43 -33q-18 -13 -38 -23t-36 -10q-18 0 -18 21q0 14 11.5 36.5t38 49.5t69.5 57.5t106 60.5q2 0 3.5 -2t1.5 -4q0 -4 -4 -7q-39 -16 -74.5 -40t-62.5 -48t-43 -46t-16 -35
q0 -14 21 -14q18 0 43.5 19.5t52.5 48t53 61t45 59.5q6 9 12 9q3 0 4 -1q2 -2 2 -4q0 -3 -2 -6.5t-3 -5.5q-1 -1 -13 -16.5t-31.5 -41.5t-44.5 -60.5t-52 -73.5q-2 -2 -4 -6q4 1 14 1q20 0 36 -7.5t27 -18.5q31 13 62 29t58.5 31.5t49 29t32.5 22.5q8 6 15.5 11t15.5 11
q1 1 3 1q4 0 4 -4zM226 -26q-8 11 -20.5 18t-30.5 7h-9q-9 -14 -18.5 -26t-18.5 -25h2q17 0 41.5 7t53.5 19zM150 -5q-19 -6 -34 -17t-15 -19q0 -9 15 -10q9 12 17.5 23.5t16.5 22.5zM243 -79q0 8 -2.5 20t-8.5 23q-32 -14 -59.5 -22t-47.5 -8h-6q-36 -50 -68 -95.5
t-56 -83.5t-38 -68t-14 -50q0 -14 9.5 -21t24.5 -7q27 0 57.5 15.5t60 41.5t56.5 58.5t47.5 67.5t32.5 68.5t12 60.5z" />
    <glyph glyph-name="r" unicode="r" horiz-adv-x="491" 
d="M623 116q0 -3 -4 -6q-40 -31 -86 -56q-39 -21 -90 -38.5t-108 -17.5q-39 0 -55.5 20t-16.5 50q0 23 7.5 47.5t20.5 47.5h-8q-24 0 -35 11t-13 26q-23 -23 -51 -46.5t-60 -46.5q-7 1 -7 5q0 1 2 3l1 1q35 25 63 49.5t51 47.5q1 18 10 39t22 38.5t27 29.5t24 12q7 0 7 -7
q0 -14 -18 -41t-50 -62q2 -14 13 -24.5t34 -12.5q18 26 40 44t42 18q9 0 9 -7q0 -6 -8 -17.5t-21 -23t-30 -21t-34 -13.5q-17 -34 -17 -68q0 -31 18.5 -53.5t62.5 -22.5q26 0 57.5 7t64.5 20t66 31t63 40q1 1 3 1q4 0 4 -4zM301 303q0 3 -3 3q-6 0 -12.5 -6.5t-13 -16
t-11 -22t-5.5 -24.5q21 24 33 41.5t12 24.5zM370 223q0 2 -2 2q-15 0 -29.5 -11.5t-26.5 -28.5q11 0 21.5 5t18.5 11.5t13 12.5t5 9z" />
    <glyph glyph-name="s" unicode="s" horiz-adv-x="369" 
d="M501 116q0 -3 -4 -6q-2 -2 -6 -5q-3 -2 -8 -5.5t-11 -8.5q-42 -28 -88.5 -48.5t-99.5 -20.5q-17 0 -35.5 2.5t-37.5 8.5q-26 -21 -40 -21q-7 0 -12.5 2t-9.5 8.5t-6.5 18.5t-2.5 32q0 11 1 18.5t4 7.5q1 0 4 -3q30 -31 70 -45q15 13 30 30.5t26.5 36t19 35t7.5 28.5
q0 17 -17 17t-38.5 -9.5t-40.5 -21.5q-22 -14 -44 -32l-18 -14t-19 -14q-7 1 -7 5q0 1 2 3l1 1q9 7 18 13.5t17 13.5q31 25 61 44q26 17 53 30t47 13q22 0 22 -19q0 -14 -10 -34.5t-26 -43t-36 -45t-39 -40.5q32 -9 64 -9q45 0 89 16t82 42q8 6 15.5 11t15.5 11q1 1 3 1
q4 0 4 -4zM201 37q-12 5 -23.5 10.5t-23.5 13.5q-1 1 -3 1q-3 0 -3 -4q0 -8 4 -19.5t21 -11.5q11 0 28 10z" />
    <glyph glyph-name="t" unicode="t" horiz-adv-x="341" 
d="M589 439q0 -4 -6 -6t-15 -2q-17 -1 -69 0t-117 1h-9q-28 -48 -61.5 -97.5t-65 -92t-57 -74t-39.5 -43.5q-9 -25 -9 -44t8 -30.5t20 -18t27 -8.5t29 -2q24 0 51 6t54.5 16.5t54.5 24t49 28.5q17 11 31 22q1 1 3 1q4 0 4 -4q0 -3 -4 -6q-2 -2 -6 -5q-3 -2 -8 -5.5t-11 -8.5
q-69 -48 -128 -68.5t-104 -20.5q-46 0 -72 19t-26 51q0 22 16 62t42 89.5t58.5 104t65.5 104.5q-13 0 -36 -0.5t-51.5 -0.5t-59.5 -0.5t-60 -1t-54 -1.5t-41 -2q-5 0 -12.5 2.5t-7.5 7.5q2 7 5 11q2 4 5.5 7t8.5 3q12 -3 48.5 -5t83 -3.5t95 -2.5t84.5 -1q24 36 46.5 67
t40.5 54t30.5 36t17.5 13q3 0 4 -1q3 -3 3 -8q0 -27 -18 -69t-46 -92q44 1 93 2.5t106 1.5q6 0 7.5 -3t1.5 -7zM419 570q0 5 -2 5q-4 0 -13 -10t-22 -27.5t-29 -41.5l-34 -51h49q23 40 37 73t14 52zM311 432q-24 -38 -48.5 -79.5t-45.5 -79.5t-36.5 -70t-21.5 -52
q15 15 39 45t52 69t57 82.5t53 84.5h-49z" />
    <glyph glyph-name="u" unicode="u" horiz-adv-x="554" 
d="M685 116q0 -3 -4 -6q-2 -2 -6 -5q-3 -2 -8 -5.5t-11 -8.5q-6 -4 -25 -15.5t-46 -23.5t-58.5 -21.5t-63.5 -9.5q-31 0 -44.5 14.5t-13.5 37.5q0 17 6 36t17 39q-2 2 -3 2q-3 0 -8.5 -6t-18.5 -16q-18 -17 -47.5 -37.5t-61 -38.5t-62 -30.5t-51.5 -12.5q-31 0 -31 30
q0 17 11 45.5t37 71.5q0 2 -2 2t-12.5 -9t-17.5 -14l-18 -14t-19 -14q-7 1 -7 5q0 1 2 3l1 1q16 12 33 25.5t33 27.5t30 27.5t25 24.5l2 2q1 1 5 1q3 0 3 -4t-2.5 -8.5t-4.5 -6.5q-35 -44 -52 -78t-17 -56q0 -35 37 -35q31 0 85 29.5t125 96.5q11 10 21 21t18.5 21t14.5 17
t7 9q6 6 8 6t4 -2t2 -4t-2 -5t-4 -7q-2 -3 -9.5 -13t-16.5 -23.5t-17 -27.5t-10 -24q-2 -8 -3 -17t-1 -17q0 -56 61 -56q21 0 42 5.5t40.5 14t37.5 18.5t32 19q17 11 31 22q1 1 3 1q4 0 4 -4z" />
    <glyph glyph-name="v" unicode="v" horiz-adv-x="470" 
d="M656 158q0 -2 -7 -9q-44 -40 -90 -61t-84 -21q-29 0 -50 13t-27 41q-28 -24 -58 -46t-59 -38.5t-54 -26.5t-43 -10q-31 0 -31 31q0 17 11.5 46.5t38.5 75.5q3 5 3 8q0 2 -2 2q-4 0 -17 -10q-4 -3 -13 -9.5t-18.5 -13.5t-18 -13.5t-13.5 -9.5q-7 1 -7 5q0 1 2 3l1 1
q16 12 35 26.5t37.5 29.5t34.5 29t27 25l2 2q1 1 5 1q3 0 3 -4t-2.5 -8.5t-4.5 -6.5q-1 -1 -6.5 -9.5t-13 -20.5t-16 -26.5t-14.5 -28.5q-23 -49 -23 -74q0 -26 25 -26q15 0 37.5 9.5t48 25t51.5 35.5t50 41v7q0 23 10 47.5t25 44.5t32.5 33t32.5 13q10 0 10 -11
q0 -26 -27 -63t-68 -74q7 -24 27 -36.5t49 -12.5q34 0 75.5 18.5t83.5 56.5q2 2 6 2t4 -3zM477 246q0 4 -3 4q-9 0 -20.5 -8.5t-21 -22.5t-16.5 -30.5t-7 -33.5v-7q29 29 48.5 55t19.5 43z" />
    <glyph glyph-name="w" unicode="w" horiz-adv-x="644" 
d="M829 158q0 -3 -7 -9q-42 -38 -85 -61t-81 -23q-23 0 -40.5 7.5t-31.5 21.5q-26 -45 -68 -76.5t-93 -31.5q-25 0 -37 15.5t-12 40.5q0 18 6 40t19 45q0 4 -2 4q-4 0 -5 -1l-2 -2q-20 -19 -48.5 -41t-58.5 -40.5t-57.5 -30.5t-46.5 -12q-26 0 -26 27q0 17 11.5 46.5
t38.5 75.5q3 5 3 8q0 2 -2 2q-4 0 -17 -10q-4 -3 -13 -9.5t-18.5 -13.5t-18 -13.5t-13.5 -9.5q-7 1 -7 5q0 1 2 3l1 1q16 12 35 26.5t37.5 29.5t34.5 29t27 25l2 2q1 1 5 1q3 0 3 -4t-2.5 -8.5t-4.5 -6.5q-1 -1 -6.5 -9.5t-13 -20.5t-16 -26.5t-14.5 -28.5q-23 -49 -23 -74
q0 -24 22 -24q14 0 34.5 9t44 24.5t48 34.5t47.5 38.5t42 38.5t30 33q5 5 7 5q4 0 4 -4q0 -3 -3 -6q-4 -4 -14.5 -19.5t-22 -35.5t-20.5 -42t-9 -40q0 -33 13.5 -44.5t44.5 -11.5q35 0 69 26.5t57 67.5q-16 20 -23.5 45.5t-7.5 49.5q0 35 14 54.5t29 19.5q11 0 20 -12.5
t9 -41.5q0 -24 -6 -49t-17 -50q13 -14 31 -22t43 -8q36 0 76.5 20t72.5 52q2 2 6 2t4 -3zM609 211q0 23 -6.5 34.5t-14.5 11.5q-9 0 -16.5 -13.5t-7.5 -39.5q0 -20 6 -41t20 -39q19 44 19 87z" />
    <glyph glyph-name="x" unicode="x" horiz-adv-x="500" 
d="M631 116q0 -3 -4 -6q-2 -2 -6 -5q-3 -2 -8 -5.5t-11 -8.5q-10 -7 -38.5 -24.5t-65.5 -36.5t-78 -33.5t-75 -14.5q-32 0 -43.5 17.5t-11.5 43.5q0 17 3 36.5t7 39.5q-25 -18 -49.5 -35.5t-44 -32t-32.5 -24t-16 -11.5q-2 -2 -5 -4q-6 -4 -9 -4q-1 0 -2 1t-1 3q0 3 3.5 7
t8.5 6q19 14 42 31q20 14 47.5 33.5t60.5 42.5q2 14 4 25.5t2 22.5q0 21 -9.5 27t-17.5 6h-7q-2 0 -3 -1q-5 0 -21.5 -11t-35.5 -24.5t-35 -26t-20 -15.5l-18 -14t-19 -14q-7 1 -7 5q0 1 2 3l1 1q8 6 16.5 12.5t16.5 12.5q9 7 29.5 23t43 32t43 28t29.5 12q8 0 18.5 -4
t10.5 -21q0 -14 -3.5 -32.5t-8.5 -38.5q28 19 57.5 38t62.5 41q4 3 9 6t8 3q2 0 2 -2q0 -5 -8 -11q-1 -1 -12.5 -8t-30 -19t-42 -28t-48.5 -33q-5 -28 -5 -49q0 -30 14 -51t56 -21q27 0 56 9t57 22.5t54.5 29.5t48.5 30q17 11 31 22q1 1 3 1q4 0 4 -4z" />
    <glyph glyph-name="y" unicode="y" horiz-adv-x="414" 
d="M481 240q0 -2 -10 -15t-22.5 -29t-24 -30t-15.5 -19q-17 -21 -45 -62.5t-63 -94.5q38 8 69 8q12 0 12 -7q0 -3 -1.5 -6.5t-2.5 -5.5q-1 -3 -6.5 -3.5t-12.5 -0.5q-35 0 -73 -9q-30 -46 -62 -95.5t-64 -96.5t-62.5 -90t-55.5 -75t-44 -51t-29 -19q-14 0 -21.5 9.5
t-11.5 22t-5 25t-1 18.5q1 62 33 120.5t82 108t112 86.5t122 55q26 37 48.5 70.5t42.5 59.5q3 5 3 7t-2 2t-3 -1q-16 -13 -38.5 -30.5t-47.5 -33.5t-50.5 -27t-47.5 -11q-16 0 -25.5 10t-9.5 33q0 18 8.5 34.5t19 30t19 22t8.5 11.5q0 2 -2 2q-5 0 -18 -10q-4 -3 -12.5 -9.5
t-17.5 -13.5t-17.5 -13.5t-13.5 -9.5q-6 1 -6 4q0 1 2 3q1 1 1 2q16 12 34.5 26.5t36.5 29.5t34 29t27 25l2 2q1 1 5 1q3 0 3 -4t-2.5 -8.5t-4.5 -6.5q-21 -25 -39 -50q-15 -21 -27.5 -43t-12.5 -38q0 -20 8.5 -27.5t21.5 -7.5q22 0 48.5 12.5t50.5 28.5q28 18 56 41
q12 11 26.5 25t27 27.5t22.5 23.5l13 13q7 8 15.5 18t12.5 10q3 0 3 -3zM264 -40q-56 -17 -110.5 -49t-98 -75.5t-70.5 -95.5t-27 -107q0 -29 5.5 -42t24.5 -13q10 0 38.5 35.5t67 91t83 123t87.5 132.5z" />
    <glyph glyph-name="z" unicode="z" horiz-adv-x="441" 
d="M451 24q0 -1 -7 -4q-10 -3 -19.5 -6t-19.5 -7q14 -23 14 -54q0 -33 -14 -71t-37 -75t-53.5 -72t-64.5 -61t-68.5 -42t-65.5 -16q-20 0 -35 8.5t-15 31.5q0 34 17 80t54.5 94.5t97 94.5t144.5 80q-25 36 -87 45q-23 -18 -49 -29t-52 -11q-36 0 -36 14q0 11 30 24.5
t89 13.5h8.5t8.5 -1q27 24 45.5 53t18.5 52q0 17 -11.5 27t-38.5 10q-23 0 -48.5 -10.5t-46.5 -23.5q-25 -15 -49 -34l-18 -14t-19 -14q-7 1 -7 5q0 1 2 3l1 1q9 7 18 13.5t17 13.5q32 26 62 46q26 17 53.5 31t47.5 14q32 0 46 -13.5t14 -34.5q0 -28 -21 -62.5t-53 -63.5
q37 -4 60.5 -16t36.5 -30q11 4 21.5 7t21.5 7q7 0 7 -4zM280 52q-7 1 -13.5 1h-13.5q-34 0 -53.5 -9.5t-19.5 -17.5t20 -8q19 0 39.5 9.5t40.5 24.5zM395 -53q0 30 -12 52q-85 -35 -141 -82t-89.5 -92.5t-47 -84t-13.5 -54.5q0 -17 8 -35t33 -18t54 14.5t58 39t56 57t48 67
t33.5 70t12.5 66.5z" />
    <glyph glyph-name="braceleft" unicode="{" horiz-adv-x="543" 
d="M686 811q0 -3 -4 -8t-8 -5q-61 -4 -101.5 -22t-67.5 -44.5t-43 -60.5t-27.5 -70t-21.5 -72.5t-25 -69t-37 -58.5t-58 -42q7 -14 8 -29.5t1 -32.5q0 -33 -20.5 -72.5t-45 -80.5t-45 -81.5t-20.5 -75.5q0 -38 29.5 -64.5t92.5 -45.5q2 0 2 -2q0 -3 -7 -8.5t-12 -5.5
q-70 21 -97 52t-27 69q0 36 19 75t42 78t42.5 78t21.5 75q0 6 -0.5 16.5t-2 21t-4.5 20.5t-6 16q0 7 8 11q4 2 8 2q28 7 47 29.5t33.5 55t27 71t28.5 78t37 76t52 65t74.5 46t104.5 17.5q2 0 2 -2z" />
    <glyph glyph-name="braceright" unicode="}" horiz-adv-x="457" 
d="M590 692q0 -36 -19 -75t-42 -78t-42.5 -78t-21.5 -75q0 -6 0.5 -16.5t2 -21t4.5 -20.5t6 -16q0 -7 -8 -11q-4 -2 -8 -2q-28 -7 -47 -29.5t-33.5 -55t-27 -71t-28.5 -78t-37 -76t-52 -65t-74.5 -46t-104.5 -17.5q-2 0 -2 2q0 3 4 8t8 5q61 4 101.5 22t67.5 44.5t43 60.5
t27.5 70t21.5 72.5t25 69t37 58.5t58 42q-7 14 -8 29.5t-1 32.5q0 33 20.5 72.5t45 80.5t45 81.5t20.5 75.5q0 38 -29.5 64.5t-92.5 45.5q-2 0 -2 2q0 3 7 8.5t12 5.5q70 -21 97 -52t27 -69z" />
    <glyph glyph-name="exclamdown" unicode="&#xa1;" horiz-adv-x="583" 
d="M509 344q0 -6 -3 -14q-5 -14 -16 -22.5t-22 -8.5q-15 0 -15 18q0 8 2 13q6 13 17 22t22 9q15 0 15 -17zM415 205q0 -6 -4 -15q-30 -52 -53.5 -91.5t-46.5 -75t-47.5 -71t-56.5 -80t-74.5 -102.5t-101.5 -138l-4 -2t-5 -1q-6 0 -20 3.5t-14 9.5q0 2 2 4t5 6
q124 138 203 241t125 172.5t65 105.5t23 41q1 0 2 -1q2 -2 2 -6z" />
    <glyph glyph-name="cent" unicode="&#xa2;" horiz-adv-x="361" 
d="M404 116q0 -3 -4 -6q-2 -2 -6 -5q-3 -2 -8 -5.5t-11 -8.5q-9 -7 -39.5 -24.5t-70.5 -36.5t-82.5 -34.5t-77.5 -17.5l-56 -114q-2 -5 -4 -7l-4 -4t-3 -1q-7 0 -7 7q0 5 1.5 9.5t3.5 7.5l50 103q-23 2 -37 14.5t-14 41.5q0 33 15.5 63.5t40.5 55t55 41t58 21.5l71 144
q2 4 6 4l4 -2t2 -9q0 -7 -4 -14l-60 -121h2q31 0 31 -31q0 -10 -7 -21t-16.5 -20.5t-20.5 -17.5t-20 -12q-4 -2 -6 -2q-4 0 -4 5q0 6 5 8q4 2 11 8.5t14.5 15t13 17.5t5.5 16q0 8 -5 13t-19 5q-19 0 -43 -11.5t-45.5 -31t-36.5 -46t-15 -56.5q0 -31 16 -43t42 -12
q30 0 68 12.5t73 29t63 32t37 21.5q17 11 31 22q1 1 3 1q4 0 4 -4z" />
    <glyph glyph-name="sterling" unicode="&#xa3;" horiz-adv-x="828" 
d="M917 647q0 -35 -15.5 -76t-41 -82.5t-58 -80.5t-65.5 -69t-64.5 -48t-54.5 -18q-25 0 -37.5 14.5t-12.5 40.5q0 44 25.5 83t56.5 68q36 34 81 64q2 2 4 3q4 2 7 2q2 0 3 -4q0 -6 -10 -12q-19 -11 -43 -31t-44.5 -44t-34.5 -51t-14 -51q0 -18 9.5 -32.5t30.5 -14.5
q35 0 76.5 32.5t77 80.5t59.5 103t24 101q0 42 -24.5 69.5t-84.5 27.5q-69 0 -133 -25.5t-124 -69.5t-115.5 -103t-106.5 -126h164q2 0 4 -1t2 -3t-2.5 -10.5t-19.5 -8.5h-166q-5 -7 -9 -13t-9 -12h179q2 0 4 -1t2 -3t-2.5 -10.5t-19.5 -8.5h-180q-48 -68 -92 -137t-85 -133
q-2 -2 -4 -6.5t-2 -6.5q0 -1 1 -1h1q21 18 50.5 40t63.5 40.5t71 31.5t73 13q39 0 73 -14t65 -35t61.5 -45t63 -45t68.5 -35t79 -14q35 0 67.5 15t58.5 33q30 21 56 47q0 1 1 1h2q3 0 3 -5q0 -3 -2 -5q-29 -30 -66 -55q-32 -21 -74.5 -38.5t-95.5 -17.5q-36 0 -70.5 14
t-68.5 34.5t-66.5 45t-64.5 45t-63.5 34.5t-63.5 14q-37 0 -76 -18.5t-74.5 -44t-65 -53t-48.5 -45.5q-5 -5 -8 -5t-3 4t3 9q51 89 103.5 174t108.5 164h-59q-5 0 -7.5 1t-4.5 2t-2 2q0 10 7 14t12 4h70q5 6 9 12t9 13h-72q-5 0 -7.5 1t-4.5 2t-2 2q0 10 7 14t12 4h85
q59 77 120 141t125.5 110t132 72t138.5 26q73 0 103.5 -27.5t30.5 -72.5z" />
    <glyph glyph-name="currency" unicode="&#xa4;" horiz-adv-x="891" 
d="M1096 657q0 -5 -10 -8q-33 -8 -66.5 -21t-67.5 -29q-5 -44 -29 -90t-59 -88.5t-76 -80t-81 -65.5t-74 -44t-54 -16q-23 0 -23 21q0 35 29 82t78.5 96.5t116 98t141.5 86.5v1q0 24 -8 44.5t-26 35.5t-46.5 23.5t-69.5 8.5q-64 0 -133.5 -24.5t-136.5 -65t-128.5 -94
t-110.5 -112.5h190q2 0 4 -1t2 -3t-2.5 -10.5t-19.5 -8.5h-192q-5 -7 -9.5 -13t-9.5 -12h206q2 0 4 -1t2 -3t-2.5 -10.5t-19.5 -8.5h-206q-36 -54 -56 -105.5t-20 -96.5q0 -33 12.5 -61t40 -48.5t70.5 -31.5t104 -11q73 0 139.5 18.5t119.5 41.5t88.5 44.5t44.5 28.5
q5 3 6 3q4 0 4 -5q0 -3 -2 -5q-38 -26 -91 -54t-112 -51t-121 -37.5t-118 -14.5q-59 0 -100.5 11.5t-68 32t-39 49t-12.5 62.5q0 51 23.5 109.5t65.5 120.5h-61q-5 0 -7.5 1t-4.5 2t-2 2q0 10 7 14t12 4h72q5 6 9.5 12t9.5 13h-75q-5 0 -7.5 1t-4.5 2t-2 2q0 10 7 14t12 4
h89q53 64 120 122.5t140 103.5t149 71.5t148 26.5q84 0 120 -33.5t36 -85.5v-6q62 29 122 47q4 1 7 2.5t5 1.5t5 -3t3 -6zM919 582q-66 -35 -127 -78.5t-107.5 -87t-74 -83.5t-27.5 -69q0 -23 22 -23q18 0 47 15.5t62 41t67.5 60t63.5 72t49.5 77t24.5 75.5z" />
    <glyph glyph-name="yen" unicode="&#xa5;" horiz-adv-x="675" 
d="M887 667q0 -4 -3 -7q-112 -140 -200.5 -271.5t-160.5 -252.5h144q2 0 4 -1t2 -3t-2.5 -10.5t-19.5 -8.5h-142q-4 -7 -7 -13t-7 -12h151q2 0 4 -1t2 -3t-2.5 -10.5t-19.5 -8.5h-149q-17 -29 -32.5 -56.5t-29.5 -54.5q55 29 119 56t139 55q2 1 4.5 2t4.5 1q11 0 11 -9
q0 -7 -7 -11q-85 -28 -155 -57t-129 -59q-54 -99 -96.5 -179.5t-78 -138.5t-65 -89.5t-57.5 -31.5q-29 0 -48 21t-19 58q0 32 17.5 74t59 90t110 101t170.5 107q16 29 32.5 59t34.5 62h-95q-5 0 -7.5 1t-4.5 2t-2 2q0 10 7 14t12 4h103q3 6 6.5 12t7.5 13h-101q-5 0 -7.5 1
t-4.5 2t-2 2q0 10 7 14t12 4h110q42 72 88 145.5t97 145.5q0 3 -1 3q-2 0 -5 -3q-29 -27 -64.5 -64.5t-76 -77t-85 -78t-90.5 -69t-92 -49t-90 -18.5q-31 0 -51.5 18.5t-20.5 50.5q0 40 25 89.5t63 101t82 102t82 94t63 76.5t25 50q0 14 -6.5 19.5t-20.5 5.5q-20 0 -56 -6.5
t-89 -6.5q-18 0 -42.5 2t-46 7.5t-36.5 16t-15 28.5q0 9 3.5 17t8 14.5t9 10.5t5.5 5t3 1q7 0 11 -12q6 -16 11.5 -29t17.5 -22.5t33.5 -15t57.5 -5.5q29 0 54 4t46.5 8.5t38 8t28.5 3.5q23 0 23 -23q0 -19 -25 -53.5t-63 -78t-81.5 -94t-81.5 -103t-63 -103.5t-25 -96
q0 -26 19.5 -37.5t48.5 -11.5q43 0 100 31.5t120.5 81.5t128 112.5t121.5 125.5t103 119.5t71 94.5q4 7 12 7q2 0 4 -2q4 -6 4 -10zM386 -79q-84 -45 -142 -90.5t-94 -86.5t-52 -77t-16 -63q0 -29 16 -45.5t42 -16.5q16 0 37.5 24.5t49 68t60.5 103t71 130.5q7 13 13.5 26
t14.5 27z" />
    <glyph glyph-name="section" unicode="&#xa7;" horiz-adv-x="435" 
d="M480 438q0 -18 -10 -18q-7 0 -7 12q-3 18 -10.5 28t-18 15t-22 6.5t-22.5 1.5q-27 0 -47 -6.5t-32.5 -16.5t-18.5 -21.5t-6 -20.5q0 -15 10.5 -27t25.5 -23t33.5 -21.5t33.5 -22t25.5 -25t10.5 -30.5q0 -34 -23.5 -69t-62.5 -56q0 -2 0.5 -3t0.5 -2q0 -25 -13 -51
t-36 -47.5t-54.5 -35t-67.5 -13.5t-56 12t-29 26.5t-10.5 27.5t-1.5 14q0 8 3.5 12.5t7.5 4.5q5 0 5 -8q0 -7 3.5 -19.5t13.5 -24.5t28 -21t47 -9q32 0 57 10.5t42.5 27.5t27 38.5t9.5 43.5q0 17 -10.5 29.5t-26.5 22.5t-34 19.5t-34 20.5t-26.5 24.5t-10.5 32.5
q0 12 8 25.5t22.5 25.5t33 22t39.5 15q-18 18 -18 42q0 14 11.5 30.5t31 30t44 22.5t50.5 9q13 0 28 -3.5t27.5 -10.5t20.5 -18.5t8 -27.5zM401 257q0 18 -11.5 30.5t-28.5 23t-36 20t-35 21.5q-23 -2 -40 -9t-28 -16.5t-16 -19.5t-5 -19q0 -21 18.5 -36.5t42.5 -30
t46 -30.5t29 -37q30 17 47 45.5t17 57.5z" />
    <glyph glyph-name="dieresis" unicode="&#xa8;" horiz-adv-x="346" 
d="M260 386q0 -4 -4.5 -11.5t-10.5 -14.5t-13 -12t-12 -5q-4 0 -9 3t-5 11q0 4 3 12.5t8 16.5t11.5 14.5t14.5 6.5q17 0 17 -21zM143 386q0 -4 -4.5 -11.5t-10.5 -14.5t-13 -12t-12 -5q-4 0 -9 3t-5 11q0 4 3 12.5t8 16.5t11.5 14.5t14.5 6.5q17 0 17 -21z" />
    <glyph glyph-name="copyright" unicode="&#xa9;" horiz-adv-x="635" 
d="M596 302q0 -56 -25 -118.5t-68.5 -115.5t-103 -88t-129.5 -35q-39 0 -67 11.5t-45.5 31.5t-26 47t-8.5 58q0 37 11 78t32 80.5t50 75.5t65 63.5t78.5 43.5t88.5 16q39 0 67 -11.5t46 -31.5t26.5 -47t8.5 -58zM562 293q0 30 -7.5 55.5t-23 44.5t-39.5 30t-58 11
q-60 0 -111 -33t-88.5 -83t-59 -109t-21.5 -112q0 -30 7.5 -55.5t23 -44.5t39.5 -30t58 -11q41 0 78 16t68.5 42.5t57 61.5t42.5 74q-20 -12 -48 -26t-58.5 -26.5t-60.5 -21t-54 -8.5q-27 0 -44.5 13.5t-17.5 46.5q0 36 18.5 69.5t47 58.5t62 40t62.5 15q31 0 31 -31
q0 -10 -7 -21t-16.5 -20.5t-20.5 -17.5t-20 -12q-4 -2 -6 -2q-4 0 -4 5q0 6 5 8q4 2 11 8.5t14.5 15t13 17.5t5.5 16q0 8 -5 13t-19 5q-19 0 -43 -11.5t-45.5 -31t-36.5 -46t-15 -56.5q0 -32 16 -45t42 -13q23 0 51 8t56 19.5t52.5 24.5t40.5 22q13 32 20 64.5t7 62.5z" />
    <glyph glyph-name="ordfeminine" unicode="&#xaa;" horiz-adv-x="508" 
d="M639 452q0 -3 -4 -6q-2 -2 -6 -5q-3 -2 -8 -5.5t-11 -8.5q-10 -7 -38.5 -24.5t-65.5 -36.5t-78 -33.5t-75 -14.5q-26 0 -41.5 10t-15.5 36q0 28 20 72v1q0 1 -2 1t-5 -3q-11 -11 -31 -30.5t-43.5 -38t-46.5 -32.5t-40 -14q-14 0 -23 7.5t-9 22.5q0 27 21.5 61t58 64
t84.5 50.5t100 20.5q4 0 8 -1q8 -2 8 -5t-1 -5t-2 -3q-6 -9 -17.5 -24.5t-23.5 -35t-20.5 -40t-8.5 -39.5q0 -28 17 -39.5t45 -11.5q27 0 56 9t57 22.5t54.5 29.5t48.5 30q17 11 31 22q1 1 3 1q4 0 4 -4zM369 524q0 7 -10 7q-32 0 -68.5 -14.5t-68 -37t-52.5 -50.5t-21 -55
q0 -4 3 -13.5t16 -9.5q15 1 42.5 16.5t50.5 36.5q13 12 31.5 30t35.5 36t29 33t12 21z" />
    <glyph glyph-name="guillemotleft" unicode="&#xab;" horiz-adv-x="491" 
d="M422 209q0 -6 -2.5 -9t-7.5 -5l-139 -68l133 -71q8 -5 8 -11q0 -8 -7 -8q-4 0 -6 1t-3 1l-148 74q0 1 -1 2q-2 2 -2 5q0 6 7 10l159 86q4 2 5 2q3 0 3.5 -3.5t0.5 -5.5zM322 209q0 -6 -2.5 -9t-7.5 -5l-139 -78l133 -71q8 -5 8 -11q0 -8 -7 -8q-4 0 -6 1t-3 1l-148 74
q0 1 -1 2q-2 2 -2 5q0 6 7 10l159 96q4 2 5 2q3 0 3.5 -3.5t0.5 -5.5z" />
    <glyph glyph-name="logicalnot" unicode="&#xac;" horiz-adv-x="458" 
d="M590 116q0 -3 -4 -6q-2 -2 -6 -5q-3 -2 -7.5 -5.5t-11.5 -8.5q-35 -22 -72.5 -47.5t-75.5 -52.5q6 -18 6 -38q0 -33 -14 -71t-37 -75t-53.5 -72t-64.5 -61t-68.5 -42t-65.5 -16q-58 0 -58 34q0 25 28.5 63.5t75 83.5t106 94t121.5 95q-9 25 -32 42t-65 22
q-23 -18 -49 -29t-52 -11q-36 0 -36 14q0 11 30 24.5t89 13.5h8.5t8.5 -1q27 24 45.5 53t18.5 52q0 17 -11.5 27t-38.5 10q-23 0 -48.5 -10.5t-46.5 -23.5q-25 -15 -49 -34l-18 -14t-19 -14q-7 1 -7 5q0 1 2 3l1 1q9 7 18 13.5t17 13.5q32 26 62 46q26 17 53.5 31t47.5 14
q32 0 46 -13.5t14 -34.5q0 -28 -21 -62.5t-53 -63.5q43 -4 68.5 -19.5t36.5 -39.5q38 26 74 50.5t69 45.5q17 11 31 22q1 1 3 1q4 0 4 -4zM280 52q-7 1 -13.5 1h-13.5q-34 0 -53.5 -9.5t-19.5 -17.5t20 -8q19 0 39.5 9.5t40.5 24.5zM395 -53q0 14 -3 28q-59 -45 -114 -91.5
t-97 -88.5t-67.5 -77t-25.5 -57q0 -28 45 -28q25 0 54 14.5t58 39t56 57t48 67t33.5 70t12.5 66.5z" />
    <glyph glyph-name="registered" unicode="&#xae;" horiz-adv-x="635" 
d="M596 302q0 -56 -25 -118.5t-68.5 -115.5t-103 -88t-129.5 -35q-39 0 -67 11.5t-45.5 31.5t-26 47t-8.5 58q0 37 11 78t32 80.5t50 75.5t65 63.5t78.5 43.5t88.5 16q39 0 67 -11.5t46 -31.5t26.5 -47t8.5 -58zM562 293q0 30 -7.5 55.5t-23 44.5t-39.5 30t-58 11
q-60 0 -111 -33t-88.5 -83t-59 -109t-21.5 -112q0 -30 7.5 -55.5t23 -44.5t39.5 -30t58 -11q40 0 76.5 15t67.5 41t56 60t43 71t27.5 76t9.5 74zM534 242q0 -28 -14.5 -48.5t-43.5 -20.5q-14 0 -22.5 6t-15.5 13.5t-14.5 13.5t-20.5 6q-12 0 -22.5 -9.5t-18 -24t-11.5 -32.5
t-4 -36q0 -26 10.5 -45.5t33.5 -19.5q12 0 27.5 6.5t26.5 16.5q2 2 3 2q3 0 3 -2t-2 -3q-5 -5 -21.5 -16.5t-40.5 -11.5q-32 0 -45.5 18.5t-13.5 44.5q0 20 7 41t18.5 38.5t27 29t32.5 11.5q9 0 18 -5.5t18.5 -12.5t18.5 -12.5t17 -5.5q17 0 26 13t9 32q0 18 -8 38t-24.5 37
t-42 28t-60.5 11q-52 0 -87.5 -20t-57 -50.5t-30.5 -66.5t-9 -67q0 -32 6.5 -53.5t23.5 -21.5q10 0 22 15.5t25.5 39t28 51.5t28.5 54.5t28 47t27 28.5q1 1 4 1t3 -3q0 -1 -1 -2q-12 -4 -25 -24t-27.5 -48t-30 -59t-31 -57.5t-31 -44t-31.5 -17.5q-14 0 -23.5 23.5
t-9.5 58.5t11 75t35.5 75t65.5 58t101 23q35 0 60 -11t41.5 -28t24.5 -37.5t8 -40.5z" />
    <glyph glyph-name="macron" unicode="&#xaf;" 
d="M443 323q0 -2 -2.5 -9.5t-16.5 -7.5h-194q-4 0 -6 1l-4 2t-2 2q0 8 6 12t11 4h203q5 0 5 -4z" />
    <glyph glyph-name="degree" unicode="&#xb0;" horiz-adv-x="355" 
d="M343 623q0 -23 -11 -44t-28.5 -36.5t-39 -24.5t-42.5 -9q-26 0 -41.5 14.5t-15.5 37.5q0 27 12.5 48.5t31.5 36.5t40 23t37 8q27 0 42 -15t15 -39zM325 618q0 19 -12 29.5t-32 10.5q-22 0 -40 -9t-30.5 -23t-19 -30t-6.5 -31q0 -17 10.5 -27t30.5 -10q18 0 36 7t32 19
t22.5 28.5t8.5 35.5z" />
    <glyph glyph-name="acute" unicode="&#xb4;" 
d="M305 332q0 -10 -7 -17t-19 -11.5t-27 -6.5t-31 -3q-1 0 -3 1q-3 2 -3 3l1 1q25 8 39 16t21.5 14.5t10.5 10.5t7 4q5 0 8 -3.5t3 -8.5z" />
    <glyph glyph-name="paragraph" unicode="&#xb6;" horiz-adv-x="500" 
d="M564 465q0 -21 -16 -30.5t-30 -9.5q-7 0 -11 2l-2 -3.5t-12 -22.5t-31 -60.5t-59.5 -117.5t-97.5 -192.5t-145 -285.5q-2 -5 -4 -7l-4 -4t-3 -1q-7 0 -7 7q0 5 1.5 9.5t3.5 7.5l344 675q-11 5 -22 10.5t-19 5.5t-13 -4q-2 -8 -4 -12l-350 -687q-2 -5 -4 -7l-4 -4t-3 -1
q-7 0 -7 7q0 5 1.5 9.5t3.5 7.5l231 453q-56 2 -79.5 25t-23.5 55q0 28 15.5 59t41 57t59.5 43t71 17q10 0 20 -1q8 -1 15.5 -2.5t11.5 -4.5q16 8 29 8q9 0 17 -3.5t16 -8t16 -8t16 -3.5q14 0 30 23q2 2 4 2q4 0 4 -3z" />
    <glyph glyph-name="periodcentered" unicode="&#xb7;" horiz-adv-x="347" 
d="M247 126q0 -8 -2 -13q-6 -13 -17 -22t-22 -9q-15 0 -15 17q0 7 3 14q5 14 16 22.5t22 8.5q15 0 15 -18z" />
    <glyph glyph-name="cedilla" unicode="&#xb8;" horiz-adv-x="226" 
d="M161 -65q-1 -15 -10.5 -26t-23 -17.5t-29 -9.5t-27.5 -3q-7 0 -7 5q0 4 4 4q11 0 23 3t22.5 8t17.5 13t7 18q1 12 -8 15.5t-14 3.5q1 1 4 5.5t7 9.5t7.5 10t5.5 7q0 1 2 2t3.5 2t3.5 1q4 0 10 -2l-18 -26q6 -1 10 -5q4 -3 7.5 -7t2.5 -11z" />
    <glyph glyph-name="ordmasculine" unicode="&#xba;" horiz-adv-x="444" 
d="M575 503q0 -3 -7 -9q-38 -35 -77.5 -56t-74.5 -21q-27 0 -46 8.5t-32 23.5q-17 -28 -37.5 -51t-41 -39.5t-40 -25.5t-33.5 -9q-13 0 -21 8t-8 25q0 24 17 58.5t40.5 66.5t49 55t43.5 23h1q3 32 15 54.5t28 22.5q15 0 22 -12t7 -32q0 -32 -8 -62.5t-22 -58.5
q13 -16 32.5 -25.5t46.5 -9.5q32 0 67 17.5t69 49.5q2 2 6 2t4 -3zM366 585q0 28 -18 28q-12 0 -19 -15.5t-7 -38.5q0 -18 4.5 -37.5t15.5 -36.5q11 23 17.5 48.5t6.5 51.5zM329 460q-12 17 -17 39t-5 44v1l-5 -1q-11 -2 -30 -20.5t-37 -43t-31.5 -50.5t-13.5 -44
q0 -34 23 -34q11 0 25.5 8t30.5 22.5t31.5 34.5t28.5 44z" />
    <glyph glyph-name="guillemotright" unicode="&#xbb;" horiz-adv-x="510" 
d="M425 136q0 -6 -7 -10l-159 -96q-4 -2 -5 -2q-3 0 -3.5 3.5t-0.5 5.5q0 6 2.5 9t7.5 5l139 78l-133 71q-8 5 -8 11q0 8 7 8q4 0 6 -1t3 -1l148 -74l2 -2q1 -1 1 -5zM325 126q0 -6 -7 -10l-159 -86q-4 -2 -5 -2q-3 0 -3.5 3.5t-0.5 5.5q0 6 2.5 9t7.5 5l139 68l-133 71
q-8 5 -8 11q0 8 7 8q4 0 6 -1t3 -1l148 -74l2 -2q1 -1 1 -5z" />
    <glyph glyph-name="onequarter" unicode="&#xbc;" horiz-adv-x="666" 
d="M776 604q0 -60 -27 -137t-75 -155t-113.5 -149t-142.5 -119q53 5 106 18.5t96.5 28.5t72.5 26.5t33 12.5l3 1q3 0 4.5 -2t1.5 -4q0 -4 -5 -6q-34 -15 -77 -31t-88.5 -29.5t-92.5 -23t-91 -13.5q-46 -24 -94 -37.5t-97 -13.5q-37 0 -73 12.5t-64 34.5t-45 51t-17 61
q0 4 0.5 10t2 12t4 10t6.5 4t9 -3.5t10 -8.5q22 -21 56.5 -41.5t80 -36t101 -25t118.5 -9.5h12q72 43 137 108.5t113.5 139t77.5 147t29 132.5t-32.5 95t-105.5 36q-32 0 -61 -5.5t-56 -12.5t-53 -12.5t-52 -5.5q-35 0 -55.5 14t-20.5 52q0 9 3.5 17t8 14.5t9 10.5t5.5 5
t3 1q3 0 6.5 -2.5t4.5 -9.5q1 -46 22 -62.5t56 -16.5q27 0 54.5 7t56 16t58 16t61.5 7q61 0 88.5 -35.5t27.5 -93.5zM336 20q-27 0 -65.5 4t-83.5 15t-93 31t-93 51q0 -13 13 -36.5t38.5 -46.5t62.5 -39.5t85 -16.5q38 0 75.5 10.5t75.5 27.5h-15z" />
    <glyph glyph-name="onehalf" unicode="&#xbd;" horiz-adv-x="431" 
d="M481 240q0 -5 -9 -15t-17 -20q-24 -30 -58 -76.5t-71.5 -101t-76 -112.5t-72 -111t-59 -96.5t-38.5 -68.5q-6 -8 -8 -8q-6 0 -6 8q0 5 4 15q12 25 33.5 60t47.5 75t55 83.5t57 85t54 79.5t45 68q3 5 3 7t-2 2t-3 -1q-11 -7 -32 -22t-45.5 -31t-50.5 -28t-48 -12
q-16 0 -25.5 10t-9.5 33q0 18 8.5 34.5t19 30t19 22t8.5 11.5q0 2 -2 2q-5 0 -18 -10q-4 -3 -12.5 -9.5t-17.5 -13.5t-17.5 -13.5t-13.5 -9.5q-6 1 -6 4q0 1 2 3q1 1 1 2q16 12 34.5 26.5t36.5 29.5t34 29t27 25l2 2q1 1 5 1q3 0 3 -4t-2.5 -8.5t-4.5 -6.5q-21 -25 -39 -50
q-15 -21 -27.5 -43t-12.5 -38q0 -20 8.5 -27.5t21.5 -7.5q22 0 48.5 12.5t50.5 28.5q28 18 56 41q12 11 26.5 25t27 27.5t22.5 23.5l13 13q7 8 15 18t13 10q3 0 3 -3z" />
    <glyph glyph-name="questiondown" unicode="&#xbf;" horiz-adv-x="367" 
d="M354 348q0 -6 -3 -14q-5 -14 -16 -22.5t-22 -8.5q-15 0 -15 18q0 8 2 13q6 13 17 22t22 9q15 0 15 -17zM262 180q0 -1 -1 -2q-6 -15 -20 -31.5t-33 -34t-41 -34t-45 -31.5q-53 -35 -115 -70q-56 -32 -93.5 -63.5t-60.5 -60t-33 -53t-10 -40.5q0 -36 30 -54t78 -18
q74 0 133.5 22t101.5 53.5t64.5 66t22.5 60.5q0 18 -11.5 29.5t-37.5 11.5q-42 0 -74.5 -15t-55.5 -33q-26 -21 -46 -48q-1 -2 -3 -3q-4 -2 -6 -2q-4 0 -4 8q0 2 12.5 19t36.5 37t59 36.5t80 16.5q36 0 52 -13.5t16 -36.5q0 -31 -28 -72.5t-76 -78.5t-112.5 -62.5
t-137.5 -25.5q-56 0 -93 19t-37 61q0 4 6 26.5t28 57t66 77.5t122 87q59 35 107 71q21 15 41.5 32t38 34t30.5 33.5t18 31.5q0 3 1 5q2 4 10 4q13 0 16.5 -4t3.5 -9v-4z" />
    <glyph glyph-name="Agrave" unicode="&#xc0;" horiz-adv-x="771" 
d="M788 839q0 -1 -3 -3q-2 -1 -3 -1q-16 1 -31 3t-27 6.5t-19 11.5t-7 17q0 5 3 8.5t8 3.5q4 0 7 -4t10.5 -10.5t21.5 -14.5t39 -16l1 -1v0zM853 71q0 -3 -2 -5q-20 -22 -45.5 -43t-54 -37t-59 -26t-61.5 -10q-61 0 -86.5 34t-25.5 87q0 31 7 66.5t20 73.5
q-45 -47 -95.5 -91t-103.5 -77.5t-106 -54t-104 -20.5q-75 0 -108 35.5t-33 92.5q0 54 27 122.5t74.5 139t112.5 137.5t141 119.5t160 84.5t170 32q35 0 60.5 -6t42 -14t24.5 -15t8 -10q0 -6 -5 -14q-8 -11 -18 -11q-5 0 -16 5.5t-28.5 11.5t-40 11.5t-51.5 5.5
q-80 0 -157.5 -28.5t-147 -76t-129 -108t-102.5 -124.5t-67.5 -126t-24.5 -112q0 -55 32.5 -88.5t104.5 -33.5q49 0 101.5 22t103.5 57t99 79t88 88q20 50 45.5 98t51.5 85t50 59.5t40 22.5q6 0 6 -8q0 -12 -13.5 -38.5t-38 -62.5t-58 -79t-74.5 -87q-11 -35 -18.5 -69
t-7.5 -65q0 -51 25.5 -85.5t87.5 -34.5q36 0 66 12t53 28.5t38 32.5t21 24q4 6 10 6q5 0 8 -4t3 -8zM691 427q0 3 -3 3q-8 0 -21 -13t-28 -35t-30.5 -51.5t-28.5 -62.5q25 29 45.5 55.5t35 47.5t22.5 35.5t8 20.5z" />
    <glyph glyph-name="Aacute" unicode="&#xc1;" horiz-adv-x="771" 
d="M805 856q0 -10 -7 -17t-19 -11.5t-27 -6.5t-31 -3q-1 0 -3 1q-3 2 -3 3l1 1q25 8 39 16t21.5 14.5t10.5 10.5t7 4q5 0 8 -3.5t3 -8.5zM853 71q0 -3 -2 -5q-20 -22 -45.5 -43t-54 -37t-59 -26t-61.5 -10q-61 0 -86.5 34t-25.5 87q0 31 7 66.5t20 73.5q-45 -47 -95.5 -91
t-103.5 -77.5t-106 -54t-104 -20.5q-75 0 -108 35.5t-33 92.5q0 54 27 122.5t74.5 139t112.5 137.5t141 119.5t160 84.5t170 32q35 0 60.5 -6t42 -14t24.5 -15t8 -10q0 -6 -5 -14q-8 -11 -18 -11q-5 0 -16 5.5t-28.5 11.5t-40 11.5t-51.5 5.5q-80 0 -157.5 -28.5t-147 -76
t-129 -108t-102.5 -124.5t-67.5 -126t-24.5 -112q0 -55 32.5 -88.5t104.5 -33.5q49 0 101.5 22t103.5 57t99 79t88 88q20 50 45.5 98t51.5 85t50 59.5t40 22.5q6 0 6 -8q0 -12 -13.5 -38.5t-38 -62.5t-58 -79t-74.5 -87q-11 -35 -18.5 -69t-7.5 -65q0 -51 25.5 -85.5
t87.5 -34.5q36 0 66 12t53 28.5t38 32.5t21 24q4 6 10 6q5 0 8 -4t3 -8zM691 427q0 3 -3 3q-8 0 -21 -13t-28 -35t-30.5 -51.5t-28.5 -62.5q25 29 45.5 55.5t35 47.5t22.5 35.5t8 20.5z" />
    <glyph glyph-name="Acircumflex" unicode="&#xc2;" horiz-adv-x="771" 
d="M788 764q0 -2 -2 -2q-1 0 -6 3q-38 22 -46 49q-14 -10 -33.5 -18t-38.5 -9q-1 0 -3 1q-3 2 -3 3q26 9 41.5 18.5t25 17.5t14.5 13.5t9 5.5q3 0 7 -2q2 -1 2 -6q0 -12 4 -28.5t27 -42.5q2 -2 2 -3zM853 71q0 -3 -2 -5q-20 -22 -45.5 -43t-54 -37t-59 -26t-61.5 -10
q-61 0 -86.5 34t-25.5 87q0 31 7 66.5t20 73.5q-45 -47 -95.5 -91t-103.5 -77.5t-106 -54t-104 -20.5q-75 0 -108 35.5t-33 92.5q0 54 27 122.5t74.5 139t112.5 137.5t141 119.5t160 84.5t170 32q35 0 60.5 -6t42 -14t24.5 -15t8 -10q0 -6 -5 -14q-8 -11 -18 -11
q-5 0 -16 5.5t-28.5 11.5t-40 11.5t-51.5 5.5q-80 0 -157.5 -28.5t-147 -76t-129 -108t-102.5 -124.5t-67.5 -126t-24.5 -112q0 -55 32.5 -88.5t104.5 -33.5q49 0 101.5 22t103.5 57t99 79t88 88q20 50 45.5 98t51.5 85t50 59.5t40 22.5q6 0 6 -8q0 -12 -13.5 -38.5
t-38 -62.5t-58 -79t-74.5 -87q-11 -35 -18.5 -69t-7.5 -65q0 -51 25.5 -85.5t87.5 -34.5q36 0 66 12t53 28.5t38 32.5t21 24q4 6 10 6q5 0 8 -4t3 -8zM691 427q0 3 -3 3q-8 0 -21 -13t-28 -35t-30.5 -51.5t-28.5 -62.5q25 29 45.5 55.5t35 47.5t22.5 35.5t8 20.5z" />
    <glyph glyph-name="Atilde" unicode="&#xc3;" horiz-adv-x="771" 
d="M822 808q0 -21 -16 -30.5t-30 -9.5q-7 0 -16 3.5t-18.5 8t-18 8t-15.5 3.5q-14 0 -30 -23q-2 -2 -4 -2q-4 0 -4 3q0 11 5 18.5t12.5 12t16 7t15.5 2.5q9 0 17 -3.5t16 -8t16 -8t16 -3.5q14 0 30 23q2 2 4 2q4 0 4 -3zM853 71q0 -3 -2 -5q-20 -22 -45.5 -43t-54 -37
t-59 -26t-61.5 -10q-61 0 -86.5 34t-25.5 87q0 31 7 66.5t20 73.5q-45 -47 -95.5 -91t-103.5 -77.5t-106 -54t-104 -20.5q-75 0 -108 35.5t-33 92.5q0 54 27 122.5t74.5 139t112.5 137.5t141 119.5t160 84.5t170 32q35 0 60.5 -6t42 -14t24.5 -15t8 -10q0 -6 -5 -14
q-8 -11 -18 -11q-5 0 -16 5.5t-28.5 11.5t-40 11.5t-51.5 5.5q-80 0 -157.5 -28.5t-147 -76t-129 -108t-102.5 -124.5t-67.5 -126t-24.5 -112q0 -55 32.5 -88.5t104.5 -33.5q49 0 101.5 22t103.5 57t99 79t88 88q20 50 45.5 98t51.5 85t50 59.5t40 22.5q6 0 6 -8
q0 -12 -13.5 -38.5t-38 -62.5t-58 -79t-74.5 -87q-11 -35 -18.5 -69t-7.5 -65q0 -51 25.5 -85.5t87.5 -34.5q36 0 66 12t53 28.5t38 32.5t21 24q4 6 10 6q5 0 8 -4t3 -8zM691 427q0 3 -3 3q-8 0 -21 -13t-28 -35t-30.5 -51.5t-28.5 -62.5q25 29 45.5 55.5t35 47.5t22.5 35.5
t8 20.5z" />
    <glyph glyph-name="Adieresis" unicode="&#xc4;" horiz-adv-x="771" 
d="M838 820q0 -4 -4.5 -11.5t-10.5 -14.5t-13 -12t-12 -5q-4 0 -9 3t-5 11q0 4 3 12.5t8 16.5t11.5 14.5t14.5 6.5q17 0 17 -21zM721 820q0 -4 -4.5 -11.5t-10.5 -14.5t-13 -12t-12 -5q-4 0 -9 3t-5 11q0 4 3 12.5t8 16.5t11.5 14.5t14.5 6.5q17 0 17 -21zM853 71
q0 -3 -2 -5q-20 -22 -45.5 -43t-54 -37t-59 -26t-61.5 -10q-61 0 -86.5 34t-25.5 87q0 31 7 66.5t20 73.5q-45 -47 -95.5 -91t-103.5 -77.5t-106 -54t-104 -20.5q-75 0 -108 35.5t-33 92.5q0 54 27 122.5t74.5 139t112.5 137.5t141 119.5t160 84.5t170 32q35 0 60.5 -6
t42 -14t24.5 -15t8 -10q0 -6 -5 -14q-8 -11 -18 -11q-5 0 -16 5.5t-28.5 11.5t-40 11.5t-51.5 5.5q-80 0 -157.5 -28.5t-147 -76t-129 -108t-102.5 -124.5t-67.5 -126t-24.5 -112q0 -55 32.5 -88.5t104.5 -33.5q49 0 101.5 22t103.5 57t99 79t88 88q20 50 45.5 98t51.5 85
t50 59.5t40 22.5q6 0 6 -8q0 -12 -13.5 -38.5t-38 -62.5t-58 -79t-74.5 -87q-11 -35 -18.5 -69t-7.5 -65q0 -51 25.5 -85.5t87.5 -34.5q36 0 66 12t53 28.5t38 32.5t21 24q4 6 10 6q5 0 8 -4t3 -8zM691 427q0 3 -3 3q-8 0 -21 -13t-28 -35t-30.5 -51.5t-28.5 -62.5
q25 29 45.5 55.5t35 47.5t22.5 35.5t8 20.5z" />
    <glyph glyph-name="Aring" unicode="&#xc5;" horiz-adv-x="771" 
d="M770 831q0 -20 -17.5 -35t-35.5 -15q-25 0 -25 23q0 12 5.5 21.5t14 16t17.5 10t16 3.5q12 0 18.5 -6.5t6.5 -17.5zM853 71q0 -3 -2 -5q-20 -22 -45.5 -43t-54 -37t-59 -26t-61.5 -10q-61 0 -86.5 34t-25.5 87q0 31 7 66.5t20 73.5q-45 -47 -95.5 -91t-103.5 -77.5
t-106 -54t-104 -20.5q-75 0 -108 35.5t-33 92.5q0 54 27 122.5t74.5 139t112.5 137.5t141 119.5t160 84.5t170 32q35 0 60.5 -6t42 -14t24.5 -15t8 -10q0 -6 -5 -14q-8 -11 -18 -11q-5 0 -16 5.5t-28.5 11.5t-40 11.5t-51.5 5.5q-80 0 -157.5 -28.5t-147 -76t-129 -108
t-102.5 -124.5t-67.5 -126t-24.5 -112q0 -55 32.5 -88.5t104.5 -33.5q49 0 101.5 22t103.5 57t99 79t88 88q20 50 45.5 98t51.5 85t50 59.5t40 22.5q6 0 6 -8q0 -12 -13.5 -38.5t-38 -62.5t-58 -79t-74.5 -87q-11 -35 -18.5 -69t-7.5 -65q0 -51 25.5 -85.5t87.5 -34.5
q36 0 66 12t53 28.5t38 32.5t21 24q4 6 10 6q5 0 8 -4t3 -8zM757 827q0 15 -16 15t-25.5 -11.5t-9.5 -22.5q0 -14 15 -14q13 0 24.5 9.5t11.5 23.5zM691 427q0 3 -3 3q-8 0 -21 -13t-28 -35t-30.5 -51.5t-28.5 -62.5q25 29 45.5 55.5t35 47.5t22.5 35.5t8 20.5z" />
    <glyph glyph-name="AE" unicode="&#xc6;" horiz-adv-x="973" 
d="M1172 702q0 -6 -8 -6q-4 0 -6 1q-27 9 -80 9q-90 0 -161.5 -20.5t-122 -51t-77 -66.5t-26.5 -67q0 -30 25.5 -51t80.5 -25q62 32 126 51t124 19q23 0 23 -8q0 -9 -26.5 -23.5t-68 -29t-91 -25t-94.5 -10.5h-18q-55 -32 -103.5 -72t-85.5 -82.5t-58.5 -83.5t-21.5 -75
q0 -40 35 -65t116 -25q53 0 114 15t119.5 41.5t108.5 64t80 82.5q5 3 6 3q4 0 4 -5q0 -3 -2 -5q-21 -31 -53.5 -60t-72.5 -54t-85 -45.5t-91 -35.5t-90.5 -23t-83.5 -8q-80 0 -115 25t-35 67q0 22 9 46.5t25 51.5q-41 -39 -85.5 -73t-90 -59.5t-91 -40.5t-88.5 -15
q-75 0 -108 35.5t-33 92.5q0 54 27 122.5t74.5 139t112.5 137.5t141 119.5t160 84.5t170 32q35 0 60.5 -6t42 -14t24.5 -15t8 -10q0 -6 -5 -14q-8 -11 -18 -11q-5 0 -16 5.5t-28.5 11.5t-40 11.5t-51.5 5.5q-80 0 -157.5 -28.5t-147 -76t-129 -108t-102.5 -124.5t-67.5 -126
t-24.5 -112q0 -55 32.5 -88.5t104.5 -33.5q47 0 97 19.5t98.5 51t94.5 72t84 83.5q42 47 96.5 93t117.5 84q-53 5 -77 26t-24 50q0 38 36.5 83t101.5 85t154.5 66.5t194.5 26.5q11 -2 18 -11.5t12 -18.5l1.5 -3t0.5 -3zM1024 473q0 4 -12 4q-46 0 -95.5 -14.5t-98.5 -38.5h4
q39 0 75 6t64.5 14t45.5 16.5t17 12.5z" />
    <glyph glyph-name="Ccedilla" unicode="&#xc7;" horiz-adv-x="633" 
d="M997 657q0 -5 -10 -8q-33 -8 -66.5 -21t-67.5 -29q-5 -44 -29 -90t-59 -88.5t-76 -80t-81 -65.5t-74 -44t-54 -16q-23 0 -23 21q0 35 29 82t78.5 96.5t116 98t141.5 86.5v1q0 24 -8 44.5t-26 35.5t-46.5 23.5t-69.5 8.5q-68 0 -142 -27.5t-145 -73t-134.5 -104.5
t-112 -122t-76.5 -126t-28 -116q0 -33 12.5 -61t40 -48.5t70.5 -31.5t104 -11q73 0 139.5 18.5t119.5 41.5t88.5 44.5t44.5 28.5q5 3 6 3q4 0 4 -5q0 -3 -2 -5q-38 -26 -91 -54t-112 -51t-121 -37.5t-118 -14.5q-42 0 -75 6l-10 -15q6 -1 10 -5q4 -3 7.5 -7t2.5 -11
q-1 -15 -10.5 -26t-23 -17.5t-29 -9.5t-27.5 -3q-7 0 -7 5q0 4 4 4q11 0 23 3t22.5 8t17.5 13t7 18q1 12 -8 15.5t-14 3.5q1 2 8 11t12 16q-69 16 -99.5 54t-30.5 92q0 57 30.5 125.5t82.5 138t121.5 134.5t147 115.5t159.5 81t159 30.5q84 0 120 -33.5t36 -85.5v-6
q62 29 122 47q4 1 7 2.5t5 1.5t5 -3t3 -6zM820 582q-66 -35 -127 -78.5t-107.5 -87t-74 -83.5t-27.5 -69q0 -23 22 -23q18 0 47 15.5t62 41t67.5 60t63.5 72t49.5 77t24.5 75.5z" />
    <glyph glyph-name="Egrave" unicode="&#xc8;" horiz-adv-x="510" 
d="M693 838q0 -1 -3 -3q-2 -1 -3 -1q-16 1 -31 3t-27 6.5t-19 11.5t-7 17q0 5 3 8.5t8 3.5q4 0 7 -4t10.5 -10.5t21.5 -14.5t39 -16l1 -1v0zM709 702q0 -6 -8 -6q-4 0 -6 1q-27 9 -80 9q-90 0 -161.5 -20.5t-122 -51t-77 -66.5t-26.5 -67q0 -30 25.5 -51t80.5 -25
q62 32 125.5 51t124.5 19q23 0 23 -8q0 -9 -26.5 -23.5t-68 -29t-91 -25t-94.5 -10.5h-18q-54 -32 -103 -72t-86 -82.5t-58.5 -83.5t-21.5 -75q0 -40 35 -65t116 -25q53 0 114 15t119.5 41.5t108.5 64t80 82.5q5 3 6 3q4 0 4 -5q0 -3 -2 -5q-21 -31 -53.5 -60t-72.5 -54
t-85 -45.5t-91 -35.5t-90.5 -23t-83.5 -8q-80 0 -115 25.5t-35 67.5q0 36 23 80.5t63 90.5t94 90.5t115 80.5q-52 5 -76 26t-24 50q0 38 36.5 83t101.5 85t154.5 66.5t194.5 26.5q11 -2 18 -11.5t12 -18.5l1.5 -3t0.5 -3zM561 473q0 4 -12 4q-46 0 -95.5 -14.5t-98.5 -38.5
h4q39 0 75 6t64.5 14t45.5 16.5t17 12.5z" />
    <glyph glyph-name="Eacute" unicode="&#xc9;" horiz-adv-x="510" 
d="M651 852q0 -10 -7 -17t-19 -11.5t-27 -6.5t-31 -3q-1 0 -3 1q-3 2 -3 3l1 1q25 8 39 16t21.5 14.5t10.5 10.5t7 4q5 0 8 -3.5t3 -8.5zM709 702q0 -6 -8 -6q-4 0 -6 1q-27 9 -80 9q-90 0 -161.5 -20.5t-122 -51t-77 -66.5t-26.5 -67q0 -30 25.5 -51t80.5 -25
q62 32 125.5 51t124.5 19q23 0 23 -8q0 -9 -26.5 -23.5t-68 -29t-91 -25t-94.5 -10.5h-18q-54 -32 -103 -72t-86 -82.5t-58.5 -83.5t-21.5 -75q0 -40 35 -65t116 -25q53 0 114 15t119.5 41.5t108.5 64t80 82.5q5 3 6 3q4 0 4 -5q0 -3 -2 -5q-21 -31 -53.5 -60t-72.5 -54
t-85 -45.5t-91 -35.5t-90.5 -23t-83.5 -8q-80 0 -115 25.5t-35 67.5q0 36 23 80.5t63 90.5t94 90.5t115 80.5q-52 5 -76 26t-24 50q0 38 36.5 83t101.5 85t154.5 66.5t194.5 26.5q11 -2 18 -11.5t12 -18.5l1.5 -3t0.5 -3zM561 473q0 4 -12 4q-46 0 -95.5 -14.5t-98.5 -38.5
h4q39 0 75 6t64.5 14t45.5 16.5t17 12.5z" />
    <glyph glyph-name="Ecircumflex" unicode="&#xca;" horiz-adv-x="510" 
d="M674 772q0 -2 -2 -2q-1 0 -6 3q-38 22 -46 49q-14 -10 -33.5 -18t-38.5 -9q-1 0 -3 1q-3 2 -3 3q26 9 41.5 18.5t25 17.5t14.5 13.5t9 5.5q3 0 7 -2q2 -1 2 -6q0 -12 4 -28.5t27 -42.5q2 -2 2 -3zM709 702q0 -6 -8 -6q-4 0 -6 1q-27 9 -80 9q-90 0 -161.5 -20.5t-122 -51
t-77 -66.5t-26.5 -67q0 -30 25.5 -51t80.5 -25q62 32 125.5 51t124.5 19q23 0 23 -8q0 -9 -26.5 -23.5t-68 -29t-91 -25t-94.5 -10.5h-18q-54 -32 -103 -72t-86 -82.5t-58.5 -83.5t-21.5 -75q0 -40 35 -65t116 -25q53 0 114 15t119.5 41.5t108.5 64t80 82.5q5 3 6 3
q4 0 4 -5q0 -3 -2 -5q-21 -31 -53.5 -60t-72.5 -54t-85 -45.5t-91 -35.5t-90.5 -23t-83.5 -8q-80 0 -115 25.5t-35 67.5q0 36 23 80.5t63 90.5t94 90.5t115 80.5q-52 5 -76 26t-24 50q0 38 36.5 83t101.5 85t154.5 66.5t194.5 26.5q11 -2 18 -11.5t12 -18.5l1.5 -3t0.5 -3z
M561 473q0 4 -12 4q-46 0 -95.5 -14.5t-98.5 -38.5h4q39 0 75 6t64.5 14t45.5 16.5t17 12.5z" />
    <glyph glyph-name="Edieresis" unicode="&#xcb;" horiz-adv-x="510" 
d="M725 827q0 -4 -4.5 -11.5t-10.5 -14.5t-13 -12t-12 -5q-4 0 -9 3t-5 11q0 4 3 12.5t8 16.5t11.5 14.5t14.5 6.5q17 0 17 -21zM608 827q0 -4 -4.5 -11.5t-10.5 -14.5t-13 -12t-12 -5q-4 0 -9 3t-5 11q0 4 3 12.5t8 16.5t11.5 14.5t14.5 6.5q17 0 17 -21zM709 702
q0 -6 -8 -6q-4 0 -6 1q-27 9 -80 9q-90 0 -161.5 -20.5t-122 -51t-77 -66.5t-26.5 -67q0 -30 25.5 -51t80.5 -25q62 32 125.5 51t124.5 19q23 0 23 -8q0 -9 -26.5 -23.5t-68 -29t-91 -25t-94.5 -10.5h-18q-54 -32 -103 -72t-86 -82.5t-58.5 -83.5t-21.5 -75q0 -40 35 -65
t116 -25q53 0 114 15t119.5 41.5t108.5 64t80 82.5q5 3 6 3q4 0 4 -5q0 -3 -2 -5q-21 -31 -53.5 -60t-72.5 -54t-85 -45.5t-91 -35.5t-90.5 -23t-83.5 -8q-80 0 -115 25.5t-35 67.5q0 36 23 80.5t63 90.5t94 90.5t115 80.5q-52 5 -76 26t-24 50q0 38 36.5 83t101.5 85
t154.5 66.5t194.5 26.5q11 -2 18 -11.5t12 -18.5l1.5 -3t0.5 -3zM561 473q0 4 -12 4q-46 0 -95.5 -14.5t-98.5 -38.5h4q39 0 75 6t64.5 14t45.5 16.5t17 12.5z" />
    <glyph glyph-name="Igrave" unicode="&#xcc;" horiz-adv-x="690" 
d="M819 823q0 -1 -3 -3q-2 -1 -3 -1q-16 1 -31 3t-27 6.5t-19 11.5t-7 17q0 5 3 8.5t8 3.5q4 0 7 -4t10.5 -10.5t21.5 -14.5t39 -16l1 -1v0zM767 704q0 -25 -10 -67t-28.5 -94.5t-45.5 -111.5t-61 -119q8 -42 17.5 -71.5t14.5 -41.5q1 -5 1 -11q0 -11 -16 -11q-8 0 -16 3
t-10 11q-2 10 -6 22q-7 23 -11 55q-40 -65 -87 -123t-101 -101q72 8 146 32.5t153 58.5q5 2 11 2q7 0 7 -4q0 -6 -17 -12q-46 -16 -89 -32.5t-84.5 -31t-82 -25.5t-81.5 -16q-41 -26 -83.5 -41.5t-87.5 -15.5q-37 0 -73 13t-64 35t-45 51.5t-17 61.5q0 4 0.5 10t2 12t4 10
t6.5 4t8.5 -4t10.5 -8q79 -57 154.5 -80.5t152.5 -23.5h23t24 2q60 46 111.5 112t94.5 139q-1 10 -1 19v20q0 86 17.5 159.5t43 127.5t53 84.5t47.5 30.5q14 0 14 -30zM733 656q0 29 -14 29q-13 0 -31 -26t-34.5 -66.5t-28 -90t-11.5 -96.5q0 -18 1 -35t3 -34q27 50 48 98
t36 90t23 76t8 55zM346 14q-8 -1 -17 -1h-17q-69 0 -141 23.5t-156 80.5q0 -20 12.5 -45.5t37 -47.5t61 -37t84.5 -15q35 0 69 11t67 31z" />
    <glyph glyph-name="Iacute" unicode="&#xcd;" horiz-adv-x="690" 
d="M844 865q0 -10 -7 -17t-19 -11.5t-27 -6.5t-31 -3q-1 0 -3 1q-3 2 -3 3l1 1q25 8 39 16t21.5 14.5t10.5 10.5t7 4q5 0 8 -3.5t3 -8.5zM767 704q0 -25 -10 -67t-28.5 -94.5t-45.5 -111.5t-61 -119q8 -42 17.5 -71.5t14.5 -41.5q1 -5 1 -11q0 -11 -16 -11q-8 0 -16 3
t-10 11q-2 10 -6 22q-7 23 -11 55q-40 -65 -87 -123t-101 -101q72 8 146 32.5t153 58.5q5 2 11 2q7 0 7 -4q0 -6 -17 -12q-46 -16 -89 -32.5t-84.5 -31t-82 -25.5t-81.5 -16q-41 -26 -83.5 -41.5t-87.5 -15.5q-37 0 -73 13t-64 35t-45 51.5t-17 61.5q0 4 0.5 10t2 12t4 10
t6.5 4t8.5 -4t10.5 -8q79 -57 154.5 -80.5t152.5 -23.5h23t24 2q60 46 111.5 112t94.5 139q-1 10 -1 19v20q0 86 17.5 159.5t43 127.5t53 84.5t47.5 30.5q14 0 14 -30zM733 656q0 29 -14 29q-13 0 -31 -26t-34.5 -66.5t-28 -90t-11.5 -96.5q0 -18 1 -35t3 -34q27 50 48 98
t36 90t23 76t8 55zM346 14q-8 -1 -17 -1h-17q-69 0 -141 23.5t-156 80.5q0 -20 12.5 -45.5t37 -47.5t61 -37t84.5 -15q35 0 69 11t67 31z" />
    <glyph glyph-name="Icircumflex" unicode="&#xce;" horiz-adv-x="690" 
d="M836 768q0 -2 -2 -2q-1 0 -6 3q-38 22 -46 49q-14 -10 -33.5 -18t-38.5 -9q-1 0 -3 1q-3 2 -3 3q26 9 41.5 18.5t25 17.5t14.5 13.5t9 5.5q3 0 7 -2q2 -1 2 -6q0 -12 4 -28.5t27 -42.5q2 -2 2 -3zM767 704q0 -25 -10 -67t-28.5 -94.5t-45.5 -111.5t-61 -119
q8 -42 17.5 -71.5t14.5 -41.5q1 -5 1 -11q0 -11 -16 -11q-8 0 -16 3t-10 11q-2 10 -6 22q-7 23 -11 55q-40 -65 -87 -123t-101 -101q72 8 146 32.5t153 58.5q5 2 11 2q7 0 7 -4q0 -6 -17 -12q-46 -16 -89 -32.5t-84.5 -31t-82 -25.5t-81.5 -16q-41 -26 -83.5 -41.5
t-87.5 -15.5q-37 0 -73 13t-64 35t-45 51.5t-17 61.5q0 4 0.5 10t2 12t4 10t6.5 4t8.5 -4t10.5 -8q79 -57 154.5 -80.5t152.5 -23.5h23t24 2q60 46 111.5 112t94.5 139q-1 10 -1 19v20q0 86 17.5 159.5t43 127.5t53 84.5t47.5 30.5q14 0 14 -30zM733 656q0 29 -14 29
q-13 0 -31 -26t-34.5 -66.5t-28 -90t-11.5 -96.5q0 -18 1 -35t3 -34q27 50 48 98t36 90t23 76t8 55zM346 14q-8 -1 -17 -1h-17q-69 0 -141 23.5t-156 80.5q0 -20 12.5 -45.5t37 -47.5t61 -37t84.5 -15q35 0 69 11t67 31z" />
    <glyph glyph-name="Idieresis" unicode="&#xcf;" horiz-adv-x="690" 
d="M838 810q0 -4 -4.5 -11.5t-10.5 -14.5t-13 -12t-12 -5q-4 0 -9 3t-5 11q0 4 3 12.5t8 16.5t11.5 14.5t14.5 6.5q17 0 17 -21zM721 810q0 -4 -4.5 -11.5t-10.5 -14.5t-13 -12t-12 -5q-4 0 -9 3t-5 11q0 4 3 12.5t8 16.5t11.5 14.5t14.5 6.5q17 0 17 -21zM767 704
q0 -25 -10 -67t-28.5 -94.5t-45.5 -111.5t-61 -119q8 -42 17.5 -71.5t14.5 -41.5q1 -5 1 -11q0 -11 -16 -11q-8 0 -16 3t-10 11q-2 10 -6 22q-7 23 -11 55q-40 -65 -87 -123t-101 -101q72 8 146 32.5t153 58.5q5 2 11 2q7 0 7 -4q0 -6 -17 -12q-46 -16 -89 -32.5t-84.5 -31
t-82 -25.5t-81.5 -16q-41 -26 -83.5 -41.5t-87.5 -15.5q-37 0 -73 13t-64 35t-45 51.5t-17 61.5q0 4 0.5 10t2 12t4 10t6.5 4t8.5 -4t10.5 -8q79 -57 154.5 -80.5t152.5 -23.5h23t24 2q60 46 111.5 112t94.5 139q-1 10 -1 19v20q0 86 17.5 159.5t43 127.5t53 84.5t47.5 30.5
q14 0 14 -30zM733 656q0 29 -14 29q-13 0 -31 -26t-34.5 -66.5t-28 -90t-11.5 -96.5q0 -18 1 -35t3 -34q27 50 48 98t36 90t23 76t8 55zM346 14q-8 -1 -17 -1h-17q-69 0 -141 23.5t-156 80.5q0 -20 12.5 -45.5t37 -47.5t61 -37t84.5 -15q35 0 69 11t67 31z" />
    <glyph glyph-name="Eth" unicode="&#xd0;" horiz-adv-x="861" 
d="M954 119q0 -5 -8 -10q-5 -4 -19 -11t-34.5 -14.5t-45.5 -13t-52 -5.5t-47 4q-39 -38 -86.5 -60.5t-104.5 -22.5q-56 0 -88 25.5t-49 63.5t-23.5 82t-12.5 82t-15 63.5t-31 25.5q-17 0 -46 -18q-40 -54 -77.5 -106t-71.5 -98t-63.5 -85t-52.5 -67q-7 -8 -12 -9.5t-9 -1.5
q-6 0 -6 11q0 22 12.5 53t34 65.5t50 70.5t60 69t64 61t61.5 46l34 46l34 46h-99q-5 0 -7.5 1t-4.5 2t-2 2q0 10 7 14t12 4h111q55 73 111 142t110 128l10 10q9 9 13 9q5 0 5 -3q0 -4 -9 -15q-51 -55 -107.5 -125t-114.5 -146h141q2 0 4 -1t2 -3t-2.5 -10.5t-19.5 -8.5h-143
q-14 -20 -28.5 -39t-28.5 -38q24 11 42 11q33 0 45.5 -25t17.5 -62.5t8 -81.5t16.5 -81.5t43.5 -62.5t89 -25q47 0 87 17.5t73 48.5q-42 12 -71 39t-48 64t-27.5 82t-8.5 93q0 68 15.5 137t42.5 124t63 89.5t76 34.5q35 0 60.5 -18.5t42.5 -50t25 -74t8 -91.5
q0 -52 -9 -107.5t-27 -109.5t-44 -103.5t-61 -89.5q26 -6 54 -6q48 0 77 12.5t40 19.5q5 4 10 4q4 0 4 -3zM885 477q0 48 -8 90.5t-25 74t-42.5 49.5t-60.5 18q-28 0 -54 -29.5t-46.5 -77.5t-32.5 -108t-12 -121q0 -46 8 -90.5t26 -81.5t46.5 -64.5t69.5 -40.5
q32 36 56.5 81.5t41 96t25 102.5t8.5 101zM259 287q-36 -27 -75.5 -66.5t-73 -79.5t-55 -75t-21.5 -53q0 -5 3 -7l3 -1q5 0 9 4.5t9 8.5q39 48 91 118t110 151z" />
    <glyph glyph-name="Ntilde" unicode="&#xd1;" horiz-adv-x="557" 
d="M586 663q0 -21 -16 -30.5t-30 -9.5q-7 0 -16 3.5t-18.5 8t-18 8t-15.5 3.5q-14 0 -30 -23q-2 -2 -4 -2q-4 0 -4 3q0 11 5 18.5t12.5 12t16 7t15.5 2.5q9 0 17 -3.5t16 -8t16 -8t16 -3.5q14 0 30 23q2 2 4 2q4 0 4 -3zM594 17q0 -4 -4 -7q-29 -26 -61.5 -41.5t-67.5 -15.5
q-45 0 -71.5 23.5t-26.5 60.5q0 32 11 70t27.5 76.5t36 76.5t36 70.5t27.5 58.5t11 41q0 13 -6 19q-7 7 -19 7q-25 0 -69.5 -33t-94.5 -83q-31 -68 -71.5 -132.5t-79 -115t-70 -81.5t-44.5 -31q-8 0 -8 12q0 22 23.5 62.5t61 89t85 101.5t95.5 99q21 47 34 91t13 82
q0 42 -13.5 67t-35.5 38.5t-51 18t-60 4.5q-32 0 -56.5 -1.5t-49.5 -1.5q-41 0 -68 10.5t-27 46.5q0 32 22 34q8 0 8 -10q0 -20 7 -33t19 -20t28.5 -9.5t35.5 -2.5q30 0 64.5 3.5t67.5 3.5q26 0 49 -4.5t40.5 -16.5t28 -33.5t10.5 -56.5q0 -44 -13 -93t-35 -100
q29 28 57 51.5t52 41t44 27t33 9.5q12 0 18 -8t6 -19q0 -16 -11 -42.5t-28 -60t-36 -72t-36 -76.5t-28 -74t-11 -66q0 -44 27.5 -69t71.5 -25q20 0 35.5 5.5t26.5 13t18.5 14t10.5 9.5q2 2 6 2q5 0 5 -5zM303 320q-40 -40 -78.5 -84.5t-69 -83.5t-49 -69.5t-18.5 -43.5
q0 -5 2 -6q4 -2 5 -2q8 0 31 24.5t53.5 65t63.5 92.5t60 107z" />
    <glyph glyph-name="Ograve" unicode="&#xd2;" horiz-adv-x="580" 
d="M711 823q0 -1 -3 -3q-2 -1 -3 -1q-16 1 -31 3t-27 6.5t-19 11.5t-7 17q0 5 3 8.5t8 3.5q4 0 7 -4t10.5 -10.5t21.5 -14.5t39 -16l1 -1v0zM685 529q0 -42 -20.5 -95.5t-56 -110.5t-83.5 -112.5t-103 -102.5q36 -21 81 -21q38 0 76.5 17.5t71.5 55.5q2 2 4.5 2.5t4.5 0.5
q5 0 5 -4q0 -5 -8 -13q-35 -40 -79 -59t-89 -19q-49 0 -90 21q-65 -51 -133 -83t-133 -32q-74 0 -107.5 40t-33.5 104q0 53 21 117t59 130.5t91.5 130t118.5 115.5t139.5 87.5t155.5 45.5q8 0 10 -3t2 -7v-3q-2 -18 -5.5 -22.5t-11.5 -4.5q-76 0 -146 -28t-130 -73.5
t-109 -105t-83.5 -122t-53.5 -124.5t-19 -113q0 -60 28 -98t91 -38q57 0 117 26t117 69q-32 21 -52 56t-20 83q0 41 15.5 86.5t41 88.5t58.5 82t67.5 68.5t68 47t59.5 17.5q29 0 46 -22.5t17 -74.5zM653 500q0 50 -16 71.5t-42 21.5q-34 0 -77.5 -31t-82.5 -80t-65.5 -109.5
t-26.5 -118.5q0 -46 18 -80.5t48 -56.5q51 42 95.5 93t77.5 102.5t52 100.5t19 87z" />
    <glyph glyph-name="Oacute" unicode="&#xd3;" horiz-adv-x="580" 
d="M674 865q0 -10 -7 -17t-19 -11.5t-27 -6.5t-31 -3q-1 0 -3 1q-3 2 -3 3l1 1q25 8 39 16t21.5 14.5t10.5 10.5t7 4q5 0 8 -3.5t3 -8.5zM685 529q0 -42 -20.5 -95.5t-56 -110.5t-83.5 -112.5t-103 -102.5q36 -21 81 -21q38 0 76.5 17.5t71.5 55.5q2 2 4.5 2.5t4.5 0.5
q5 0 5 -4q0 -5 -8 -13q-35 -40 -79 -59t-89 -19q-49 0 -90 21q-65 -51 -133 -83t-133 -32q-74 0 -107.5 40t-33.5 104q0 53 21 117t59 130.5t91.5 130t118.5 115.5t139.5 87.5t155.5 45.5q8 0 10 -3t2 -7v-3q-2 -18 -5.5 -22.5t-11.5 -4.5q-76 0 -146 -28t-130 -73.5
t-109 -105t-83.5 -122t-53.5 -124.5t-19 -113q0 -60 28 -98t91 -38q57 0 117 26t117 69q-32 21 -52 56t-20 83q0 41 15.5 86.5t41 88.5t58.5 82t67.5 68.5t68 47t59.5 17.5q29 0 46 -22.5t17 -74.5zM653 500q0 50 -16 71.5t-42 21.5q-34 0 -77.5 -31t-82.5 -80t-65.5 -109.5
t-26.5 -118.5q0 -46 18 -80.5t48 -56.5q51 42 95.5 93t77.5 102.5t52 100.5t19 87z" />
    <glyph glyph-name="Ocircumflex" unicode="&#xd4;" horiz-adv-x="580" 
d="M694 788q0 -2 -2 -2q-1 0 -6 3q-38 22 -46 49q-14 -10 -33.5 -18t-38.5 -9q-1 0 -3 1q-3 2 -3 3q26 9 41.5 18.5t25 17.5t14.5 13.5t9 5.5q3 0 7 -2q2 -1 2 -6q0 -12 4 -28.5t27 -42.5q2 -2 2 -3zM685 529q0 -42 -20.5 -95.5t-56 -110.5t-83.5 -112.5t-103 -102.5
q36 -21 81 -21q38 0 76.5 17.5t71.5 55.5q2 2 4.5 2.5t4.5 0.5q5 0 5 -4q0 -5 -8 -13q-35 -40 -79 -59t-89 -19q-49 0 -90 21q-65 -51 -133 -83t-133 -32q-74 0 -107.5 40t-33.5 104q0 53 21 117t59 130.5t91.5 130t118.5 115.5t139.5 87.5t155.5 45.5q8 0 10 -3t2 -7v-3
q-2 -18 -5.5 -22.5t-11.5 -4.5q-76 0 -146 -28t-130 -73.5t-109 -105t-83.5 -122t-53.5 -124.5t-19 -113q0 -60 28 -98t91 -38q57 0 117 26t117 69q-32 21 -52 56t-20 83q0 41 15.5 86.5t41 88.5t58.5 82t67.5 68.5t68 47t59.5 17.5q29 0 46 -22.5t17 -74.5zM653 500
q0 50 -16 71.5t-42 21.5q-34 0 -77.5 -31t-82.5 -80t-65.5 -109.5t-26.5 -118.5q0 -46 18 -80.5t48 -56.5q51 42 95.5 93t77.5 102.5t52 100.5t19 87z" />
    <glyph glyph-name="Otilde" unicode="&#xd5;" horiz-adv-x="580" 
d="M696 830q0 -21 -16 -30.5t-30 -9.5q-7 0 -16 3.5t-18.5 8t-18 8t-15.5 3.5q-14 0 -30 -23q-2 -2 -4 -2q-4 0 -4 3q0 11 5 18.5t12.5 12t16 7t15.5 2.5q9 0 17 -3.5t16 -8t16 -8t16 -3.5q14 0 30 23q2 2 4 2q4 0 4 -3zM685 529q0 -42 -20.5 -95.5t-56 -110.5t-83.5 -112.5
t-103 -102.5q36 -21 81 -21q38 0 76.5 17.5t71.5 55.5q2 2 4.5 2.5t4.5 0.5q5 0 5 -4q0 -5 -8 -13q-35 -40 -79 -59t-89 -19q-49 0 -90 21q-65 -51 -133 -83t-133 -32q-74 0 -107.5 40t-33.5 104q0 53 21 117t59 130.5t91.5 130t118.5 115.5t139.5 87.5t155.5 45.5
q8 0 10 -3t2 -7v-3q-2 -18 -5.5 -22.5t-11.5 -4.5q-76 0 -146 -28t-130 -73.5t-109 -105t-83.5 -122t-53.5 -124.5t-19 -113q0 -60 28 -98t91 -38q57 0 117 26t117 69q-32 21 -52 56t-20 83q0 41 15.5 86.5t41 88.5t58.5 82t67.5 68.5t68 47t59.5 17.5q29 0 46 -22.5
t17 -74.5zM653 500q0 50 -16 71.5t-42 21.5q-34 0 -77.5 -31t-82.5 -80t-65.5 -109.5t-26.5 -118.5q0 -46 18 -80.5t48 -56.5q51 42 95.5 93t77.5 102.5t52 100.5t19 87z" />
    <glyph glyph-name="Odieresis" unicode="&#xd6;" horiz-adv-x="580" 
d="M705 825q0 -4 -4.5 -11.5t-10.5 -14.5t-13 -12t-12 -5q-4 0 -9 3t-5 11q0 4 3 12.5t8 16.5t11.5 14.5t14.5 6.5q17 0 17 -21zM588 825q0 -4 -4.5 -11.5t-10.5 -14.5t-13 -12t-12 -5q-4 0 -9 3t-5 11q0 4 3 12.5t8 16.5t11.5 14.5t14.5 6.5q17 0 17 -21zM685 529
q0 -42 -20.5 -95.5t-56 -110.5t-83.5 -112.5t-103 -102.5q36 -21 81 -21q38 0 76.5 17.5t71.5 55.5q2 2 4.5 2.5t4.5 0.5q5 0 5 -4q0 -5 -8 -13q-35 -40 -79 -59t-89 -19q-49 0 -90 21q-65 -51 -133 -83t-133 -32q-74 0 -107.5 40t-33.5 104q0 53 21 117t59 130.5t91.5 130
t118.5 115.5t139.5 87.5t155.5 45.5q8 0 10 -3t2 -7v-3q-2 -18 -5.5 -22.5t-11.5 -4.5q-76 0 -146 -28t-130 -73.5t-109 -105t-83.5 -122t-53.5 -124.5t-19 -113q0 -60 28 -98t91 -38q57 0 117 26t117 69q-32 21 -52 56t-20 83q0 41 15.5 86.5t41 88.5t58.5 82t67.5 68.5
t68 47t59.5 17.5q29 0 46 -22.5t17 -74.5zM653 500q0 50 -16 71.5t-42 21.5q-34 0 -77.5 -31t-82.5 -80t-65.5 -109.5t-26.5 -118.5q0 -46 18 -80.5t48 -56.5q51 42 95.5 93t77.5 102.5t52 100.5t19 87z" />
    <glyph glyph-name="Oslash" unicode="&#xd8;" horiz-adv-x="580" 
d="M685 529q0 -42 -20.5 -95.5t-56 -110.5t-83.5 -112.5t-103 -102.5q36 -21 81 -21q38 0 76.5 17.5t71.5 55.5q2 2 4.5 2.5t4.5 0.5q5 0 5 -4q0 -5 -8 -13q-35 -40 -79 -59t-89 -19q-49 0 -90 21q-65 -51 -132.5 -82.5t-132.5 -32.5q-38 -49 -69.5 -78t-50.5 -29q-8 0 -8 6
q0 7 10.5 17t23.5 10q12 0 32.5 20t48.5 55q-68 3 -98.5 42t-30.5 101q0 53 21 117t59 130.5t91.5 130t118.5 115.5t139.5 87.5t155.5 45.5q8 0 10 -3t2 -7v-3q0 1 1 2t1 2t8.5 17t19 35.5t19.5 35t11 15.5q1 0 4 -1t3 -3t-1 -8t-6 -16q-15 -26 -49 -86.5t-79 -140.5
q28 20 53.5 31.5t47.5 11.5q29 0 46 -22.5t17 -74.5zM653 500q0 50 -16 71.5t-42 21.5q-20 0 -44 -11.5t-49 -31.5q-36 -63 -75.5 -129.5t-81.5 -134.5q-2 -8 -2 -16v-16q0 -46 18 -80.5t48 -56.5q51 42 95.5 93t77.5 102.5t52 100.5t19 87zM468 519q-38 -38 -69.5 -89
t-45.5 -105q30 51 59.5 100t55.5 94zM572 704q-76 0 -146 -28t-130 -73.5t-109 -105t-83.5 -122t-53.5 -124.5t-19 -113q0 -59 26.5 -96.5t84.5 -39.5q38 51 82 117.5t89 140.5q5 39 21.5 80t40.5 80.5t54.5 75t61.5 63.5q27 47 48.5 84.5t34.5 60.5h-2zM384 97
q-32 20 -51.5 54t-20.5 82q-42 -66 -81.5 -124.5t-75.5 -106.5q57 2 115.5 27.5t113.5 67.5z" />
    <glyph glyph-name="Ugrave" unicode="&#xd9;" horiz-adv-x="670" 
d="M697 768q0 -1 -3 -3q-2 -1 -3 -1q-16 1 -31 3t-27 6.5t-19 11.5t-7 17q0 5 3 8.5t8 3.5q4 0 7 -4t10.5 -10.5t21.5 -14.5t39 -16l1 -1v0zM833 595q0 -16 -25.5 -60t-69.5 -102.5t-103 -125.5t-126 -129q-16 -35 -24.5 -66t-8.5 -57q0 -35 20 -56.5t68 -21.5
q34 0 81.5 22.5t110.5 88.5q5 3 8 3q5 0 5 -4q0 -1 -2 -5q-5 -9 -31.5 -30t-62.5 -42.5t-74.5 -38t-68.5 -16.5q-44 0 -62.5 19.5t-18.5 54.5q0 26 9 57.5t25 66.5q-44 -39 -90.5 -73t-92.5 -58.5t-90.5 -39t-86.5 -14.5q-64 0 -93.5 29.5t-29.5 82.5q0 57 18.5 112.5
t49.5 110t71.5 107.5t84 103.5t88 98t82.5 91.5l2 2q2 2 4 2q5 0 5 -5q0 -2 -0.5 -3t-3.5 -4q-57 -66 -121.5 -137.5t-119 -145.5t-90 -149t-35.5 -148q0 -24 8.5 -46t25 -39t39.5 -27t52 -10q38 0 79 14.5t84 40t86.5 59.5t85.5 72q23 47 53.5 96.5t64 96.5t67.5 89
t63 73.5t51.5 50t32.5 18.5q6 0 6 -8zM801 550q0 2 -2 2q-13 0 -47 -31.5t-74.5 -81.5t-82.5 -112t-72 -122q57 56 108 113.5t88.5 106t59.5 82.5t22 43z" />
    <glyph glyph-name="Uacute" unicode="&#xda;" horiz-adv-x="670" 
d="M717 777q0 -10 -7 -17t-19 -11.5t-27 -6.5t-31 -3q-1 0 -3 1q-3 2 -3 3l1 1q25 8 39 16t21.5 14.5t10.5 10.5t7 4q5 0 8 -3.5t3 -8.5zM833 595q0 -16 -25.5 -60t-69.5 -102.5t-103 -125.5t-126 -129q-16 -35 -24.5 -66t-8.5 -57q0 -35 20 -56.5t68 -21.5q34 0 81.5 22.5
t110.5 88.5q5 3 8 3q5 0 5 -4q0 -1 -2 -5q-5 -9 -31.5 -30t-62.5 -42.5t-74.5 -38t-68.5 -16.5q-44 0 -62.5 19.5t-18.5 54.5q0 26 9 57.5t25 66.5q-44 -39 -90.5 -73t-92.5 -58.5t-90.5 -39t-86.5 -14.5q-64 0 -93.5 29.5t-29.5 82.5q0 57 18.5 112.5t49.5 110t71.5 107.5
t84 103.5t88 98t82.5 91.5l2 2q2 2 4 2q5 0 5 -5q0 -2 -0.5 -3t-3.5 -4q-57 -66 -121.5 -137.5t-119 -145.5t-90 -149t-35.5 -148q0 -24 8.5 -46t25 -39t39.5 -27t52 -10q38 0 79 14.5t84 40t86.5 59.5t85.5 72q23 47 53.5 96.5t64 96.5t67.5 89t63 73.5t51.5 50t32.5 18.5
q6 0 6 -8zM801 550q0 2 -2 2q-13 0 -47 -31.5t-74.5 -81.5t-82.5 -112t-72 -122q57 56 108 113.5t88.5 106t59.5 82.5t22 43z" />
    <glyph glyph-name="Ucircumflex" unicode="&#xdb;" horiz-adv-x="670" 
d="M733 738q0 -2 -2 -2q-1 0 -6 3q-38 22 -46 49q-14 -10 -33.5 -18t-38.5 -9q-1 0 -3 1q-3 2 -3 3q26 9 41.5 18.5t25 17.5t14.5 13.5t9 5.5q3 0 7 -2q2 -1 2 -6q0 -12 4 -28.5t27 -42.5q2 -2 2 -3zM833 595q0 -16 -25.5 -60t-69.5 -102.5t-103 -125.5t-126 -129
q-16 -35 -24.5 -66t-8.5 -57q0 -35 20 -56.5t68 -21.5q34 0 81.5 22.5t110.5 88.5q5 3 8 3q5 0 5 -4q0 -1 -2 -5q-5 -9 -31.5 -30t-62.5 -42.5t-74.5 -38t-68.5 -16.5q-44 0 -62.5 19.5t-18.5 54.5q0 26 9 57.5t25 66.5q-44 -39 -90.5 -73t-92.5 -58.5t-90.5 -39
t-86.5 -14.5q-64 0 -93.5 29.5t-29.5 82.5q0 57 18.5 112.5t49.5 110t71.5 107.5t84 103.5t88 98t82.5 91.5l2 2q2 2 4 2q5 0 5 -5q0 -2 -0.5 -3t-3.5 -4q-57 -66 -121.5 -137.5t-119 -145.5t-90 -149t-35.5 -148q0 -24 8.5 -46t25 -39t39.5 -27t52 -10q38 0 79 14.5t84 40
t86.5 59.5t85.5 72q23 47 53.5 96.5t64 96.5t67.5 89t63 73.5t51.5 50t32.5 18.5q6 0 6 -8zM801 550q0 2 -2 2q-13 0 -47 -31.5t-74.5 -81.5t-82.5 -112t-72 -122q57 56 108 113.5t88.5 106t59.5 82.5t22 43z" />
    <glyph glyph-name="Udieresis" unicode="&#xdc;" horiz-adv-x="670" 
d="M734 759q0 -4 -4.5 -11.5t-10.5 -14.5t-13 -12t-12 -5q-4 0 -9 3t-5 11q0 4 3 12.5t8 16.5t11.5 14.5t14.5 6.5q17 0 17 -21zM617 759q0 -4 -4.5 -11.5t-10.5 -14.5t-13 -12t-12 -5q-4 0 -9 3t-5 11q0 4 3 12.5t8 16.5t11.5 14.5t14.5 6.5q17 0 17 -21zM833 595
q0 -16 -25.5 -60t-69.5 -102.5t-103 -125.5t-126 -129q-16 -35 -24.5 -66t-8.5 -57q0 -35 20 -56.5t68 -21.5q34 0 81.5 22.5t110.5 88.5q5 3 8 3q5 0 5 -4q0 -1 -2 -5q-5 -9 -31.5 -30t-62.5 -42.5t-74.5 -38t-68.5 -16.5q-44 0 -62.5 19.5t-18.5 54.5q0 26 9 57.5t25 66.5
q-44 -39 -90.5 -73t-92.5 -58.5t-90.5 -39t-86.5 -14.5q-64 0 -93.5 29.5t-29.5 82.5q0 57 18.5 112.5t49.5 110t71.5 107.5t84 103.5t88 98t82.5 91.5l2 2q2 2 4 2q5 0 5 -5q0 -2 -0.5 -3t-3.5 -4q-57 -66 -121.5 -137.5t-119 -145.5t-90 -149t-35.5 -148q0 -24 8.5 -46
t25 -39t39.5 -27t52 -10q38 0 79 14.5t84 40t86.5 59.5t85.5 72q23 47 53.5 96.5t64 96.5t67.5 89t63 73.5t51.5 50t32.5 18.5q6 0 6 -8zM801 550q0 2 -2 2q-13 0 -47 -31.5t-74.5 -81.5t-82.5 -112t-72 -122q57 56 108 113.5t88.5 106t59.5 82.5t22 43z" />
    <glyph glyph-name="Yacute" unicode="&#xdd;" horiz-adv-x="643" 
d="M737 810q0 -10 -7 -17t-19 -11.5t-27 -6.5t-31 -3q-1 0 -3 1q-3 2 -3 3l1 1q25 8 39 16t21.5 14.5t10.5 10.5t7 4q5 0 8 -3.5t3 -8.5zM830 667q0 -4 -3 -7q-130 -161 -228.5 -312.5t-176.5 -286.5q66 40 143 77.5t168 72.5q2 1 4.5 2t4.5 1q11 0 11 -9q0 -7 -7 -11
q-100 -33 -183.5 -72t-152.5 -82q-68 -120 -121 -220.5t-95 -173t-76 -113t-66 -40.5q-23 0 -35 17.5t-12 49.5q0 39 21 94t67.5 119.5t121.5 135t184 138.5q52 93 111 189.5t125 190.5q0 3 -1 3q-2 0 -5 -3q-29 -27 -69 -69.5t-87 -89.5t-99 -94.5t-104 -85t-102.5 -61.5
t-94.5 -24q-31 0 -51.5 18.5t-20.5 50.5q0 30 17 68.5t45 81t64 87.5t73 89t73 84.5t64 74t45 58.5t17 38q0 14 -6.5 19.5t-20.5 5.5q-20 0 -56 -6.5t-89 -6.5q-18 0 -42.5 2t-46 7.5t-36.5 16t-15 28.5q0 9 3.5 17t8 14.5t9 10.5t5.5 5t3 1q7 0 11 -12q5 -14 10.5 -27
t18 -23t34 -16t57.5 -6q29 0 54 4t46.5 8.5t38 8t28.5 3.5q23 0 23 -23q0 -19 -29.5 -58.5t-73.5 -90.5t-95.5 -110.5t-95.5 -119.5t-73.5 -116t-29.5 -101q0 -26 19.5 -37.5t48.5 -11.5q43 0 104.5 36.5t131 94t141.5 129t136 142t114 132t75 99.5q4 7 12 7q2 0 4 -2
q4 -6 4 -10zM387 25q-91 -59 -156.5 -121.5t-107.5 -120t-61.5 -106.5t-19.5 -82q0 -25 10.5 -39t30.5 -14t49 38.5t67.5 104t85.5 153.5t102 187z" />
    <glyph glyph-name="Thorn" unicode="&#xde;" horiz-adv-x="472" 
d="M752 431q0 -40 -23 -79.5t-70.5 -71t-119 -51t-168.5 -19.5q-24 0 -44.5 4.5t-39.5 12.5q-28 -54 -55.5 -102t-53 -84t-48.5 -56.5t-42 -20.5q-20 0 -37.5 15.5t-30 42t-20 62.5t-7.5 77q0 46 10 96t33 98.5t59.5 92t88.5 77.5t122 55.5t159 24.5q33 60 62.5 103t54.5 59
q5 4 10 4q7 0 7 -8q0 -5 -2 -5q-23 -8 -52.5 -49.5t-63.5 -102.5h12q63 0 111.5 -14.5t81.5 -39t49.5 -56t16.5 -65.5zM715 422q0 30 -15.5 58.5t-46.5 50.5t-77.5 35t-109.5 13q-40 -75 -83 -164t-87 -172q20 -8 43 -12.5t48 -4.5q81 0 142.5 17.5t103 45.5t62 63t20.5 70z
M450 578q-121 -3 -205 -41.5t-135.5 -96.5t-74.5 -126.5t-23 -130.5q0 -37 7.5 -69t20.5 -56t32 -37.5t41 -13.5q15 0 33 17.5t39 47.5t44 71t47 88q-32 13 -59.5 26t-56.5 13q-4 0 -7.5 4t-3.5 8q0 8 15 8q23 0 53 -14.5t67 -28.5q41 80 83 167.5t83 163.5z" />
    <glyph glyph-name="germandbls" unicode="&#xdf;" horiz-adv-x="419" 
d="M630 702q0 -24 -16 -59t-42 -75.5t-60 -83.5t-69.5 -82.5t-70.5 -73.5t-63 -56q-23 -19 -23 -28t15 -12t32 -3q11 0 20.5 0.5t14.5 0.5q22 0 22 -19q0 -14 -10 -34.5t-26 -43t-36 -45t-39 -40.5q32 -9 64 -9q45 0 89 16t82 42q8 6 15.5 11t15.5 11q1 1 3 1q4 0 4 -4
q0 -3 -4 -6q-2 -2 -6 -5q-3 -2 -8 -5.5t-11 -8.5q-42 -28 -88.5 -48.5t-99.5 -20.5q-17 0 -35.5 2.5t-37.5 8.5q-26 -21 -40 -21q-7 0 -12.5 2t-9.5 8.5t-6.5 18.5t-2.5 32q0 11 1 18.5t4 7.5q1 0 4 -3q30 -31 70 -45q16 14 31.5 32t28 37t20.5 36.5t8 29.5q0 16 -16 16
q-12 0 -27.5 1t-29 4.5t-22.5 9t-9 14.5q0 8 7.5 18t25.5 23q35 26 71 60t69.5 71.5t63 76t51.5 74t34.5 65t12.5 48.5q0 12 -12 12t-41.5 -29t-70.5 -79t-90.5 -117t-103.5 -143t-109 -157.5t-106.5 -160.5t-96.5 -151.5t-78 -131t-52.5 -98.5t-19.5 -54q0 -16 16 -16
l-31 -34q-8 0 -13.5 3.5t-5.5 11.5q0 20 31 82t83 150t119 193.5t140 213t146.5 208t136.5 178.5t111.5 125t71.5 47q16 0 16 -18zM252 37q-12 5 -23.5 10.5t-23.5 13.5q-1 1 -3 1q-3 0 -3 -4q0 -8 4 -19.5t21 -11.5q10 0 28 10z" />
    <glyph glyph-name="agrave" unicode="&#xe0;" 
d="M398 298q0 -1 -3 -3q-2 -1 -3 -1q-16 1 -31 3t-27 6.5t-19 11.5t-7 17q0 5 3 8.5t8 3.5q4 0 7 -4t10.5 -10.5t21.5 -14.5t39 -16l1 -1v0zM590 116q0 -3 -4 -6q-2 -2 -6 -5q-3 -2 -8 -5.5t-11 -8.5q-10 -7 -38.5 -24.5t-65.5 -36.5t-78 -33.5t-75 -14.5q-26 0 -41.5 10
t-15.5 36q0 28 20 72v1q0 1 -2 1t-5 -3q-11 -11 -31 -30.5t-43.5 -38t-46.5 -32.5t-40 -14q-14 0 -23 7.5t-9 22.5q0 27 21.5 61t58 64t84.5 50.5t100 20.5q4 0 8 -1q8 -2 8 -5t-1 -5t-2 -3q-6 -9 -17.5 -24.5t-23.5 -35t-20.5 -40t-8.5 -39.5q0 -28 17 -39.5t45 -11.5
q27 0 56 9t57 22.5t54.5 29.5t48.5 30q17 11 31 22q1 1 3 1q4 0 4 -4zM320 188q0 7 -10 7q-32 0 -68.5 -14.5t-68 -37t-52.5 -50.5t-21 -55q0 -4 3 -13.5t16 -9.5q15 1 42.5 16.5t50.5 36.5q13 12 31.5 30t35.5 36t29 33t12 21z" />
    <glyph glyph-name="aacute" unicode="&#xe1;" 
d="M413 332q0 -10 -7 -17t-19 -11.5t-27 -6.5t-31 -3q-1 0 -3 1q-3 2 -3 3l1 1q25 8 39 16t21.5 14.5t10.5 10.5t7 4q5 0 8 -3.5t3 -8.5zM590 116q0 -3 -4 -6q-2 -2 -6 -5q-3 -2 -8 -5.5t-11 -8.5q-10 -7 -38.5 -24.5t-65.5 -36.5t-78 -33.5t-75 -14.5q-26 0 -41.5 10
t-15.5 36q0 28 20 72v1q0 1 -2 1t-5 -3q-11 -11 -31 -30.5t-43.5 -38t-46.5 -32.5t-40 -14q-14 0 -23 7.5t-9 22.5q0 27 21.5 61t58 64t84.5 50.5t100 20.5q4 0 8 -1q8 -2 8 -5t-1 -5t-2 -3q-6 -9 -17.5 -24.5t-23.5 -35t-20.5 -40t-8.5 -39.5q0 -28 17 -39.5t45 -11.5
q27 0 56 9t57 22.5t54.5 29.5t48.5 30q17 11 31 22q1 1 3 1q4 0 4 -4zM320 188q0 7 -10 7q-32 0 -68.5 -14.5t-68 -37t-52.5 -50.5t-21 -55q0 -4 3 -13.5t16 -9.5q15 1 42.5 16.5t50.5 36.5q13 12 31.5 30t35.5 36t29 33t12 21z" />
    <glyph glyph-name="acircumflex" unicode="&#xe2;" 
d="M399 260q0 -2 -2 -2q-1 0 -6 3q-38 22 -46 49q-14 -10 -33.5 -18t-38.5 -9q-1 0 -3 1q-3 2 -3 3q26 9 41.5 18.5t25 17.5t14.5 13.5t9 5.5q3 0 7 -2q2 -1 2 -6q0 -12 4 -28.5t27 -42.5q2 -2 2 -3zM590 116q0 -3 -4 -6q-2 -2 -6 -5q-3 -2 -8 -5.5t-11 -8.5
q-10 -7 -38.5 -24.5t-65.5 -36.5t-78 -33.5t-75 -14.5q-26 0 -41.5 10t-15.5 36q0 28 20 72v1q0 1 -2 1t-5 -3q-11 -11 -31 -30.5t-43.5 -38t-46.5 -32.5t-40 -14q-14 0 -23 7.5t-9 22.5q0 27 21.5 61t58 64t84.5 50.5t100 20.5q4 0 8 -1q8 -2 8 -5t-1 -5t-2 -3
q-6 -9 -17.5 -24.5t-23.5 -35t-20.5 -40t-8.5 -39.5q0 -28 17 -39.5t45 -11.5q27 0 56 9t57 22.5t54.5 29.5t48.5 30q17 11 31 22q1 1 3 1q4 0 4 -4zM320 188q0 7 -10 7q-32 0 -68.5 -14.5t-68 -37t-52.5 -50.5t-21 -55q0 -4 3 -13.5t16 -9.5q15 1 42.5 16.5t50.5 36.5
q13 12 31.5 30t35.5 36t29 33t12 21z" />
    <glyph glyph-name="atilde" unicode="&#xe3;" 
d="M402 326q0 -21 -16 -30.5t-30 -9.5q-7 0 -16 3.5t-18.5 8t-18 8t-15.5 3.5q-14 0 -30 -23q-2 -2 -4 -2q-4 0 -4 3q0 11 5 18.5t12.5 12t16 7t15.5 2.5q9 0 17 -3.5t16 -8t16 -8t16 -3.5q14 0 30 23q2 2 4 2q4 0 4 -3zM590 116q0 -3 -4 -6q-2 -2 -6 -5q-3 -2 -8 -5.5
t-11 -8.5q-10 -7 -38.5 -24.5t-65.5 -36.5t-78 -33.5t-75 -14.5q-26 0 -41.5 10t-15.5 36q0 28 20 72v1q0 1 -2 1t-5 -3q-11 -11 -31 -30.5t-43.5 -38t-46.5 -32.5t-40 -14q-14 0 -23 7.5t-9 22.5q0 27 21.5 61t58 64t84.5 50.5t100 20.5q4 0 8 -1q8 -2 8 -5t-1 -5t-2 -3
q-6 -9 -17.5 -24.5t-23.5 -35t-20.5 -40t-8.5 -39.5q0 -28 17 -39.5t45 -11.5q27 0 56 9t57 22.5t54.5 29.5t48.5 30q17 11 31 22q1 1 3 1q4 0 4 -4zM320 188q0 7 -10 7q-32 0 -68.5 -14.5t-68 -37t-52.5 -50.5t-21 -55q0 -4 3 -13.5t16 -9.5q15 1 42.5 16.5t50.5 36.5
q13 12 31.5 30t35.5 36t29 33t12 21z" />
    <glyph glyph-name="adieresis" unicode="&#xe4;" 
d="M437 360q0 -4 -4.5 -11.5t-10.5 -14.5t-13 -12t-12 -5q-4 0 -9 3t-5 11q0 4 3 12.5t8 16.5t11.5 14.5t14.5 6.5q17 0 17 -21zM320 360q0 -4 -4.5 -11.5t-10.5 -14.5t-13 -12t-12 -5q-4 0 -9 3t-5 11q0 4 3 12.5t8 16.5t11.5 14.5t14.5 6.5q17 0 17 -21zM590 116
q0 -3 -4 -6q-2 -2 -6 -5q-3 -2 -8 -5.5t-11 -8.5q-10 -7 -38.5 -24.5t-65.5 -36.5t-78 -33.5t-75 -14.5q-26 0 -41.5 10t-15.5 36q0 28 20 72v1q0 1 -2 1t-5 -3q-11 -11 -31 -30.5t-43.5 -38t-46.5 -32.5t-40 -14q-14 0 -23 7.5t-9 22.5q0 27 21.5 61t58 64t84.5 50.5
t100 20.5q4 0 8 -1q8 -2 8 -5t-1 -5t-2 -3q-6 -9 -17.5 -24.5t-23.5 -35t-20.5 -40t-8.5 -39.5q0 -28 17 -39.5t45 -11.5q27 0 56 9t57 22.5t54.5 29.5t48.5 30q17 11 31 22q1 1 3 1q4 0 4 -4zM320 188q0 7 -10 7q-32 0 -68.5 -14.5t-68 -37t-52.5 -50.5t-21 -55
q0 -4 3 -13.5t16 -9.5q15 1 42.5 16.5t50.5 36.5q13 12 31.5 30t35.5 36t29 33t12 21z" />
    <glyph glyph-name="aring" unicode="&#xe5;" 
d="M399 350q0 -20 -17.5 -35t-35.5 -15q-25 0 -25 23q0 12 5.5 21.5t14 16t17.5 10t16 3.5q12 0 18.5 -6.5t6.5 -17.5zM590 116q0 -3 -4 -6q-2 -2 -6 -5q-3 -2 -8 -5.5t-11 -8.5q-10 -7 -38.5 -24.5t-65.5 -36.5t-78 -33.5t-75 -14.5q-26 0 -41.5 10t-15.5 36q0 28 20 72v1
q0 1 -2 1t-5 -3q-11 -11 -31 -30.5t-43.5 -38t-46.5 -32.5t-40 -14q-14 0 -23 7.5t-9 22.5q0 27 21.5 61t58 64t84.5 50.5t100 20.5q4 0 8 -1q8 -2 8 -5t-1 -5t-2 -3q-6 -9 -17.5 -24.5t-23.5 -35t-20.5 -40t-8.5 -39.5q0 -28 17 -39.5t45 -11.5q27 0 56 9t57 22.5
t54.5 29.5t48.5 30q17 11 31 22q1 1 3 1q4 0 4 -4zM386 346q0 15 -16 15t-25.5 -11.5t-9.5 -22.5q0 -14 15 -14q13 0 24.5 9.5t11.5 23.5zM320 188q0 7 -10 7q-32 0 -68.5 -14.5t-68 -37t-52.5 -50.5t-21 -55q0 -4 3 -13.5t16 -9.5q15 1 42.5 16.5t50.5 36.5q13 12 31.5 30
t35.5 36t29 33t12 21z" />
    <glyph glyph-name="ae" unicode="&#xe6;" horiz-adv-x="535" 
d="M666 116q0 -3 -4 -6q-2 -2 -6 -5q-3 -2 -8 -5.5t-11 -8.5q-5 -3 -35 -22t-71.5 -40.5t-88.5 -38.5t-86 -17q-54 0 -76.5 22.5t-22.5 55.5q0 27 12 57l-9 -9q-11 -11 -31 -30.5t-43.5 -38t-46.5 -32.5t-40 -14q-14 0 -23 7.5t-9 22.5q0 27 21.5 61t58 64t84.5 50.5
t100 20.5h3q3 0 5 -1q23 22 48.5 35.5t48.5 13.5q19 0 19 -19q0 -21 -22.5 -44t-51 -43.5t-56 -36t-37.5 -20.5q-5 -18 -5 -31q0 -28 20 -47t69 -19q29 0 64.5 10t70.5 25t67 32.5t54 31.5q17 11 31 22q1 1 3 1q4 0 4 -4zM425 225q0 12 -11 12q-14 0 -31.5 -11.5t-35 -30
t-32 -41.5t-23.5 -46q12 6 34.5 19.5t44 30t38 34t16.5 33.5zM320 189q-2 6 -10 6q-32 0 -68.5 -14.5t-68 -37t-52.5 -50.5t-21 -55q0 -4 3 -13.5t16 -9.5q15 1 42.5 16.5t50.5 36.5q14 12 34 31.5t38 39.5q16 27 36 50z" />
    <glyph glyph-name="ccedilla" unicode="&#xe7;" horiz-adv-x="332" 
d="M463 116q0 -3 -4 -6q-2 -2 -6 -5q-3 -2 -8 -5.5t-11 -8.5q-10 -7 -42 -25.5t-73 -38t-85.5 -34.5t-78.5 -15l-14 -20q6 -1 10 -5q4 -3 7.5 -7t2.5 -11q-1 -15 -10.5 -26t-23 -17.5t-29 -9.5t-27.5 -3q-7 0 -7 5q0 4 4 4q11 0 23 3t22.5 8t17.5 13t7 18q1 12 -8 15.5
t-14 3.5q2 2 9.5 13t12.5 17q-20 4 -32 17t-12 39q0 36 18.5 69.5t47 58.5t62 40t62.5 15q31 0 31 -31q0 -10 -7 -21t-16.5 -20.5t-20.5 -17.5t-20 -12q-4 -2 -6 -2q-4 0 -4 5q0 6 5 8q4 2 11 8.5t14.5 15t13 17.5t5.5 16q0 8 -5 13t-19 5q-19 0 -43 -11.5t-45.5 -31
t-36.5 -46t-15 -56.5q0 -31 16 -43t42 -12q30 0 68 12.5t73 29t63 32t37 21.5q17 11 31 22q1 1 3 1q4 0 4 -4z" />
    <glyph glyph-name="egrave" unicode="&#xe8;" horiz-adv-x="370" 
d="M333 327q0 -1 -3 -3q-2 -1 -3 -1q-16 1 -31 3t-27 6.5t-19 11.5t-7 17q0 5 3 8.5t8 3.5q4 0 7 -4t10.5 -10.5t21.5 -14.5t39 -16l1 -1v0zM501 116q0 -3 -4 -6q-2 -2 -6 -5q-3 -2 -8 -5.5t-11 -8.5q-5 -3 -35 -22t-71.5 -40.5t-88.5 -38.5t-86 -17q-54 0 -76.5 22
t-22.5 55q0 32 17 68t43.5 67.5t58 52t60.5 20.5q19 0 19 -19q0 -21 -22.5 -44t-51.5 -43.5t-56 -36t-37 -20.5q-4 -15 -4 -31q0 -28 19.5 -47t68.5 -19q29 0 64.5 10t70.5 25t67 32.5t54 31.5q17 11 31 22q1 1 3 1q4 0 4 -4zM260 225q0 12 -11 12q-14 0 -31.5 -11.5
t-34.5 -29.5t-32 -41t-24 -47q12 6 34.5 19.5t44 30t38 34t16.5 33.5z" />
    <glyph glyph-name="eacute" unicode="&#xe9;" horiz-adv-x="370" 
d="M353 364q0 -10 -7 -17t-19 -11.5t-27 -6.5t-31 -3q-1 0 -3 1q-3 2 -3 3l1 1q25 8 39 16t21.5 14.5t10.5 10.5t7 4q5 0 8 -3.5t3 -8.5zM501 116q0 -3 -4 -6q-2 -2 -6 -5q-3 -2 -8 -5.5t-11 -8.5q-5 -3 -35 -22t-71.5 -40.5t-88.5 -38.5t-86 -17q-54 0 -76.5 22t-22.5 55
q0 32 17 68t43.5 67.5t58 52t60.5 20.5q19 0 19 -19q0 -21 -22.5 -44t-51.5 -43.5t-56 -36t-37 -20.5q-4 -15 -4 -31q0 -28 19.5 -47t68.5 -19q29 0 64.5 10t70.5 25t67 32.5t54 31.5q17 11 31 22q1 1 3 1q4 0 4 -4zM260 225q0 12 -11 12q-14 0 -31.5 -11.5t-34.5 -29.5
t-32 -41t-24 -47q12 6 34.5 19.5t44 30t38 34t16.5 33.5z" />
    <glyph glyph-name="ecircumflex" unicode="&#xea;" horiz-adv-x="370" 
d="M348 281q0 -2 -2 -2q-1 0 -6 3q-38 22 -46 49q-14 -10 -33.5 -18t-38.5 -9q-1 0 -3 1q-3 2 -3 3q26 9 41.5 18.5t25 17.5t14.5 13.5t9 5.5q3 0 7 -2q2 -1 2 -6q0 -12 4 -28.5t27 -42.5q2 -2 2 -3zM501 116q0 -3 -4 -6q-2 -2 -6 -5q-3 -2 -8 -5.5t-11 -8.5q-5 -3 -35 -22
t-71.5 -40.5t-88.5 -38.5t-86 -17q-54 0 -76.5 22t-22.5 55q0 32 17 68t43.5 67.5t58 52t60.5 20.5q19 0 19 -19q0 -21 -22.5 -44t-51.5 -43.5t-56 -36t-37 -20.5q-4 -15 -4 -31q0 -28 19.5 -47t68.5 -19q29 0 64.5 10t70.5 25t67 32.5t54 31.5q17 11 31 22q1 1 3 1
q4 0 4 -4zM260 225q0 12 -11 12q-14 0 -31.5 -11.5t-34.5 -29.5t-32 -41t-24 -47q12 6 34.5 19.5t44 30t38 34t16.5 33.5z" />
    <glyph glyph-name="edieresis" unicode="&#xeb;" horiz-adv-x="370" 
d="M394 386q0 -4 -4.5 -11.5t-10.5 -14.5t-13 -12t-12 -5q-4 0 -9 3t-5 11q0 4 3 12.5t8 16.5t11.5 14.5t14.5 6.5q17 0 17 -21zM277 386q0 -4 -4.5 -11.5t-10.5 -14.5t-13 -12t-12 -5q-4 0 -9 3t-5 11q0 4 3 12.5t8 16.5t11.5 14.5t14.5 6.5q17 0 17 -21zM501 116
q0 -3 -4 -6q-2 -2 -6 -5q-3 -2 -8 -5.5t-11 -8.5q-5 -3 -35 -22t-71.5 -40.5t-88.5 -38.5t-86 -17q-54 0 -76.5 22t-22.5 55q0 32 17 68t43.5 67.5t58 52t60.5 20.5q19 0 19 -19q0 -21 -22.5 -44t-51.5 -43.5t-56 -36t-37 -20.5q-4 -15 -4 -31q0 -28 19.5 -47t68.5 -19
q29 0 64.5 10t70.5 25t67 32.5t54 31.5q17 11 31 22q1 1 3 1q4 0 4 -4zM260 225q0 12 -11 12q-14 0 -31.5 -11.5t-34.5 -29.5t-32 -41t-24 -47q12 6 34.5 19.5t44 30t38 34t16.5 33.5z" />
    <glyph glyph-name="igrave" unicode="&#xec;" horiz-adv-x="346" 
d="M324 301q0 -1 -3 -3q-2 -1 -3 -1q-16 1 -31 3t-27 6.5t-19 11.5t-7 17q0 5 3 8.5t8 3.5q4 0 7 -4t10.5 -10.5t21.5 -14.5t39 -16l1 -1v0zM478 116q0 -3 -4 -6q-2 -2 -6 -5q-3 -2 -8 -5.5t-11 -8.5q-6 -4 -33 -20.5t-64 -34.5t-77 -32.5t-72 -14.5q-26 0 -41.5 12.5
t-16.5 43.5q0 15 4.5 30.5t10.5 28.5t11 21.5t6 9.5l2 4t1 4t-2 2q-4 0 -17 -10l-18 -14t-19 -14q-7 1 -7 5q0 1 2 3l1 1q32 23 59 46.5t49 45.5l2 2q1 1 5 1q3 0 3 -4t-2.5 -8.5t-4.5 -6.5q-1 -1 -7 -9.5t-14 -20.5t-16 -26.5t-13 -28.5q-9 -25 -9 -46q0 -29 14.5 -40.5
t37.5 -11.5q26 0 58.5 11t64 26t57 29.5t36.5 21.5q17 11 31 22q1 1 3 1q4 0 4 -4z" />
    <glyph glyph-name="iacute" unicode="&#xed;" horiz-adv-x="346" 
d="M334 342q0 -10 -7 -17t-19 -11.5t-27 -6.5t-31 -3q-1 0 -3 1q-3 2 -3 3l1 1q25 8 39 16t21.5 14.5t10.5 10.5t7 4q5 0 8 -3.5t3 -8.5zM478 116q0 -3 -4 -6q-2 -2 -6 -5q-3 -2 -8 -5.5t-11 -8.5q-6 -4 -33 -20.5t-64 -34.5t-77 -32.5t-72 -14.5q-26 0 -41.5 12.5
t-16.5 43.5q0 15 4.5 30.5t10.5 28.5t11 21.5t6 9.5l2 4t1 4t-2 2q-4 0 -17 -10l-18 -14t-19 -14q-7 1 -7 5q0 1 2 3l1 1q32 23 59 46.5t49 45.5l2 2q1 1 5 1q3 0 3 -4t-2.5 -8.5t-4.5 -6.5q-1 -1 -7 -9.5t-14 -20.5t-16 -26.5t-13 -28.5q-9 -25 -9 -46q0 -29 14.5 -40.5
t37.5 -11.5q26 0 58.5 11t64 26t57 29.5t36.5 21.5q17 11 31 22q1 1 3 1q4 0 4 -4z" />
    <glyph glyph-name="icircumflex" unicode="&#xee;" horiz-adv-x="346" 
d="M328 260q0 -2 -2 -2q-1 0 -6 3q-38 22 -46 49q-14 -10 -33.5 -18t-38.5 -9q-1 0 -3 1q-3 2 -3 3q26 9 41.5 18.5t25 17.5t14.5 13.5t9 5.5q3 0 7 -2q2 -1 2 -6q0 -12 4 -28.5t27 -42.5q2 -2 2 -3zM478 116q0 -3 -4 -6q-2 -2 -6 -5q-3 -2 -8 -5.5t-11 -8.5
q-6 -4 -33 -20.5t-64 -34.5t-77 -32.5t-72 -14.5q-26 0 -41.5 12.5t-16.5 43.5q0 15 4.5 30.5t10.5 28.5t11 21.5t6 9.5l2 4t1 4t-2 2q-4 0 -17 -10l-18 -14t-19 -14q-7 1 -7 5q0 1 2 3l1 1q32 23 59 46.5t49 45.5l2 2q1 1 5 1q3 0 3 -4t-2.5 -8.5t-4.5 -6.5q-1 -1 -7 -9.5
t-14 -20.5t-16 -26.5t-13 -28.5q-9 -25 -9 -46q0 -29 14.5 -40.5t37.5 -11.5q26 0 58.5 11t64 26t57 29.5t36.5 21.5q17 11 31 22q1 1 3 1q4 0 4 -4z" />
    <glyph glyph-name="idieresis" unicode="&#xef;" horiz-adv-x="346" 
d="M390 386q0 -4 -4.5 -11.5t-10.5 -14.5t-13 -12t-12 -5q-4 0 -9 3t-5 11q0 4 3 12.5t8 16.5t11.5 14.5t14.5 6.5q17 0 17 -21zM273 386q0 -4 -4.5 -11.5t-10.5 -14.5t-13 -12t-12 -5q-4 0 -9 3t-5 11q0 4 3 12.5t8 16.5t11.5 14.5t14.5 6.5q17 0 17 -21zM478 116
q0 -3 -4 -6q-2 -2 -6 -5q-3 -2 -8 -5.5t-11 -8.5q-6 -4 -33 -20.5t-64 -34.5t-77 -32.5t-72 -14.5q-26 0 -41.5 12.5t-16.5 43.5q0 15 4.5 30.5t10.5 28.5t11 21.5t6 9.5l2 4t1 4t-2 2q-4 0 -17 -10l-18 -14t-19 -14q-7 1 -7 5q0 1 2 3l1 1q32 23 59 46.5t49 45.5l2 2
q1 1 5 1q3 0 3 -4t-2.5 -8.5t-4.5 -6.5q-1 -1 -7 -9.5t-14 -20.5t-16 -26.5t-13 -28.5q-9 -25 -9 -46q0 -29 14.5 -40.5t37.5 -11.5q26 0 58.5 11t64 26t57 29.5t36.5 21.5q17 11 31 22q1 1 3 1q4 0 4 -4z" />
    <glyph glyph-name="eth" unicode="&#xf0;" horiz-adv-x="530" 
d="M752 725q0 -11 -15 -37.5t-40.5 -64t-60.5 -83t-76 -95.5h95q2 0 4 -1t2 -3t-2.5 -10.5t-19.5 -8.5h-98q-43 -52 -89.5 -104t-91.5 -100q-14 -32 -21.5 -60t-7.5 -49q0 -56 22.5 -78t56.5 -22q26 0 56.5 10t60 23.5t55 29t41.5 25.5q17 11 31 22q1 1 3 1q4 0 4 -4
q0 -3 -4 -6q-2 -2 -6 -5q-3 -2 -8 -5.5t-11 -8.5q-9 -6 -35.5 -23t-61.5 -35.5t-73.5 -32.5t-71.5 -14q-35 0 -57 21t-22 75q0 23 6.5 51t18.5 60q-39 -40 -75.5 -74.5t-68 -59.5t-56 -39t-40.5 -14q-8 0 -14 7.5t-6 18.5q0 33 25 63.5t61.5 56.5t78.5 46t75 31q2 1 6 1
q5 0 5 -2q0 -3 -7 -6q-22 -7 -57.5 -23.5t-69.5 -39.5t-59 -50t-25 -55q0 -17 13 -17t36 14t52.5 39t64.5 58t72 72q20 48 48.5 99.5t61.5 102.5h-77q-5 0 -7.5 1t-4.5 2t-2 2q0 10 7 14t12 4h87q39 59 80.5 112.5t78 94.5t66 65t44.5 24q5 0 8 -5.5t3 -10.5zM712 682
q0 6 -5 8q-11 0 -34 -20t-53 -53.5t-64 -78t-67 -93.5h57q35 43 65.5 82t53 70.5t35 53.5t12.5 31zM474 422q-29 -44 -54.5 -87.5t-45.5 -84.5q39 42 78 85t75 87h-53z" />
    <glyph glyph-name="ntilde" unicode="&#xf1;" horiz-adv-x="569" 
d="M434 326q0 -21 -16 -30.5t-30 -9.5q-7 0 -16 3.5t-18.5 8t-18 8t-15.5 3.5q-14 0 -30 -23q-2 -2 -4 -2q-4 0 -4 3q0 11 5 18.5t12.5 12t16 7t15.5 2.5q9 0 17 -3.5t16 -8t16 -8t16 -3.5q14 0 30 23q2 2 4 2q4 0 4 -3zM701 116q0 -3 -4 -6q-2 -2 -6 -5q-3 -2 -8 -5.5
t-11 -8.5l-2 -1q-8 -6 -37 -24.5t-67.5 -38.5t-80.5 -36t-76 -16q-31 0 -42.5 14t-11.5 36q0 19 6.5 41.5t15 44t15.5 38.5t8 26q0 2 -2 4q-1 1 -3 0q-24 -16 -58.5 -50.5t-69 -70t-64.5 -62t-45 -26.5q-6 0 -10 5.5t-4 10.5q0 12 12 32t26.5 41.5t26.5 41.5t12 33
q0 14 -4.5 19t-11.5 5q-11 0 -24 -8t-21 -15l-18 -14t-19 -14q-7 1 -7 5q0 1 2 3l1 1q8 6 16.5 12.5t16.5 12.5q15 12 36 26.5t37 14.5q9 0 15 -7.5t6 -24.5q0 -13 -11 -34.5t-24 -43.5t-24 -40t-11 -25q0 -4 4 -4q5 0 22 13.5t39.5 34.5t48 46t49.5 48.5t42.5 42t27.5 25.5
q2 2 6 4t8 2q5 0 7 -4.5t2 -8.5q0 -6 -7.5 -22.5t-17 -37.5t-17 -44t-7.5 -43q0 -23 13.5 -38t50.5 -15q27 0 56 9t57 22.5t54.5 29.5t48.5 30q17 11 31 22q1 1 3 1q4 0 4 -4z" />
    <glyph glyph-name="ograve" unicode="&#xf2;" horiz-adv-x="306" 
d="M358 375q0 -1 -3 -3q-2 -1 -3 -1q-16 1 -31 3t-27 6.5t-19 11.5t-7 17q0 5 3 8.5t8 3.5q4 0 7 -4t10.5 -10.5t21.5 -14.5t39 -16l1 -1v0zM492 158q0 -3 -7 -9q-38 -35 -77.5 -56t-74.5 -21q-27 0 -46 8.5t-32 23.5q-17 -28 -37.5 -51t-41 -39.5t-40 -25.5t-33.5 -9
q-13 0 -21 8t-8 25q0 24 17 58.5t40.5 66.5t49 55t43.5 23h1q3 32 15 54.5t28 22.5q15 0 22 -12t7 -32q0 -32 -8 -62.5t-22 -58.5q13 -16 32.5 -25.5t46.5 -9.5q32 0 67 17.5t69 49.5q2 2 6 2t4 -3zM283 240q0 28 -18 28q-12 0 -19 -15.5t-7 -38.5q0 -18 4.5 -37.5
t15.5 -36.5q11 23 17.5 48.5t6.5 51.5zM246 115q-12 17 -17 39t-5 44v1l-5 -1q-11 -2 -30 -20.5t-37 -43t-31.5 -50.5t-13.5 -44q0 -34 23 -34q11 0 25.5 8t30.5 22.5t31.5 34.5t28.5 44z" />
    <glyph glyph-name="oacute" unicode="&#xf3;" horiz-adv-x="306" 
d="M373 392q0 -10 -7 -17t-19 -11.5t-27 -6.5t-31 -3q-1 0 -3 1q-3 2 -3 3l1 1q25 8 39 16t21.5 14.5t10.5 10.5t7 4q5 0 8 -3.5t3 -8.5zM492 158q0 -3 -7 -9q-38 -35 -77.5 -56t-74.5 -21q-27 0 -46 8.5t-32 23.5q-17 -28 -37.5 -51t-41 -39.5t-40 -25.5t-33.5 -9
q-13 0 -21 8t-8 25q0 24 17 58.5t40.5 66.5t49 55t43.5 23h1q3 32 15 54.5t28 22.5q15 0 22 -12t7 -32q0 -32 -8 -62.5t-22 -58.5q13 -16 32.5 -25.5t46.5 -9.5q32 0 67 17.5t69 49.5q2 2 6 2t4 -3zM283 240q0 28 -18 28q-12 0 -19 -15.5t-7 -38.5q0 -18 4.5 -37.5
t15.5 -36.5q11 23 17.5 48.5t6.5 51.5zM246 115q-12 17 -17 39t-5 44v1l-5 -1q-11 -2 -30 -20.5t-37 -43t-31.5 -50.5t-13.5 -44q0 -34 23 -34q11 0 25.5 8t30.5 22.5t31.5 34.5t28.5 44z" />
    <glyph glyph-name="ocircumflex" unicode="&#xf4;" horiz-adv-x="306" 
d="M368 321q0 -2 -2 -2q-1 0 -6 3q-38 22 -46 49q-14 -10 -33.5 -18t-38.5 -9q-1 0 -3 1q-3 2 -3 3q26 9 41.5 18.5t25 17.5t14.5 13.5t9 5.5q3 0 7 -2q2 -1 2 -6q0 -12 4 -28.5t27 -42.5q2 -2 2 -3zM492 158q0 -3 -7 -9q-38 -35 -77.5 -56t-74.5 -21q-27 0 -46 8.5
t-32 23.5q-17 -28 -37.5 -51t-41 -39.5t-40 -25.5t-33.5 -9q-13 0 -21 8t-8 25q0 24 17 58.5t40.5 66.5t49 55t43.5 23h1q3 32 15 54.5t28 22.5q15 0 22 -12t7 -32q0 -32 -8 -62.5t-22 -58.5q13 -16 32.5 -25.5t46.5 -9.5q32 0 67 17.5t69 49.5q2 2 6 2t4 -3zM283 240
q0 28 -18 28q-12 0 -19 -15.5t-7 -38.5q0 -18 4.5 -37.5t15.5 -36.5q11 23 17.5 48.5t6.5 51.5zM246 115q-12 17 -17 39t-5 44v1l-5 -1q-11 -2 -30 -20.5t-37 -43t-31.5 -50.5t-13.5 -44q0 -34 23 -34q11 0 25.5 8t30.5 22.5t31.5 34.5t28.5 44z" />
    <glyph glyph-name="otilde" unicode="&#xf5;" horiz-adv-x="306" 
d="M363 366q0 -21 -16 -30.5t-30 -9.5q-7 0 -16 3.5t-18.5 8t-18 8t-15.5 3.5q-14 0 -30 -23q-2 -2 -4 -2q-4 0 -4 3q0 11 5 18.5t12.5 12t16 7t15.5 2.5q9 0 17 -3.5t16 -8t16 -8t16 -3.5q14 0 30 23q2 2 4 2q4 0 4 -3zM492 158q0 -3 -7 -9q-38 -35 -77.5 -56t-74.5 -21
q-27 0 -46 8.5t-32 23.5q-17 -28 -37.5 -51t-41 -39.5t-40 -25.5t-33.5 -9q-13 0 -21 8t-8 25q0 24 17 58.5t40.5 66.5t49 55t43.5 23h1q3 32 15 54.5t28 22.5q15 0 22 -12t7 -32q0 -32 -8 -62.5t-22 -58.5q13 -16 32.5 -25.5t46.5 -9.5q32 0 67 17.5t69 49.5q2 2 6 2t4 -3z
M283 240q0 28 -18 28q-12 0 -19 -15.5t-7 -38.5q0 -18 4.5 -37.5t15.5 -36.5q11 23 17.5 48.5t6.5 51.5zM246 115q-12 17 -17 39t-5 44v1l-5 -1q-11 -2 -30 -20.5t-37 -43t-31.5 -50.5t-13.5 -44q0 -34 23 -34q11 0 25.5 8t30.5 22.5t31.5 34.5t28.5 44z" />
    <glyph glyph-name="odieresis" unicode="&#xf6;" horiz-adv-x="306" 
d="M397 386q0 -4 -4.5 -11.5t-10.5 -14.5t-13 -12t-12 -5q-4 0 -9 3t-5 11q0 4 3 12.5t8 16.5t11.5 14.5t14.5 6.5q17 0 17 -21zM280 386q0 -4 -4.5 -11.5t-10.5 -14.5t-13 -12t-12 -5q-4 0 -9 3t-5 11q0 4 3 12.5t8 16.5t11.5 14.5t14.5 6.5q17 0 17 -21zM492 158
q0 -3 -7 -9q-38 -35 -77.5 -56t-74.5 -21q-27 0 -46 8.5t-32 23.5q-17 -28 -37.5 -51t-41 -39.5t-40 -25.5t-33.5 -9q-13 0 -21 8t-8 25q0 24 17 58.5t40.5 66.5t49 55t43.5 23h1q3 32 15 54.5t28 22.5q15 0 22 -12t7 -32q0 -32 -8 -62.5t-22 -58.5q13 -16 32.5 -25.5
t46.5 -9.5q32 0 67 17.5t69 49.5q2 2 6 2t4 -3zM283 240q0 28 -18 28q-12 0 -19 -15.5t-7 -38.5q0 -18 4.5 -37.5t15.5 -36.5q11 23 17.5 48.5t6.5 51.5zM246 115q-12 17 -17 39t-5 44v1l-5 -1q-11 -2 -30 -20.5t-37 -43t-31.5 -50.5t-13.5 -44q0 -34 23 -34q11 0 25.5 8
t30.5 22.5t31.5 34.5t28.5 44z" />
    <glyph glyph-name="oslash" unicode="&#xf8;" horiz-adv-x="306" 
d="M492 158q0 -3 -7 -9q-38 -35 -77.5 -56t-74.5 -21q-52 0 -79 32q-29 -50 -68 -82t-68 -40l-59 -97q-2 -5 -4 -6.5t-4 -3.5t-3 -2q-7 0 -7 7q0 5 1.5 9.5t3.5 7.5l50 82q-22 5 -22 33q0 24 17 58.5t40.5 66.5t49 55t43.5 23h1q3 32 15 54.5t28 22.5q10 0 16 -6l83 136
q2 4 6 4l4 -2t2 -9q0 -7 -4 -14l-81 -131q3 -9 3 -22q0 -32 -8 -62.5t-22 -57.5q13 -16 32.5 -26t46.5 -10q32 0 67 17.5t69 49.5q2 2 6 2t4 -3zM283 240q0 28 -18 28q-12 0 -19 -15.5t-7 -38.5q0 -18 4.5 -37.5t15.5 -36.5q11 23 17.5 48.5t6.5 51.5zM246 115
q-12 17 -17 39t-5 44v1l-5 -1q-11 -2 -30 -20.5t-37 -43t-31.5 -50.5t-13.5 -44q0 -33 22 -33q11 0 25.5 8t30.5 22.5t32 34.5t29 43z" />
    <glyph glyph-name="ugrave" unicode="&#xf9;" horiz-adv-x="554" 
d="M433 317q0 -1 -3 -3q-2 -1 -3 -1q-16 1 -31 3t-27 6.5t-19 11.5t-7 17q0 5 3 8.5t8 3.5q4 0 7 -4t10.5 -10.5t21.5 -14.5t39 -16l1 -1v0zM685 116q0 -3 -4 -6q-2 -2 -6 -5q-3 -2 -8 -5.5t-11 -8.5q-6 -4 -25 -15.5t-46 -23.5t-58.5 -21.5t-63.5 -9.5q-31 0 -44.5 14.5
t-13.5 37.5q0 17 6 36t17 39q-2 2 -3 2q-3 0 -8.5 -6t-18.5 -16q-18 -17 -47.5 -37.5t-61 -38.5t-62 -30.5t-51.5 -12.5q-31 0 -31 30q0 17 11 45.5t37 71.5q0 2 -2 2t-12.5 -9t-17.5 -14l-18 -14t-19 -14q-7 1 -7 5q0 1 2 3l1 1q16 12 33 25.5t33 27.5t30 27.5t25 24.5l2 2
q1 1 5 1q3 0 3 -4t-2.5 -8.5t-4.5 -6.5q-35 -44 -52 -78t-17 -56q0 -35 37 -35q31 0 85 29.5t125 96.5q11 10 21 21t18.5 21t14.5 17t7 9q6 6 8 6t4 -2t2 -4t-2 -5t-4 -7q-2 -3 -9.5 -13t-16.5 -23.5t-17 -27.5t-10 -24q-2 -8 -3 -17t-1 -17q0 -56 61 -56q21 0 42 5.5
t40.5 14t37.5 18.5t32 19q17 11 31 22q1 1 3 1q4 0 4 -4z" />
    <glyph glyph-name="uacute" unicode="&#xfa;" horiz-adv-x="554" 
d="M454 346q0 -10 -7 -17t-19 -11.5t-27 -6.5t-31 -3q-1 0 -3 1q-3 2 -3 3l1 1q25 8 39 16t21.5 14.5t10.5 10.5t7 4q5 0 8 -3.5t3 -8.5zM685 116q0 -3 -4 -6q-2 -2 -6 -5q-3 -2 -8 -5.5t-11 -8.5q-6 -4 -25 -15.5t-46 -23.5t-58.5 -21.5t-63.5 -9.5q-31 0 -44.5 14.5
t-13.5 37.5q0 17 6 36t17 39q-2 2 -3 2q-3 0 -8.5 -6t-18.5 -16q-18 -17 -47.5 -37.5t-61 -38.5t-62 -30.5t-51.5 -12.5q-31 0 -31 30q0 17 11 45.5t37 71.5q0 2 -2 2t-12.5 -9t-17.5 -14l-18 -14t-19 -14q-7 1 -7 5q0 1 2 3l1 1q16 12 33 25.5t33 27.5t30 27.5t25 24.5l2 2
q1 1 5 1q3 0 3 -4t-2.5 -8.5t-4.5 -6.5q-35 -44 -52 -78t-17 -56q0 -35 37 -35q31 0 85 29.5t125 96.5q11 10 21 21t18.5 21t14.5 17t7 9q6 6 8 6t4 -2t2 -4t-2 -5t-4 -7q-2 -3 -9.5 -13t-16.5 -23.5t-17 -27.5t-10 -24q-2 -8 -3 -17t-1 -17q0 -56 61 -56q21 0 42 5.5
t40.5 14t37.5 18.5t32 19q17 11 31 22q1 1 3 1q4 0 4 -4z" />
    <glyph glyph-name="ucircumflex" unicode="&#xfb;" horiz-adv-x="554" 
d="M448 283q0 -2 -2 -2q-1 0 -6 3q-38 22 -46 49q-14 -10 -33.5 -18t-38.5 -9q-1 0 -3 1q-3 2 -3 3q26 9 41.5 18.5t25 17.5t14.5 13.5t9 5.5q3 0 7 -2q2 -1 2 -6q0 -12 4 -28.5t27 -42.5q2 -2 2 -3zM685 116q0 -3 -4 -6q-2 -2 -6 -5q-3 -2 -8 -5.5t-11 -8.5
q-6 -4 -25 -15.5t-46 -23.5t-58.5 -21.5t-63.5 -9.5q-31 0 -44.5 14.5t-13.5 37.5q0 17 6 36t17 39q-2 2 -3 2q-3 0 -8.5 -6t-18.5 -16q-18 -17 -47.5 -37.5t-61 -38.5t-62 -30.5t-51.5 -12.5q-31 0 -31 30q0 17 11 45.5t37 71.5q0 2 -2 2t-12.5 -9t-17.5 -14l-18 -14
t-19 -14q-7 1 -7 5q0 1 2 3l1 1q16 12 33 25.5t33 27.5t30 27.5t25 24.5l2 2q1 1 5 1q3 0 3 -4t-2.5 -8.5t-4.5 -6.5q-35 -44 -52 -78t-17 -56q0 -35 37 -35q31 0 85 29.5t125 96.5q11 10 21 21t18.5 21t14.5 17t7 9q6 6 8 6t4 -2t2 -4t-2 -5t-4 -7q-2 -3 -9.5 -13
t-16.5 -23.5t-17 -27.5t-10 -24q-2 -8 -3 -17t-1 -17q0 -56 61 -56q21 0 42 5.5t40.5 14t37.5 18.5t32 19q17 11 31 22q1 1 3 1q4 0 4 -4z" />
    <glyph glyph-name="udieresis" unicode="&#xfc;" horiz-adv-x="554" 
d="M503 386q0 -4 -4.5 -11.5t-10.5 -14.5t-13 -12t-12 -5q-4 0 -9 3t-5 11q0 4 3 12.5t8 16.5t11.5 14.5t14.5 6.5q17 0 17 -21zM386 386q0 -4 -4.5 -11.5t-10.5 -14.5t-13 -12t-12 -5q-4 0 -9 3t-5 11q0 4 3 12.5t8 16.5t11.5 14.5t14.5 6.5q17 0 17 -21zM685 116
q0 -3 -4 -6q-2 -2 -6 -5q-3 -2 -8 -5.5t-11 -8.5q-6 -4 -25 -15.5t-46 -23.5t-58.5 -21.5t-63.5 -9.5q-31 0 -44.5 14.5t-13.5 37.5q0 17 6 36t17 39q-2 2 -3 2q-3 0 -8.5 -6t-18.5 -16q-18 -17 -47.5 -37.5t-61 -38.5t-62 -30.5t-51.5 -12.5q-31 0 -31 30q0 17 11 45.5
t37 71.5q0 2 -2 2t-12.5 -9t-17.5 -14l-18 -14t-19 -14q-7 1 -7 5q0 1 2 3l1 1q16 12 33 25.5t33 27.5t30 27.5t25 24.5l2 2q1 1 5 1q3 0 3 -4t-2.5 -8.5t-4.5 -6.5q-35 -44 -52 -78t-17 -56q0 -35 37 -35q31 0 85 29.5t125 96.5q11 10 21 21t18.5 21t14.5 17t7 9q6 6 8 6
t4 -2t2 -4t-2 -5t-4 -7q-2 -3 -9.5 -13t-16.5 -23.5t-17 -27.5t-10 -24q-2 -8 -3 -17t-1 -17q0 -56 61 -56q21 0 42 5.5t40.5 14t37.5 18.5t32 19q17 11 31 22q1 1 3 1q4 0 4 -4z" />
    <glyph glyph-name="yacute" unicode="&#xfd;" horiz-adv-x="414" 
d="M433 332q0 -10 -7 -17t-19 -11.5t-27 -6.5t-31 -3q-1 0 -3 1q-3 2 -3 3l1 1q25 8 39 16t21.5 14.5t10.5 10.5t7 4q5 0 8 -3.5t3 -8.5zM481 240q0 -2 -10 -15t-22.5 -29t-24 -30t-15.5 -19q-17 -21 -45 -62.5t-63 -94.5q38 8 69 8q12 0 12 -7q0 -3 -1.5 -6.5t-2.5 -5.5
q-1 -3 -6.5 -3.5t-12.5 -0.5q-35 0 -73 -9q-30 -46 -62 -95.5t-64 -96.5t-62.5 -90t-55.5 -75t-44 -51t-29 -19q-14 0 -21.5 9.5t-11.5 22t-5 25t-1 18.5q1 62 33 120.5t82 108t112 86.5t122 55q26 37 48.5 70.5t42.5 59.5q3 5 3 7t-2 2t-3 -1q-16 -13 -38.5 -30.5
t-47.5 -33.5t-50.5 -27t-47.5 -11q-16 0 -25.5 10t-9.5 33q0 18 8.5 34.5t19 30t19 22t8.5 11.5q0 2 -2 2q-5 0 -18 -10q-4 -3 -12.5 -9.5t-17.5 -13.5t-17.5 -13.5t-13.5 -9.5q-6 1 -6 4q0 1 2 3q1 1 1 2q16 12 34.5 26.5t36.5 29.5t34 29t27 25l2 2q1 1 5 1q3 0 3 -4
t-2.5 -8.5t-4.5 -6.5q-21 -25 -39 -50q-15 -21 -27.5 -43t-12.5 -38q0 -20 8.5 -27.5t21.5 -7.5q22 0 48.5 12.5t50.5 28.5q28 18 56 41q12 11 26.5 25t27 27.5t22.5 23.5l13 13q7 8 15.5 18t12.5 10q3 0 3 -3zM264 -40q-56 -17 -110.5 -49t-98 -75.5t-70.5 -95.5t-27 -107
q0 -29 5.5 -42t24.5 -13q10 0 38.5 35.5t67 91t83 123t87.5 132.5z" />
    <glyph glyph-name="thorn" unicode="&#xfe;" horiz-adv-x="568" 
d="M700 116q0 -3 -4 -6q-2 -2 -6 -5q-3 -2 -8 -5.5t-11 -8.5q-22 -15 -51 -33t-62 -33.5t-70.5 -26t-77.5 -10.5q-21 0 -42.5 2.5t-40 9.5t-31.5 19.5t-17 31.5q0 2 -0.5 6t-0.5 8q0 10 3 10q2 0 3 -1q27 -32 64 -45.5t79 -15.5q33 34 33 72q0 21 -9.5 40.5t-26 36.5t-39 31
t-47.5 24q-2 -4 -4 -7l-4 -6q-15 -23 -40 -75t-56 -116t-65.5 -132t-66 -124t-58 -92t-43.5 -36q-11 0 -17 30.5t-6 79.5q0 45 6 101t19.5 113.5t35 112.5t52.5 97.5t73 68.5t95 26q45 0 82 -12q24 39 53.5 83.5t60 87t60.5 79t55 60.5q3 3 6 3q8 0 8 -7q0 -2 -2 -4
q-33 -31 -65 -70.5t-61.5 -80.5t-55.5 -81.5t-47 -74.5q56 -20 88 -60t32 -85t-32 -83q36 0 67.5 7.5t58.5 19.5t50.5 27t44.5 30q17 11 31 22q1 1 3 1q4 0 4 -4zM326 221q-19 6 -38 9.5t-38 3.5q-45 0 -81.5 -24.5t-65 -64.5t-49 -91.5t-34 -105t-20 -104.5t-6.5 -91
t6.5 -64.5t17.5 -24.5q10 0 32 31.5t49 80t56 106t54 109.5t43 90.5t23 48.5q6 14 19.5 37.5t31.5 53.5z" />
    <glyph glyph-name="ydieresis" unicode="&#xff;" horiz-adv-x="419" 
d="M493 375q0 -4 -4.5 -11.5t-10.5 -14.5t-13 -12t-12 -5q-4 0 -9 3t-5 11q0 4 3 12.5t8 16.5t11.5 14.5t14.5 6.5q17 0 17 -21zM376 375q0 -4 -4.5 -11.5t-10.5 -14.5t-13 -12t-12 -5q-4 0 -9 3t-5 11q0 4 3 12.5t8 16.5t11.5 14.5t14.5 6.5q17 0 17 -21zM481 240
q0 -2 -10 -15t-22.5 -29t-24 -30t-15.5 -19q-17 -21 -45 -62.5t-63 -94.5q38 8 69 8q12 0 12 -7q0 -3 -1.5 -6.5t-2.5 -5.5q-1 -3 -6.5 -3.5t-12.5 -0.5q-35 0 -73 -9q-30 -46 -62 -95.5t-64 -96.5t-62.5 -90t-55.5 -75t-44 -51t-29 -19q-14 0 -21.5 9.5t-11.5 22t-5 25
t-1 18.5q1 62 33 120.5t82 108t112 86.5t122 55q26 37 48.5 70.5t42.5 59.5q3 5 3 7t-2 2t-3 -1q-16 -13 -38.5 -30.5t-47.5 -33.5t-50.5 -27t-47.5 -11q-16 0 -25.5 10t-9.5 33q0 18 8.5 34.5t19 30t19 22t8.5 11.5q0 2 -2 2q-5 0 -18 -10q-4 -3 -12.5 -9.5t-17.5 -13.5
t-17.5 -13.5t-13.5 -9.5q-6 1 -6 4q0 1 2 3q1 1 1 2q16 12 34.5 26.5t36.5 29.5t34 29t27 25l2 2q1 1 5 1q3 0 3 -4t-2.5 -8.5t-4.5 -6.5q-21 -25 -39 -50q-15 -21 -27.5 -43t-12.5 -38q0 -20 8.5 -27.5t21.5 -7.5q22 0 48.5 12.5t50.5 28.5q28 18 56 41q12 11 26.5 25
t27 27.5t22.5 23.5l13 13q7 8 15.5 18t12.5 10q3 0 3 -3zM264 -40q-56 -17 -110.5 -49t-98 -75.5t-70.5 -95.5t-27 -107q0 -29 5.5 -42t24.5 -13q10 0 38.5 35.5t67 91t83 123t87.5 132.5z" />
    <glyph glyph-name="dotlessi" unicode="&#x131;" horiz-adv-x="346" 
d="M478 116q0 -3 -4 -6q-2 -2 -6 -5q-3 -2 -8 -5.5t-11 -8.5q-6 -4 -33 -20.5t-64 -34.5t-77 -32.5t-72 -14.5q-26 0 -41.5 12.5t-16.5 43.5q0 15 4.5 30.5t10.5 28.5t11 21.5t6 9.5l2 4t1 4t-2 2q-4 0 -17 -10l-18 -14t-19 -14q-7 1 -7 5q0 1 2 3l1 1q32 23 59 46.5
t49 45.5l2 2q1 1 5 1q3 0 3 -4t-2.5 -8.5t-4.5 -6.5q-1 -1 -7 -9.5t-14 -20.5t-16 -26.5t-13 -28.5q-9 -25 -9 -46q0 -29 14.5 -40.5t37.5 -11.5q26 0 58.5 11t64 26t57 29.5t36.5 21.5q17 11 31 22q1 1 3 1q4 0 4 -4z" />
    <glyph glyph-name="Lslash" unicode="&#x141;" horiz-adv-x="828" 
d="M917 647q0 -35 -15.5 -76t-41 -82.5t-58 -80.5t-65.5 -69t-64.5 -48t-54.5 -18q-25 0 -37.5 14.5t-12.5 40.5q0 44 25.5 83t56.5 68q36 34 81 64q2 2 4 3q4 2 7 2q2 0 3 -4q0 -6 -10 -12q-19 -11 -43 -31t-44.5 -44t-34.5 -51t-14 -51q0 -18 9.5 -32.5t30.5 -14.5
q35 0 76.5 32.5t77 80.5t59.5 103t24 101q0 42 -24.5 69.5t-84.5 27.5q-72 0 -139 -28t-129 -76t-120 -111.5t-111 -134.5h124q2 0 4 -1t2 -3t-2.5 -10.5t-19.5 -8.5h-125q-53 -73 -101 -148t-92 -144q-2 -2 -4 -6.5t-2 -6.5q0 -1 1 -1h1q21 18 50.5 40t63.5 40.5t71 31.5
t73 13q39 0 73 -14t65 -35t61.5 -45t63 -45t68.5 -35t79 -14q35 0 67.5 15t58.5 33q30 21 56 47q2 2 3 2q3 0 3 -6q0 -3 -2 -5q-29 -30 -66 -55q-32 -21 -74.5 -38.5t-95.5 -17.5q-36 0 -70.5 14t-68.5 34.5t-66.5 45t-64.5 45t-63.5 34.5t-63.5 14q-37 0 -76 -18.5
t-74.5 -44t-65 -53t-48.5 -45.5q-5 -5 -8 -5t-3 4t3 9q54 95 110.5 186t116.5 174h-113q-5 0 -7.5 1t-4.5 2t-2 2q0 10 7 14t12 4h125q61 81 124.5 150t130.5 119t137 78t144 28q73 0 103.5 -27.5t30.5 -72.5z" />
    <glyph glyph-name="lslash" unicode="&#x142;" horiz-adv-x="346" 
d="M623 745q0 -23 -14.5 -59t-39.5 -79.5t-59 -93t-72.5 -99t-80 -97.5t-82.5 -89h60q2 0 4 -1t2 -3t-2.5 -10.5t-19.5 -8.5h-68q-28 -28 -54.5 -50t-49.5 -38v-8q0 -56 22.5 -78t56.5 -22q26 0 56.5 10t60 23.5t55 29t41.5 25.5q17 11 31 22q1 1 3 1q4 0 4 -4q0 -3 -4 -6
q-2 -2 -6 -5q-3 -2 -8 -5.5t-11 -8.5q-8 -6 -34 -22.5t-60.5 -34t-73 -31t-71.5 -13.5q-38 0 -62.5 23t-24.5 84q0 20 7 48t20 60h-89q-5 0 -7.5 1t-4.5 2t-2 2q0 10 7 14t12 4h94q23 53 58 113t76 119.5t85.5 114.5t86.5 96.5t79.5 66.5t64.5 25q7 0 10 -3q4 -3 4 -15z
M581 714q0 6 -4 9q-2 2 -5 2q-19 0 -49.5 -23t-67 -62t-76 -89.5t-76.5 -106t-69 -111.5t-54 -105h77q63 63 121.5 134.5t103.5 139t72 124t27 88.5zM171 205q-8 -21 -14 -39.5t-8 -34.5q21 17 42 35.5t43 38.5h-63z" />
    <glyph glyph-name="OE" unicode="&#x152;" horiz-adv-x="945" 
d="M1144 702q0 -6 -8 -6q-4 0 -6 1q-27 9 -80 9q-90 0 -161.5 -20.5t-122 -51t-77 -66.5t-26.5 -67q0 -30 25.5 -51t80.5 -25q62 32 125.5 51t124.5 19q23 0 23 -8q0 -9 -26.5 -23.5t-68 -29t-91 -25t-94.5 -10.5h-18q-54 -32 -103 -72t-86 -82.5t-58.5 -83.5t-21.5 -75
q0 -40 35 -65t116 -25q53 0 114 15t119.5 41.5t108.5 64t80 82.5q5 3 6 3q4 0 4 -5q0 -3 -2 -5q-21 -31 -53.5 -60t-72.5 -54t-85 -45.5t-91 -35.5t-90.5 -23t-83.5 -8q-80 0 -115 25.5t-35 67.5q0 36 23 80.5t63 90.5t94 90.5t115 80.5q-62 6 -86 36q-18 -48 -50 -101
t-74 -104.5t-92 -98t-103 -82t-107.5 -56.5t-106.5 -21q-74 0 -107.5 40t-33.5 104q0 53 21 117t59 130.5t91.5 130t118.5 115.5t139.5 87.5t155.5 45.5q8 0 10 -3t2 -7v-3q-2 -18 -5.5 -22.5t-11.5 -4.5q-76 0 -146 -28t-130 -73.5t-109 -105t-83.5 -122t-53.5 -124.5
t-19 -113q0 -60 28 -98t91 -38q57 0 117 26t117 70q-32 21 -52 55.5t-20 82.5q0 41 15.5 86.5t41 88.5t58.5 82t67.5 68.5t68 47t59.5 17.5q25 0 41 -17t21 -55q26 33 69.5 66t102.5 59.5t130.5 42.5t152.5 16q11 -2 18 -11.5t12 -18.5l1.5 -3t0.5 -3zM996 473q0 4 -12 4
q-46 0 -95.5 -14.5t-98.5 -38.5h4q39 0 75 6t64.5 14t45.5 16.5t17 12.5zM626 500q0 50 -16 71.5t-42 21.5q-34 0 -77.5 -31t-82.5 -80t-65.5 -109.5t-26.5 -118.5q0 -47 18.5 -81t47.5 -56q51 42 95.5 93t77.5 102.5t52 100.5t19 87z" />
    <glyph glyph-name="oe" unicode="&#x153;" horiz-adv-x="512" 
d="M643 116q0 -3 -4 -6q-2 -2 -6 -5q-3 -2 -8 -5.5t-11 -8.5q-5 -3 -35 -22t-71.5 -40.5t-88.5 -38.5t-86 -17q-54 0 -76.5 22t-22.5 55q0 12 3 27q-33 -45 -71 -71.5t-63 -26.5q-13 0 -21 8t-8 25q0 24 17 58.5t40.5 66.5t49 55t43.5 23h1q3 32 15 54.5t28 22.5
q15 0 22 -12t7 -32q0 -36 -11 -72q27 35 61 58.5t66 23.5q19 0 19 -19q0 -21 -22.5 -44t-51.5 -43.5t-56 -36t-37 -20.5q-4 -15 -4 -31q0 -28 19.5 -47t68.5 -19q29 0 64.5 10t70.5 25t67 32.5t54 31.5q17 11 31 22q1 1 3 1q4 0 4 -4zM402 225q0 12 -11 12
q-14 0 -31.5 -11.5t-34.5 -29.5t-32 -41t-24 -47q12 6 34.5 19.5t44 30t38 34t16.5 33.5zM283 240q0 28 -18 28q-12 0 -19 -15.5t-7 -38.5q0 -18 4.5 -37.5t15.5 -36.5q11 23 17.5 48.5t6.5 51.5zM246 115q-12 18 -17 39.5t-5 44.5l-5 -1q-11 -2 -30 -20.5t-37 -43
t-31.5 -50.5t-13.5 -44q0 -34 23 -34q11 0 25.5 8t30.5 22.5t31.5 34.5t28.5 44z" />
    <glyph glyph-name="Scaron" unicode="&#x160;" horiz-adv-x="850" 
d="M956 808q-25 -9 -41 -18.5t-25.5 -17.5t-14.5 -13.5t-9 -5.5q-3 0 -7 2q-2 1 -2 6q0 12 -4 28.5t-27 42.5q-2 2 -2 3q0 2 2 2t6 -3q38 -22 46 -49q14 10 33.5 18t38.5 9q1 0 3 -1q3 -1 3 -3zM969 576q0 -61 -30 -136t-81 -149.5t-119.5 -142t-146.5 -113.5q30 4 60 10.5
t58 16.5q37 14 73.5 31.5t74.5 39.5q5 3 8 3q5 0 5 -5q0 -4 -5 -8q-1 0 -3 -2q-7 -5 -30 -18.5t-61 -29.5t-91 -31t-119 -24q-50 -26 -100 -40.5t-101 -14.5q-44 0 -78.5 13.5t-58 36.5t-36 54t-12.5 66q0 19 3 31q3 13 7 13l5 -11t18 -27t35.5 -35.5t59 -35.5t88.5 -27
t123 -11h23t25 2q74 42 140.5 106.5t116.5 137.5t79 147t29 134q0 62 -36 101t-116 39q-74 0 -147.5 -34.5t-143 -91.5t-134.5 -130t-123.5 -150.5t-108.5 -152.5t-90 -136q-10 -16 -15 -24.5t-9 -8.5t-4 7q0 10 3.5 28.5t8 37t8 34t4.5 18.5q3 9 9 9q5 0 5 -6
q0 -18 0.5 -25t2.5 -7t3 2q36 54 85 123.5t107.5 143t125 143.5t138.5 125.5t147.5 89t152.5 33.5q89 0 128.5 -41.5t39.5 -107.5zM528 13q-40 -3 -85 -3q-66 0 -113 15t-78 34q-36 22 -60 49q-3 0 -3 -6q0 -8 10 -29t32 -42.5t57 -38t85 -16.5q38 0 77.5 10t77.5 27z" />
    <glyph glyph-name="scaron" unicode="&#x161;" horiz-adv-x="369" 
d="M430 313q-25 -9 -41 -18.5t-25.5 -17.5t-14.5 -13.5t-9 -5.5q-3 0 -7 2q-2 1 -2 6q0 12 -4 28.5t-27 42.5q-2 2 -2 3q0 2 2 2t6 -3q38 -22 46 -49q14 10 33.5 18t38.5 9q1 0 3 -1q3 -1 3 -3zM501 116q0 -3 -4 -6q-2 -2 -6 -5q-3 -2 -8 -5.5t-11 -8.5q-42 -28 -88.5 -48.5
t-99.5 -20.5q-17 0 -35.5 2.5t-37.5 8.5q-26 -21 -40 -21q-7 0 -12.5 2t-9.5 8.5t-6.5 18.5t-2.5 32q0 11 1 18.5t4 7.5q1 0 4 -3q30 -31 70 -45q15 13 30 30.5t26.5 36t19 35t7.5 28.5q0 17 -17 17t-38.5 -9.5t-40.5 -21.5q-22 -14 -44 -32l-18 -14t-19 -14q-7 1 -7 5
q0 1 2 3l1 1q9 7 18 13.5t17 13.5q31 25 61 44q26 17 53 30t47 13q22 0 22 -19q0 -14 -10 -34.5t-26 -43t-36 -45t-39 -40.5q32 -9 64 -9q45 0 89 16t82 42q8 6 15.5 11t15.5 11q1 1 3 1q4 0 4 -4zM201 37q-12 5 -23.5 10.5t-23.5 13.5q-1 1 -3 1q-3 0 -3 -4q0 -8 4 -19.5
t21 -11.5q11 0 28 10z" />
    <glyph glyph-name="Ydieresis" unicode="&#x178;" horiz-adv-x="643" 
d="M754 781q0 -4 -4.5 -11.5t-10.5 -14.5t-13 -12t-12 -5q-4 0 -9 3t-5 11q0 4 3 12.5t8 16.5t11.5 14.5t14.5 6.5q17 0 17 -21zM637 781q0 -4 -4.5 -11.5t-10.5 -14.5t-13 -12t-12 -5q-4 0 -9 3t-5 11q0 4 3 12.5t8 16.5t11.5 14.5t14.5 6.5q17 0 17 -21zM830 667
q0 -4 -3 -7q-130 -161 -228.5 -312.5t-176.5 -286.5q66 40 143 77.5t168 72.5q2 1 4.5 2t4.5 1q11 0 11 -9q0 -7 -7 -11q-100 -33 -183.5 -72t-152.5 -82q-68 -120 -121 -220.5t-95 -173t-76 -113t-66 -40.5q-23 0 -35 17.5t-12 49.5q0 39 21 94t67.5 119.5t121.5 135
t184 138.5q52 93 111 189.5t125 190.5q0 3 -1 3q-2 0 -5 -3q-29 -27 -69 -69.5t-87 -89.5t-99 -94.5t-104 -85t-102.5 -61.5t-94.5 -24q-31 0 -51.5 18.5t-20.5 50.5q0 30 17 68.5t45 81t64 87.5t73 89t73 84.5t64 74t45 58.5t17 38q0 14 -6.5 19.5t-20.5 5.5
q-20 0 -56 -6.5t-89 -6.5q-18 0 -42.5 2t-46 7.5t-36.5 16t-15 28.5q0 9 3.5 17t8 14.5t9 10.5t5.5 5t3 1q7 0 11 -12q5 -14 10.5 -27t18 -23t34 -16t57.5 -6q29 0 54 4t46.5 8.5t38 8t28.5 3.5q23 0 23 -23q0 -19 -29.5 -58.5t-73.5 -90.5t-95.5 -110.5t-95.5 -119.5
t-73.5 -116t-29.5 -101q0 -26 19.5 -37.5t48.5 -11.5q43 0 104.5 36.5t131 94t141.5 129t136 142t114 132t75 99.5q4 7 12 7q2 0 4 -2q4 -6 4 -10zM387 25q-91 -59 -156.5 -121.5t-107.5 -120t-61.5 -106.5t-19.5 -82q0 -25 10.5 -39t30.5 -14t49 38.5t67.5 104t85.5 153.5
t102 187z" />
    <glyph glyph-name="Zcaron" unicode="&#x17d;" horiz-adv-x="647" 
d="M640 834q-25 -9 -41 -18.5t-25.5 -17.5t-14.5 -13.5t-9 -5.5q-3 0 -7 2q-2 1 -2 6q0 12 -4 28.5t-27 42.5q-2 2 -2 3q0 2 2 2t6 -3q38 -22 46 -49q14 10 33.5 18t38.5 9q1 0 3 -1q3 -1 3 -3zM760 691q0 -14 -17.5 -32.5t-45.5 -38t-63 -39.5t-70 -39t-67 -35.5t-53 -28.5
q-4 -2 -8 -5.5t-4 -8.5q0 -3 1 -4q48 -66 69.5 -139.5t21.5 -151.5v-10.5t-1 -10.5q85 36 176 60q3 1 7 1q7 0 9.5 -3.5t2.5 -5.5v-1q-1 -4 -5.5 -6t-9.5 -3q-45 -9 -90 -23.5t-90 -33.5q-4 -78 -27 -156t-58 -148.5t-80 -131t-94.5 -105t-100 -69.5t-97.5 -25
q-29 0 -46.5 19.5t-17.5 55.5q0 85 39.5 167t108 155.5t160 136t195.5 108.5v7q0 77 -23.5 151.5t-79.5 140.5q-5 2 -9.5 7.5t-4.5 10.5q0 4 9 10q28 16 62.5 34.5t70 38t68.5 38t59 34.5t41.5 29t15.5 21t-7 12t-25 4q-12 0 -37 -3.5t-58.5 -7t-73 -7t-80.5 -3.5
q-34 0 -72.5 1.5t-71 8t-54 20.5t-21.5 39q0 8 5.5 22t16.5 14q9 0 14.5 -6t13.5 -15t20 -20t34 -20t56.5 -15t85.5 -6q57 0 96 6.5t69.5 14t56 14t54.5 6.5q9 0 16.5 -9t7.5 -21zM504 125q-93 -42 -177 -101.5t-147.5 -128t-100.5 -142t-37 -143.5q0 -29 13 -51t45 -22
q36 0 79.5 23t87 64t85 97t74.5 121t54 137.5t24 145.5z" />
    <glyph glyph-name="zcaron" unicode="&#x17e;" horiz-adv-x="441" 
d="M426 331q-25 -9 -41 -18.5t-25.5 -17.5t-14.5 -13.5t-9 -5.5q-3 0 -7 2q-2 1 -2 6q0 12 -4 28.5t-27 42.5q-2 2 -2 3q0 2 2 2t6 -3q38 -22 46 -49q14 10 33.5 18t38.5 9q1 0 3 -1q3 -1 3 -3zM451 24q0 -1 -7 -4q-10 -3 -19.5 -6t-19.5 -7q14 -23 14 -54q0 -33 -14 -71
t-37 -75t-53.5 -72t-64.5 -61t-68.5 -42t-65.5 -16q-20 0 -35 8.5t-15 31.5q0 34 17 80t54.5 94.5t97 94.5t144.5 80q-25 36 -87 45q-23 -18 -49 -29t-52 -11q-36 0 -36 14q0 11 30 24.5t89 13.5h8.5t8.5 -1q27 24 45.5 53t18.5 52q0 17 -11.5 27t-38.5 10
q-23 0 -48.5 -10.5t-46.5 -23.5q-25 -15 -49 -34l-18 -14t-19 -14q-7 1 -7 5q0 1 2 3l1 1q9 7 18 13.5t17 13.5q32 26 62 46q26 17 53.5 31t47.5 14q32 0 46 -13.5t14 -34.5q0 -28 -21 -62.5t-53 -63.5q37 -4 60.5 -16t36.5 -30q11 4 21.5 7t21.5 7q7 0 7 -4zM280 52
q-7 1 -13.5 1h-13.5q-34 0 -53.5 -9.5t-19.5 -17.5t20 -8q19 0 39.5 9.5t40.5 24.5zM395 -53q0 30 -12 52q-85 -35 -141 -82t-89.5 -92.5t-47 -84t-13.5 -54.5q0 -17 8 -35t33 -18t54 14.5t58 39t56 57t48 67t33.5 70t12.5 66.5z" />
    <glyph glyph-name="circumflex" unicode="&#x2c6;" horiz-adv-x="500" 
d="M323 260q0 -2 -2 -2q-1 0 -6 3q-38 22 -46 49q-14 -10 -33.5 -18t-38.5 -9q-1 0 -3 1q-3 2 -3 3q26 9 41.5 18.5t25 17.5t14.5 13.5t9 5.5q3 0 7 -2q2 -1 2 -6q0 -12 4 -28.5t27 -42.5q2 -2 2 -3z" />
    <glyph glyph-name="caron" unicode="&#x2c7;" horiz-adv-x="500" 
d="M323 313q-25 -9 -41 -18.5t-25.5 -17.5t-14.5 -13.5t-9 -5.5q-3 0 -7 2q-2 1 -2 6q0 12 -4 28.5t-27 42.5q-2 2 -2 3q0 2 2 2t6 -3q38 -22 46 -49q14 10 33.5 18t38.5 9q1 0 3 -1q3 -1 3 -3z" />
    <glyph glyph-name="dotaccent" unicode="&#x2d9;" 
d="M406 346q0 -14 -11.5 -23.5t-24.5 -9.5q-15 0 -15 14q0 11 9.5 22.5t25.5 11.5t16 -15z" />
    <glyph glyph-name="ring" unicode="&#x2da;" 
d="M419 350q0 -20 -17.5 -35t-35.5 -15q-25 0 -25 23q0 12 5.5 21.5t14 16t17.5 10t16 3.5q12 0 18.5 -6.5t6.5 -17.5zM406 346q0 15 -16 15t-25.5 -11.5t-9.5 -22.5q0 -14 15 -14q13 0 24.5 9.5t11.5 23.5z" />
    <glyph glyph-name="tilde" unicode="&#x2dc;" horiz-adv-x="569" 
d="M354 326q0 -21 -16 -30.5t-30 -9.5q-7 0 -16 3.5t-18.5 8t-18 8t-15.5 3.5q-14 0 -30 -23q-2 -2 -4 -2q-4 0 -4 3q0 11 5 18.5t12.5 12t16 7t15.5 2.5q9 0 17 -3.5t16 -8t16 -8t16 -3.5q14 0 30 23q2 2 4 2q4 0 4 -3z" />
    <glyph glyph-name="endash" unicode="&#x2013;" horiz-adv-x="480" 
d="M403 133q0 -2 -1 -9.5t-8 -7.5h-228q-2 0 -5 3q-1 1 -1 2q0 8 3.5 12t5.5 4h232q2 0 2 -4z" />
    <glyph glyph-name="emdash" unicode="&#x2014;" horiz-adv-x="722" 
d="M645 133q0 -2 -2.5 -9.5t-16.5 -7.5h-454q-4 0 -6 1l-4 2t-2 2q0 8 6 12t11 4h463q5 0 5 -4z" />
    <glyph glyph-name="quoteleft" unicode="&#x2018;" horiz-adv-x="379" 
d="M450 700q0 -4 -5 -4q-10 -1 -23 -6t-25 -12.5t-20 -17.5t-8 -22q12 -2 17 -8.5t5 -13.5q0 -11 -9 -21.5t-20 -10.5q-12 0 -17 7.5t-5 15.5q0 20 11 37.5t27 30.5t34.5 20t33.5 7q4 0 4 -2z" />
    <glyph glyph-name="quoteright" unicode="&#x2019;" horiz-adv-x="347" 
d="M327 679q0 -20 -11 -37.5t-27 -30t-34.5 -20t-33.5 -7.5q-4 0 -4 2q0 4 5 4q10 2 23 6.5t25 12t20 17.5t8 22q-12 2 -17 8.5t-5 13.5q0 11 9 21.5t20 10.5q12 0 17 -7.5t5 -15.5z" />
    <glyph glyph-name="quotesinglbase" unicode="&#x201a;" horiz-adv-x="323" 
d="M236 28q0 -20 -11 -37.5t-27 -30.5t-34.5 -20t-33.5 -7q-4 0 -4 2q0 4 5 4q10 1 23 6t25 12.5t20 17.5t8 22q-12 2 -17 8.5t-5 13.5q0 11 9 21.5t20 10.5q12 0 17 -7.5t5 -15.5z" />
    <glyph glyph-name="quotedblleft" unicode="&#x201c;" horiz-adv-x="457" 
d="M528 700q0 -4 -5 -4q-10 -1 -23 -6t-25 -12.5t-20 -17.5t-8 -22q12 -2 17 -8.5t5 -13.5q0 -11 -9 -21.5t-20 -10.5q-12 0 -17 7.5t-5 15.5q0 20 11 37.5t27 30.5t34.5 20t33.5 7q4 0 4 -2zM450 700q0 -4 -5 -4q-10 -1 -23 -6t-25 -12.5t-20 -17.5t-8 -22q12 -2 17 -8.5
t5 -13.5q0 -11 -9 -21.5t-20 -10.5q-12 0 -17 7.5t-5 15.5q0 20 11 37.5t27 30.5t34.5 20t33.5 7q4 0 4 -2z" />
    <glyph glyph-name="quotedblright" unicode="&#x201d;" horiz-adv-x="425" 
d="M405 679q0 -20 -11 -37.5t-27 -30t-34.5 -20t-33.5 -7.5q-4 0 -4 2q0 4 5 4q10 2 23 6.5t25 12t20 17.5t8 22q-12 2 -17 8.5t-5 13.5q0 11 9 21.5t20 10.5q12 0 17 -7.5t5 -15.5zM327 679q0 -20 -11 -37.5t-27 -30t-34.5 -20t-33.5 -7.5q-4 0 -4 2q0 4 5 4q10 2 23 6.5
t25 12t20 17.5t8 22q-12 2 -17 8.5t-5 13.5q0 11 9 21.5t20 10.5q12 0 17 -7.5t5 -15.5z" />
    <glyph glyph-name="quotedblbase" unicode="&#x201e;" horiz-adv-x="401" 
d="M314 32q0 -20 -11 -37.5t-27 -30.5t-34.5 -20t-33.5 -7q-4 0 -4 2q0 4 5 4q10 1 23 6t25 12.5t20 17.5t8 22q-12 2 -17 8.5t-5 13.5q0 11 9 21.5t20 10.5q12 0 17 -7.5t5 -15.5zM236 32q0 -20 -11 -37.5t-27 -30.5t-34.5 -20t-33.5 -7q-4 0 -4 2q0 4 5 4q10 1 23 6
t25 12.5t20 17.5t8 22q-12 2 -17 8.5t-5 13.5q0 11 9 21.5t20 10.5q12 0 17 -7.5t5 -15.5z" />
    <glyph glyph-name="bullet" unicode="&#x2022;" horiz-adv-x="355" 
d="M313 118q0 -12 -5.5 -22t-14.5 -18t-19.5 -12.5t-21.5 -4.5q-13 0 -21 7t-8 19q0 14 6.5 24.5t16 18t20 11.5t18.5 4q14 0 21.5 -7.5t7.5 -19.5z" />
    <glyph glyph-name="ellipsis" unicode="&#x2026;" horiz-adv-x="715" 
d="M600 34q0 -8 -2 -13q-6 -13 -17 -22t-22 -9q-15 0 -15 17q0 7 3 14q5 14 16 22.5t22 8.5q15 0 15 -18zM420 34q0 -8 -2 -13q-6 -13 -17 -22t-22 -9q-15 0 -15 17q0 7 3 14q5 14 16 22.5t22 8.5q15 0 15 -18zM232 34q0 -8 -2 -13q-6 -13 -17 -22t-22 -9q-15 0 -15 17
q0 7 3 14q5 14 16 22.5t22 8.5q15 0 15 -18z" />
    <glyph glyph-name="perthousand" unicode="&#x2030;" horiz-adv-x="1159" 
d="M1164 283q0 -36 -19 -86.5t-51 -97t-74.5 -79.5t-89.5 -33q-4 0 -16 1.5t-25 11t-23 29t-10 55.5q0 66 31 126q-10 9 -12.5 21t-2.5 20q0 11 2.5 19.5t5.5 15.5q4 8 7 15q6 7 10 7q3 0 3 -4q0 -2 -2 -6q-6 -8 -10 -20.5t-4 -24.5q0 -20 10 -30q20 37 46.5 68t54.5 53.5
t55.5 35.5t48.5 13q3 0 7.5 -2t5.5 -8q0 -2 -1 -4t-5 -2q-2 0 -4 1q-1 1 -3 1h-8q-18 0 -42 -13t-49 -35t-48.5 -52t-41.5 -64h9q28 0 51.5 20t47 43.5t49 43.5t57.5 20q5 0 12 -2t13 -8t10.5 -17.5t4.5 -31.5zM849 283q0 -36 -19 -86.5t-51 -97t-74.5 -79.5t-89.5 -33
q-4 0 -16 1.5t-25 11t-23 29t-10 55.5q0 66 31 126q-10 9 -12.5 21t-2.5 20q0 11 2.5 19.5t5.5 15.5q4 8 7 15q6 7 10 7q3 0 3 -4q0 -2 -2 -6q-6 -8 -10 -20.5t-4 -24.5q0 -20 10 -30q20 37 46.5 68t54.5 53.5t55.5 35.5t48.5 13q3 0 7.5 -2t5.5 -8q0 -2 -1 -4t-5 -2
q-2 0 -4 1q-1 1 -3 1h-8q-18 0 -42 -13t-49 -35t-48.5 -52t-41.5 -64h9q28 0 51.5 20t47 43.5t49 43.5t57.5 20q5 0 12 -2t13 -8t10.5 -17.5t4.5 -31.5zM730 798q0 -7 -4 -14l-459 -899q-2 -5 -4 -7l-4 -4t-3 -1q-7 0 -7 7q0 5 1.5 9.5t3.5 7.5l464 908q2 4 6 4l4 -2t2 -9z
M486 591q0 -36 -19 -86.5t-51 -97t-74.5 -79.5t-89.5 -33q-4 0 -16 1.5t-25 11t-23 29t-10 55.5q0 66 31 126q-10 9 -12.5 21t-2.5 20q0 11 2.5 19.5t5.5 15.5q4 8 7 15q6 7 10 7q3 0 3 -4q0 -2 -2 -6q-6 -8 -10 -20.5t-4 -24.5q0 -20 10 -30q20 37 46.5 68t54.5 53.5
t55.5 35.5t48.5 13q3 0 7.5 -2t5.5 -8q0 -2 -1 -4t-5 -2q-2 0 -4 1q-1 1 -3 1h-8q-18 0 -42 -13t-49 -35t-48.5 -52t-41.5 -64h9q28 0 51.5 20t47 43.5t49 43.5t57.5 20q5 0 12 -2t13 -8t10.5 -17.5t4.5 -31.5zM1140 282q0 19 -6.5 30t-21.5 11q-25 0 -47 -19t-44 -42
t-47.5 -42t-58.5 -19q-8 0 -11 1q-25 -53 -25 -104q0 -17 2.5 -33t9.5 -29t20 -20.5t34 -7.5q36 0 70.5 31t62.5 74.5t45 90t17 78.5zM825 282q0 19 -6.5 30t-21.5 11q-25 0 -47 -19t-44 -42t-47.5 -42t-58.5 -19q-8 0 -11 1q-25 -53 -25 -104q0 -17 2.5 -33t9.5 -29
t20 -20.5t34 -7.5q36 0 70.5 31t62.5 74.5t45 90t17 78.5zM462 590q0 19 -6.5 30t-21.5 11q-25 0 -47 -19t-44 -42t-47.5 -42t-58.5 -19q-8 0 -11 1q-25 -53 -25 -104q0 -17 2.5 -33t9.5 -29t20 -20.5t34 -7.5q36 0 70.5 31t62.5 74.5t45 90t17 78.5z" />
    <glyph glyph-name="guilsinglleft" unicode="&#x2039;" horiz-adv-x="391" 
d="M322 199q0 -6 -2.5 -9t-7.5 -5l-139 -68l133 -61q5 -2 6.5 -5.5t1.5 -5.5q0 -8 -7 -8q-4 0 -6 1t-3 1l-148 64q0 1 -1 2q-2 2 -2 5q0 6 7 10l159 86q4 2 5 2q3 0 3.5 -3.5t0.5 -5.5z" />
    <glyph glyph-name="guilsinglright" unicode="&#x203a;" horiz-adv-x="410" 
d="M325 136q0 -6 -7 -10l-159 -86q-4 -2 -5 -2q-3 0 -3.5 3.5t-0.5 5.5q0 6 2.5 9t7.5 5l139 68l-133 61q-5 2 -6.5 5.5t-1.5 5.5q0 8 7 8q4 0 6 -1t3 -1l148 -64l2 -2q1 -1 1 -5z" />
    <glyph glyph-name="fraction" unicode="&#x2044;" horiz-adv-x="416" 
d="M492 798q0 -7 -4 -14l-459 -899q-2 -5 -4 -7l-4 -4t-3 -1q-7 0 -7 7q0 5 1.5 9.5t3.5 7.5l464 908q2 4 6 4l4 -2t2 -9z" />
    <glyph glyph-name="Euro" unicode="&#x20ac;" horiz-adv-x="891" 
d="M1096 657q0 -5 -10 -8q-33 -8 -66.5 -21t-67.5 -29q-5 -44 -29 -90t-59 -88.5t-76 -80t-81 -65.5t-74 -44t-54 -16q-23 0 -23 21q0 35 29 82t78.5 96.5t116 98t141.5 86.5v1q0 24 -8 44.5t-26 35.5t-46.5 23.5t-69.5 8.5q-64 0 -133.5 -24.5t-136.5 -65t-128.5 -94
t-110.5 -112.5h190q2 0 4 -1t2 -3t-2.5 -10.5t-19.5 -8.5h-192q-5 -7 -9.5 -13t-9.5 -12h206q2 0 4 -1t2 -3t-2.5 -10.5t-19.5 -8.5h-206q-36 -54 -56 -105.5t-20 -96.5q0 -33 12.5 -61t40 -48.5t70.5 -31.5t104 -11q73 0 139.5 18.5t119.5 41.5t88.5 44.5t44.5 28.5
q5 3 6 3q4 0 4 -5q0 -3 -2 -5q-38 -26 -91 -54t-112 -51t-121 -37.5t-118 -14.5q-59 0 -100.5 11.5t-68 32t-39 49t-12.5 62.5q0 51 23.5 109.5t65.5 120.5h-61q-5 0 -7.5 1t-4.5 2t-2 2q0 10 7 14t12 4h72q5 6 9.5 12t9.5 13h-75q-5 0 -7.5 1t-4.5 2t-2 2q0 10 7 14t12 4
h89q53 64 120 122.5t140 103.5t149 71.5t148 26.5q84 0 120 -33.5t36 -85.5v-6q62 29 122 47q4 1 7 2.5t5 1.5t5 -3t3 -6zM919 582q-66 -35 -127 -78.5t-107.5 -87t-74 -83.5t-27.5 -69q0 -23 22 -23q18 0 47 15.5t62 41t67.5 60t63.5 72t49.5 77t24.5 75.5z" />
    <glyph glyph-name="minus" unicode="&#x2212;" horiz-adv-x="419" 
d="M422 306q0 -2 -2.5 -9.5t-16.5 -7.5h-234q-4 0 -6 1l-4 2t-2 2q0 8 6 12t11 4h243q5 0 5 -4z" />
    <glyph glyph-name="apple" unicode="&#xf8ff;" horiz-adv-x="632" 
d="M344 653q-7 1 -14 1h-14h-14.5t-13.5 -1l-90 85h59l58 -61l59 61h60zM632 304q0 -65 -25 -122.5t-68 -100.5t-100.5 -68t-122.5 -25q-66 0 -123.5 25t-100 68t-67.5 100.5t-25 122.5t25 122.5t67.5 100.5t100 68t123.5 25q65 0 122.5 -25t100.5 -68t68 -100.5t25 -122.5z
M586 304q0 56 -21 105.5t-58 86t-86 58t-105 21.5t-105.5 -21.5t-86 -58t-58 -86t-21.5 -105.5t21.5 -105.5t58 -86t86 -58t105.5 -21.5t105 21.5t86 58t58 86t21 105.5zM458 204q0 -28 -13 -48.5t-34.5 -33.5t-49.5 -19.5t-58 -6.5q-36 0 -68.5 12.5t-60.5 26.5l9 47
q35 -22 68 -31.5t60 -9.5q41 0 65.5 16.5t24.5 42.5q0 21 -16 36.5t-40.5 29.5t-52.5 27.5t-52.5 30t-40.5 37t-16 48.5q0 30 12.5 49.5t31.5 31.5t42.5 17t44.5 5t39 -5t33 -12t27.5 -14t21.5 -12l-11 -43q-25 22 -53 32t-54 10q-36 0 -58 -15.5t-22 -39.5
q0 -21 16.5 -35.5t41 -26.5t53 -24t53 -28t41 -38.5t16.5 -56.5z" />
    <glyph glyph-name="fi" unicode="&#xfb01;" horiz-adv-x="710" 
d="M731 386q0 -4 -4.5 -11.5t-10.5 -14.5t-13 -12t-12 -5q-4 0 -9 3t-5 11q0 4 3 12.5t8 16.5t11.5 14.5t14.5 6.5q17 0 17 -21zM842 116q0 -3 -4 -6q-2 -2 -6 -5q-3 -2 -8 -5.5t-11 -8.5q-6 -4 -33 -20.5t-64 -34.5t-77 -32.5t-72 -14.5q-26 0 -41.5 12.5t-16.5 43.5
q0 15 4.5 30.5t10.5 28.5t11 21.5t6 9.5l2 4t1 4t-2 2q-4 0 -17 -10l-18 -14t-19 -14h-1q-4 -4 -21 -16q-6 -4 -33 -20.5t-64 -34.5t-77 -32.5t-72 -14.5q-24 0 -42.5 5.5t-31.5 11.5q-15 7 -27 16q-4 0 -4 -5q0 -40 -15 -93.5t-40.5 -110.5t-59 -111.5t-69.5 -97.5
t-73 -69.5t-70 -26.5q-8 0 -13.5 3.5t-5.5 11.5q0 20 31 82t83 150t119 193.5t140 213t146.5 208t136.5 178.5t111.5 125t71.5 47q16 0 16 -18q0 -24 -28 -71t-73 -105.5t-100.5 -122.5t-111.5 -122.5t-105.5 -105t-81.5 -69.5q-4 -5 -7.5 -10.5t-6.5 -10.5q2 -4 9.5 -16.5
t23 -26t40 -23.5t58.5 -10q26 0 58.5 11t64 26t57 29.5t36.5 21.5l12 8t12 9q1 1 2 1t1 1q33 22 59.5 46t48.5 46l2 2q1 1 5 1q3 0 3 -4t-2.5 -8.5t-4.5 -6.5q-1 -1 -7 -9.5t-14 -20.5t-16 -26.5t-13 -28.5q-9 -25 -9 -46q0 -29 14.5 -40.5t37.5 -11.5q26 0 58.5 11t64 26
t57 29.5t36.5 21.5q17 11 31 22q1 1 3 1q4 0 4 -4zM583 667q0 12 -12 12q-11 0 -34.5 -21.5t-56 -60t-73 -91t-85 -114t-92 -129.5t-94.5 -138q31 26 76 71t94.5 99t99 112t89 109.5t64 92t24.5 58.5zM106 22q0 5 -5 15.5t-13 10.5h-3q-57 -87 -108 -168.5t-90 -148
t-61.5 -112.5t-22.5 -61q0 -16 16 -16q22 0 52 24.5t61.5 64t63 90.5t56 104.5t39.5 104.5t15 92z" />
    <glyph glyph-name="fl" unicode="&#xfb02;" horiz-adv-x="711" 
d="M988 745q0 -29 -23.5 -79.5t-62.5 -111t-89 -125.5t-102.5 -125t-104.5 -109.5t-94 -77.5v-8q0 -56 22.5 -78t56.5 -22q26 0 56.5 10t60 23.5t55 29t41.5 25.5q17 11 31 22q1 1 3 1q4 0 4 -4q0 -3 -4 -6q-2 -2 -6 -5q-3 -2 -8 -5.5t-11 -8.5q-8 -6 -34 -22.5t-60.5 -34
t-73 -31t-71.5 -13.5q-38 0 -62.5 23t-24.5 84v10q-4 -4 -21 -16q-6 -4 -33 -20.5t-64 -34.5t-77 -32.5t-72 -14.5q-24 0 -42.5 5.5t-31.5 11.5q-15 7 -27 16q-4 0 -4 -5q0 -40 -15 -93.5t-40.5 -110.5t-59 -111.5t-69.5 -97.5t-73 -69.5t-70 -26.5q-8 0 -13.5 3.5
t-5.5 11.5q0 20 31 82t83 150t119 193.5t140 213t146.5 208t136.5 178.5t111.5 125t71.5 47q16 0 16 -18q0 -24 -28 -71t-73 -105.5t-100.5 -122.5t-111.5 -122.5t-105.5 -105t-81.5 -69.5q-4 -5 -7.5 -10.5t-6.5 -10.5q2 -4 9.5 -16.5t23 -26t40 -23.5t58.5 -10
q26 0 58.5 11t64 26t57 29.5t36.5 21.5q17 11 31 22h1q5 34 23 80t45.5 98t62 106.5t73 106t78 98t76.5 81t69.5 54.5t57.5 20q7 0 10 -3q4 -3 4 -15zM946 714q0 6 -4 9q-2 2 -5 2q-23 0 -61 -32t-83 -84t-91.5 -117t-86 -131t-67 -126.5t-34.5 -103.5q51 40 102.5 91
t99.5 107t90 113.5t73 109t49 94t18 68.5zM583 667q0 12 -12 12q-11 0 -34.5 -21.5t-56 -60t-73 -91t-85 -114t-92 -129.5t-94.5 -138q31 26 76 71t94.5 99t99 112t89 109.5t64 92t24.5 58.5zM106 22q0 5 -5 15.5t-13 10.5h-3q-57 -87 -108 -168.5t-90 -148t-61.5 -112.5
t-22.5 -61q0 -16 16 -16q22 0 52 24.5t61.5 64t63 90.5t56 104.5t39.5 104.5t15 92z" />
    </font>
</defs>
</svg>
