<?xml version="1.0" standalone="no"?>
<!DOCTYPE svg PUBLIC "-//W3C//DTD SVG 1.1//EN" "http://www.w3.org/Graphics/SVG/1.1/DTD/svg11.dtd" >
<svg xmlns="http://www.w3.org/2000/svg" xmlns:xlink="http://www.w3.org/1999/xlink" version="1.1">
<metadata>
Created by FontForge 20201107 at Tue Apr 28 21:33:27 1931
 By 
Copyright SoftMaker Software GmbH 1995
</metadata>
<defs>
<font id="NebraskaMedium-Regular" horiz-adv-x="659" >
  <font-face 
    font-family="NebraskaMedium DB"
    font-weight="400"
    font-stretch="normal"
    units-per-em="1000"
    panose-1="0 0 0 0 0 0 0 0 0 0"
    ascent="800"
    descent="-200"
    x-height="494"
    cap-height="709"
    bbox="-265 -217 1067 929"
    underline-thickness="40"
    underline-position="-146"
    unicode-range="U+0020-2215"
  />
<missing-glyph horiz-adv-x="929" 
d="M58 0v929h813v-929h-813zM813 58v813h-697v-813h697z" />
    <glyph glyph-name=".notdef" horiz-adv-x="929" 
d="M58 0v929h813v-929h-813zM813 58v813h-697v-813h697z" />
    <glyph glyph-name=".null" horiz-adv-x="0" 
 />
    <glyph glyph-name="nonmarkingreturn" horiz-adv-x="297" 
 />
    <glyph glyph-name="space" unicode=" " horiz-adv-x="297" 
 />
    <glyph glyph-name="exclam" unicode="!" horiz-adv-x="300" 
d="M167 156q39 0 65 -23q27 -21 27 -62q0 -40 -29 -60.5t-70 -20.5q-34 0 -61 24q-25 25 -25 60q0 37 27.5 59.5t65.5 22.5zM87 545q0 61 14 109q21 75 64 75q44 0 67 -66q14 -47 14 -104v-55q0 -71 -15 -157q-21 -123 -62 -123q-42 0 -66 110q-16 83 -16 148v63z" />
    <glyph glyph-name="quotedbl" unicode="&#x22;" horiz-adv-x="480" 
d="M89 546q0 14 -33.5 37.5t-33.5 60.5q0 35 28.5 55.5t66.5 20.5q42 0 68 -29q27 -27 27 -72q0 -47 -18 -83q-12 -26 -52 -66l-19 -21l-15 -25l-90 56q24 3 47.5 23t23.5 43zM339 545q0 17 -33.5 39.5t-33.5 57.5q0 37 30 57t67 20q41 0 67 -29q27 -27 27 -70
q0 -47 -21 -88q-15 -29 -56 -71l-15 -17q-9 -11 -12 -19l-88 53q24 8 44 24q24 20 24 43z" />
    <glyph glyph-name="numbersign" unicode="#" horiz-adv-x="499" 
d="M103 206h-97v67h107l26 193h-107v68h117l29 206h69l-29 -206h124l29 206h69l-29 -206h83v-67h-93l-27 -194h92v-67h-101l-29 -206h-69l29 206h-124l-29 -206h-69zM209 467l-27 -194h123l27 194h-123z" />
    <glyph glyph-name="dollar" unicode="$" horiz-adv-x="580" 
d="M25 223q63 -43 113 -64q46 -18 128 -32v196q-85 25 -105 34q-55 23 -81 56q-33 41 -33 105q0 87 69 138q60 45 150 45v11l-3 12l-11 17h98q-15 -20 -15 -42l144 -25q19 0 33 7v-152q-34 31 -83 52q-24 10 -46 15t-48 5v-180q106 -21 152 -50q74 -45 74 -132
q0 -98 -66 -155q-32 -26 -70.5 -39t-90.5 -13v-20q0 -23 2 -30t15 -23h-102l13 22l4 25l-1 25l-179 34q-31 0 -61 -12v170zM264 606q-41 0 -70 -21.5t-29 -61.5q0 -33 33 -59q25 -18 66 -26v168zM443 221q0 41 -35 64q-24 15 -74 26v-184q38 0 73.5 27t35.5 67z" />
    <glyph glyph-name="percent" unicode="%" horiz-adv-x="979" 
d="M185 713q100 0 155 -62q51 -57 51 -161q0 -106 -43 -165q-50 -69 -152 -69q-104 0 -153 64q-44 58 -44 165q0 92 45 157q51 71 141 71zM192 326q62 0 92 54q21 41 21 111q0 64 -23 104q-27 50 -87 50q-61 0 -91 -54q-11 -20 -17 -47.5t-6 -62.5q0 -67 22 -105
q27 -50 89 -50zM662 708l87 -1q-62 -92 -150 -234l-145 -237l-147 -236h-86l244 393l72 118q80 133 125 197zM980 222q0 -106 -41 -165q-48 -71 -148 -71q-104 0 -157 60q-47 56 -47 164q0 102 44 164q51 72 150 72q93 0 149 -66q50 -61 50 -158zM786 55q59 0 88 57
q20 43 20 112q0 62 -25 102q-31 49 -89 49t-87 -53q-24 -42 -24 -106q0 -73 21 -111q27 -50 96 -50z" />
    <glyph glyph-name="ampersand" unicode="&#x26;" horiz-adv-x="859" 
d="M97 534q0 99 105 149q82 37 195 37q42 0 115.5 -12.5t108.5 -12.5q7 0 15 4l14 7v-155q-66 32 -119 49q-72 22 -128 22q-58 0 -100 -19q-57 -26 -57 -76q0 -57 140 -121l105 -45q27 -12 56 -29l63 -34l11 33l4 33q0 21 -5 32q-3 13 -17 31h261q-6 -9 -9 -22l-2 -44l1 -20
l8 -20h-33q-57 0 -81 -20q-17 -14 -47 -73q60 -45 82 -107q38 -113 44 -121h-172l11 16q6 9 6 26t-1 24.5t-7 19.5q-7 18 -27 45q-65 -83 -142 -117t-186 -34q-117 0 -203 57q-97 67 -97 180q0 78 37 124q33 42 111 72q-28 26 -45 54q-15 29 -15 67zM246 355
q-43 -24 -65 -50q-27 -32 -27 -76q0 -68 61 -110q53 -35 127 -35q71 0 123 32q39 22 97 82q-63 41 -155 84z" />
    <glyph glyph-name="quotesingle" unicode="'" horiz-adv-x="240" 
d="M223 672q-26 -7 -48 -25.5t-22 -42.5q0 -12 34 -37t34 -61q0 -34 -29.5 -54.5t-65.5 -20.5q-43 0 -69.5 28t-26.5 72q0 47 19 85q5 11 87 112z" />
    <glyph glyph-name="parenleft" unicode="(" horiz-adv-x="400" 
d="M374 682q0 -10 2 -15l5 -15q-96 -21 -160 -125q-58 -96 -58 -200q0 -116 55.5 -203t162.5 -129q-4 -11 -6 -21t-2 -23l2 -15l4 -17q-10 0 -22 0.5t-29.5 6.5t-30 10.5t-30.5 13.5q-111 49 -177.5 151t-66.5 222q0 163 101 270q95 102 258 135l-7 -20z" />
    <glyph glyph-name="parenright" unicode=")" horiz-adv-x="400" 
d="M30 -39q0 14 -1.5 17.5t-2 5.5t-5.5 8q106 42 163 129t57 205q0 100 -48 187q-52 94 -142 127l-30 10q6 10 9 20l2 24l-3 19l-4 16q123 -27 198 -84q81 -61 127 -172q7 -17 12 -34t12 -48t7 -70q0 -56 -14 -106.5t-45 -101.5q-59 -98 -157 -150q-27 -14 -70 -28
q-16 -5 -33 -9t-41 -9l7 20z" />
    <glyph glyph-name="asterisk" unicode="*" horiz-adv-x="360" 
d="M35 647q14 -22 42 -37l53 -20l14 12l17 12l-6 53q-5 28 -23 49l26 7q9 3 23 3q23 0 30 -2q10 0 23 -7q-18 -26 -22 -50q0 -17 -1 -27t-4 -28l12 -6q11 -5 20 -16l52 22q30 15 37 40q16 -24 25.5 -47t9.5 -49l-12 5l-14 4l-31 -3l-53 -16q0 -10 -2 -16l-8 -19l42 -38
q28 -22 50 -22q-20 -25 -36 -39.5t-45 -29.5q0 34 -21 66l-26 37q-8 -3 -23 -5l-15 2l-21 -45q-9 -20 -11 -39l4 -24q-25 6 -53 23q-28 19 -42 37q25 0 49 25l35 48q-13 16 -13 36l-38 10l-41 3l-17 -3l-16 -8q0 24 5 40z" />
    <glyph glyph-name="plus" unicode="+" horiz-adv-x="619" 
d="M19 333h252v251h80v-251h254v-80h-254v-253h-80v253h-252v80z" />
    <glyph glyph-name="comma" unicode="," horiz-adv-x="239" 
d="M32 -96q23 6 45 26.5t22 42.5q0 12 -34 37t-34 61t28.5 56.5t66.5 20.5q39 0 67 -28.5t28 -69.5q0 -44 -21 -88q-19 -44 -53 -77l-18 -16l-11 -17z" />
    <glyph glyph-name="hyphen" unicode="-" horiz-adv-x="360" 
d="M357 338l-24 -77q-20 -46 -58 -46h-207q-29 0 -57 -19l34 93q12 31 50 31h211q13 0 27 7z" />
    <glyph glyph-name="period" unicode="." horiz-adv-x="240" 
d="M124 157q39 0 66.5 -23t27.5 -61q0 -33 -26.5 -58t-58.5 -25q-43 0 -69 19q-31 22 -31 62q0 36 27 61t64 25z" />
    <glyph glyph-name="slash" unicode="/" horiz-adv-x="538" 
d="M431 681v6q-3 12 -11 21l142 1q-33 -27 -58 -64l-164 -256l-73 -110l-101 -158q-52 -86 -52 -99q0 -11 5 -21h-139q21 16 44 42l35 50l179 278l189 300z" />
    <glyph glyph-name="zero" unicode="0" 
d="M327 724q158 0 241 -107q76 -99 76 -260q0 -160 -64 -257q-75 -114 -229 -114q-177 0 -258 93q-77 88 -77 268q0 161 73 262q83 115 238 115zM330 91q101 0 148 87q36 68 36 179q0 110 -36 178q-47 88 -148 88q-99 0 -147 -88q-38 -71 -38 -180q0 -117 33 -180
q45 -84 152 -84z" />
    <glyph glyph-name="one" unicode="1" 
d="M132 593q18 -18 45 -18q56 0 101 29q53 33 53 86l-7 18l125 -1l-12 -29q-2 -7 -3 -13.5t-2 -15.5v-530q0 -45 9.5 -65.5t43.5 -53.5l-243 -1q39 30 51 66q9 27 9 85v369q-55 -34 -83 -40q-19 0 -36.5 -2.5t-50.5 -8.5v125z" />
    <glyph glyph-name="two" unicode="2" 
d="M485 520q0 51 -46 76q-38 21 -94 21q-78 0 -159 -28q-67 -22 -146 -70v176l28 -9l27 -3q33 0 49 2t50 9q136 25 164 25q116 0 182 -38q83 -48 83 -156q0 -112 -106 -181l-206 -97q-117 -58 -136 -143h312q51 0 85 11.5t67 42.5l-3 -76q0 -29 4.5 -46t18.5 -36h-668
q4 5 8.5 12.5t9 19.5t9.5 39q1 13 2 21t8 36q12 50 48 91q29 32 80 66q37 24 121 65l75 35q56 27 86 51q47 38 47 84z" />
    <glyph glyph-name="three" unicode="3" 
d="M16 168q127 -71 271 -71q75 0 137 25q82 33 82 98q0 63 -79 88q-54 16 -151 16l-31 -1h-27q-42 0 -58 -3t-36 -12v132q20 -8 50 -13l60 -3q101 0 141 11q87 21 87 90q0 51 -43 75q-36 19 -91 19q-72 0 -137.5 -16.5t-132.5 -47.5v165q19 -17 41 -17h11q19 0 42 1t46 4
q132 12 167 12q87 0 155 -39q79 -47 79 -131q0 -57 -27 -98q-26 -37 -83 -65q73 -12 112 -50q45 -42 45 -113q0 -117 -109 -180q-92 -53 -217 -53q-44 0 -136 12q-28 4 -70.5 8.5t-58.5 4.5q-21 0 -39 -9v161z" />
    <glyph glyph-name="four" unicode="4" 
d="M359 695l-5 12l242 1q-13 -13 -18.5 -31.5t-5.5 -42.5v-357h34q23 0 35 3.5t30 18.5q-10 -73 -35.5 -99t-64.5 -26v-42q0 -47 9 -75.5t43 -56.5h-233q35 24 48 62q9 27 9 79v33h-424l-1 4q0 28 -8.5 65t-22.5 59l172 179l75 75l74 74l24 25l20 26zM450 277l-2 187l1 100
q0 19 8 77l-115 -122l-117 -122q-74 -77 -119 -119z" />
    <glyph glyph-name="five" unicode="5" 
d="M323 87q70 0 123 28q65 35 65 100q0 66 -56 95q-44 22 -115 22q-59 0 -110 -13t-105 -38q-32 41 -86 68l18 154q12 101 12 155q0 25 -17 45h548q-11 -16 -11 -38q0 -26 9 -64l19 -68q-35 36 -79.5 51t-100.5 15h-251l-19 -197q58 17 94 24q55 11 97 11q122 0 199 -45
q94 -56 94 -171q0 -123 -118 -187q-94 -50 -230 -50q-35 0 -80 7q-114 16 -134 16q-14 0 -31 -15l-44 178q59 -37 147.5 -60t161.5 -23z" />
    <glyph glyph-name="six" unicode="6" 
d="M583 699q13 0 28 6l-25 -148q-38 32 -92 48.5t-108 16.5q-89 0 -161.5 -58.5t-72.5 -148.5v-4q46 24 111.5 40t124.5 16q118 0 186 -52q77 -57 77 -172q0 -123 -99 -194q-88 -61 -219 -61q-162 0 -243 102q-74 94 -74 259q0 169 99 271.5t268 102.5q32 0 99 -12t101 -12z
M151 276q0 -81 53.5 -133.5t134.5 -52.5q73 0 123 38q54 41 54 113q0 62 -46 95q-40 28 -106 28q-54 0 -117 -18.5t-96 -51.5v-18z" />
    <glyph glyph-name="seven" unicode="7" 
d="M64 686q0 9 -6 21h626q-107 -92 -218 -283q-119 -208 -119 -331q0 -22 5 -40t8.5 -27.5t11.5 -24.5h-213q18 18 24 42l5 49q6 49 32.5 115t74.5 153q80 143 163 248h-206q-37 0 -67.5 -3t-64.5 -11q-64 -12 -110 -44l32 68q22 52 22 68z" />
    <glyph glyph-name="eight" unicode="8" 
d="M45 534q0 92 99 145q81 42 185 42q108 0 186 -41q100 -52 100 -149q0 -55 -36 -91q-29 -27 -88 -48q74 -19 119 -67.5t45 -121.5q0 -93 -65 -145q-50 -42 -149 -58q-31 -5 -73.5 -8t-93.5 -3l-28 3l-23 4q-99 19 -152 61q-66 51 -66 145q0 71 45 124t118 69
q-65 24 -88 46q-35 33 -35 93zM329 89q77 0 123 23q65 30 65 98q0 61 -65 96q-55 29 -121 29q-37 0 -67 -6t-57 -20q-68 -33 -68 -99q0 -63 67 -96q53 -25 123 -25zM332 430q54 0 92 19q51 24 51 73q0 50 -48 79q-41 22 -95 22q-58 0 -98 -20q-52 -26 -52 -78q0 -50 52 -75
q21 -10 44.5 -15t53.5 -5z" />
    <glyph glyph-name="nine" unicode="9" 
d="M69 11q-8 0 -22 -5l25 147q62 -32 96 -46q48 -18 106 -18q100 0 159.5 56t74.5 154q-66 -23 -128 -40q-61 -14 -119 -14q-109 0 -178 54q-74 59 -74 166q0 127 98 197q87 61 220 61q158 0 241 -102q75 -93 75 -256q0 -170 -97.5 -273.5t-266.5 -103.5q-36 0 -79 7
q-112 16 -131 16zM322 622q-69 0 -125.5 -37.5t-56.5 -107.5q0 -66 46 -100q41 -29 111 -29q28 0 52.5 4t59.5 15q67 21 100 54l-1 3q0 84 -51 141t-135 57z" />
    <glyph glyph-name="colon" unicode=":" horiz-adv-x="280" 
d="M166 157q39 0 65 -23q27 -21 27 -61q0 -39 -28 -60.5t-71 -21.5q-32 0 -59 23t-27 54q0 40 26 64.5t67 24.5zM167 505q38 0 65.5 -22.5t27.5 -60.5q0 -35 -25 -58.5t-61 -23.5q-42 0 -70.5 20t-28.5 61q0 37 27.5 60.5t64.5 23.5z" />
    <glyph glyph-name="semicolon" unicode=";" horiz-adv-x="280" 
d="M142 -25q0 14 -33.5 36.5t-33.5 60.5q0 35 27.5 55.5t65.5 20.5q44 0 70.5 -28t26.5 -73q0 -51 -27 -99q-22 -40 -66 -79l-9 -18l-90 56q25 6 47 25t22 43zM167 506q40 0 67 -23t27 -63q0 -35 -27.5 -57.5t-64.5 -22.5q-43 0 -68 24t-25 68q0 31 29 52.5t62 21.5z" />
    <glyph glyph-name="less" unicode="&#x3c;" horiz-adv-x="545" 
d="M524 446l-425 -193l425 -193v-68l-508 230v62l508 230v-68z" />
    <glyph glyph-name="equal" unicode="=" horiz-adv-x="619" 
d="M-24 241h671v-78h-671v78zM-24 423h671v-80h-671v80z" />
    <glyph glyph-name="greater" unicode="&#x3e;" horiz-adv-x="545" 
d="M22 60l425 193l-425 193v68l508 -230v-62l-508 -230v68z" />
    <glyph glyph-name="question" unicode="?" horiz-adv-x="680" 
d="M42 684q23 -10 42 -10q22 0 53 10l32 10q23 6 48.5 11.5t56.5 11.5q48 9 99 9q118 0 198 -56q91 -64 91 -178q0 -63 -31 -113q-48 -78 -141 -105q-62 -17 -179 -17q-13 0 -27 -1t-28 -4q-28 -3 -45 -16v134q11 -6 31 -11l35 -3q96 0 152 22q82 33 82 115q0 68 -48 103
q-43 29 -115 29q-81 0 -159 -30.5t-147 -84.5v174zM233 76q0 34 26.5 57.5t61.5 23.5q38 0 67 -23t29 -60q0 -36 -26 -60.5t-63 -24.5q-43 0 -69 22.5t-26 64.5z" />
    <glyph glyph-name="at" unicode="@" horiz-adv-x="1015" 
d="M529 500q-62 0 -110 -67q-41 -61 -41 -128q0 -41 22 -69t62 -28q60 0 107 71q42 65 42 129q0 34 -23.5 63t-58.5 29zM662 556h69l-73 -246l-13 -50l-5 -30q0 -15 2.5 -21.5t18.5 -7.5q60 0 104 80q38 70 38 136q0 117 -80 187.5t-199 70.5q-131 0 -217.5 -93.5
t-86.5 -226.5t89 -222.5t223 -89.5q68 0 133.5 30t108.5 84h67q-48 -81 -131.5 -128.5t-180.5 -47.5q-80 0 -147 27t-124 83q-111 110 -111 270q0 155 110.5 265.5t266.5 110.5q138 0 239 -85q105 -90 105 -227q0 -101 -68 -191q-74 -98 -171 -98q-28 0 -46 17t-18 46
q-25 -27 -57 -45t-65 -18q-63 0 -106 47q-41 49 -41 113q0 53 15 99t47 88q66 89 169 89q38 0 67.5 -20t47.5 -58z" />
    <glyph glyph-name="A" unicode="A" horiz-adv-x="859" 
d="M313 677q0 7 -4 15l-9 17h269l-12 -16q-6 -8 -6 -17l3 -18l8 -20l108 -240l58 -133q42 -95 75 -154q46 -81 80 -111h-240q5 5 11 11.5t11 16t5 29.5q0 29 -17 63l-18 35h-426q-15 -25 -24 -51.5t-9 -50.5q0 -15 3.5 -26.5t13.5 -26.5h-225q40 34 80 108l36 73l217 459
l8 18zM585 266l-161 356q-29 -73 -52 -120l-56 -118l-57 -118h326z" />
    <glyph glyph-name="B" unicode="B" horiz-adv-x="798" 
d="M68 125v453q0 48 -9 72.5t-43 57.5h401q132 0 200 -23q116 -39 116 -142q0 -57 -28 -95q-19 -26 -75 -65q78 -15 117 -53q46 -44 46 -118q0 -86 -66 -140q-50 -38 -150 -58q-78 -13 -161 -13h-406q33 21 45.5 50t12.5 74zM433 107q80 0 133 18q81 27 81 91q0 60 -71 82
q-46 13 -121 13h-252v-204h230zM410 417q68 0 110 16q63 24 63 80t-67 77q-39 12 -115 12h-197v-185h206z" />
    <glyph glyph-name="C" unicode="C" horiz-adv-x="699" 
d="M683 695q18 0 42 9l-59 -170q-45 38 -106 59q-29 10 -59 15t-65 5q-122 0 -196 -71.5t-74 -193.5q0 -114 69.5 -183.5t186.5 -69.5q75 0 139 20q56 16 129 55v-165l-17 7l-16 3q-16 0 -42 -6l-38 -9q-35 -8 -87 -13l-93 -4q-169 0 -273 93q-107 96 -107 265
q0 177 111 280t289 103q83 0 148 -11q15 -1 19.5 -2t23.5 -6q26 -5 42 -7.5t33 -2.5z" />
    <glyph glyph-name="D" unicode="D" horiz-adv-x="839" 
d="M69 124v439q0 58 -7 80q-10 36 -49 64h379q188 0 298 -75q127 -88 127 -270q0 -170 -112 -269q-106 -91 -281 -91l-413 -1q33 23 45.5 52.5t12.5 70.5zM381 113q137 0 208 50q84 59 84 191q0 143 -88 198q-70 44 -222 44h-159v-483h177z" />
    <glyph glyph-name="E" unicode="E" horiz-adv-x="779" 
d="M68 133v453q0 42 -12 69q-10 27 -43 52l717 -1q-5 -10 -7 -22q0 -31 16 -76l24 -75q-39 38 -89 51.5t-113 13.5h-357v-177h376q13 0 26 4l31 12l-46 -89q-29 -41 -85 -41h-303v-195h320q57 0 96 3t68 11q54 14 97 43l-29 -71q-19 -51 -19 -72q0 -12 10 -26l-733 1
q36 33 45.5 58.5t9.5 73.5z" />
    <glyph glyph-name="F" unicode="F" horiz-adv-x="680" 
d="M83 139v442q0 43 -11 71t-44 56h670q-15 -18 -15 -39t1 -32t7 -34l18 -69q-33 35 -98 51q-48 12 -112 12h-281v-192h359q34 0 66 16l-54 -95q-21 -39 -66 -39h-306v-160q0 -41 9 -68t39 -58h-240q35 26 49 60q9 24 9 78z" />
    <glyph glyph-name="G" unicode="G" horiz-adv-x="839" 
d="M719 542q-61 38 -124.5 57t-138.5 19q-135 0 -214 -72t-79 -209q0 -119 74 -184q70 -61 192 -61q87 0 146 23q87 33 87 105v84h-237q-11 0 -21 -3t-23 -11l25 92q11 36 46 36h360q-11 -11 -17 -25l-4 -30v-340q-34 14 -66 14q-30 0 -72 -12l-80 -21l-79 -15
q-26 -3 -40 -4t-44 -1q-172 0 -279 91q-115 97 -115 266q0 198 131 296q117 87 322 87q20 0 50.5 -3t75.5 -10q84 -12 122 -12l24 3l24 8l-14 -64q-13 -57 -32 -104z" />
    <glyph glyph-name="H" unicode="H" horiz-adv-x="839" 
d="M66 141v439q0 75 -55 130h246q-34 -32 -45 -62q-10 -32 -10 -79v-134h425v142q0 85 -56 132h249q-33 -24 -45.5 -55t-12.5 -75v-446q0 -41 12.5 -74.5t43.5 -56.5h-250q35 25 46.5 55.5t11.5 80.5v187h-423v-196q0 -76 53 -129l-247 -1q35 24 48 62q9 27 9 80z" />
    <glyph glyph-name="I" unicode="I" horiz-adv-x="300" 
d="M86 122v474q0 37 -11.5 63.5t-41.5 49.5h246q-32 -20 -43.5 -52t-11.5 -78v-454q0 -44 11.5 -73.5t42.5 -50.5h-250q33 21 45.5 50.5t12.5 70.5z" />
    <glyph glyph-name="J" unicode="J" horiz-adv-x="580" 
d="M-7 182q39 -36 104 -59.5t122 -23.5q81 0 118 55q30 45 30 133v291q0 48 -10.5 76.5t-45.5 53.5h248q-35 -27 -45 -56t-10 -76v-308q0 -141 -65 -210.5t-205 -69.5q-29 0 -43 1.5t-39 6.5q-43 8 -93 21l-19 6l-15 2q-17 0 -32 -5v162z" />
    <glyph glyph-name="K" unicode="K" horiz-adv-x="818" 
d="M68 129v447q0 48 -9.5 75t-42.5 57h236q-51 -47 -51 -116v-230l342 267q16 12 26 24t12 28q0 12 -12 27h297q-94 -53 -196 -126q-75 -53 -184 -144l111 -149q82 -108 139 -173q79 -88 128 -117l-274 -1l15 16q6 9 6 18q0 21 -64 100l-44 53l-129 166l-173 -134v-101
q0 -40 9.5 -63t38.5 -52h-237q30 23 43 53t13 75z" />
    <glyph glyph-name="L" unicode="L" 
d="M74 113v456q0 56 -8 80q-12 35 -48 64h252q-36 -27 -47.5 -57t-11.5 -81v-469l292 1q56 0 102.5 12.5t85.5 43.5l-24 -66q-3 -8 -9.5 -31t-6.5 -36l2 -14l7 -17l-644 -1q58 43 58 115z" />
    <glyph glyph-name="M" unicode="M" horiz-adv-x="1039" 
d="M62 137v446q0 41 -12 70q-10 28 -42 55h304l-8 -14l-5 -15l1 -16l8 -19l71 -160l72 -168l67 -172l49 132l31 80l115 284l10 33q0 11 -2 17q0 8 -11 18h308q-32 -38 -44 -62q-10 -25 -10 -71v-439q0 -48 10.5 -76t43.5 -59h-246q37 26 49 50.5t12 73.5v174v81l2 139l2 104
l-74 -179l-108 -263q-53 -137 -55 -152l2 -14l4 -15h-180l5 14l3 14q0 9 -58 146l-113 263l-77 177l2 -120l2 -89l-1 -259q0 -62 12.5 -93.5t37.5 -50.5l-235 1q36 25 49 58q9 24 9 76z" />
    <glyph glyph-name="N" unicode="N" horiz-adv-x="818" 
d="M69 160v420q0 45 -10.5 73.5t-42.5 54.5l242 1l-7 -17l-3 -13q10 -15 17 -26q19 -28 52 -74l133 -179l87 -116l48 -66l47 -67l-6 139v288q0 25 -2 41t-9 34q-10 31 -42 55h228q-32 -28 -44 -56q-10 -28 -10 -73v-537q0 -11 5 -22l14 -21h-211l5 6l6 13q0 15 -7 26l-15 22
l-220 286l-71 102l-70 104l6 -186v-240q0 -49 8.5 -74.5t42.5 -57.5l-229 1q39 33 51 71q3 12 5 33.5t2 54.5z" />
    <glyph glyph-name="O" unicode="O" horiz-adv-x="859" 
d="M837 357q0 -179 -117 -280q-112 -94 -295 -94t-293 91q-58 49 -88 119t-30 161q0 174 119 275q112 94 291 94q180 0 293 -90q120 -96 120 -276zM424 89q127 0 196.5 71t69.5 199q0 124 -71 192.5t-194 68.5q-127 0 -197.5 -72.5t-70.5 -199.5q0 -120 73.5 -189.5
t193.5 -69.5z" />
    <glyph glyph-name="P" unicode="P" horiz-adv-x="739" 
d="M70 147v427q0 51 -9 75q-12 30 -49 58h451q127 0 196 -47q83 -56 83 -177q0 -96 -60 -155q-49 -46 -144 -66q-72 -14 -170 -14l-162 3v-138q0 -34 12 -63t40 -49h-246q36 26 50 64q4 12 6 31t2 51zM410 363q110 0 152 36q35 30 35 92q0 66 -55 90q-35 15 -114 15h-222
v-233h204z" />
    <glyph glyph-name="Q" unicode="Q" horiz-adv-x="859" 
d="M712 -34q29 0 63 14l37 16q6 -19 9.5 -28.5t10 -22t13 -24t16.5 -24.5q-34 -22 -70.5 -33.5t-74.5 -11.5q-65 0 -187 70q-60 34 -107 34q-57 0 -105 -25.5t-85 -73.5q-28 48 -75 93q43 34 94 63q-123 45 -180 126.5t-57 212.5q0 178 123 279q115 92 297 92q169 0 282 -93
q119 -99 119 -266q0 -136 -57 -223t-185 -128q17 -17 54 -32t65 -15zM690 351q0 127 -71 198t-198 71q-121 0 -193 -73.5t-72 -196.5q0 -120 72.5 -191t195.5 -71q121 0 193.5 69.5t72.5 193.5z" />
    <glyph glyph-name="R" unicode="R" horiz-adv-x="799" 
d="M69 135v434q0 57 -9 82.5t-47 57.5l426 -1q151 0 222 -31q108 -47 108 -178q0 -82 -60 -138q-54 -48 -140 -64q71 -33 111 -90l58 -105q34 -62 88 -101h-252l16 17q3 6 5 19q0 44 -33 98q-27 43 -68 83q-29 28 -70.5 42.5t-84.5 14.5h-134v-145q0 -44 11.5 -76.5
t42.5 -53.5l-249 -1q33 20 46 54t13 82zM461 386q71 0 108 20q54 27 54 90q0 62 -64 86q-40 14 -117 14h-238v-210h257z" />
    <glyph glyph-name="S" unicode="S" horiz-adv-x="680" 
d="M354 98q63 0 111 24q61 31 61 88q0 69 -131 97l-244 46q-132 42 -132 151q0 120 123 177q47 21 103.5 32t126.5 11q39 0 87 -7q123 -16 145 -16q11 0 17 1t18 7l-28 -159l-14 8q-43 26 -109.5 43.5t-123.5 17.5q-65 0 -121 -18q-78 -26 -78 -78q0 -54 131 -76
q201 -31 245 -48q132 -50 132 -175q0 -116 -103 -180q-89 -55 -211 -55q-37 0 -153 16q-31 4 -52 6t-41 2l-23 -3q-10 -2 -35 -15l-42 207q60 -48 158 -76q52 -14 95 -21t88 -7z" />
    <glyph glyph-name="T" unicode="T" horiz-adv-x="699" 
d="M21 682q0 14 -5 27l677 1l-6 -11q-5 -12 -5 -22q0 -6 18 -65l10 -36q2 -7 13 -36q-51 35 -106 50t-123 15h-75v-487q0 -38 12 -66.5t43 -51.5h-254q42 19 55 59q9 26 9 83v464h-43q-93 0 -141 -11q-27 -6 -56 -17.5t-65 -32.5l25 73q5 16 10.5 35t6.5 29z" />
    <glyph glyph-name="U" unicode="U" horiz-adv-x="818" 
d="M250 709q-34 -26 -46 -54q-10 -28 -10 -74v-293q0 -104 51 -150t159 -46q123 0 172 51t49 177v247q0 53 -11 82q-10 32 -48 60h245q-34 -24 -45 -50q-5 -12 -8 -29.5t-3 -40.5v-306q0 -140 -58 -207t-198 -89l-63 -4q-172 0 -259 50q-114 65 -114 224v327q0 47 -11 72
q-9 26 -43 53h241z" />
    <glyph glyph-name="V" unicode="V" horiz-adv-x="839" 
d="M221 709q-28 -23 -28 -55t17 -66l70 -158l70 -159l66 -161q21 55 52 122q12 28 40 89.5t52 111.5l55 111q36 77 36 113q0 21 -10 35l-16 17h240q-24 -24 -45 -51.5t-35 -54.5l-265 -540l-8 -16l-5 -19l2 -14l4 -13l-218 1q11 10 13 27q0 24 -64 158l-83 169l-106 227
q-10 21 -20.5 42t-14.5 27q-23 36 -51 57h252z" />
    <glyph glyph-name="W" unicode="W" horiz-adv-x="1039" 
d="M196 710q-19 -18 -27 -33q-7 -18 -7 -43t5 -53t17 -69l22 -72l43 -167l41 -167q52 214 91 357l32 109q11 37 17 64.5t6 41.5l-3 15l-8 17l216 1l-8 -12l-5 -14l3 -17l47 -180l60 -231l33 -146l25 125l48 210l23 96q12 51 12 88q0 41 -34 78h218l-31 -41q-14 -20 -22 -45
l-21 -94l-43 -186l-48 -204l-13 -57q-6 -29 -6 -49q0 -12 9 -32h-226l11 18l2 12q0 18 -2 26l-15 54l-58 200l-35 145l-31 147l-36 -133l-55 -226l-33 -108q-23 -78 -23 -105l1 -14l6 -15h-224q12 14 12 28l-3 18l-4 16l-139 513q-11 43 -27 74q-9 19 -21 33.5t-29 26.5h237
z" />
    <glyph glyph-name="X" unicode="X" horiz-adv-x="818" 
d="M340 369q-72 93 -103 129q-54 64 -109 113q-61 54 -135 97h311q-19 -14 -19 -32q0 -11 6.5 -27.5t16.5 -27.5l122 -152l78 93l50 54q30 36 30 65q0 6 -4 11l-10 15l253 1q-57 -33 -119 -95q-25 -25 -51.5 -54t-55.5 -63l-98 -119l103 -132q63 -81 111 -132
q62 -66 126 -112h-281l15 16q3 7 5 20q0 19 -10 39l-13 21l-146 179l-108 -119q-78 -92 -78 -126l1 -12l11 -18h-269q64 37 135 103q27 25 60.5 60.5t64.5 71.5z" />
    <glyph glyph-name="Y" unicode="Y" horiz-adv-x="818" 
d="M241 709q-14 -13 -19 -21t-6 -24q0 -21 52 -103q29 -46 66.5 -100t77.5 -106l183 256l17 30q7 18 7 30q0 9 -7 19q-3 5 -7.5 10t-9.5 9h253q-80 -64 -144 -155l-235 -324v-79q0 -62 8.5 -90.5t46.5 -61.5h-249q33 25 45.5 52.5t12.5 71.5v112l-239 339q-29 42 -58.5 74
t-69.5 61h275z" />
    <glyph glyph-name="Z" unicode="Z" horiz-adv-x="718" 
d="M468 601l-263 -1q-78 0 -120 -14q-35 -11 -65 -35l18 46q10 26 16 47.5t6 34.5l-3 18l-4 12l667 1l-162 -196l-162 -201l-157 -204h284q63 0 111 9.5t94 38.5l-27 -69q-18 -48 -18 -69l1 -9l4 -9h-707q45 53 86 102q22 27 78 96l161 201z" />
    <glyph glyph-name="bracketleft" unicode="[" horiz-adv-x="460" 
d="M76 -82v748q0 12 -4 20l-15 24l390 1l-9 -19l-4 -17q0 -28 2 -37t4 -14t9 -18h-238v-625h238q-16 -29 -16 -60q0 -24 11 -42l-387 1l13 17q6 9 6 21z" />
    <glyph glyph-name="backslash" unicode="\" horiz-adv-x="278" 
d="M-17 737h66l246 -756h-67z" />
    <glyph glyph-name="bracketright" unicode="]" horiz-adv-x="459" 
d="M31 654v13q0 8 -1.5 13t-4 12t-7.5 17h388l-11 -18q-7 -16 -7 -34v-726q0 -15 5 -26l13 -26h-389q14 20 14 49v12q0 6 -2 14q0 8 -11 27h238v626h-242q17 22 17 47z" />
    <glyph glyph-name="asciicircum" unicode="^" horiz-adv-x="0" 
d="M3 929l224 -110l-45 -76l-173 106q-92 -54 -186 -105l-41 80z" />
    <glyph glyph-name="underscore" unicode="_" horiz-adv-x="556" 
d="M0 -125v50h556v-50h-556z" />
    <glyph glyph-name="grave" unicode="`" horiz-adv-x="0" 
d="M-85 710q34 0 84.5 -58t50.5 -93q0 -13 -7 -20t-22 -9q-36 0 -93 51t-57 89q0 19 12 29.5t32 10.5z" />
    <glyph glyph-name="a" unicode="a" 
d="M482 309q-7 60 -38.5 85.5t-93.5 25.5q-71 0 -154 -21.5t-149 -54.5l52 155q9 -4 17.5 -6t20.5 -2q35 0 144 16q29 4 48.5 6t38.5 2q84 0 132 -21q64 -27 86 -98q6 -25 9 -53l3 -63l-1 -77q0 -83 12 -125.5t36 -77.5h-87q-18 0 -34 9.5t-29 28.5q-47 -29 -107.5 -43.5
t-124.5 -14.5q-104 0 -166 29q-89 39 -89 129q0 117 191 154q90 17 283 17zM412 222q-128 0 -196 -23.5t-68 -68.5q0 -39 46 -58q36 -13 81 -13q88 0 141 31q68 39 68 120v12h-72z" />
    <glyph glyph-name="b" unicode="b" horiz-adv-x="679" 
d="M57 157v412q0 45 -9.5 78.5t-37.5 61.5h186q-8 -11 -13 -24l-4 -23l2 -213q40 29 91 45t105 16q65 0 114.5 -16t90.5 -52q82 -73 82 -197q0 -125 -85 -195q-80 -66 -207 -66q-63 0 -103 11q-56 15 -92 48q-9 -18 -27 -30t-38 -12h-103q30 33 39 68t9 88zM354 70
q81 0 133 46q26 23 39 54t13 74q0 77 -49 126t-127 49q-79 0 -133.5 -48.5t-54.5 -129.5q0 -75 51 -123t128 -48z" />
    <glyph glyph-name="c" unicode="c" horiz-adv-x="539" 
d="M515 508q14 0 31 8l-37 -146q-24 26 -70.5 39t-86.5 13q-90 0 -145 -40q-62 -45 -62 -133q0 -80 55 -123q49 -38 132 -38q61 0 100 10q54 12 89 47v-142l-24 3q-26 0 -116 -12q-45 -6 -71 -6q-123 0 -204 66q-87 71 -87 192q0 141 109 213q93 60 244 60q30 0 43 -1
q29 -5 46 -6z" />
    <glyph glyph-name="d" unicode="d" horiz-adv-x="680" 
d="M499 572q0 50 -8 77q-7 30 -36 60l183 1q-18 -27 -18 -62v-498q0 -51 9 -81.5t34 -68.5h-100q-21 0 -35 10t-27 31q-39 -29 -86.5 -43t-100.5 -14q-132 0 -212 64q-87 69 -87 200q0 119 78 191q39 35 89 53t113 18q31 0 56.5 -3t49.5 -11q35 -9 98 -44v120zM320 71
q82 0 132 47t50 128q0 79 -54.5 126.5t-134.5 47.5q-74 0 -122.5 -49t-48.5 -125q0 -78 48.5 -126.5t129.5 -48.5z" />
    <glyph glyph-name="e" unicode="e" horiz-adv-x="619" 
d="M605 194l-18 6l-19 3h-425q0 -35 19 -61t54 -42q50 -22 133 -22q73 0 120 10q65 13 110 48v-147l-22 6l-12 1q-33 0 -128 -9l-78 -5q-150 0 -227 49q-95 60 -95 202q0 139 92 213q85 68 227 68q120 0 194.5 -69t74.5 -189v-62zM487 296q-15 66 -50.5 98t-104.5 32
q-72 0 -118 -30.5t-70 -99.5h343z" />
    <glyph glyph-name="f" unicode="f" horiz-adv-x="459" 
d="M24 501q15 -10 31.5 -15t38.5 -5l39 1q0 122 44 178q50 63 169 63q15 0 24 -1t38 -6l62 -7l20 3l17 4l-31 -115q-28 14 -57.5 21.5t-62.5 7.5q-52 0 -81.5 -24.5t-29.5 -76.5q0 -28 10 -48h196l22 3l28 9l-40 -121l-16 6q-18 6 -29 6h-164v-263q0 -46 8 -66.5t37 -54.5
h-215q27 24 37 50.5t10 62.5v272h-94q-18 0 -24 -2q-8 0 -26 -7z" />
    <glyph glyph-name="g" unicode="g" horiz-adv-x="680" 
d="M581 495h90q-29 -26 -44 -83q-9 -39 -9 -96l3 -99l4 -89q0 -152 -56 -220q-64 -76 -213 -76q-35 0 -154 12q-59 6 -93 6l-20 -3l-17 -4l-1 135q38 -26 110.5 -42t124.5 -16q100 0 144 31q54 36 54 131q-57 -29 -100.5 -42t-100.5 -13q-124 0 -202 56q-89 63 -89 184
q0 119 93 187q84 60 210 60q62 0 115 -15q27 -7 48 -19t43 -34q8 23 22 36q4 3 13.5 8t24.5 5zM324 113q79 0 126 40q52 43 52 120q0 78 -53 119q-49 37 -127 37t-125 -37q-53 -41 -53 -117q0 -81 50 -124q46 -38 130 -38z" />
    <glyph glyph-name="h" unicode="h" horiz-adv-x="679" 
d="M57 131v443q0 53 -7 75q-6 26 -35 60l177 -1l-13 -24l-2 -29v-203q45 30 101.5 45t117.5 15q33 0 63 -6q30 -4 57 -18q56 -30 82 -81q22 -47 22 -115l-3 -70l-3 -72q0 -49 10.5 -86t39.5 -66h-212q33 28 43 67q6 23 6 81v129q0 68 -30 104t-98 36q-111 0 -158 -38
q-39 -30 -39 -90v-179q0 -37 11 -58q20 -30 30 -50h-209q32 23 42 58q7 28 7 73z" />
    <glyph glyph-name="i" unicode="i" horiz-adv-x="259" 
d="M73 128v246q0 33 -1.5 44t-6.5 22q-6 21 -36 54h190q-13 -14 -18.5 -30t-5.5 -37v-310q0 -30 1.5 -40.5t8 -26.5t34.5 -50h-219q32 26 43 54q10 30 10 74zM134 722q30 0 53 -23q24 -21 24 -52q0 -32 -25 -56q-24 -21 -58 -21q-36 0 -59 21.5t-23 60.5q0 31 27 51
q29 19 61 19z" />
    <glyph glyph-name="j" unicode="j" horiz-adv-x="240" 
d="M-122 -41l42 -10l45 -3q63 0 89 35q21 29 21 97v283q0 51 -6.5 71.5t-37.5 63.5l178 -1q-12 -21 -12 -45v-394q0 -205 -210 -205l-47 2l-36 2q-12 0 -17 -2l-9 -2v108zM122 722q34 0 57.5 -21.5t23.5 -55.5q0 -33 -25 -54q-12 -10 -26 -15t-32 -5q-32 0 -57 21t-25 54
t26 54.5t58 21.5z" />
    <glyph glyph-name="k" unicode="k" horiz-adv-x="719" 
d="M58 145v437q0 33 -1.5 44t-6.5 27q-8 27 -35 56h186q-8 -8 -17 -32q-6 -23 -6 -59v-334l242 149q13 7 21 17t10 22q-3 10 -5 14l-7 12h295q-49 -21 -112 -57q-21 -12 -48 -28t-60 -37l-106 -69q56 -46 115 -101l112 -105q66 -60 117 -99h-251l7 13l4 11q0 8 -7 18l-13 17
l-192 181l-123 -75v-54q0 -65 41 -112l-210 1q33 27 43 64q3 13 5 32.5t2 46.5z" />
    <glyph glyph-name="l" unicode="l" horiz-adv-x="259" 
d="M72 121v468q0 44 -7.5 68.5t-36.5 51.5l186 -1q-8 -8 -13.5 -24t-5.5 -46v-531q0 -58 42 -105h-213q27 24 37.5 51.5t10.5 67.5z" />
    <glyph glyph-name="m" unicode="m" horiz-adv-x="1019" 
d="M41 131v234q0 43 -9.5 72.5t-36.5 58.5l69 -2l41 1l33 7l9 7v-70q54 33 106.5 52t107.5 19q104 0 176 -76q53 37 104.5 56t112.5 19q118 0 168 -62q46 -57 46 -176v-157q0 -36 8.5 -57t36.5 -58h-214q31 25 43 60q8 27 8 75v152q0 128 -124 128q-75 0 -119 -34t-44 -109
v-152q0 -39 9 -68t35 -51l-212 1q30 26 42 57q4 12 6 28t2 43v178q0 51 -32 78.5t-85 27.5q-77 0 -123.5 -40t-46.5 -115v-114q0 -44 9 -77t33 -67h-208q30 27 39.5 54.5t9.5 76.5z" />
    <glyph glyph-name="n" unicode="n" horiz-adv-x="679" 
d="M58 382q0 37 -9 60l-30 52l70 -2l41 3q17 3 31 13v-67q46 35 106 53t124 18q25 0 38 -1t40 -6.5t59 -23.5q53 -30 75 -81q19 -44 19 -110l-3 -76l-2 -56q0 -50 9 -88t38 -71h-213q32 26 44 64q7 28 7 79v132q0 79 -33.5 109.5t-115.5 30.5q-71 0 -117 -25
q-60 -33 -60 -98v-185q0 -60 43 -106l-209 -1q30 30 39 57t9 75v251z" />
    <glyph glyph-name="o" unicode="o" 
d="M645 241q0 -129 -100 -198q-88 -59 -223 -59q-132 0 -215 62q-92 69 -92 199q0 129 97 199q85 61 220 61q138 0 220 -61q93 -69 93 -203zM518 249q0 81 -56 127q-52 41 -136 41q-82 0 -133 -45.5t-51 -129.5q0 -77 51.5 -121.5t130.5 -44.5q89 0 139 41q55 46 55 132z
" />
    <glyph glyph-name="p" unicode="p" horiz-adv-x="679" 
d="M59 -17v380q0 43 -8.5 70t-36.5 64h95q47 0 71 -42q29 26 84 42t103 16q128 0 209 -65q89 -71 89 -196q0 -122 -75.5 -194.5t-197.5 -72.5q-60 0 -117 14t-93 47v-91q0 -23 1 -32.5t8.5 -28.5t28.5 -42h-206q26 20 38 59q3 13 5 30.5t2 41.5zM540 251q0 80 -51.5 126.5
t-132.5 46.5q-76 0 -127 -48.5t-51 -124.5q0 -77 51 -126.5t132 -49.5q77 0 128 48t51 128z" />
    <glyph glyph-name="q" unicode="q" 
d="M562 494l109 -1q-13 -15 -23 -30.5t-15 -30.5t-8 -34.5t-3 -40.5v-388q0 -37 9 -67.5t33 -53.5h-213q27 15 39 52q9 27 9 67v77q-47 -32 -96 -46t-110 -14q-120 0 -199 72t-79 193q0 128 88 198q82 65 212 65q105 0 188 -59q6 18 23 29.5t36 11.5zM318 75q78 0 132 48
t54 127q0 81 -52 127.5t-133 46.5q-77 0 -127 -47.5t-50 -126.5q0 -77 49 -126t127 -49z" />
    <glyph glyph-name="r" unicode="r" horiz-adv-x="480" 
d="M66 158v190q0 58 -7 83q-6 27 -38 66l76 -3l49 3q21 3 35 12v-73q46 38 82 54q44 19 97 19q28 0 49 -5l48 -13l23 -6l20 -3q11 0 22 5l-39 -124l-60 30q-29 12 -67 12q-88 0 -129 -53q-36 -47 -36 -139l1 -60q0 -55 7.5 -80t36.5 -74h-220q33 31 43 73q3 14 5 34.5
t2 51.5z" />
    <glyph glyph-name="s" unicode="s" horiz-adv-x="599" 
d="M322 75q50 0 80 10q48 15 48 55q0 45 -107 60q-188 25 -201 29q-108 33 -108 125q0 89 85 131q63 30 166 30q38 0 176 -21q27 -4 57 -7t48 -3l-46 -119q-29 23 -101.5 39.5t-121.5 16.5q-66 0 -103 -14.5t-37 -41.5q0 -41 108 -56q178 -22 202 -29q110 -33 110 -126
q0 -95 -84 -140q-64 -32 -171 -32q-37 0 -155 16q-64 8 -93 8q-9 0 -20 -4l-20 -9l-23 165q70 -37 152 -62q78 -21 159 -21z" />
    <glyph glyph-name="t" unicode="t" horiz-adv-x="460" 
d="M24 493q7 -5 26 -11l32 -3q50 0 69 46q14 34 14 91q0 25 -2.5 36t-14.5 31l127 1q-17 -32 -17 -62v-140h155l42 3q15 2 21 4t24 10q-19 -53 -40 -124l-16 7l-17 3h-169v-185q0 -54 21 -83.5t76 -29.5q32 0 55 7.5t68 44.5v-141l-23 5q-22 0 -81 -10l-49 -5q-92 0 -141 48
t-49 142v207h-95q-27 0 -53 -13z" />
    <glyph glyph-name="u" unicode="u" horiz-adv-x="680" 
d="M199 494q-9 -12 -15 -30q-5 -20 -5 -51v-168q0 -85 20 -119q27 -47 107 -47q84 0 133 31q58 38 58 119v132q0 33 -1.5 44t-6.5 27q-11 37 -38 61h188l-15 -29q-6 -15 -6 -33v-281q0 -47 9 -82q5 -18 13.5 -34t24.5 -35h-101q-21 0 -36 12q-11 11 -22 36q-70 -35 -103 -46
q-53 -17 -113 -17q-128 0 -180.5 54t-52.5 180l2 102q0 72 -12 110.5t-36 63.5h188z" />
    <glyph glyph-name="v" unicode="v" 
d="M188 494l-13 -19q-6 -12 -6 -24q0 -21 8 -40l18 -36l88 -169l53 -107l79 146l62 102q41 71 41 106q0 12 -5 20.5t-17 20.5l194 1q-42 -50 -79 -113l-189 -328l-9 -17q-3 -6 -3 -16l2 -21h-168l4 17q0 10 -5 20l-55 107q-39 76 -41 80t-24 40l-70 118q-39 60 -80 112h215z
" />
    <glyph glyph-name="w" unicode="w" horiz-adv-x="1039" 
d="M167 494q-24 -20 -24 -45q0 -14 6 -34t20 -47l41 -79l83 -171l46 108l68 158l35 86q0 9 -2 14l-3 9h151q-6 -15 -6 -25q0 -14 71 -165l88 -186l77 162l43 85q29 61 29 87q0 11 -5 21.5t-17 19.5h199q-50 -44 -108 -162l-50 -105l-53 -103q-40 -80 -40 -99q0 -13 5 -26
h-177l7 13l2 12q0 12 -67 158l-83 178l-99 -234q-39 -93 -39 -102t6 -21h-171l4 6l5 13q0 18 -42 101l-57 106l-49 104q-51 112 -101 163h207z" />
    <glyph glyph-name="x" unicode="x" horiz-adv-x="739" 
d="M294 260l-136 124q-79 69 -146 112l277 -1l-14 -15q-6 -8 -7 -17q0 -26 66 -88l50 -43l77 63q51 43 64 74q0 11 -12 25h234q-27 -18 -50 -34.5t-50 -37.5l-95 -78l-93 -82l98 -91l100 -90q29 -25 56 -46q19 -15 49 -37h-256q14 12 19 20l1 7q0 21 -67 84l-90 79l-62 -53
l-60 -50q-34 -34 -34 -68l10 -17h-250q51 30 113 78l105 90z" />
    <glyph glyph-name="y" unicode="y" horiz-adv-x="679" 
d="M210 497l-14 -19q-5 -11 -7 -23q0 -22 72 -135l94 -142l98 145q73 114 73 143q0 16 -16 28h194l-58 -65l-31 -43l-260 -393l-31 -52q-19 -38 -19 -55l3 -18l10 -19h-244q61 30 118 96q35 40 89 125l-115 176l-85 133q-52 74 -105 118h234z" />
    <glyph glyph-name="z" unicode="z" horiz-adv-x="559" 
d="M330 402h-190q-33 0 -68.5 -11t-68.5 -28l23 51q15 35 15 52q0 7 -5 15l-7 13h524l-334 -397h213q74 0 135 34l-18 -55q-11 -36 -11 -57q0 -8 5 -19h-552z" />
    <glyph glyph-name="braceleft" unicode="{" horiz-adv-x="334" 
d="M42 294q54 0 72 67q8 34 8 112l-1 43q0 95 11 131q21 75 93 75h67v-65h-44q-27 0 -36.5 -24.5t-9.5 -57.5v-113l-1 -57q0 -44 -24 -86t-63 -54q54 -18 75 -83q13 -46 13 -118l-1 -87q0 -48 5 -66q9 -42 42 -42h44v-65h-67q-47 0 -74.5 39.5t-27.5 89.5v171q0 48 -17 83
q-21 47 -64 47v60z" />
    <glyph glyph-name="bar" unicode="|" horiz-adv-x="260" 
d="M94 737h73v-756h-73v756z" />
    <glyph glyph-name="braceright" unicode="}" horiz-adv-x="334" 
d="M292 234q-41 0 -63 -47q-18 -38 -18 -83v-171q0 -50 -25 -87q-29 -42 -77 -42h-67v65h44q29 0 41 41q5 23 5 67l-1 86q0 76 13 118q19 64 76 82q-38 11 -63 55.5t-25 85.5v171q0 34 -7 52q-11 30 -39 30h-44v65h67q63 0 88 -64q16 -45 16 -127l-1 -31v-27q0 -82 8 -111
q17 -68 72 -68v-60z" />
    <glyph glyph-name="asciitilde" unicode="~" horiz-adv-x="0" 
d="M-101 898q39 0 98.5 -38.5t90.5 -38.5q33 0 65 28q20 19 49 56q9 -20 28 -35.5t38 -21.5q-51 -55 -79 -77q-50 -38 -102 -38q-42 0 -104 37t-85 37q-33 0 -69 -36l-33 -36q-7 18 -23 32t-38 21q43 52 71 74q45 36 93 36z" />
    <glyph glyph-name="c128" horiz-adv-x="509" 
d="M417 505l-73 -132h160v-53h-189l-76 -135h265v-53h-294l-87 -156l-48 27l72 129h-152v53h182l75 135h-257v53h287l88 160z" />
    <glyph glyph-name="c129" horiz-adv-x="661" 
d="M506 392q56 0 96.5 -39.5t40.5 -94.5q0 -54 -38.5 -95.5t-93.5 -41.5q-44 0 -82 19q-24 12 -108 83q-64 -57 -85 -71q-49 -32 -106 -32q-54 0 -92.5 42.5t-38.5 96.5t41 93.5t95 39.5q48 0 101 -34q27 -17 85 -70q56 50 84 69q53 35 101 35zM137 342q-35 0 -62 -27
q-25 -28 -25 -65q0 -33 27 -59q28 -23 63 -23q42 0 83 28q10 7 68 60q-46 39 -71 56q-45 30 -83 30zM504 167q36 0 63.5 24.5t27.5 59.5q0 37 -26 63q-25 28 -61 28q-35 0 -83 -30q-23 -16 -71 -56q53 -50 67 -60q41 -29 83 -29z" />
    <glyph glyph-name="c141" horiz-adv-x="567" 
d="M568 0h-584l310 667zM48 48h399l-188 453z" />
    <glyph glyph-name="c142" horiz-adv-x="458" 
d="M189 0l-189 366l189 357h58l188 -357l-188 -366h-58zM218 670l-159 -304l159 -314l159 314z" />
    <glyph glyph-name="c143" horiz-adv-x="639" 
 />
    <glyph glyph-name="nonbreakingspace" unicode="&#xa0;" horiz-adv-x="619" 
 />
    <glyph glyph-name="exclamdown" unicode="&#xa1;" horiz-adv-x="300" 
d="M30 643q0 33 29.5 55t63.5 22q38 0 65 -23q27 -21 27 -59q0 -32 -28 -59q-27 -24 -62 -24q-39 0 -67 24t-28 64zM119 491q49 0 70 -128q5 -32 8 -75.5t3 -94.5q0 -109 -18.5 -158.5t-59.5 -49.5q-51 0 -70 79q-4 20 -7 52t-3 69q0 68 5 119.5t18 102.5q20 84 54 84z" />
    <glyph glyph-name="cent" unicode="&#xa2;" horiz-adv-x="539" 
d="M20 246q0 117 76 187q69 63 190 81v18q0 8 -4 16l-10 13l101 -1q-12 -17 -17 -41h19q27 0 87 -7l52 -4q13 0 32 8l-37 -146q-24 26 -69 39t-84 13l-1 -333q49 0 91 13q44 12 75 43v-142l-24 3q-27 0 -37.5 -1t-32.5 -4l-72 -10v-20q0 -23 2.5 -31.5t14.5 -22.5h-102
q9 11 13 21.5t4 24.5l-1 24q-114 0 -190 71t-76 188zM286 90v324q-69 -14 -105.5 -56.5t-36.5 -109.5q0 -66 38 -106t104 -52z" />
    <glyph glyph-name="sterling" unicode="&#xa3;" horiz-adv-x="779" 
d="M157 430q-3 10 -5 21t-3 18l-2 46q0 98 80 157q72 54 174 54q35 0 82 -9q11 -2 30.5 -6.5t50.5 -13.5l50 -12l43 -4l19 3l21 11v-182q-76 49 -133 72q-38 14 -72.5 21t-75.5 7q-57 0 -93 -26q-42 -30 -42 -84q0 -20 3.5 -33.5t6 -20t8.5 -17.5h241q20 0 43 9l23 12
l-9 -17l-22 -32q-33 -46 -53 -61q-30 -22 -76 -22l-66 2l-51 2v-30q0 -35 -3 -60.5t-11 -47.5q-13 -39 -57 -83h275q50 0 79 14q43 18 43 61q0 17 -8 30t-26 24l132 73l-5 -22q0 -16 7 -38q16 -56 16 -70q0 -92 -86 -139q-70 -38 -170 -38l-472 -1q68 59 104 113
q45 69 45 146l-1 33q0 19 -4 34h-101q-27 0 -50.5 -5t-32.5 -8.5t-24 -12.5l48 73q37 49 62 56l13 2l25 1h30z" />
    <glyph glyph-name="section" unicode="&#xa7;" horiz-adv-x="500" 
d="M76 50q25 -49 89 -79q57 -26 119 -26q34 0 57.5 17t23.5 50q0 45 -88 93l-164 89q-89 62 -89 142q0 96 91 136q-59 32 -59 99q0 74 66 119q59 37 137 37q31 0 69 -9l68 -21l32 -9l29 -3h8l-36 -56l-36 -64q-23 38 -56 51.5t-83 13.5q-34 0 -54 -10q-30 -14 -30 -44
q0 -36 84 -77q143 -68 157 -77q85 -56 85 -130q0 -48 -28.5 -84.5t-77.5 -57.5q35 -21 60 -60t25 -77q0 -76 -59 -120q-54 -40 -132 -40q-102 0 -197 51l-33 19q-19 9 -37 11l-12 -2zM129 336q0 -41 67 -83q60 -36 109 -36q33 0 56.5 19.5t23.5 53.5q0 39 -74 80
q-65 35 -112 35q-31 0 -50.5 -18.5t-19.5 -50.5z" />
    <glyph glyph-name="dieresis" unicode="&#xa8;" horiz-adv-x="0" 
d="M-110 700q35 0 57.5 -19t22.5 -53q0 -30 -21 -52t-53 -22q-36 0 -59.5 19.5t-23.5 55.5q0 31 23 51t54 20zM107 699q39 0 60.5 -20t21.5 -58q0 -30 -24.5 -48.5t-56.5 -18.5q-33 0 -54.5 20t-21.5 53q0 30 21 51t54 21z" />
    <glyph glyph-name="copyright" unicode="&#xa9;" horiz-adv-x="733" 
d="M356 655q139 0 237 -98t98 -237t-98 -237t-237 -98t-237 98t-98 237t98 237t237 98zM356 24q120 0 208 87t88 209q0 120 -87 208t-209 88q-120 0 -208 -87t-88 -209q0 -120 87 -208t209 -88zM500 502l4 -124h-20q-8 44 -39.5 72.5t-76.5 28.5q-59 0 -98 -54
q-33 -48 -33 -112q0 -67 31 -107q35 -44 101 -44q49 0 81 19l45 32l11 -16q-35 -35 -68 -53.5t-77 -18.5q-84 0 -135 51.5t-51 135.5q0 79 51 136t130 57q20 0 38 -5l64 -13q17 0 23 15h19z" />
    <glyph glyph-name="guillemotleft" unicode="&#xab;" horiz-adv-x="539" 
d="M168 448h135q-44 -26 -104 -85l-95 -96l72 -71q75 -75 129 -109h-138l3 5q0 10 -80 86l-98 91l163 152q10 10 13 27zM406 435l2 5v7h132q-51 -35 -125 -108l-72 -72l98 -99q75 -74 100 -84h-134q-2 15 -8 21l-37 36l-40 36l-92 91z" />
    <glyph glyph-name="logicalnot" unicode="&#xac;" horiz-adv-x="661" 
d="M-10 279h645v-279h-54v226h-591v53z" />
    <glyph glyph-name="registered" unicode="&#xae;" horiz-adv-x="733" 
d="M355 -19q-139 0 -237 97.5t-98 236.5t98 237t237 98q137 0 236 -98.5t99 -236.5t-98 -236t-237 -98zM354 611q-122 0 -208.5 -87.5t-86.5 -209.5t87.5 -208.5t208.5 -86.5q120 0 208 87t88 209q0 120 -87 208t-210 88zM305 192q0 -15 12.5 -21.5t32.5 -6.5v-18h-155v18
q17 0 31.5 5t16.5 20v280q0 17 -6.5 23t-21.5 6h-15v17h166q55 0 88 -17q44 -23 44 -73q0 -42 -28 -70t-70 -28l117 -149q11 -14 34 -14v-18h-92l-129 172h-25v-126zM305 340q53 0 83 12q45 18 45 66q0 39 -16 54t-59 21l-33 2q-7 0 -14 -6t-7 -14z" />
    <glyph glyph-name="degree" unicode="&#xb0;" horiz-adv-x="371" 
d="M180 373q-59 0 -102.5 42.5t-43.5 102.5q0 59 43 102t103 43q59 0 102.5 -42.5t43.5 -102.5t-43 -102.5t-103 -42.5zM179 625q-45 0 -75.5 -31t-30.5 -76q0 -44 31 -75t76 -31q43 0 75 30.5t32 75.5q0 43 -32 75t-76 32z" />
    <glyph glyph-name="plusminus" unicode="&#xb1;" horiz-adv-x="509" 
d="M220 396v230h53v-230h230v-54h-230v-229h-53v229h-230v54h230zM-10 0v53h513v-53h-513z" />
    <glyph glyph-name="acute" unicode="&#xb4;" horiz-adv-x="0" 
d="M94 711q16 0 28 -11t12 -28q0 -33 -57 -88t-92 -55q-30 0 -30 30q0 35 51.5 93.5t87.5 58.5z" />
    <glyph glyph-name="mu" unicode="&#xb5;" horiz-adv-x="534" 
d="M123 485v-322q0 -49 20 -78q25 -34 71 -34q32 0 64 21.5t45 52.5v360h84v-372q0 -27 12 -54.5t39 -27.5q26 0 38 22l15 46l19 -1q-12 -51 -38 -80q-31 -34 -80 -34q-42 0 -63 28q-13 19 -26 69q-21 -36 -66 -66.5t-85 -30.5q-16 0 -28 3t-25 11l-45 33v-22q0 -23 21 -97
q11 -39 11 -59q0 -28 -10 -45q-12 -24 -37 -24q-22 0 -34.5 21.5t-12.5 46.5q0 21 1.5 30t6.5 29q19 82 19 98v476h84z" />
    <glyph glyph-name="paragraph" unicode="&#xb6;" horiz-adv-x="667" 
d="M539 706v-54h-34v-819h-58v819h-144v-819h-58v486q-73 12 -116 62q-41 52 -41 126q0 96 62 147.5t159 51.5h230z" />
    <glyph glyph-name="periodcentered" unicode="&#xb7;" horiz-adv-x="160" 
d="M22 304q0 22 20 39.5t41 17.5q30 0 51 -17.5t21 -48.5q0 -28 -18.5 -49t-46.5 -21q-25 0 -46.5 17t-21.5 40v22z" />
    <glyph glyph-name="periodcentered" unicode="&#x2219;" horiz-adv-x="160" 
d="M22 304q0 22 20 39.5t41 17.5q30 0 51 -17.5t21 -48.5q0 -28 -18.5 -49t-46.5 -21q-25 0 -46.5 17t-21.5 40v22z" />
    <glyph glyph-name="cedilla" unicode="&#xb8;" horiz-adv-x="0" 
d="M-98 -132q23 -12 61 -21q20 -4 35 -6t32 -2q18 0 30.5 5t13.5 19q0 21 -22 27.5t-50 6.5l-51 -3l41 77q15 -5 46 -8t58 -3q44 0 67 -20t23 -57q0 -51 -48 -78q-41 -22 -95 -22h-25q-20 3 -31 4q-75 9 -94 9l-36 -3z" />
    <glyph glyph-name="guillemotright" unicode="&#xbb;" horiz-adv-x="539" 
d="M195 268l-95 93q-56 53 -100 87h133l-2 -9l2 -3l34 -28l31 -28l112 -114l-69 -61q-105 -96 -112 -119h-135q54 44 101.5 86.5t99.5 95.5zM434 268l-95 94q-54 51 -103 86h133l-2 -3l2 -7l177 -171l-97 -89q-72 -69 -82 -91h-133q40 22 103 83z" />
    <glyph glyph-name="questiondown" unicode="&#xbf;" horiz-adv-x="680" 
d="M464 340q-15 9 -39 12l-31 3q-125 0 -182 -42q-48 -36 -48 -101q0 -61 48 -96q43 -31 107 -31q84 0 168 30.5t149 85.5l1 -178l-13 6q-17 6 -26 6q-23 0 -78 -16q-16 -4 -24.5 -6.5t-20.5 -7.5q-38 -9 -84 -15t-93 -6q-115 0 -192 55q-89 63 -89 173q0 106 63 166
q50 47 151 67q75 13 180 13h14h8q5 2 7 2l24 15v-135zM259 641q0 32 28 56q30 22 65 22q39 0 65 -23t26 -63q0 -34 -26 -57q-13 -11 -28 -16.5t-33 -5.5q-42 0 -69.5 23t-27.5 64z" />
    <glyph glyph-name="Agrave" unicode="&#xc0;" horiz-adv-x="859" 
d="M332 922q33 0 84 -57.5t51 -91.5q0 -33 -31 -33q-36 0 -92.5 54t-56.5 90q0 17 13.5 27.5t31.5 10.5zM313 677q0 7 -4 15l-9 17h269l-12 -16q-6 -8 -6 -17l3 -18l8 -20l108 -240l58 -133q42 -95 75 -154q46 -81 80 -111h-240q5 5 11 11.5t11 16t5 29.5q0 29 -17 63
l-18 35h-426q-15 -25 -24 -51.5t-9 -50.5q0 -15 3.5 -26.5t13.5 -26.5h-225q40 34 80 108l36 73l217 459l8 18zM585 266l-161 356q-29 -73 -52 -120l-56 -118l-57 -118h326z" />
    <glyph glyph-name="Aacute" unicode="&#xc1;" horiz-adv-x="859" 
d="M510 923q40 0 40 -40q0 -34 -56 -88.5t-92 -54.5q-13 0 -22 8t-9 22q0 36 51.5 94.5t87.5 58.5zM313 677q0 7 -4 15l-9 17h269l-12 -16q-6 -8 -6 -17l3 -18l8 -20l108 -240l58 -133q42 -95 75 -154q46 -81 80 -111h-240q5 5 11 11.5t11 16t5 29.5q0 29 -17 63l-18 35
h-426q-15 -25 -24 -51.5t-9 -50.5q0 -15 3.5 -26.5t13.5 -26.5h-225q40 34 80 108l36 73l217 459l8 18zM585 266l-161 356q-29 -73 -52 -120l-56 -118l-57 -118h326z" />
    <glyph glyph-name="Acircumflex" unicode="&#xc2;" horiz-adv-x="859" 
d="M419 929l224 -110l-43 -76q-100 57 -174 106l-185 -105l-43 80zM313 677q0 7 -4 15l-9 17h269l-12 -16q-6 -8 -6 -17l3 -18l8 -20l108 -240l58 -133q42 -95 75 -154q46 -81 80 -111h-240q5 5 11 11.5t11 16t5 29.5q0 29 -17 63l-18 35h-426q-15 -25 -24 -51.5t-9 -50.5
q0 -15 3.5 -26.5t13.5 -26.5h-225q40 34 80 108l36 73l217 459l8 18zM585 266l-161 356q-29 -73 -52 -120l-56 -118l-57 -118h326z" />
    <glyph glyph-name="Atilde" unicode="&#xc3;" horiz-adv-x="859" 
d="M315 898q38 0 97.5 -38.5t91.5 -38.5t65 29q19 18 49 55q10 -19 28.5 -35t37.5 -21q-49 -55 -79 -78q-50 -38 -101 -38q-39 0 -81 23q-95 51 -108 51q-33 0 -69 -36l-33 -36q-18 38 -62 53q42 50 71 74q45 36 93 36zM313 677q0 7 -4 15l-9 17h269l-12 -16q-6 -8 -6 -17
l3 -18l8 -20l108 -240l58 -133q42 -95 75 -154q46 -81 80 -111h-240q5 5 11 11.5t11 16t5 29.5q0 29 -17 63l-18 35h-426q-15 -25 -24 -51.5t-9 -50.5q0 -15 3.5 -26.5t13.5 -26.5h-225q40 34 80 108l36 73l217 459l8 18zM585 266l-161 356q-29 -73 -52 -120l-56 -118
l-57 -118h326z" />
    <glyph glyph-name="Adieresis" unicode="&#xc4;" horiz-adv-x="859" 
d="M313 677q0 7 -4 15l-9 17h269l-12 -16q-6 -8 -6 -17l3 -18l8 -20l108 -240l58 -133q42 -95 75 -154q46 -81 80 -111h-240q5 5 11 11.5t11 16t5 29.5q0 29 -17 63l-18 35h-426q-15 -25 -24 -51.5t-9 -50.5q0 -15 3.5 -26.5t13.5 -26.5h-225q40 34 80 108l36 73l217 459
l8 18zM585 266l-161 356q-29 -73 -52 -120l-56 -118l-57 -118h326zM317 916q33 0 56 -20q24 -18 24 -53q0 -31 -23 -52.5t-56 -21.5q-29 0 -54 18t-25 48v16q0 26 24.5 45.5t53.5 19.5zM536 916q31 0 54.5 -21.5t23.5 -51.5q0 -35 -23 -55t-59 -20q-30 0 -54 21
q-22 22 -22 53q0 30 24 53q24 21 56 21z" />
    <glyph glyph-name="Aring" unicode="&#xc5;" horiz-adv-x="859" 
d="M313 674q0 8 -4 17l-9 18h269l-12 -16q-6 -8 -6 -14q0 -14 5 -27l11 -26l208 -456q25 -57 46 -90q26 -45 61 -80h-240q14 12 21 23.5t7 30.5q0 20 -12 52q-5 13 -10 23t-13 25h-427l-22 -47q-11 -28 -11 -50q0 -30 18 -56l-228 1q35 27 66 79q17 27 49 94l214 449l15 35z
M585 266l-55 118l-53 119l-53 120q-78 -180 -165 -357h326zM427 919q36 0 64.5 -26.5t28.5 -65.5q0 -41 -26.5 -69t-68.5 -28q-36 0 -64.5 28t-28.5 66q0 39 27 67t68 28zM425 778q19 0 34.5 12.5t15.5 34.5q0 18 -14.5 33t-33.5 15q-20 0 -34.5 -15.5t-14.5 -35.5
q0 -17 14 -31q16 -13 33 -13z" />
    <glyph glyph-name="AE" unicode="&#xc6;" horiz-adv-x="1039" 
d="M396 674q0 8 -5 16q-3 9 -11 15l611 -1q-6 -10 -8 -21q0 -22 16 -74l24 -77q-36 33 -86 48.5t-107 15.5h-199v-177h182q47 0 85 15l-43 -72q-7 -13 -14 -22.5t-12 -14.5q-20 -21 -64 -21l-135 3v-197h169q73 0 139 12t107 44l-36 -91q-5 -17 -7 -23q-6 -19 -6 -25
q0 -7 8 -26h-566q32 15 47 46q14 33 14 73l-2 30h-284l-31 -48q-16 -30 -16 -54q0 -14 9 -31l12 -17h-227q52 49 107 134l90 148l157 241l36 58l35 60l7 14zM500 252v362q-30 -54 -41 -73q-2 -3 -29 -47q-35 -60 -45 -76q-21 -32 -31 -47l-78 -119h224z" />
    <glyph glyph-name="Ccedilla" unicode="&#xc7;" horiz-adv-x="699" 
d="M241 -132q24 -12 61 -21q20 -4 35 -6t32 -2q19 0 30 4.5t13 18.5q0 23 -39 32l-33 3l-51 -3l42 77q15 -5 46 -8t58 -3q44 0 67 -20t23 -57q0 -51 -49 -78q-41 -22 -96 -22h-24q-20 3 -31 4l-93 9l-36 -3zM683 695q18 0 42 9l-59 -170q-45 38 -106 59q-29 10 -59 15t-65 5
q-122 0 -196 -71.5t-74 -193.5q0 -114 69.5 -183.5t186.5 -69.5q75 0 139 20q56 16 129 55v-165l-17 7l-16 3q-16 0 -42 -6l-38 -9q-35 -8 -87 -13l-93 -4q-169 0 -273 93q-107 96 -107 265q0 177 111 280t289 103q83 0 148 -11q15 -1 19.5 -2t23.5 -6q26 -5 42 -7.5
t33 -2.5z" />
    <glyph glyph-name="Egrave" unicode="&#xc8;" horiz-adv-x="779" 
d="M293 922q33 0 84 -57.5t51 -91.5q0 -33 -31 -33q-36 0 -92.5 54t-56.5 90q0 17 13.5 27.5t31.5 10.5zM68 133v453q0 42 -12 69q-10 27 -43 52l717 -1q-5 -10 -7 -22q0 -31 16 -76l24 -75q-39 38 -89 51.5t-113 13.5h-357v-177h376q13 0 26 4l31 12l-46 -89
q-29 -41 -85 -41h-303v-195h320q57 0 96 3t68 11q54 14 97 43l-29 -71q-19 -51 -19 -72q0 -12 10 -26l-733 1q36 33 45.5 58.5t9.5 73.5z" />
    <glyph glyph-name="Eacute" unicode="&#xc9;" horiz-adv-x="779" 
d="M471 923q40 0 40 -40q0 -34 -56 -88.5t-92 -54.5q-13 0 -22 9q-6 8 -8 24q0 33 51.5 91.5t86.5 58.5zM68 133v453q0 42 -12 69q-10 27 -43 52l717 -1q-5 -10 -7 -22q0 -31 16 -76l24 -75q-39 38 -89 51.5t-113 13.5h-357v-177h376q13 0 26 4l31 12l-46 -89
q-29 -41 -85 -41h-303v-195h320q57 0 96 3t68 11q54 14 97 43l-29 -71q-19 -51 -19 -72q0 -12 10 -26l-733 1q36 33 45.5 58.5t9.5 73.5z" />
    <glyph glyph-name="Ecircumflex" unicode="&#xca;" horiz-adv-x="779" 
d="M380 929l224 -110l-42 -75q-94 55 -175 106q-83 -53 -185 -106l-43 80zM68 133v453q0 42 -12 69q-10 27 -43 52l717 -1q-5 -10 -7 -22q0 -31 16 -76l24 -75q-39 38 -89 51.5t-113 13.5h-357v-177h376q13 0 26 4l31 12l-46 -89q-29 -41 -85 -41h-303v-195h320q57 0 96 3
t68 11q54 14 97 43l-29 -71q-19 -51 -19 -72q0 -12 10 -26l-733 1q36 33 45.5 58.5t9.5 73.5z" />
    <glyph glyph-name="Edieresis" unicode="&#xcb;" horiz-adv-x="779" 
d="M263 913h19q27 0 47 -22.5t20 -51.5q0 -32 -24.5 -52.5t-56.5 -20.5q-31 0 -54 20.5t-23 51.5q0 28 21 51.5t51 23.5zM487 913q30 0 55.5 -18.5t25.5 -48.5q0 -34 -20.5 -57t-55.5 -23q-33 0 -59 20q-24 21 -24 55q0 28 24 50t54 22zM68 133v453q0 42 -12 69
q-10 27 -43 52l717 -1q-5 -10 -7 -22q0 -31 16 -76l24 -75q-39 38 -89 51.5t-113 13.5h-357v-177h376q13 0 26 4l31 12l-46 -89q-29 -41 -85 -41h-303v-195h320q57 0 96 3t68 11q54 14 97 43l-29 -71q-19 -51 -19 -72q0 -12 10 -26l-733 1q36 33 45.5 58.5t9.5 73.5z" />
    <glyph glyph-name="Igrave" unicode="&#xcc;" horiz-adv-x="300" 
d="M62 922q34 0 84 -59.5t50 -95.5q0 -27 -30 -27q-37 0 -93 52.5t-56 88.5q0 20 12.5 30.5t32.5 10.5zM86 122v474q0 37 -11.5 63.5t-41.5 49.5h246q-32 -20 -43.5 -52t-11.5 -78v-454q0 -44 11.5 -73.5t42.5 -50.5h-250q33 21 45.5 50.5t12.5 70.5z" />
    <glyph glyph-name="Iacute" unicode="&#xcd;" horiz-adv-x="300" 
d="M239 923q40 0 40 -40q0 -36 -56.5 -89.5t-91.5 -53.5q-31 0 -31 32q0 35 52 93t87 58zM86 122v474q0 37 -11.5 63.5t-41.5 49.5h246q-32 -20 -43.5 -52t-11.5 -78v-454q0 -44 11.5 -73.5t42.5 -50.5h-250q33 21 45.5 50.5t12.5 70.5z" />
    <glyph glyph-name="Icircumflex" unicode="&#xce;" horiz-adv-x="300" 
d="M148 929l224 -110l-43 -76q-100 57 -174 106q-44 -27 -89.5 -53t-95.5 -52l-43 80zM86 122v474q0 37 -11.5 63.5t-41.5 49.5h246q-32 -20 -43.5 -52t-11.5 -78v-454q0 -44 11.5 -73.5t42.5 -50.5h-250q33 21 45.5 50.5t12.5 70.5z" />
    <glyph glyph-name="Idieresis" unicode="&#xcf;" horiz-adv-x="300" 
d="M32 913h18q27 0 47 -22.5t20 -51.5q0 -30 -24 -53q-23 -20 -56 -20q-31 0 -54.5 20.5t-23.5 51.5q0 30 21.5 52.5t51.5 22.5zM256 913q36 0 57.5 -20t21.5 -54q0 -30 -21.5 -51.5t-53.5 -21.5t-55 17q-27 20 -27 50q0 34 21 57t57 23zM86 122v474q0 37 -11.5 63.5
t-41.5 49.5h246q-32 -20 -43.5 -52t-11.5 -78v-454q0 -44 11.5 -73.5t42.5 -50.5h-250q33 21 45.5 50.5t12.5 70.5z" />
    <glyph glyph-name="Ntilde" unicode="&#xd1;" horiz-adv-x="818" 
d="M295 898q35 0 76 -24q90 -54 113 -54q37 0 78 42l36 43q11 -19 28 -37q17 -14 38 -20q-48 -54 -79 -77q-24 -18 -50.5 -28t-52.5 -10q-37 0 -79 23q-95 51 -109 51q-28 0 -57 -25q-14 -11 -45 -47q-15 24 -24.5 33.5t-35.5 19.5q38 48 70 74q45 36 93 36zM70 160v420
q0 45 -10.5 73.5t-42.5 54.5l242 1l-7 -17l-3 -13q10 -15 17 -26q19 -28 52 -74l133 -179l87 -116l48 -66l47 -67l-6 139v288q0 25 -2 41t-9 34q-10 31 -42 55h228q-32 -28 -44 -56q-10 -28 -10 -73v-537q0 -11 5 -22l14 -21h-211l5 6l6 13q0 15 -7 26l-15 22l-220 286
l-71 102l-70 104l6 -186v-240q0 -49 8.5 -74.5t42.5 -57.5l-229 1q39 33 51 71q3 12 5 33.5t2 54.5z" />
    <glyph glyph-name="Ograve" unicode="&#xd2;" horiz-adv-x="859" 
d="M332 922q31 0 83 -58.5t52 -90.5q0 -33 -31 -33q-37 0 -93 53t-56 91q0 17 13.5 27.5t31.5 10.5zM837 357q0 -179 -117 -280q-112 -94 -295 -94t-293 91q-58 49 -88 119t-30 161q0 174 119 275q112 94 291 94q180 0 293 -90q120 -96 120 -276zM424 89q127 0 196.5 71
t69.5 199q0 124 -71 192.5t-194 68.5q-127 0 -197.5 -72.5t-70.5 -199.5q0 -120 73.5 -189.5t193.5 -69.5z" />
    <glyph glyph-name="Oacute" unicode="&#xd3;" horiz-adv-x="859" 
d="M510 923q39 0 39 -40q0 -34 -56 -88.5t-91 -54.5q-31 0 -31 30q0 36 51.5 94.5t87.5 58.5zM837 357q0 -179 -117 -280q-112 -94 -295 -94t-293 91q-58 49 -88 119t-30 161q0 174 119 275q112 94 291 94q180 0 293 -90q120 -96 120 -276zM424 89q127 0 196.5 71t69.5 199
q0 124 -71 192.5t-194 68.5q-127 0 -197.5 -72.5t-70.5 -199.5q0 -120 73.5 -189.5t193.5 -69.5z" />
    <glyph glyph-name="Ocircumflex" unicode="&#xd4;" horiz-adv-x="859" 
d="M418 929l225 -110l-44 -76q-100 57 -174 106q-44 -27 -89.5 -53t-95.5 -52l-42 80zM837 357q0 -179 -117 -280q-112 -94 -295 -94t-293 91q-58 49 -88 119t-30 161q0 174 119 275q112 94 291 94q180 0 293 -90q120 -96 120 -276zM424 89q127 0 196.5 71t69.5 199
q0 124 -71 192.5t-194 68.5q-127 0 -197.5 -72.5t-70.5 -199.5q0 -120 73.5 -189.5t193.5 -69.5z" />
    <glyph glyph-name="Otilde" unicode="&#xd5;" horiz-adv-x="859" 
d="M315 898q38 0 97.5 -38.5t91.5 -38.5t65 29q19 18 49 55q9 -20 28 -35.5t38 -21.5q-51 -55 -79 -77q-50 -38 -102 -38q-42 0 -104 37t-85 37q-33 0 -69 -36l-33 -35q-21 39 -61 52q42 50 71 74q45 36 93 36zM837 357q0 -179 -117 -280q-112 -94 -295 -94t-293 91
q-58 49 -88 119t-30 161q0 174 119 275q112 94 291 94q180 0 293 -90q120 -96 120 -276zM424 89q127 0 196.5 71t69.5 199q0 124 -71 192.5t-194 68.5q-127 0 -197.5 -72.5t-70.5 -199.5q0 -120 73.5 -189.5t193.5 -69.5z" />
    <glyph glyph-name="Odieresis" unicode="&#xd6;" horiz-adv-x="859" 
d="M431 723q179 0 289 -91q117 -96 117 -274q0 -186 -124 -285q-113 -90 -304 -90q-174 0 -283 97q-112 101 -112 273q0 177 122 277q114 93 295 93zM418 89q127 0 199.5 68t72.5 193q0 129 -69.5 199.5t-198.5 70.5q-126 0 -195.5 -72.5t-69.5 -199.5q0 -116 72.5 -187.5
t188.5 -71.5zM316 915q31 0 55.5 -20t24.5 -50q0 -33 -22 -55t-56 -22t-56.5 19.5t-22.5 52.5t21.5 54t55.5 21zM535 914q32 0 55 -20t23 -52q0 -34 -22 -54.5t-57 -20.5q-32 0 -54.5 21.5t-22.5 54.5q0 30 23.5 50.5t54.5 20.5z" />
    <glyph glyph-name="Oslash" unicode="&#xd8;" horiz-adv-x="859" 
d="M802 709l44 -51l-85 -73q39 -49 58 -107.5t19 -129.5q0 -176 -121 -275q-112 -91 -294 -91q-142 0 -266 73l-89 -76l-43 49l78 71q-21 31 -34 52q-9 15 -22 38q-34 68 -34 163q0 185 129 283q116 87 309 87q68 0 140 -23.5t124 -65.5zM628 556q-36 35 -93 51
q-31 8 -57.5 12t-58.5 4q-127 0 -199 -67t-72 -193q0 -55 11 -100t38 -82zM428 85q134 0 202 69.5t68 204.5q0 67 -31 144l-420 -369q49 -29 87.5 -39t93.5 -10z" />
    <glyph glyph-name="Ugrave" unicode="&#xd9;" horiz-adv-x="818" 
d="M312 922q36 0 85 -59.5t49 -95.5q0 -27 -30 -27q-34 0 -91 52.5t-57 88.5q0 20 12 30.5t32 10.5zM250 709q-34 -26 -46 -54q-10 -28 -10 -74v-293q0 -104 51 -150t159 -46q123 0 172 51t49 177v247q0 53 -11 82q-10 32 -48 60h245q-34 -24 -45 -50q-5 -12 -8 -29.5
t-3 -40.5v-306q0 -140 -58 -207t-198 -89l-63 -4q-172 0 -259 50q-114 65 -114 224v327q0 47 -11 72q-9 26 -43 53h241z" />
    <glyph glyph-name="Uacute" unicode="&#xda;" horiz-adv-x="818" 
d="M490 923q40 0 40 -40q0 -33 -57 -88t-92 -55q-13 0 -22 9q-6 8 -8 24q0 37 51.5 93.5t87.5 56.5zM250 709q-34 -26 -46 -54q-10 -28 -10 -74v-293q0 -104 51 -150t159 -46q123 0 172 51t49 177v247q0 53 -11 82q-10 32 -48 60h245q-34 -24 -45 -50q-5 -12 -8 -29.5
t-3 -40.5v-306q0 -140 -58 -207t-198 -89l-63 -4q-172 0 -259 50q-114 65 -114 224v327q0 47 -11 72q-9 26 -43 53h241z" />
    <glyph glyph-name="Ucircumflex" unicode="&#xdb;" horiz-adv-x="818" 
d="M399 929l224 -110l-43 -75q-94 55 -175 106q-83 -53 -185 -106l-42 80zM250 709q-34 -26 -46 -54q-10 -28 -10 -74v-293q0 -104 51 -150t159 -46q123 0 172 51t49 177v247q0 53 -11 82q-10 32 -48 60h245q-34 -24 -45 -50q-5 -12 -8 -29.5t-3 -40.5v-306q0 -140 -58 -207
t-198 -89l-63 -4q-172 0 -259 50q-114 65 -114 224v327q0 47 -11 72q-9 26 -43 53h241z" />
    <glyph glyph-name="Udieresis" unicode="&#xdc;" horiz-adv-x="818" 
d="M247 709q-31 -24 -42 -52.5t-11 -69.5v-310q0 -97 57 -144q51 -42 153 -42q131 0 179 58q42 51 42 188v222q0 57 -8 82q-11 40 -47 66l237 1q-31 -24 -41.5 -53.5t-10.5 -71.5v-287v-45q0 -140 -99 -209q-86 -59 -233 -59q-169 0 -254 53q-106 67 -106 226v311
q0 50 -9 78t-45 58h238zM306 916q26 0 48 -23.5t22 -49.5q0 -30 -23 -53q-10 -10 -23 -16t-29 -6q-34 0 -59 19q-23 20 -23 56q0 35 25 54t62 19zM518 914q35 0 56 -20t21 -56q0 -33 -26.5 -52t-63.5 -19q-29 0 -49 23t-20 52q0 31 24 52q12 10 26 15t32 5z" />
    <glyph glyph-name="germandbls" unicode="&#xdf;" horiz-adv-x="639" 
d="M328 731q106 0 175 -42q82 -52 82 -152q0 -48 -29 -91.5t-74 -63.5q66 -27 95 -70.5t29 -113.5q0 -102 -59 -158t-162 -56h-20q-11 3 -16 4q-48 9 -62 9l-12 -3l-15 -7v137l53 -28q29 -12 60 -12q51 0 82 28.5t31 80.5q0 66 -36.5 99.5t-103.5 33.5l-49 -3q-9 0 -18 -3
t-21 -9l1 125l27 -11q9 -3 30 -5q64 0 100 20q47 26 47 84q0 54 -33 81t-88 27q-99 0 -138 -64q-30 -50 -30 -157v-438q0 -40 9.5 -66t36.5 -52h-207q26 19 38 57q3 14 5 31.5t2 40.5v418q0 159 53 236q63 93 217 93z" />
    <glyph glyph-name="agrave" unicode="&#xe0;" 
d="M235 710q33 0 84 -57.5t51 -91.5q0 -12 -6.5 -21.5t-21.5 -9.5q-35 0 -93.5 51t-58.5 89q0 17 12.5 28.5t32.5 11.5zM482 309q-7 60 -38.5 85.5t-93.5 25.5q-71 0 -154 -21.5t-149 -54.5l52 155q9 -4 17.5 -6t20.5 -2q35 0 144 16q29 4 48.5 6t38.5 2q84 0 132 -21
q64 -27 86 -98q6 -25 9 -53l3 -63l-1 -77q0 -83 12 -125.5t36 -77.5h-87q-18 0 -34 9.5t-29 28.5q-47 -29 -107.5 -43.5t-124.5 -14.5q-104 0 -166 29q-89 39 -89 129q0 117 191 154q90 17 283 17zM412 222q-128 0 -196 -23.5t-68 -68.5q0 -39 46 -58q36 -13 81 -13
q88 0 141 31q68 39 68 120v12h-72z" />
    <glyph glyph-name="aacute" unicode="&#xe1;" 
d="M414 711q17 0 28 -11t11 -28q0 -34 -56 -88.5t-91 -54.5q-31 0 -31 30q0 35 51.5 93.5t87.5 58.5zM482 309q-7 60 -38.5 85.5t-93.5 25.5q-71 0 -154 -21.5t-149 -54.5l52 155q9 -4 17.5 -6t20.5 -2q35 0 144 16q29 4 48.5 6t38.5 2q84 0 132 -21q64 -27 86 -98
q6 -25 9 -53l3 -63l-1 -77q0 -83 12 -125.5t36 -77.5h-87q-18 0 -34 9.5t-29 28.5q-47 -29 -107.5 -43.5t-124.5 -14.5q-104 0 -166 29q-89 39 -89 129q0 117 191 154q90 17 283 17zM412 222q-128 0 -196 -23.5t-68 -68.5q0 -39 46 -58q36 -13 81 -13q88 0 141 31
q68 39 68 120v12h-72z" />
    <glyph glyph-name="acircumflex" unicode="&#xe2;" 
d="M321 716l223 -111l-43 -76l-173 104l-186 -102l-44 78zM482 309q-7 60 -38.5 85.5t-93.5 25.5q-71 0 -154 -21.5t-149 -54.5l52 155q9 -4 17.5 -6t20.5 -2q35 0 144 16q29 4 48.5 6t38.5 2q84 0 132 -21q64 -27 86 -98q6 -25 9 -53l3 -63l-1 -77q0 -83 12 -125.5
t36 -77.5h-87q-18 0 -34 9.5t-29 28.5q-47 -29 -107.5 -43.5t-124.5 -14.5q-104 0 -166 29q-89 39 -89 129q0 117 191 154q90 17 283 17zM412 222q-128 0 -196 -23.5t-68 -68.5q0 -39 46 -58q36 -13 81 -13q88 0 141 31q68 39 68 120v12h-72z" />
    <glyph glyph-name="atilde" unicode="&#xe3;" 
d="M231 703q29 0 91.5 -32.5t81.5 -32.5q20 0 50 24l41 42q17 -23 26 -31l35 -21l-61 -66q-39 -36 -81 -36q-35 0 -76 20q-94 44 -111 44q-22 0 -46 -23l-35 -40q-11 18 -27 31t-37 19q65 69 83 81q32 21 66 21zM481 310q-7 60 -38.5 85.5t-93.5 25.5q-71 0 -154 -21.5
t-149 -54.5l52 155q9 -4 17.5 -6t20.5 -2q35 0 144 16q29 4 48.5 6t38.5 2q84 0 132 -21q64 -27 86 -98q6 -25 9 -53l3 -63l-1 -77q0 -83 12 -125.5t36 -77.5h-87q-18 0 -34 9.5t-29 28.5q-47 -29 -107.5 -43.5t-124.5 -14.5q-104 0 -166 29q-89 39 -89 129q0 117 191 154
q90 17 283 17zM411 223q-128 0 -196 -23.5t-68 -68.5q0 -39 46 -58q36 -13 81 -13q88 0 141 31q68 39 68 120v12h-72z" />
    <glyph glyph-name="adieresis" unicode="&#xe4;" 
d="M348 420q-71 0 -152 -23q-51 -15 -147 -51l52 154q25 -10 42 -10q39 0 119.5 12.5t109.5 12.5q126 0 180 -60q49 -57 49 -183l-2 -111q0 -47 5 -76.5t23 -56.5l19 -29h-83q-43 0 -65 40q-28 -16 -57.5 -27.5t-58.5 -19.5q-56 -14 -128 -14q-96 0 -160 32q-86 42 -86 127
q0 80 95 125q43 19 86 29q54 13 115 13l177 4q0 63 -34 87.5t-99 24.5zM148 132q0 -38 38 -57q30 -15 73 -15q92 0 147 26q78 36 78 116l1 21h-42q-109 0 -170 -11q-125 -21 -125 -80zM208 702q33 0 56 -20q24 -18 24 -53q0 -33 -22 -53.5t-55 -20.5q-34 0 -57 20t-23 53
q0 31 23 52.5t54 21.5zM429 699q32 0 55 -20.5t23 -53.5q0 -32 -23 -52t-55 -20q-34 0 -57 20t-23 53t23 53t57 20z" />
    <glyph glyph-name="aring" unicode="&#xe5;" 
d="M338 420q-61 0 -140 -20.5t-148 -51.5l50 151q13 -5 19.5 -6.5t15.5 -1.5q40 0 120 12q26 4 63.5 8.5t52.5 4.5q34 0 46.5 -1.5t41 -8t59.5 -27.5q47 -31 68 -88q15 -42 15 -112l-1 -58l-1 -60q0 -57 7.5 -88.5t36.5 -72.5h-83q-20 0 -36 10.5t-27 28.5
q-52 -31 -108.5 -46t-123.5 -15q-49 0 -91 7t-75 22q-90 39 -90 129q0 83 95 126q44 20 87 30q54 13 114 13l178 4q-12 71 -41 91t-104 20zM433 224q-106 0 -164 -11q-119 -21 -119 -79q0 -39 39 -59q31 -14 75 -14q89 0 145 27q75 36 75 118l-1 18h-50zM321 728
q38 0 66 -29.5t28 -66.5q0 -40 -28.5 -65.5t-67.5 -25.5q-35 0 -63 27t-28 64q0 38 27 68q28 28 66 28zM319 587q19 0 34 14t15 34q0 15 -12.5 30.5t-30.5 15.5q-21 0 -37 -13t-16 -35q0 -18 14 -32t33 -14z" />
    <glyph glyph-name="ae" unicode="&#xe6;" horiz-adv-x="1058" 
d="M449 311q-12 65 -37.5 87.5t-91.5 22.5q-61 0 -148 -24q-37 -10 -70 -21t-73 -29l50 153q15 -9 34 -9q31 0 45.5 1.5t41.5 6.5q57 9 93 14t51 5q60 0 108.5 -18.5t82.5 -62.5q48 39 100 58.5t113 19.5q135 0 204.5 -70t69.5 -204v-45l-18 6l-17 3h-411q0 -60 66 -96
q54 -28 120 -28q64 0 121 12q74 15 111 47l-1 -152q-21 12 -40 12h-43q-22 -3 -33 -4l-126 -9q-91 0 -140.5 17t-109.5 77q-45 -52 -119 -78q-66 -22 -142 -22q-102 0 -163 29q-86 39 -86 129q0 85 107 131q83 34 180 34l93 3zM130 133q0 -33 43 -52q34 -13 73 -13
q42 0 74 7t62 25q69 39 69 113v15h-10q-159 0 -235 -23t-76 -72zM904 298q-12 61 -47 95.5t-96 34.5q-70 0 -117.5 -32t-66.5 -98h327z" />
    <glyph glyph-name="ccedilla" unicode="&#xe7;" horiz-adv-x="539" 
d="M163 -132q61 -29 128 -29q12 0 28 6t16 18q0 21 -22 27.5t-52 6.5l-50 -3l43 78q13 -6 43.5 -9.5t61.5 -3.5q89 0 89 -72q0 -53 -47 -81q-40 -23 -96 -23q-24 0 -93 9l-57 5q-21 0 -36 -4zM515 508q14 0 31 8l-37 -146q-24 26 -70.5 39t-86.5 13q-90 0 -145 -40
q-62 -45 -62 -133q0 -80 55 -123q49 -38 132 -38q61 0 100 10q54 12 89 47v-142l-24 3q-26 0 -116 -12q-45 -6 -71 -6q-123 0 -204 66q-87 71 -87 192q0 141 109 213q93 60 244 60q30 0 43 -1q29 -5 46 -6z" />
    <glyph glyph-name="egrave" unicode="&#xe8;" horiz-adv-x="619" 
d="M215 710q33 0 83.5 -57.5t50.5 -91.5q0 -31 -28 -31q-39 0 -94.5 53t-55.5 92q0 15 14 25t30 10zM605 194l-18 6l-19 3h-425q0 -35 19 -61t54 -42q50 -22 133 -22q73 0 120 10q65 13 110 48v-147l-22 6l-12 1q-33 0 -128 -9l-78 -5q-150 0 -227 49q-95 60 -95 202
q0 139 92 213q85 68 227 68q120 0 194.5 -69t74.5 -189v-62zM487 296q-15 66 -50.5 98t-104.5 32q-72 0 -118 -30.5t-70 -99.5h343z" />
    <glyph glyph-name="eacute" unicode="&#xe9;" horiz-adv-x="619" 
d="M394 711q16 0 28 -11t12 -28q0 -36 -56.5 -89.5t-91.5 -53.5q-31 0 -31 33q0 34 51.5 91.5t87.5 57.5zM605 194l-18 6l-19 3h-425q0 -35 19 -61t54 -42q50 -22 133 -22q73 0 120 10q65 13 110 48v-147l-22 6l-12 1q-33 0 -128 -9l-78 -5q-150 0 -227 49q-95 60 -95 202
q0 139 92 213q85 68 227 68q120 0 194.5 -69t74.5 -189v-62zM487 296q-15 66 -50.5 98t-104.5 32q-72 0 -118 -30.5t-70 -99.5h343z" />
    <glyph glyph-name="ecircumflex" unicode="&#xea;" horiz-adv-x="619" 
d="M302 716l222 -111l-43 -76l-173 104l-186 -102l-44 78zM605 194l-18 6l-19 3h-425q0 -35 19 -61t54 -42q50 -22 133 -22q73 0 120 10q65 13 110 48v-147l-22 6l-12 1q-33 0 -128 -9l-78 -5q-150 0 -227 49q-95 60 -95 202q0 139 92 213q85 68 227 68q120 0 194.5 -69
t74.5 -189v-62zM487 296q-15 66 -50.5 98t-104.5 32q-72 0 -118 -30.5t-70 -99.5h343z" />
    <glyph glyph-name="edieresis" unicode="&#xeb;" horiz-adv-x="619" 
d="M190 700q34 0 57 -18.5t23 -52.5q0 -32 -21.5 -53.5t-54.5 -21.5q-34 0 -57.5 20.5t-23.5 54.5q0 31 23 51t54 20zM407 699q34 0 57.5 -18.5t23.5 -52.5t-23 -54t-57 -20q-32 0 -55 20q-22 22 -22 53t22 51.5t54 20.5zM606 194l-18 6l-19 3h-425q0 -35 19 -61t54 -42
q50 -22 133 -22q73 0 120 10q65 13 110 48v-147l-22 6l-12 1q-33 0 -128 -9l-78 -5q-150 0 -227 49q-95 60 -95 202q0 139 92 213q85 68 227 68q120 0 194.5 -69t74.5 -189v-62zM488 296q-15 66 -50.5 98t-104.5 32q-72 0 -118 -30.5t-70 -99.5h343z" />
    <glyph glyph-name="igrave" unicode="&#xec;" horiz-adv-x="259" 
d="M40 710q34 0 84.5 -57.5t50.5 -91.5q0 -31 -28 -31q-40 0 -95.5 52.5t-55.5 92.5q0 15 14 25t30 10zM72 132v243q0 35 -9 65q-12 38 -37 53l190 -1q-13 -15 -18 -30q-3 -14 -3 -39l-1 -300q0 -46 6.5 -63.5t36.5 -58.5h-214q29 26 39 57.5t10 73.5z" />
    <glyph glyph-name="iacute" unicode="&#xed;" horiz-adv-x="259" 
d="M220 711q16 0 28 -11t12 -28q0 -36 -56.5 -89.5t-91.5 -53.5q-31 0 -31 32q0 37 51.5 93.5t87.5 56.5zM72 132v243q0 35 -9 65q-12 38 -37 53l190 -1q-13 -15 -18 -30q-3 -14 -3 -39l-1 -300q0 -46 6.5 -63.5t36.5 -58.5h-214q29 26 39 57.5t10 73.5z" />
    <glyph glyph-name="icircumflex" unicode="&#xee;" horiz-adv-x="259" 
d="M128 716l222 -111l-43 -76l-172 104l-187 -102l-44 78zM72 132v243q0 35 -9 65q-12 38 -37 53l190 -1q-13 -15 -18 -30q-3 -14 -3 -39l-1 -300q0 -46 6.5 -63.5t36.5 -58.5h-214q29 26 39 57.5t10 73.5z" />
    <glyph glyph-name="idieresis" unicode="&#xef;" horiz-adv-x="259" 
d="M16 700q34 0 57 -18.5t23 -52.5q0 -32 -21.5 -53.5t-54.5 -21.5q-36 0 -58.5 19.5t-22.5 55.5q0 31 23 51t54 20zM232 699q21 0 35 -4.5t26 -15.5q22 -20 22 -58q0 -30 -24.5 -48.5t-56.5 -18.5t-55 20q-22 22 -22 53q0 30 21 51t54 21zM72 132v243q0 35 -9 65
q-12 38 -37 53l190 -1q-13 -15 -18 -30q-3 -14 -3 -39l-1 -300q0 -46 6.5 -63.5t36.5 -58.5h-214q29 26 39 57.5t10 73.5z" />
    <glyph glyph-name="ntilde" unicode="&#xf1;" horiz-adv-x="679" 
d="M240 703q31 0 89.5 -32.5t86.5 -32.5q20 0 49 24q13 10 40 41q11 -19 25 -29.5t36 -21.5l-62 -66q-41 -36 -81 -36q-35 0 -75 20q-93 44 -112 44q-16 0 -35 -13q-10 -7 -46 -49q-9 19 -26 30q-15 12 -38 19l65 67q41 35 84 35zM58 383q0 37 -9 60l-30 52l70 -2l41 3
q17 3 31 13v-67q46 35 106 53t124 18q25 0 38 -1t40 -6.5t59 -23.5q53 -30 75 -81q19 -44 19 -110l-3 -76l-2 -56q0 -50 9 -88t38 -71h-213q32 26 44 64q7 28 7 79v132q0 79 -33.5 109.5t-115.5 30.5q-71 0 -117 -25q-60 -33 -60 -98v-185q0 -60 43 -106l-209 -1
q30 30 39 57t9 75v251z" />
    <glyph glyph-name="ograve" unicode="&#xf2;" 
d="M235 710q33 0 84 -57.5t51 -91.5q0 -12 -6.5 -21.5t-21.5 -9.5q-35 0 -93.5 51t-58.5 89q0 17 12.5 28.5t32.5 11.5zM645 241q0 -129 -100 -198q-88 -59 -223 -59q-132 0 -215 62q-92 69 -92 199q0 129 97 199q85 61 220 61q138 0 220 -61q93 -69 93 -203zM518 249
q0 81 -56 127q-52 41 -136 41q-82 0 -133 -45.5t-51 -129.5q0 -77 51.5 -121.5t130.5 -44.5q89 0 139 41q55 46 55 132z" />
    <glyph glyph-name="oacute" unicode="&#xf3;" 
d="M414 711q17 0 28 -11t11 -28q0 -34 -56 -88.5t-91 -54.5q-31 0 -31 30q0 35 51.5 93.5t87.5 58.5zM645 241q0 -129 -100 -198q-88 -59 -223 -59q-132 0 -215 62q-92 69 -92 199q0 129 97 199q85 61 220 61q138 0 220 -61q93 -69 93 -203zM518 249q0 81 -56 127
q-52 41 -136 41q-82 0 -133 -45.5t-51 -129.5q0 -77 51.5 -121.5t130.5 -44.5q89 0 139 41q55 46 55 132z" />
    <glyph glyph-name="ocircumflex" unicode="&#xf4;" 
d="M321 716l223 -111l-43 -76l-173 104l-186 -102l-44 78zM645 241q0 -129 -100 -198q-88 -59 -223 -59q-132 0 -215 62q-92 69 -92 199q0 129 97 199q85 61 220 61q138 0 220 -61q93 -69 93 -203zM518 249q0 81 -56 127q-52 41 -136 41q-82 0 -133 -45.5t-51 -129.5
q0 -77 51.5 -121.5t130.5 -44.5q89 0 139 41q55 46 55 132z" />
    <glyph glyph-name="otilde" unicode="&#xf5;" 
d="M231 703q29 0 91.5 -32.5t81.5 -32.5q20 0 50 24l41 42q17 -23 26 -31l35 -21l-61 -66q-39 -36 -81 -36q-35 0 -76 20q-94 44 -111 44q-22 0 -46 -23l-35 -40q-11 18 -27 31t-37 19q65 69 83 81q32 21 66 21zM644 242q0 -129 -100 -198q-88 -59 -223 -59q-132 0 -215 62
q-92 69 -92 199q0 129 97 199q85 61 220 61q138 0 220 -61q93 -69 93 -203zM517 250q0 81 -56 127q-52 41 -136 41q-82 0 -133 -45.5t-51 -129.5q0 -77 51.5 -121.5t130.5 -44.5q89 0 139 41q55 46 55 132z" />
    <glyph glyph-name="odieresis" unicode="&#xf6;" 
d="M338 505q133 0 216 -63q91 -70 91 -201q0 -128 -95 -196q-84 -60 -218 -60q-135 0 -221 60q-96 68 -96 200q0 129 99 200q86 60 224 60zM328 75q86 0 136 41q54 44 54 129q0 82 -57 129q-51 42 -137 42q-77 0 -129.5 -44.5t-52.5 -120.5q0 -84 50.5 -130t135.5 -46z
M222 702q34 0 57 -20.5t23 -54.5q0 -30 -23.5 -50.5t-54.5 -20.5q-32 0 -56 20t-24 52t22.5 53t55.5 21zM440 700q34 0 57 -18.5t23 -53.5q0 -32 -21.5 -53.5t-53.5 -21.5q-33 0 -59 20q-24 21 -24 55q0 30 22.5 51t55.5 21z" />
    <glyph glyph-name="divide" unicode="&#xf7;" horiz-adv-x="509" 
d="M-10 282h510v-53h-510v53zM240 442q21 0 37.5 -16t16.5 -38q0 -21 -16 -37.5t-38 -16.5q-21 0 -37.5 16t-16.5 38q0 21 16 37.5t38 16.5zM240 178q22 0 38 -16.5t16 -38.5q0 -21 -16 -37.5t-38 -16.5q-21 0 -37.5 16t-16.5 38q0 20 15 37.5t39 17.5z" />
    <glyph glyph-name="oslash" unicode="&#xf8;" 
d="M585 511l43 -50l-49 -42q38 -50 51.5 -87.5t13.5 -98.5q0 -121 -97 -190q-86 -60 -214 -60q-59 0 -100 10q-19 4 -44.5 13t-53.5 22l-58 -49l-42 46l49 43q-38 38 -55 81q-14 42 -14 102q0 123 98 193q88 61 215 61q92 0 199 -45zM452 389q-23 17 -53.5 25t-63.5 8
q-91 0 -141 -41q-57 -45 -57 -134q0 -61 29 -107l176 157q52 46 110 92zM327 69q84 0 137 40q59 45 59 127q0 29 -6 59q-2 14 -6.5 25.5t-13.5 24.5l-285 -248q29 -14 56.5 -21t58.5 -7z" />
    <glyph glyph-name="ugrave" unicode="&#xf9;" horiz-adv-x="680" 
d="M245 710q33 0 83.5 -57.5t50.5 -91.5q0 -31 -29 -31q-35 0 -92.5 51t-57.5 89q0 17 12.5 28.5t32.5 11.5zM199 494q-9 -12 -15 -30q-5 -20 -5 -51v-168q0 -85 20 -119q27 -47 107 -47q84 0 133 31q58 38 58 119v132q0 33 -1.5 44t-6.5 27q-11 37 -38 61h188l-15 -29
q-6 -15 -6 -33v-281q0 -47 9 -82q5 -18 13.5 -34t24.5 -35h-101q-21 0 -36 12q-11 11 -22 36q-70 -35 -103 -46q-53 -17 -113 -17q-128 0 -180.5 54t-52.5 180l2 102q0 72 -12 110.5t-36 63.5h188z" />
    <glyph glyph-name="uacute" unicode="&#xfa;" horiz-adv-x="680" 
d="M424 711q15 0 27 -11.5t12 -27.5q0 -36 -56.5 -89.5t-91.5 -53.5q-31 0 -31 30q0 36 52 94t88 58zM199 494q-9 -12 -15 -30q-5 -20 -5 -51v-168q0 -85 20 -119q27 -47 107 -47q84 0 133 31q58 38 58 119v132q0 33 -1.5 44t-6.5 27q-11 37 -38 61h188l-15 -29
q-6 -15 -6 -33v-281q0 -47 9 -82q5 -18 13.5 -34t24.5 -35h-101q-21 0 -36 12q-11 11 -22 36q-70 -35 -103 -46q-53 -17 -113 -17q-128 0 -180.5 54t-52.5 180l2 102q0 72 -12 110.5t-36 63.5h188z" />
    <glyph glyph-name="ucircumflex" unicode="&#xfb;" horiz-adv-x="680" 
d="M331 716l222 -111l-43 -76l-172 104l-186 -102l-44 78zM199 494q-9 -12 -15 -30q-5 -20 -5 -51v-168q0 -85 20 -119q27 -47 107 -47q84 0 133 31q58 38 58 119v132q0 33 -1.5 44t-6.5 27q-11 37 -38 61h188l-15 -29q-6 -15 -6 -33v-281q0 -47 9 -82q5 -18 13.5 -34
t24.5 -35h-101q-21 0 -36 12q-11 11 -22 36q-70 -35 -103 -46q-53 -17 -113 -17q-128 0 -180.5 54t-52.5 180l2 102q0 72 -12 110.5t-36 63.5h188z" />
    <glyph glyph-name="udieresis" unicode="&#xfc;" horiz-adv-x="680" 
d="M197 494q-17 -28 -17 -66v-224q0 -125 124 -125q79 0 129 28q64 37 64 108v158q0 38 -11 66q-9 29 -35 55h188l-15 -30q-6 -14 -6 -27v-294q0 -23 2 -39.5t8 -37.5q10 -32 37 -65h-102q-22 0 -39 14q-16 16 -16 37q-77 -38 -107 -49q-51 -18 -117 -18q-128 0 -181 62
q-48 57 -48 186l3 100q0 54 -7 86q-11 50 -40 75h186zM229 703q34 0 57.5 -20t23.5 -53q0 -31 -23 -52.5t-55 -21.5q-34 0 -57.5 18.5t-23.5 51.5t21 55t57 22zM448 701q34 0 57 -18.5t23 -52.5q0 -33 -24 -56q-23 -20 -59 -20q-29 0 -53 21q-10 10 -16 23t-6 29
q0 31 23 52.5t55 21.5z" />
    <glyph glyph-name="ydieresis" unicode="&#xff;" horiz-adv-x="679" 
d="M219 700q35 0 57.5 -18.5t22.5 -53.5q0 -30 -21 -52t-53 -22q-37 0 -60 19.5t-23 55.5q0 31 23 51t54 20zM436 699q39 0 60.5 -20t21.5 -58q0 -30 -24.5 -48.5t-56.5 -18.5q-33 0 -54.5 20t-21.5 53q0 30 21 51t54 21zM210 497l-14 -19q-5 -11 -7 -23q0 -22 72 -135
l94 -142l98 145q73 114 73 143q0 16 -16 28h194l-58 -65l-31 -43l-260 -393l-31 -52q-19 -38 -19 -55l3 -18l10 -19h-244q61 30 118 96q35 40 89 125l-115 176l-85 133q-52 74 -105 118h234z" />
    <glyph glyph-name="dotlessi" unicode="&#x131;" horiz-adv-x="259" 
d="M72 132v243q0 35 -9 65q-12 38 -37 53l190 -1q-13 -15 -18 -30q-3 -14 -3 -39l-1 -300q0 -46 6.5 -63.5t36.5 -58.5h-214q29 26 39 57.5t10 73.5z" />
    <glyph glyph-name="OE" unicode="&#x152;" horiz-adv-x="1039" 
d="M507 707h490q-6 -14 -6 -23q0 -22 16 -74l24 -76q-39 39 -95 52.5t-122 13.5h-173v-181h187q20 0 36 4l41 14l-40 -68l-27 -39q-21 -23 -66 -23l-132 3v-201h184q34 0 63 3t61 11q60 13 107 46l-29 -70q-20 -51 -20 -70q0 -14 9 -28l-520 1q36 27 36 69
q-49 -41 -100.5 -63.5t-115.5 -22.5q-148 0 -231 110q-75 99 -75 253q0 160 76 261q84 113 240 113q125 0 208 -89q-3 23 -8.5 39.5t-17.5 34.5zM330 97q95 0 143 82q37 68 37 171q0 100 -36 171q-45 90 -138 90t-144 -87q-42 -72 -42 -172q0 -98 39 -169q48 -86 141 -86z
" />
    <glyph glyph-name="oe" unicode="&#x153;" horiz-adv-x="1078" 
d="M775 509q132 0 202 -61q74 -65 74 -195v-63l-17 8q-6 3 -14 3h-422q15 -71 77 -101q49 -23 129 -23q65 0 118 12.5t102 43.5l-1 -147q-11 4 -21 6t-23 2q-33 -3 -61 -5t-62 -2l-75 -4q-83 0 -138 18t-109 72q-44 -48 -106 -71q-51 -18 -127 -18q-133 0 -216 63
q-91 70 -91 202q0 123 94 193q84 63 214 63q39 0 70 -5t65 -18q63 -21 107 -71q35 47 100 72.5t131 25.5zM300 76q81 0 133.5 43.5t52.5 123.5q0 77 -52 124.5t-131 47.5q-78 0 -130 -45t-52 -124q0 -77 51 -123.5t128 -46.5zM931 292q-9 59 -45 93.5t-96 34.5
q-73 0 -119 -29.5t-67 -98.5h327z" />
    <glyph glyph-name="Scaron" unicode="&#x160;" horiz-adv-x="712" 
d="M292 0h-286v157h15q6 -32 19 -46q15 -13 45 -13h153l-3 27q-96 28 -152.5 94.5t-56.5 166.5q0 129 97 208q91 73 223 73t224 -72q98 -78 98 -209q0 -100 -54.5 -165.5t-156.5 -95.5l-2 -27h153q30 0 43 12.5t21 46.5h15v-157h-286l15 147q75 33 109 97q30 57 30 145
q0 109 -48 174q-55 73 -162 73q-105 0 -159 -72q-48 -63 -48 -175q0 -90 29 -145q33 -63 110 -97z" />
    <glyph glyph-name="Ydieresis" unicode="&#x178;" horiz-adv-x="818" 
d="M282 913h19q27 0 47 -22.5t20 -51.5q0 -32 -23.5 -52.5t-57.5 -20.5q-32 0 -55 20q-10 10 -16 23t-6 29q0 31 20.5 53t51.5 22zM506 913q36 0 57 -20q23 -18 23 -54q0 -30 -21.5 -51.5t-54.5 -21.5q-30 0 -55.5 19t-25.5 48q0 33 21 56.5t56 23.5zM241 709
q-14 -13 -19 -21t-6 -24q0 -21 52 -103q29 -46 66.5 -100t77.5 -106l183 256l17 30q7 18 7 30q0 9 -7 19q-3 5 -7.5 10t-9.5 9h253q-80 -64 -144 -155l-235 -324v-79q0 -62 8.5 -90.5t46.5 -61.5h-249q33 25 45.5 52.5t12.5 71.5v112l-239 339q-29 42 -58.5 74t-69.5 61h275
z" />
    <glyph glyph-name="florin" unicode="&#x192;" horiz-adv-x="509" 
d="M490 0h-482v53h482v-53zM490 337l-482 -224v61l420 193l-420 193v60l482 -223v-60z" />
    <glyph glyph-name="circumflex" unicode="&#x2c6;" horiz-adv-x="0" 
d="M2 716l222 -111l-43 -76l-172 104l-187 -102l-43 78z" />
    <glyph glyph-name="caron" unicode="&#x2c7;" horiz-adv-x="0" 
d="M-184 710l88 -51l87 -53l93 54l93 49l43 -78l-223 -107l-139 69l-85 40z" />
    <glyph glyph-name="tilde" unicode="&#x2dc;" horiz-adv-x="0" 
d="M-89 703q31 0 89.5 -32.5t86.5 -32.5q20 0 49 24q13 10 40 41q11 -19 25 -29.5t36 -21.5l-62 -66q-41 -36 -82 -36q-35 0 -76 20q-91 42 -107 44q-23 0 -48 -22l-36 -40q-9 19 -24.5 30t-39.5 19l64 67q41 35 85 35z" />
    <glyph glyph-name="endash" unicode="&#x2013;" 
d="M659 338q-33 -88 -41 -97q-21 -27 -57 -27l-493 -1q-23 0 -35 -3l-33 -15l22 62q24 60 80 60h472h27q10 3 17 4.5t14 4.5t27 12z" />
    <glyph glyph-name="emdash" unicode="&#x2014;" horiz-adv-x="619" 
d="M-24 334h672v-81h-672v81z" />
    <glyph glyph-name="quoteleft" unicode="&#x2018;" horiz-adv-x="240" 
d="M223 672q-26 -7 -48 -25.5t-22 -42.5q0 -12 34 -37t34 -61q0 -34 -29.5 -54.5t-65.5 -20.5q-43 0 -69.5 28t-26.5 72q0 47 19 85q5 11 87 112z" />
    <glyph glyph-name="quoteright" unicode="&#x2019;" horiz-adv-x="240" 
d="M98 549q0 14 -21 29q-46 29 -46 67q0 35 28.5 55.5t66.5 20.5q43 0 69.5 -29t26.5 -71q0 -46 -23 -89q-17 -35 -55 -74l-15 -16l-12 -18l-90 54q23 3 47 24.5t24 46.5z" />
    <glyph glyph-name="quotesinglbase" unicode="&#x201a;" horiz-adv-x="239" 
d="M32 -96q23 6 45 26.5t22 42.5q0 12 -34 37t-34 61t28.5 56.5t66.5 20.5q39 0 67 -28.5t28 -69.5q0 -44 -21 -88q-19 -44 -53 -77l-18 -16l-11 -17z" />
    <glyph glyph-name="quotedblleft" unicode="&#x201c;" horiz-adv-x="480" 
d="M213 675q-23 -3 -46.5 -25t-23.5 -46q0 -14 21 -28q46 -28 46 -72q0 -35 -32 -54q-15 -8 -29.5 -12t-35.5 -4q-39 0 -67 28q-26 29 -26 70q0 40 18 81t49 72l20 19q10 10 16 24zM465 676q-24 -5 -46.5 -25.5t-22.5 -44.5q0 -11 33 -34.5t33 -63.5q0 -34 -27 -53.5
t-63 -19.5q-47 0 -73 24.5t-26 73.5q0 47 15 78t51 71l21 23l16 26z" />
    <glyph glyph-name="quotedblright" unicode="&#x201d;" horiz-adv-x="480" 
d="M89 546q0 14 -33.5 37.5t-33.5 60.5q0 35 28.5 55.5t66.5 20.5q42 0 68 -29q27 -27 27 -72q0 -47 -18 -83q-12 -26 -52 -66l-19 -21l-15 -25l-90 56q24 3 47.5 23t23.5 43zM339 545q0 17 -33.5 39.5t-33.5 57.5q0 37 30 57t67 20q41 0 67 -29q27 -27 27 -70
q0 -47 -21 -88q-15 -29 -56 -71l-15 -17q-9 -11 -12 -19l-88 53q24 8 44 24q24 20 24 43z" />
    <glyph glyph-name="quotedblbase" unicode="&#x201e;" horiz-adv-x="480" 
d="M87 -27q0 12 -33.5 36t-33.5 61q0 33 27.5 54.5t64.5 21.5q43 0 70.5 -27.5t27.5 -73.5q0 -37 -15.5 -75.5t-40.5 -66.5l-26 -24q-15 -13 -22 -29l-87 52q24 8 46 27.5t22 43.5zM338 -27q0 12 -34 36.5t-34 60.5q0 35 27.5 55.5t64.5 20.5q45 0 72 -27.5t27 -73.5
t-20 -85q-19 -41 -55 -76l-15 -15l-14 -19l-88 53q26 7 47.5 25.5t21.5 44.5z" />
    <glyph glyph-name="dagger" unicode="&#x2020;" horiz-adv-x="500" 
d="M18 559q32 -17 99 -28q31 0 55 -3t51 -8q0 19 -3 43t-10 58q-12 62 -31 87h153q-19 -26 -31 -85l-18 -105l105 10q70 9 98 29v-143q-35 20 -104 29l-98 12l16 -74q18 -78 18 -126q0 -51 -21 -234q-10 -97 -10 -141q0 -20 10 -37l-94 1q15 17 15 40q0 54 -9.5 144.5
t-14.5 146t-5 82.5q0 46 11 96l23 103l-106 -11q-67 -9 -99 -31v145z" />
    <glyph glyph-name="daggerdbl" unicode="&#x2021;" horiz-adv-x="763" 
d="M656 3q0 -45 25 -64q21 -15 69 -15v-22h-297v22q48 0 70.5 15.5t22.5 63.5v672h-347v-671q0 -46 25 -65q20 -15 69 -15v-22h-298v22q49 0 69 14q25 19 25 65v607q0 45 -23 70.5t-69 25.5v22h750v-21q-45 0 -69 -25q-22 -25 -22 -72v-607z" />
    <glyph glyph-name="bullet" unicode="&#x2022;" horiz-adv-x="333" 
d="M297 353q0 -55 -37 -92.5t-91 -37.5q-55 0 -94 38.5t-39 91.5q0 52 39 91t94 39q54 0 91 -38.5t37 -91.5z" />
    <glyph glyph-name="ellipsis" unicode="&#x2026;" horiz-adv-x="1000" 
d="M219 0h-104v106h104v-106zM552 0h-104v106h104v-106zM885 0h-104v106h104v-106z" />
    <glyph glyph-name="perthousand" unicode="&#x2030;" horiz-adv-x="254" 
d="M50 -104q-20 0 -39 18t-19 41q0 15 13 28.5t29 13.5q13 0 29.5 -14.5t22.5 -16.5q15 0 22 41l4 54q0 24 -1 71t-1 69l-4 160v220q0 111 12 179q23 129 88 129q26 0 46 -15t20 -41q0 -18 -16 -29.5t-33 -11.5q-14 0 -27 10t-22 12q-10 0 -14 -8.5t-4 -21.5q5 -50 8.5 -100
t3.5 -94q0 -28 3 -67t3 -51l1 -105q0 -150 -8 -233q-15 -171 -55 -214q-8 -8 -29 -17q-16 -5 -33 -7z" />
    <glyph glyph-name="guilsinglleft" unicode="&#x2039;" horiz-adv-x="333" 
d="M245 108l-157 123v92l157 123v-88l-105 -81l105 -81v-88z" />
    <glyph glyph-name="guilsinglright" unicode="&#x203a;" horiz-adv-x="333" 
d="M88 196l105 81l-105 81v88l157 -123v-92l-157 -123v88z" />
    <glyph glyph-name="trademark" unicode="&#x2122;" horiz-adv-x="825" 
d="M296 653l3 -94l-18 -1v9q0 41 -37 56q-22 8 -73 8v-302q0 -16 14 -22q13 -4 19.5 -4.5t14.5 -0.5v-18h-155v18q21 0 32 3q18 6 18 24l-1 301q-54 0 -75 -9q-35 -15 -35 -63l-18 1l3 94h308zM437 653l129 -280l122 280h108v-18h-9q-19 0 -28 -5q-9 -3 -10 -19v-282
q0 -16 14 -22q13 -4 19.5 -4.5t14.5 -0.5v-18h-155v18q21 0 32 3q18 6 18 24v269l-130 -314h-18l-140 298v-253q0 -19 25 -25l25 -2v-18h-125v18q22 0 31 3q18 6 18 24v272q0 23 -12 29q-9 3 -26 5h-13v18h110z" />
    <glyph glyph-name="fraction" unicode="&#x2215;" horiz-adv-x="100" 
d="M244 708h66l-438 -707h-64z" />
    </font>
</defs>
</svg>
